<?xml version="1.0" encoding="iso-8859-1"?>
<!-- Generator: Adobe Illustrator 21.1.0, SVG Export Plug-In . SVG Version: 6.00 Build 0)  -->
<svg version="1.1" id="Layer_1" xmlns="http://www.w3.org/2000/svg" xmlns:xlink="http://www.w3.org/1999/xlink" x="0px" y="0px"
	 viewBox="0 0 300 370" style="enable-background:new 0 0 300 370;" xml:space="preserve">
	 <style>
    /* <![CDATA[ */
    .path {
  stroke-dasharray: 2000;
  stroke-dashoffset: 2000;
  animation: dash 40s linear;
  animation-fill-mode: forwards;
 
}

@keyframes dash {
  from {
    stroke-dashoffset: 2000;
  }
  to {
    stroke-dashoffset: 0;
  }
}
    /* ]]> */
  </style>
<g id="Vorm_12">
	<desc  xmlns:shape="http://adobe.com/products/shape"></desc>
	<path class="path" fill="none" stroke="#000" stroke-width="1" d="M156.335,243.112c-0.798-0.58-1.498-1.375-2.478-1.534c-2.39,3.174-4.926,6.446-8.419,8.37
		c-3.513,1.936-8.316,2.187-11.291-0.538c-13.083-12.008-26.203-24.016-39.322-36.024c6.022,12.582,12.044,25.163,18.03,37.709
		c8.531,17.779,17.206,36.168,18.138,55.847c6.165-9.463,1.505-21.937-3.298-32.153c-6.99-14.912-13.944-29.823-20.934-44.735
		c11.435,9.32,22.547,18.998,33.372,29.07c1.183-0.358,2.509-0.108,3.477,0.609c-0.681,2.437-1.398,4.875-2.115,7.348
		c4.875,1.039,6.524,7.492,5.018,12.223c-1.505,4.767-5.018,8.603-7.026,13.155c-1.971,4.552-1.9,10.861,2.402,13.406
		c0.287-7.241,2.151-14.41,5.448-20.862c2.796-5.413,6.452-12.367,2.402-16.883c-3.728-4.158-2.402-10.897,0.789-15.449
		c2.28-3.192,5.289-5.797,8.062-8.591C157.799,243.832,157.001,243.597,156.335,243.112z"/>
	<path class="path" fill="none" stroke="#000" stroke-width="1" d="M114.8,60.624c-0.05,0.582,0.058,1.096,0.195,1.643c33.157-4.661,67.21-3.191,99.443,5.838
		c8.388,2.366,16.811,5.269,23.837,10.431c7.062,5.162,12.618,12.904,13.478,21.579c1.039,10.323-4.552,20.037-9.965,28.891
		c-8.567,13.98-17.457,28.103-29.752,38.928c12.116-6.918,21.794-18.03,26.991-30.97c0.609,3.8,2.904,7.277,6.094,9.391
		c-5.914-11.47,1.936-27.601,14.589-30.038c-1.326-4.015,1.004-8.746,4.767-10.718s8.567-1.434,12.187,0.753
		c3.119,1.9,5.592,5.126,5.699,8.746c0.133,3.35-2.222,6.816-5.442,7.487c7.424-0.708,13.946,8.841,10.138,15.418
		c-2.007,3.549-6.022,5.735-7.635,9.463c9.463-1.756,14.661-14.768,8.961-22.582c-0.968-1.29-2.187-2.473-2.796-3.979
		c-0.789-1.936-0.573-4.086-0.753-6.165c-0.573-6.094-5.484-11.506-11.506-12.725c-6.022-1.183-12.617,1.936-15.485,7.348
		c-1.111,2.115-1.936,4.732-4.194,5.556c0.502-11.936,0.538-25.199-7.384-34.125c-4.732-5.341-11.578-8.209-18.281-10.61
		c-36.033-12.886-75.288-16.583-113.143-10.921C114.882,59.719,114.84,60.165,114.8,60.624z"/>
	<path class="path" fill="none" stroke="#000" stroke-width="1" d="M70.449,128.003c9.571,8.388,19.177,16.811,28.784,25.199c5.854,5.139-1.92,16.576,2.588,22.321
		c0.572-0.471,1.598-0.526,1.756-1.286c0.003-0.016,0.019-0.012,0.03-0.017c1.909-10.397,2.666-23.348-6.238-28.975
		c-9.069-5.699-18.174-11.65-25.235-19.679c-7.062-8.065-11.936-18.568-11.076-29.214c0.645-8.101,4.732-15.879,11.004-21.041
		c6.739-5.52,15.485-7.886,24.052-9.714c6.215-1.321,12.481-2.427,18.779-3.315c-0.123-0.469-0.234-0.915-0.211-1.415
		c0.025-0.536,0.115-1.055,0.073-1.589c-9.186,1.378-18.29,3.299-27.244,5.782c-8.925,2.473-18.281,5.879-23.801,13.334
		c-4.409,5.95-5.664,13.585-6.811,20.898c-0.394,2.617-0.824,5.269-0.609,7.922C57.007,115.78,63.961,122.339,70.449,128.003z"/>
	<path class="path" fill="none" stroke="#000" stroke-width="1" d="M93.564,209.067c-0.022,0.006-0.045,0.012-0.067,0.018c-23.371,6.165-46.778,12.331-70.149,18.496
		c-1.9,1.111,1.541,3.119,3.62,2.581c22.475-6.094,44.95-12.151,67.389-18.209c0.253-0.066,0.508-0.093,0.762-0.129
		C94.435,211.019,93.965,210.046,93.564,209.067z"/>
	<path class="path" fill="none" stroke="#000" stroke-width="1" d="M209.428,227.565c-0.033-0.011-0.065-0.021-0.098-0.032c-0.038-0.006-0.037-0.037-0.022-0.064
		c-0.791-1.977-1.603-3.94-2.66-5.784c-2.424-0.823-4.846-1.641-7.265-2.456c-3.334-1.111-6.918,0.215-10.108,1.613
		c-9.929,4.373-19.536,9.571-28.604,15.557c-1.47,0.968-3.083,2.007-4.839,1.936c-1.434-0.036-2.724-0.789-3.979-1.541
		c-14.195-8.531-28.389-17.062-42.62-25.594c-2.079-1.255-4.409-3.907-2.724-5.664c3.728-3.943,3.943-9.965,3.943-15.413v-16.31
		c-2.281,0.214-4.561,0.392-6.842,0.606c-0.271,0.66-1.206,0.715-1.733,1.175c0.226,0.279,0.472,0.55,0.761,0.8
		c4.445,3.835,4.588,10.538,4.373,16.417c-0.143,3.62-0.323,7.492-2.437,10.431c-2.476,3.431-6.837,4.732-10.912,5.799
		c0.403,0.985,0.882,1.96,1.58,2.762c2.869-0.361,5.764,1.05,8.365,2.48c16.738,9.049,33.476,18.097,50.179,27.182
		c0.905,0.112,1.589,0.753,2.296,1.325c0.767,0.621,1.688,0.894,2.601,1.2c1.118-1.131,2.2-2.291,3.172-3.539
		c0.008,0.047,0.017,0.094,0.025,0.141c0.548-0.866,1.317-1.496,2.313-1.819c0.238-0.077,0.481-0.131,0.726-0.181
		c-0.168-0.896-0.128-1.785,0.413-2.478c0.574-0.681,1.505-0.968,2.366-1.183c1.971-0.538,3.979-1.04,5.95-1.577
		c-0.502,0.681-1.004,1.398-1.505,2.079c-1.927-0.555-4.115,0.974-4.382,2.904c0.045,0.015,0.047,0.087-0.01,0.09
		c-0.001,0-0.002,0-0.003,0c-0.017,0.159-0.025,0.32-0.014,0.483c0.609,0.179,1.255,0.358,1.864,0.538
		c1.936-1.649,4.086-3.083,6.345-4.301c-0.574-0.215-1.111-0.43-1.685-0.645c0.824-0.036,1.685-0.036,2.545-0.072
		c-0.466-0.251-0.896-0.466-1.326-0.717c5.807-1.649,11.614-3.334,17.421-5.018c2.258-0.645,4.803-1.541,5.699-3.728
		c-3.871,1.649-7.994,2.76-12.187,3.19c0.466,0.179,0.681,0.824,0.394,1.255c-0.968-0.358-1.9-0.896-2.688-1.541
		c4.122-2.724,8.89-4.481,13.8-5.054c0.502-0.072,1.111-0.072,1.47,0.251c0.394,0.358,0.215,1.183-0.323,1.147
		c1.506,0,3.083,0.072,4.301,0.932c0.758,0.535,1.252,1.501,1.258,2.396c0.903,0.147,1.796,0.357,2.711,0.415
		c0.455,0.029,0.885,0.061,1.32-0.1c0.268-0.1,0.521-0.186,0.794-0.234C209.419,227.608,209.415,227.589,209.428,227.565z
		 M108.445,216.397l0.215-0.215c1.147,0.036,2.258,0.717,2.832,1.721C110.345,217.759,109.269,217.221,108.445,216.397z"/>
	<path class="path" fill="none" stroke="#000" stroke-width="1" d="M209.583,227.689c-0.43,0.049-0.775,0.264-1.194,0.36c-0.39,0.089-0.828,0.031-1.222,0.002
		c-0.86-0.064-1.704-0.269-2.554-0.411c-0.018,0.506-0.188,0.984-0.568,1.34c-9.391,8.603-18.747,17.206-28.103,25.809
		c-0.86,0.789-1.936,1.649-3.083,1.362c-0.681-0.143-1.183-0.717-1.649-1.29c-1.792-2.33-2.939-5.162-3.226-8.065
		c-0.86-2.151-1.685-4.301-2.545-6.488c-0.197-0.498-0.382-1.04-0.497-1.582c-1.222,0.265-2.31,0.813-3.037,2.014
		c1.022,5.675,2.044,11.35,3.031,17.025c0.896,5.09,1.255,11.506-3.19,14.195c-2.724,1.613-2.007,5.699-1.004,8.71
		c2.509,7.277,5.018,14.517,7.527,21.794c0.574,1.649,2.222,3.692,3.62,2.653c0.143-8.675-2.402-17.349-7.169-24.554
		c-3.441-5.198,7.348-10.754,5.484-16.704c1.613,1.864,3.262,3.692,4.911,5.556c-3.226-3.334,0.323-8.639,3.728-11.793
		c9.033-8.316,18.03-16.632,27.027-24.948c3.441,6.954-0.036,15.127-2.868,22.332c-6.345,15.915-9.642,33.013-9.714,50.147
		c-0.036,2.402,1.864,5.807,3.764,4.301c0-15.091,2.581-30.217,7.528-44.484C208.822,252.818,214.755,239.43,209.583,227.689z"/>
	<path class="path" fill="none" stroke="#000" stroke-width="1" d="M206.795,221.735c1.033,1.822,1.831,3.76,2.611,5.708c0.096,0.013,0.108,0.015,0.171,0.05
		c9.255,2.149,18.367,5.045,27.195,8.583c10.252,4.122,20.145,9.141,30.002,14.123c8.818,4.481,17.636,8.961,26.49,13.442
		C268.125,243.511,237.372,232.126,206.795,221.735z"/>
	<path class="path" fill="none" stroke="#000" stroke-width="1" d="M113.678,287.944c-0.717-0.215-0.932-1.29-0.358-1.756c0.394,0.143,0.824,0.287,1.255,0.43
		c0,0.358,0,0.717,0,1.075c-0.251,0.179-0.574,0.251-0.896,0.179"/>
	<path class="path" fill="none" stroke="#000" stroke-width="1" d="M156.478,313.323c0-0.574,0.574-1.111,1.147-1.04c0.609,0.036,1.075,0.681,0.968,1.255
		c-0.609,0.251-1.362,0.143-1.828-0.287"/>
	<path class="path" fill="none" stroke="#000" stroke-width="1" d="M158.485,292.532c0.251,0.287,0.251,0.789,0,1.075c-0.681,0.072-1.434-0.143-1.971-0.574
		c0.036-0.753,1.219-0.717,1.936-0.394"/>
	<path class="path" fill="none" stroke="#000" stroke-width="1" d="M203.04,245.933c0,0.502-0.179,1.004-0.502,1.434c-0.179-0.43-0.896-0.394-1.04,0.036
		c-0.502-0.86,0.609-2.043,1.505-1.613"/>
	<path class="path" fill="none" stroke="#000" stroke-width="1" d="M115.471,221.559c0.502,0.717,1.183,1.255,2.007,1.577c-0.681,0.215-1.398,0.43-2.043,0.215
		c-0.681-0.215-1.183-1.04-0.824-1.613c0.287-0.108,0.574-0.179,0.86-0.251"/>
	<path class="path" fill="none" stroke="#000" stroke-width="1" d="M198.416,253.282c0.036-0.43,0.072-0.824,0.143-1.255c0.681,0.179,1.362,0.358,2.043,0.538
		c-0.251,0.179-0.574,0.251-0.896,0.179c-0.215,0.502-0.287,1.075-0.179,1.613c-0.502,0.538-1.47-0.466-0.968-0.968"/>
	<path class="path" fill="none" stroke="#000" stroke-width="1" d="M118.41,55.237c0-0.538,0.215-1.111,0.645-1.434c0.609,0.789,0.574,2.007-0.036,2.796
		c-0.43-0.323-0.824-0.609-1.255-0.932c0.179-0.179,0.323-0.358,0.502-0.502"/>
	<path class="path" fill="none" stroke="#000" stroke-width="1" d="M248.062,106.46c-0.789-0.394-1.219-1.47-0.896-2.33c0.215-0.466,0.574-0.86,0.932-1.219
		C248.779,103.951,248.779,105.42,248.062,106.46"/>
	<path class="path" fill="none" stroke="#000" stroke-width="1" d="M201.499,248.443c0.215-0.538,1.219,0.036,0.86,0.502c-0.538,0.502-1.219,0.824-1.936,1.004
		c-0.251-0.681-0.251-1.398-0.036-2.079c0.072,0.323,0.143,0.717,0.43,0.86c0.287,0.143,0.753-0.143,0.609-0.43"/>
	<path class="path" fill="none" stroke="#000" stroke-width="1" d="M196.122,314.075c0.502,0.215,0.717,1.004,0.358,1.434c0-0.789-1.541-0.753-1.47,0.036
		c-0.394-0.681-0.358-1.577,0.072-2.222c0.215,0.394,0.609,0.681,1.04,0.789"/>
	<path class="path" fill="none" stroke="#000" stroke-width="1" d="M153.287,225.143c0.072,0.358,0.036,0.753-0.179,1.075c-0.645-0.287-1.255-0.609-1.9-0.932
		c0.251-0.681,0.86-1.255,1.577-1.541c0.143,0.466,0.287,0.932,0.466,1.434"/>
	<path class="path" fill="none" stroke="#000" stroke-width="1" d="M197.986,258.945c-0.323-0.932-0.466-1.971-0.394-2.939c0.574,0.215,1.111,0.538,1.613,0.932
		c-0.179,0.394-0.681,0.645-1.111,0.538c0.394,0.358,0.466,0.968,0.215,1.398"/>
	<path class="path" fill="none" stroke="#000" stroke-width="1" d="M116.904,95.67c-0.394-0.108-0.789-0.43-0.932-0.86c0.609-0.753,1.255-1.541,1.864-2.294
		c0.968,0.968,0.43,2.939-0.896,3.262"/>
	<path class="path" fill="none" stroke="#000" stroke-width="1" d="M136.261,222.67c0.358-0.108,0.717-0.036,1.004,0.179c-0.251,0.394-0.717,0.681-1.183,0.645
		c0.358,0.143,0.753,0.287,1.111,0.466c-0.358,0.466-1.111,0.466-1.613,0.108c-0.502-0.323-0.789-0.86-1.075-1.398
		c0.574,0,1.183-0.036,1.756-0.072"/>
	<path class="path" fill="none" stroke="#000" stroke-width="1" d="M153.932,233.459c0.574,0.215,1.183,0.502,1.541,1.004c0.323,0.538,0.215,1.398-0.394,1.577
		c-1.434-0.753-2.258-2.473-1.936-4.086c0.394,0.323,0.717,0.753,0.896,1.255"/>
	<path class="path" fill="none" stroke="#000" stroke-width="1" d="M199.886,187.685c-0.358,0.143-0.717,0.251-1.075,0.358c0.215,0,0.323,0.323,0.358,0.538
		c0.108,0.609,0.215,1.183,0.287,1.756c-1.219-0.609-1.649-2.437-0.753-3.513C199.205,186.932,199.635,187.255,199.886,187.685"/>
	<path class="path" fill="none" stroke="#000" stroke-width="1" d="M133.035,222.419c-0.789-0.036-1.541-0.753-1.577-1.541c0.574,0.143,1.111,0.323,1.685,0.502
		c0.251-0.287,0.574-0.466,0.932-0.538c0.287,0.43,0.574,0.896,0.896,1.362c-0.717-0.179-1.434,0.574-1.29,1.255
		c-0.251-0.215-0.502-0.43-0.789-0.645"/>
	<path class="path" fill="none" stroke="#000" stroke-width="1" d="M178.343,166.321c-0.394-0.394-1.183-0.323-1.47,0.179c-1.039-2.115,0.036-5.018,2.222-5.95
		c0.681-0.466,1.434,0.717,1.183,1.541c-0.251,0.789-0.932,1.47-0.932,2.294C178.594,164.672,178.128,165.569,178.343,166.321"/>
	<path class="path" fill="none" stroke="#000" stroke-width="1" d="M107.047,57.567c-0.681,0.394-1.362,0.753-2.043,1.147c-0.323-0.323-0.681-0.645-1.004-0.968
		c-0.179,0.394-0.86,0.43-1.04,0c-0.645,0.789-1.864,0.932-2.796,0.574c-0.968-0.358-1.721-1.111-2.437-1.828
		c2.402,0.323,4.767,0.645,7.133,0.968c0.502,0.072,1.111,0.108,1.362-0.323C106.509,57.28,106.796,57.424,107.047,57.567"/>
	<path class="path" fill="none" stroke="#000" stroke-width="1" d="M76.148,66.923c0.179,0.323,0.358,0.645,0.538,0.968c-3.369,0.538-6.596,1.828-9.427,3.692
		c0.036-1.075,0.538-2.151,1.398-2.903C70.843,67.281,73.568,66.923,76.148,66.923"/>
	<path class="path" fill="none" stroke="#000" stroke-width="1" d="M53.566,90.939c-0.287,0.072-0.574,0.108-0.824,0.179c-0.215,0.323-0.108,0.789,0.215,1.004
		c-0.645,0.287-1.434-0.538-1.147-1.183c0.179-0.287,0.502-0.502,0.609-0.824c0.108-0.323-0.215-0.789-0.502-0.574
		c0.287-0.143,0.538-0.323,0.824-0.466c0.072-2.187,1.326-4.301,3.19-5.448c-0.323,0.86-0.645,1.756-0.968,2.653
		C54.39,87.784,53.853,89.326,53.566,90.939"/>
	<path class="path" fill="none" stroke="#000" stroke-width="1" d="M146.979,138.9c-0.968,2.366-3.764,3.764-6.201,3.154c-0.824-0.179-1.649,0.179-2.437,0.287
		c-0.824,0.143-1.864-0.143-2.007-0.932c-0.609-0.43,0.179-1.29,0.86-1.505C140.347,138.864,143.717,138.541,146.979,138.9"/>
	<path class="path" fill="none" stroke="#000" stroke-width="1" d="M258.851,136.641c-0.215-0.645-0.251-1.326-0.143-1.971c3.441-1.219,6.918-2.473,10.395-3.692
		c0.609,0.681,0.394,1.792-0.179,2.509c-0.574,0.681-1.47,1.075-2.294,1.434c-1.255,0.502-2.509,1.04-3.764,1.541
		C261.504,136.534,260.178,136.57,258.851,136.641"/>
	<path class="path" fill="none" stroke="#000" stroke-width="1" d="M160.026,230.663c-2.043,1.183-4.767,1.04-6.667-0.323c-0.287,0.179-0.645,0.251-0.968,0.179
		c-0.179-0.251-0.251-0.574-0.179-0.896c1.541,0.072,3.047,0,4.552-0.251c1.219,0.609,2.796,0.502,3.871-0.323
		c-0.072,0.323,0.179,0.645,0.502,0.681c0.323,0,0.609-0.323,0.538-0.645c0.358,0.358,0.323,1.004-0.072,1.29
		c-0.538,0.43-1.111,0.86-1.649,1.29C159.99,231.344,159.99,231.022,160.026,230.663"/>
	<path class="path" fill="none" stroke="#000" stroke-width="1" d="M121.062,253.999c-0.179-0.968-0.179-1.971,0-2.939c-0.466,0.108-1.004-0.179-1.183-0.609
		c0.323,0,0.645,0.036,0.968,0.072c-0.609-1.362-1.255-2.724-1.864-4.086c-0.287-0.645-0.502-1.541,0.108-1.9
		c1.04,0.215,1.792,1.147,2.115,2.151c0.323,1.04,0.251,2.115,0.215,3.154c0.574,0.932,1.111,1.864,1.685,2.796
		c-0.323,0.072-0.681,0.179-1.004,0.287c0.43,0.394,0.502,1.075,0.215,1.541C121.887,254.321,121.457,254.142,121.062,253.999"/>
	<path class="path" fill="none" stroke="#000" stroke-width="1" d="M140.025,222.096c2.151,0.789,4.481,1.04,6.739,0.717c0.466,0.645,1.506,0.717,2.079,0.179
		c0.251,0.358,0.466,0.681,0.717,1.04c0.502,0.251,1.004-0.215,1.326-0.645c0.394,0.645-0.251,1.47-1.004,1.613
		c-0.717,0.143-1.47-0.143-2.222-0.323c-0.717-0.179-1.577-0.215-2.115,0.323c-0.717-0.502-1.434-1.004-2.151-1.506
		c-0.502,0.108-0.896,0.466-1.04,0.932c-0.179-0.251-0.215-0.574-0.179-0.896c-0.502-0.215-1.075-0.251-1.613-0.179
		C140.383,222.957,140.204,222.527,140.025,222.096"/>
	<path class="path" fill="none" stroke="#000" stroke-width="1" d="M231.932,177.863c0.43-1.326,1.362-2.438,2.545-3.119c1.792-0.968,2.796-3.19,2.33-5.198
		c-0.143-0.609,0.502-1.147,1.147-1.183c0.609,0,1.183,0.323,1.721,0.645c0.179,4.23-2.473,8.388-6.345,10.037
		C232.684,178.975,232.075,178.473,231.932,177.863"/>
	<path class="path" fill="none" stroke="#000" stroke-width="1" d="M122.102,283.428c0.323-0.108,0.681-0.215,1.004-0.323c0.287,1.649,0.323,3.334,0.108,5.018
		c-0.86,0.394-1.864-0.251-2.222-1.111c-0.394-0.86-0.323-1.828-0.323-2.724c-0.036-2.545-0.717-5.054-2.043-7.205
		c0.43-0.215,0.824-0.43,1.219-0.645c-0.108,0.287,0.143,0.609,0.466,0.609c0.287,0,0.538-0.323,0.466-0.609
		c0.466,0.287,0.108,1.219-0.43,1.111c-0.143,0.538,0.574,1.075,1.04,0.789c-0.394,0.43,0.143,1.29,0.717,1.075
		C122.102,280.775,122.102,282.101,122.102,283.428"/>
	<path class="path" fill="none" stroke="#000" stroke-width="1" d="M180.422,130.906c0.896-0.681,2.115-0.717,3.262-0.717c3.047-0.036,6.094-0.036,9.176-0.072
		c0.466,0,1.004,0.036,1.29,0.394c-1.219,1.756-3.405,2.76-5.52,2.581c-0.574-0.036-1.111,0.215-1.613,0.43
		C184.58,134.383,181.605,133.2,180.422,130.906"/>
	<path class="path" fill="none" stroke="#000" stroke-width="1" d="M145.33,230.377c-0.502-0.143-1.004-0.287-1.506-0.43c-0.538-0.574-1.255-1.075-2.007-1.362
		c0.43-0.179,0.86-0.358,1.29-0.538c-0.215,0.215-0.108,0.645,0.215,0.717c0.287,0.072,0.574-0.287,0.466-0.574
		c1.936,0.502,3.943,0.789,5.986,0.896c1.04,1.398,2.115,2.796,3.19,4.194c-0.466-0.036-0.932-0.072-1.398-0.108
		c0.323,0.287,0.287,0.896-0.072,1.147C149.81,232.527,147.66,231.165,145.33,230.377"/>
	<path class="path" fill="none" stroke="#000" stroke-width="1" d="M123.464,152.234c-0.323-1.47-0.645-2.903-1.004-4.337c-0.036-0.179,0.179-0.43,0.251-0.251
		c-1.04-1.685-1.756-3.549-2.151-5.484c-0.143-0.86,1.075-1.398,1.828-1.004c0.753,0.394,1.111,1.29,1.362,2.115
		c0.896,2.581,1.792,5.126,2.688,7.707c0.287,0.753,0.538,1.613,0.323,2.366c-0.215,0.789-1.147,1.434-1.864,1.04
		C124.145,153.955,124.181,152.736,123.464,152.234"/>
	<path class="path" fill="none" stroke="#000" stroke-width="1" d="M230.785,160.801c-0.466-1.362-0.394-2.868,0.179-4.158c0.717-1.864,1.47-3.728,2.653-5.341
		c1.183-1.577,2.903-2.868,4.875-3.119c0.358,1.111-0.143,2.33-0.824,3.262c-0.717,0.896-1.649,1.649-2.402,2.545
		c-1.828,2.115-2.437,4.982-3.047,7.743C231.752,161.41,231.251,161.088,230.785,160.801"/>
	<path class="path" fill="none" stroke="#000" stroke-width="1" d="M170.887,178.939c0.251-1.075-0.251-2.294-1.219-2.868c0.323-0.179,0.574-0.43,0.824-0.681
		c-0.215-0.574-0.43-1.147-0.645-1.721c0.43-0.036,0.789-0.574,0.645-1.004c-0.358,0-0.681,0-1.04,0
		c-0.358-1.111,0.072-2.438,1.004-3.154c0.932-0.681,2.33-0.753,3.298-0.108c1.613,0.896,1.506,3.226,1.183,5.018
		c-0.323,1.613-0.609,3.226-0.896,4.839c-0.215,1.075-0.466,2.222-1.219,3.011c-0.466,0.108-0.896,0.466-1.111,0.932
		c-0.287-0.394-0.717-0.717-1.147-0.896c-0.215-0.968-0.215-2.258,0.717-2.545C170.959,180.014,170.78,179.333,170.887,178.939"/>
	<path class="path" fill="none" stroke="#000" stroke-width="1" d="M248.743,150.8c-1.828,1.577-2.079,4.624-0.538,6.488c0.287,0.323,0.609,0.645,0.824,1.04
		c0.574,0.968,0.215,2.366-0.753,2.939c-2.366-0.717-3.764-3.262-3.943-5.735c-0.251-4.194,2.724-8.388,6.775-9.499
		C251.001,147.861,250.141,149.617,248.743,150.8"/>
	<path class="path" fill="none" stroke="#000" stroke-width="1" d="M169.131,175.892c-1.505,1.255-3.8,0.036-4.982-1.505c-1.147-1.47-1.864-3.226-2.079-5.09
		c1.183-0.108,0.251-2.294,1.111-3.154c0.251-0.251,0.717-0.394,0.753-0.753c0.179-1.971,2.402-3.405,4.266-2.832
		c-0.574,0.287-0.502,1.29,0.108,1.47c-0.287,0.179-0.574,0.358-0.86,0.538c-1.255,1.685-2.545,3.585-2.402,5.699
		C165.224,172.63,167.231,174.422,169.131,175.892"/>
	<path class="path" fill="none" stroke="#000" stroke-width="1" d="M170.421,226.828c-3.477-0.502-7.026-0.538-10.538-0.179c0.287-0.215,0.574-0.43,0.86-0.681
		c-0.394-0.323-1.004,0-1.505,0.143s-1.29-0.143-1.075-0.645c-0.717,0.466-1.685,0.502-2.402,0.072
		c-0.538,0.824-2.115,0.574-2.294-0.43c0.108-0.358,0.251-0.717,0.358-1.075c0.681,0.323,1.434,0.538,2.187,0.609
		c1.219,0.143,2.402-0.072,3.585-0.287c1.183-0.215,2.402-0.43,3.585-0.645c0.108,0.43,0.358,0.824,0.717,1.04
		c-0.108-0.215,0.179-0.538,0.466-0.502c0.251,0.036,0.466,0.323,0.574,0.574c0.215-0.394,0.609-0.681,1.075-0.789
		c-0.036,0.358-0.072,0.717-0.108,1.111c0.538-0.609,1.434-0.645,2.222-0.645c2.33,0,4.66,0,6.99,0
		c-0.43,0.287-0.609,0.86-0.466,1.362c-0.609,0-1.219,0-1.828,0C172.751,226.828,171.389,226.936,170.421,226.828"/>
	<path class="path" fill="none" stroke="#000" stroke-width="1" d="M110.847,150.836c0.824,1.326,1.721,2.724,1.721,4.301c-0.036,1.792-1.219,3.334-1.756,5.054
		c-1.04,3.119-0.215,7.062-2.581,9.32c-0.609,0.287-1.362-0.179-1.613-0.824c-0.287-0.609-0.179-1.29-0.108-1.971
		c0.251-2.007,0.538-3.979,0.86-5.986c1.075-3.62,0.932-7.599-0.394-11.148c-0.609-1.577,0-3.334,0.574-4.947
		c0.323-0.86,0.645-1.756,0.968-2.617c1.004-0.215,2.509-0.072,2.473,0.968c0,0.323-0.215,0.645-0.251,0.968
		c-0.072,0.358,0.179,0.789,0.502,0.681C110.596,146.642,110.452,148.757,110.847,150.836"/>
	<path class="path" fill="none" stroke="#000" stroke-width="1" d="M234.262,163.74c0.609-0.681,0.932-1.577,1.219-2.473c0.609-1.792,1.183-3.62,1.792-5.413
		c0.358-0.574,1.111-0.824,1.721-0.609c1.362,2.222-0.358,4.982-0.645,7.563c-0.108,1.004,0,2.043-0.251,3.011
		c-0.251,1.004-1.04,1.971-2.079,1.936c-4.337-0.072-8.495,3.154-9.499,7.384c-0.251,0.968-0.358,2.043-1.039,2.796
		c-1.183-0.681-1.398-2.366-1.147-3.728c0.574-3.585,3.011-6.811,6.273-8.388C231.896,165.21,233.33,164.816,234.262,163.74"/>
	<path class="path" fill="none" stroke="#000" stroke-width="1" d="M151.137,122.268c0.287-0.394-0.43-0.789-0.932-0.681c0-0.466,0.645-0.466,1.075-0.358
		c0.251,0.358,0.466,0.717,0.717,1.039c0.215-0.466,0.43-0.968,0.645-1.47c0.251,0.86,1.47,0.753,2.33,0.609
		c2.294-0.394,4.732,0.143,6.703,1.398c0.287,0.968,0.358,2.007,0.215,3.011c-2.437-0.179-4.839-0.108-7.241,0.143
		c-6.667,0.753-13.478,0.394-20.002-1.075c-0.072-1.075,0.789-2.043,1.792-2.437c1.004-0.394,2.151-0.358,3.226-0.251
		c0.789,0.108,1.792,0.072,2.079-0.645c0.179,0.645,1.04,0.789,1.721,0.717c0.072-0.323,0.108-0.609,0.179-0.932
		c-0.466-0.108-0.896-0.179-1.362-0.287c0.824-0.323,1.828-0.179,2.509,0.358c0.215,0.466,0.466,0.86,0.789,1.255
		c0.108-0.502,0.251-1.004,0.358-1.506C147.624,121.802,149.344,122.196,151.137,122.268"/>
	<path class="path" fill="none" stroke="#000" stroke-width="1" d="M127.299,182.38c-0.251-1.434,0.179-2.939,1.111-4.015c1.183-1.398,1.936-3.119,2.115-4.947
		c0.287-2.581,1.075-5.09,2.33-7.312c0.466-0.86,1.004-1.685,1.541-2.509c1.971-2.939,4.481-6.237,8.029-6.309
		c0.681,1.326-0.681,2.76-1.756,3.8c-1.864,1.721-3.334,3.8-4.66,5.986c-1.326,2.258-2.545,4.696-2.796,7.348
		c-0.323,3.405-2.187,6.667-4.947,8.71C127.945,182.882,127.622,182.631,127.299,182.38"/>
	<path class="path" fill="none" stroke="#000" stroke-width="1" d="M155.581,136.677c-0.574,0.394-1.183,0.824-1.9,0.896c-0.681,0.036-1.505-0.466-1.47-1.183
		c0.609-0.574,1.362-1.075,2.151-1.398c0-0.502,0-1.004,0-1.505c-6.775,0.466-13.585,0.968-20.36,1.434
		c-0.538-1.075,0.179-2.473,1.219-3.083c1.04-0.609,2.294-0.717,3.513-0.753c3.226-0.179,6.488-0.323,9.714-0.466
		c1.649-0.108,3.298-0.179,4.911-0.43c2.868-0.466,5.664-1.47,8.173-2.975c-1.255,3.369-3.298,6.452-5.95,8.925
		c-0.215,0.215-0.43,0.502-0.287,0.789C155.438,137.179,155.868,136.713,155.581,136.677"/>
	<path class="path" fill="none" stroke="#000" stroke-width="1" d="M188.953,271.097c1.398-3.011,3.549-5.664,6.165-7.707c-0.215-0.251-0.251-0.645-0.072-0.932
		c0.968-0.143,2.366,0,2.402,0.968c-0.43,0.358-0.86,0.717-1.29,1.075c-0.753,3.262-2.079,6.416-3.871,9.248
		c0.143,1.255-0.574,2.581-1.756,3.154c0.358,0.072,0.681,0.143,1.004,0.215c-1.864,1.075-3.011,3.262-2.796,5.413
		c0.932,1.219,0.753,2.939,0.574,4.481c-0.681,5.95-0.358,12.044,0.896,17.923c-0.574,0.358-1.147,0.681-1.721,1.04
		c-1.864-2.545-2.115-5.914-2.33-9.069c-0.215-3.262-0.43-6.488-0.645-9.75c-0.108-1.649-0.215-3.298-0.323-4.947
		c0.609-1.971,1.255-3.979,1.864-5.95C187.627,274.502,188.165,272.782,188.953,271.097"/>
	<path class="path" fill="none" stroke="#000" stroke-width="1" d="M146.871,110.331c0.681-0.036,1.398,0.43,1.577,1.147c1.326,0.072,2.653,0.323,3.907,0.789
		c0.036-0.43,0.108-0.824,0.143-1.255c-0.538-0.43-1.039-0.968-1.398-1.541c1.255-1.004,3.298-0.824,4.409,0.358
		c2.043-0.036,4.086,0.143,6.094,0.574c1.936,0.824,2.151,3.405,2.079,5.52c0,0.466-0.036,0.968-0.215,1.398
		c-0.323,0.681-1.04,1.111-1.792,1.075c-2.294-0.86-4.624-1.613-7.026-2.222c-0.824-0.143-1.649-0.287-2.473-0.43
		c-0.538-0.108-1.04-0.179-1.577-0.287c0.143-0.251,0.287-0.538,0.43-0.824c-1.649-0.251-3.262-0.86-4.66-1.792
		c0.215,0.645,0.072,1.398-0.358,1.936c-0.538-1.04-0.896-2.151-1.111-3.262c-0.645,0.108-1.255,0.251-1.864,0.394
		c0.179,0.323-0.036,0.824-0.394,0.896c0.466-0.251,0.574,0.824,0.036,0.896c-0.538,0.036-0.896-0.466-1.147-0.932
		c0.215-0.251,0.43-0.502,0.645-0.753c-0.753-0.179-1.577-0.215-2.366-0.143c0.072,0.538,0.717,0.932,1.219,0.789
		c-1.756,1.577-4.552,1.9-6.631,0.753c-0.251,0.251-0.645,0.323-1.004,0.251c0.108,0.538-0.179,1.111-0.681,1.326
		c-0.681-0.179-1.326-0.358-1.971-0.538c-0.179-0.036-0.358-0.108-0.538-0.036c-0.609,0.287,0.215,1.147,0.896,1.219
		c-0.538,0.179-1.004,0.574-1.47,0.896c-0.466,0.323-1.111,0.538-1.613,0.251c-0.502-0.251-0.538-1.183,0.036-1.29
		c-0.466-0.072-0.968,0.036-1.326,0.323c-1.29-1.685,0.072-4.552,2.151-4.66c2.688-0.072,5.377-0.645,7.85-1.685
		c1.147,0.502,2.581,0.358,3.549-0.394c1.721-1.111,4.445,0.896,5.914-0.538c0.179,0.538,0.896,0.824,1.398,0.574
		C147.337,109.507,147.086,109.901,146.871,110.331"/>
	<path class="path" fill="none" stroke="#000" stroke-width="1" d="M171.712,110.546c2.043,1.326,2.903,3.907,3.047,6.309c0.143,2.402-0.251,4.839-0.072,7.241
		c0.502,6.237,4.767,11.506,6.739,17.457c2.151,6.524,1.506,13.944,4.767,19.966c1.362,2.473,3.298,4.624,4.266,7.277
		c0.968,2.653,0.502,6.201-2.007,7.492c-1.29,0.645-2.868,0.574-4.194,1.219c-1.29,0.609-2.151,2.653-0.932,3.477
		c1.147,0.789-0.358,2.832-1.721,2.402c-1.326-0.43-1.864-2.079-1.864-3.477c-0.036-3.154,1.541-6.237,4.086-8.029
		c1.971-1.362,2.115-4.266,1.29-6.488s-2.366-4.122-3.334-6.309c-1.864-4.373-1.147-9.391-2.151-14.051
		c-0.824-3.728-2.76-7.133-4.23-10.682C172.214,126.892,170.959,118.647,171.712,110.546"/>
	<path class="path" fill="none" stroke="#000" stroke-width="1" d="M117.084,57.28c-1.506,0.323-3.047,0.645-4.588,0.968c1.362-1.541,0.072-4.015,0.753-5.95
		c0.789-2.258,3.656-2.796,6.022-2.975c29.286-2.007,58.858-0.143,87.677,5.52c2.617,0.502,5.341,1.111,7.312,2.939
		c1.936,1.792,2.653,5.198,0.789,7.097c-0.86-3.549-3.871-6.452-7.456-7.241c-19.141-4.051-38.713-6.201-58.32-6.345
		c-2.975-0.036-5.986,0-8.997,0c-3.011,0.036-5.986,0.036-8.997,0.072c-3.334,0.036-6.667,0.036-9.965,0.072
		c-1.936,0-4.122,0.108-5.448,1.505C114.503,54.341,115.148,57.388,117.084,57.28"/>
	<path class="path" fill="none" stroke="#000" stroke-width="1" d="M193.434,162.629c-1.004-0.824-2.366-1.004-3.549-1.577c-1.183-0.538-2.294-1.756-1.936-3.011
		c1.936-0.036,3.907,0.609,5.484,1.792c-1.04-10.718-0.287-21.615,2.187-32.081c0.215-0.896-1.075-1.326-2.007-1.326
		c-4.015,0.036-8.029,0.036-12.044,0.036c-1.577,0.036-2.832-1.541-3.083-3.119c-0.215-1.577,0.323-3.19,0.86-4.696
		c2.617,0.215,5.198,0.43,7.778,0.645c-0.645,1.219-2.438,0.968-3.8,0.681c-1.398-0.287-3.369,0.036-3.369,1.434
		c4.767,2.187,10.288,2.688,15.378,1.434c-0.251-2.473-0.609-5.09-2.187-6.99c-1.613-1.9-4.911-2.581-6.488-0.645
		c-1.039,1.219-2.903,1.255-4.481,0.968c-3.011-0.538-6.452-3.226-5.126-5.986c1.04-2.222,4.158-2.187,6.56-1.864
		c1.04,0.143,2.079,0.323,3.083,0.466c0.717,0.108,1.398,0.179,2.043,0.502c1.685,0.753,2.545,2.688,2.581,4.552
		c1.577-2.581,1.971-5.879,1.004-8.746c-2.007-5.879-8.746-8.71-14.912-9.499c-6.99-0.86-14.051,0-21.041,0.824
		c-11.399,1.398-22.833,2.76-34.268,4.158c-1.828,0.215-3.943,0.645-4.696,2.294c-0.43,0.932-0.287,2.043-0.179,3.047
		c1.04,8.352,0.502,16.883-1.505,25.056c-0.287,1.183-0.753,2.509-1.864,3.011c-5.484,2.402-9.176,8.352-8.89,14.302
		c-0.645,0.179-1.326,0.358-1.971,0.538c-1.219-7.062,2.402-14.732,8.675-18.245c0.789-0.466,1.111-1.47,1.326-2.366
		c2.187-9.069,2.366-18.604,0.538-27.744c2.007-1.613,4.696-1.971,7.277-2.33c13.048-1.685,26.095-3.369,39.143-5.09
		c2.939-0.358,5.914-0.753,8.89-0.86c7.169-0.179,14.374,1.362,20.826,4.481c1.398,0.681,2.832,1.506,3.62,2.832
		c0.502,0.86,0.681,1.864,0.86,2.832c0.932,4.911,1.864,9.857,2.796,14.768c0.681,3.549,1.362,7.133,1.326,10.754
		c-0.036,6.273-2.151,12.367-2.545,18.64c-0.538,8.567,2.151,16.955,3.62,25.414c0.466,2.617,0.179,6.237-2.437,6.811
		c-0.43-3.656-0.896-7.277-1.362-10.933C195.298,165.891,194.939,163.812,193.434,162.629"/>
	<path class="path" fill="none" stroke="#000" stroke-width="1" d="M250.213,171.125c-1.47,6.416-6.524,11.865-12.761,13.872c-4.158,1.29-8.997,1.326-12.116,4.301
		c-2.007,1.936-4.911,2.437-7.599,2.868c-4.624,0.753-9.248,1.506-13.836,2.222c-2.402,0.394-3.907,2.939-4.23,5.377
		c-0.323,2.402,0.143,4.875-0.179,7.277c-0.824,7.026-8.997,12.116-15.664,9.822c-2.975-1.04-6.022,0.968-8.997,2.043
		c-6.882,2.509-14.446-0.036-21.328-2.545c-1.111-0.43-2.366-0.932-2.832-2.043c-0.466-1.111,0.681-2.724,1.721-2.151
		c4.445,2.402,9.356,3.907,14.374,4.373c3.871,0.394,8.71-0.43,10.037-4.122c0.394-1.147,2.007-1.398,3.154-0.896
		c1.147,0.502,1.971,1.434,3.047,2.115c3.441,2.115,8.244,0.215,10.646-3.083c2.366-3.298,2.975-7.527,3.441-11.578
		c0.072-0.43-0.036-1.04-0.466-1.04c-4.122,0-8.244,1.434-11.435,4.051c-5.018,4.086-12.367,2.724-18.64,1.147
		c-2.473-0.645-5.341-1.649-6.058-4.086c6.094,0.609,12.187,1.326,18.281,2.079c0.358-2.581-3.047-3.835-5.628-4.122
		c-4.158-0.466-8.28-0.932-12.438-1.398c-1.255-0.143-1.792-1.828-1.255-2.975c0.574-1.147,1.756-1.792,2.868-2.402
		c1.864-1.004,3.764-2.043,5.664-3.047c1.721-0.932,3.692-1.864,5.52-1.219c5.305,1.9,11.076-0.538,16.13-2.975
		c6.775-3.226,13.549-6.452,20.324-9.678c2.151-1.004,5.448-1.577,6.237,0.645c0.323,0.968,1.864,0.789,2.509-0.036
		c0.609-0.824,0.681-1.9,1.04-2.868c0.358-0.968,1.326-1.9,2.294-1.541c1.075,1.613,0.036,3.764-0.717,5.592
		c-1.541,3.728-1.685,8.065-0.43,11.901c-1.147,0.609-2.545-0.609-2.796-1.9c-0.251-1.29,0.143-2.617,0.036-3.943
		c-0.179-2.222-1.971-4.266-4.194-4.696c-2.187-0.466-4.624,0.645-5.699,2.653c1.756,0.287,3.62-1.649,5.126-0.717
		c0.574,0.358,0.86,0.968,1.111,1.541c1.075,2.653,1.828,5.377,2.187,8.209c5.484,2.079,10.323-5.341,16.202-5.448
		c6.667-0.108,12.904-5.198,14.374-11.686c0.609-2.653,1.004-6.165,3.656-6.882c5.198-1.434,9.427-6.058,10.359-11.399
		c1.039-6.058,12.474-5.09,13.585-11.184c1.864,2.222-0.036,5.699-2.509,7.205c-2.509,1.47-5.556,2.043-7.635,4.086
		c-3.262,3.19-3.047,9.069-6.846,11.614c-2.151,1.47-5.305,1.577-6.703,3.764C250.607,169.081,250.428,170.157,250.213,171.125
		 M185.942,195.033c-1.685-1.47-4.409-0.072-6.488-0.932c-0.932-0.43-1.613-1.29-2.294-2.079c-0.681-0.789-1.505-1.577-2.509-1.792
		c-1.04-0.179-2.294,0.574-2.222,1.613c1.577,2.33,4.624,3.62,7.384,3.011c0.323,1.398,1.541,2.545,2.975,2.724
		c1.398,0.215,2.903-0.538,3.585-1.792c-0.143-0.215-0.251-0.466-0.394-0.681c1.577-1.792,4.624,0.574,6.882-0.215
		c6.846-2.402,13.8-4.337,20.898-5.879c0.43-0.108,0.466-0.717,0.394-1.183c-0.323-1.756-0.609-3.585-1.506-5.126
		c-0.896-1.577-2.509-2.868-4.301-2.868c-1.326,0-2.545,0.645-3.728,1.326c-5.986,3.298-12.116,6.416-18.353,9.284
		c-0.287-0.466-0.574-0.932-0.86-1.398c-0.645,0.287-1.398,0.215-2.115,0.215c-0.717,0.036-1.506,0.215-1.9,0.824
		c-0.358,0.609,0.179,1.649,0.86,1.434c-0.179,0.251-0.538-0.358-0.215-0.502c0.287-0.143,0.645,0.072,0.896,0.323
		c0.932,0.86,1.9,1.721,2.832,2.581C185.835,194.281,185.871,194.639,185.942,195.033 M173.755,188.115
		c-2.688-0.681-4.767,2.617-7.492,3.011c-0.717,0.108-1.685,0.143-1.828,0.86c0.215,0.251,0.466,0.502,0.681,0.753
		c-0.502-0.072-0.86,0.645-0.538,1.004c1.398,0.574,3.154,0.108,4.051-1.111c0.323-0.036,0.645-0.072,0.968-0.108
		c0.43-0.538,0.609-1.506-0.036-1.756c0.753,0.251,1.47,0.502,2.187,0.789c-0.287-0.466-0.574-0.932-0.896-1.398
		c0.466-0.143,1.004,0,1.362,0.287C172.715,189.692,173.253,188.904,173.755,188.115"/>
</g>
</svg>
