<?xml version="1.0" encoding="iso-8859-1"?>
<!-- Generator: Adobe Illustrator 21.1.0, SVG Export Plug-In . SVG Version: 6.00 Build 0)  -->
<svg version="1.1" id="Layer_1" xmlns="http://www.w3.org/2000/svg" xmlns:xlink="http://www.w3.org/1999/xlink" x="0px" y="0px"
	 viewBox="0 0 370 300" style="enable-background:new 0 0 370 300;" xml:space="preserve">
	 <style>
    /* <![CDATA[ */
    .path {
  stroke-dasharray: 2000;
  stroke-dashoffset: 2000;
  animation: dash 40s linear;
  animation-fill-mode: forwards;
 
}

@keyframes dash {
  from {
    stroke-dashoffset: 2000;
  }
  to {
    stroke-dashoffset: 0;
  }
}
    /* ]]> */
  </style>
<g id="Vorm_9">
	<desc  xmlns:shape="http://adobe.com/products/shape"></desc>
	<path class="path" fill="none" stroke="#000" stroke-width="1" d="M139.826,89.046c-0.478-0.017-0.956,0.05-1.415,0.235c-1.027,0.405-1.774,1.245-2.459,2.085
		c-3.174,4.046-5.073,9.088-5.353,14.254c-0.187,3.299-0.218,7.501-3.268,8.777c-3.128,1.312-5.61,3.776-7.454,6.648
		c0.505,0.323,1.024,0.634,1.554,0.93c2.971-4.366,7.776-7.661,12.965-7.36c-0.685-1.183-1.992-1.961-3.33-2.054
		c0.187-6.567,1.836-13.072,4.793-18.923c0.405-0.809,0.871-1.618,1.587-2.148c0.784-0.565,1.791-0.683,2.748-0.485
		C140.137,90.341,140.028,89.685,139.826,89.046z"/>
	<path class="path" fill="none" stroke="#000" stroke-width="1" d="M148.648,114.236c0.62-0.047,1.236-0.155,1.85-0.264c-0.289-0.535-0.509-1.105-0.602-1.723
		c2.428-0.249,3.61-3.859,1.805-5.478c0.156,1.587-0.093,3.735-1.649,4.015c-1.681,0.311-2.614-1.867-2.863-3.579
		c-0.529-3.299-1.027-6.567-1.525-9.866c-0.311-2.054-0.685-4.202-1.867-5.945c-0.881-1.275-2.366-2.253-3.863-2.35
		c0.198,0.645,0.304,1.306,0.36,1.976c0.642,0.148,1.257,0.436,1.76,0.841c1.276,1.058,1.992,2.645,2.365,4.264
		c1.152,4.637,0.156,9.804,2.241,14.13c0.56,1.152,1.338,2.179,1.743,3.392C148.473,113.853,148.56,114.045,148.648,114.236z"/>
	<path class="path" fill="none" stroke="#000" stroke-width="1" d="M156.058,117.821c-2.243-0.482-4.434-1.831-5.516-3.758c-0.615,0.106-1.231,0.221-1.853,0.272
		c1.773,3.725,6.494,5.225,10.636,6.224C159.917,119.034,157.645,118.163,156.058,117.821z"/>
	<path class="path" fill="none" stroke="#000" stroke-width="1" d="M151.67,188.283c-7.655-0.223-15.311-0.423-22.966-0.64c-0.035,0.681-0.129,1.358-0.221,2.036
		c8.022,0.257,16.028,0.531,24.028,0.783c-0.249,1.276,0.373,2.645,1.463,3.33C154.315,191.551,153.942,188.345,151.67,188.283z"/>
	<path class="path" fill="none" stroke="#000" stroke-width="1" d="M128.603,187.64c-0.87-0.025-1.74-0.047-2.61-0.073c-1.463-0.062-2.894-0.093-4.326-0.311
		c-2.023-0.342-3.984-1.027-5.758-2.054c1.992-8.839,3.206-17.896,3.579-26.952c1.12,2.241,0.903,4.886,0.685,7.376
		c-0.529,5.198-1.027,10.395-1.525,15.593c-0.187,1.898,0.249,4.544,2.148,4.544c-0.342-6.629,0-13.321,0.996-19.888
		c0.156-0.903,0.311-1.805,0.747-2.583c1.307-2.334,4.419-2.739,7.096-2.614c2.645,0.125,5.602,0.405,7.687-1.245
		c0.765-0.609,1.73-0.763,2.695-0.622c0.054-0.586,0.142-1.165,0.315-1.725c-0.919-0.304-1.822-0.656-2.761-0.796
		c-1.961-0.28-3.922,0.405-5.789,1.058c-3.237,1.12-6.474,2.272-9.71,3.392c-0.622-3.299-1.276-6.629-1.93-9.959
		c-2.77-2.303-4.264-6.038-3.89-9.648c0.622-5.913,1.276-11.982,4.046-17.273c0.324-0.615,0.687-1.216,1.08-1.799
		c-0.53-0.296-1.05-0.607-1.554-0.93c-0.41,0.645-0.799,1.304-1.144,1.982c-1.898,3.735-2.926,7.843-3.89,11.92
		c-0.218,0.84-1.183,1.214-2.023,1.401c-2.428,0.529-5.011,0.498-7.438-0.093c-0.685-0.156-1.369-0.311-2.023-0.467
		c-1.805-0.436-4.202-0.529-4.886,1.152c0.156-0.965-1.027-1.65-2.023-1.618c-0.996,0.031-1.961,0.467-2.926,0.342
		c-0.965-0.125-1.774-0.778-2.708-0.934c-0.934-0.187-2.179,0.467-1.961,1.401c0.996,0.031,1.961,0.093,2.957,0.156
		c0.249,0.467,0.373,1.027,0.311,1.556c3.641-0.031,7.283-0.031,10.924-0.062c-0.716,2.552-1.525,5.042-2.459,7.501
		c-0.405,2.428,0,4.98,1.058,7.189c0.031-4.917,0.778-9.835,2.272-14.534c3.548,0.685,7.283,0.373,10.675-0.84
		c0.747,2.085-0.187,4.357-0.84,6.474c-0.654,2.116-0.84,4.824,0.934,6.162c1.867,1.494,3.704,3.361,4.046,5.727
		c0.342,2.365-1.525,5.135-3.922,4.855c-1.401-0.156-2.894,0.373-3.859,1.401c1.401-0.373,2.894-0.778,4.326-0.498
		c1.432,0.28,2.77,1.525,2.677,2.988c-0.436,6.629-2.054,13.103-3.672,19.545c-0.373,1.494,0.809,2.957,2.147,3.766
		c2.739,1.712,6.162,1.867,9.399,1.992c0.871,0.027,1.737,0.057,2.607,0.085C128.474,188.998,128.569,188.321,128.603,187.64z
		 M114.415,148.134c-0.249-0.125-0.56-0.28-0.654-0.56c-0.125-0.342,0.156-0.747,0.405-1.027c0.405-0.467,0.809-0.934,1.214-1.401
		c0.871,1.183,1.369,2.614,1.432,4.077C116.034,148.881,115.225,148.508,114.415,148.134z"/>
	<path class="path" fill="none" stroke="#000" stroke-width="1" d="M161.66,163.073c-1.93,1.65-2.023,4.544-1.93,7.065c0.342,9.275,1.089,18.549,2.241,27.762
		c0.373,2.863-0.249,5.82-1.712,8.31c-0.965-0.965-1.494-2.365-1.463-3.735c0.84,0.093,1.681-0.467,1.93-1.276
		c-1.152,0.311-1.961-1.089-2.21-2.241c-1.463-6.598-0.436-13.632-2.459-20.074c-2.303-7.252-8.154-12.854-10.706-20.012
		c2.677-0.747,5.415-1.525,7.812-2.988c2.396-1.494,4.419-3.797,4.886-6.536c0.187-1.027,1.867-0.871,2.365,0.031
		c0.467,0.934,0.187,2.023,0.124,3.05c-0.093,1.027,0.218,2.272,1.183,2.552c1.12-2.614-1.743-5.664-0.654-8.279
		c0.903-2.21,3.859-2.552,5.758-3.984c-1.401-0.84-3.206,0.218-4.326,1.432c-1.12,1.183-2.241,2.677-3.859,2.863
		c-1.743,0.218-2.272,2.428-3.05,3.984c-1.307,2.428-4.015,3.735-6.536,4.855c-2.272,0.996-4.7,2.023-7.158,1.65
		c-0.503-0.084-0.99-0.23-1.473-0.387c-0.172,0.553-0.259,1.126-0.313,1.706c1.124,0.188,2.239,0.781,3.031,1.606
		c1.525,1.525,2.334,3.61,3.455,5.478c1.276,2.116,2.988,3.953,4.326,6.007c2.988,4.637,3.922,10.239,4.793,15.686l1.307,8.03
		c-6.505-0.311-13.009-0.654-19.483-0.996c-2.739-0.125-5.509-0.249-8.248-0.031c-0.255,0.019-0.511,0.047-0.767,0.071
		c0.008,0.109,0.018,0.219,0.025,0.328c0.004,0.064-0.096,0.064-0.1,0c-0.006-0.106-0.017-0.212-0.024-0.319
		c-3.493,0.34-7.063,1.072-10.369-0.049c-0.062,1.338,1.027,2.49,2.272,2.957c1.245,0.467,2.614,0.373,3.953,0.311
		c10.177-0.622,20.417-0.778,30.594-0.436c1.307,0.031,3.143,1.183,2.21,2.116c-0.871-0.249-1.867-0.093-2.645,0.373
		c0.809,0.654,1.836,0.996,2.863,0.965c0,1.214-1.027,2.303-2.241,2.396c2.085,0.809,3.735,2.708,4.202,4.917
		c1.245,0.405,2.645-0.436,3.299-1.556c0.654-1.152,0.747-2.521,0.778-3.859C163.745,189.559,160.758,176.332,161.66,163.073z"/>
	<path class="path" fill="none" stroke="#000" stroke-width="1" d="M197.887,105.153c0.467-0.031,0.436,0.84-0.031,0.996c-0.467,0.124-0.934-0.187-1.307-0.467
		c-0.28-0.591,0.84-0.809,1.276-0.373"/>
	<path class="path" fill="none" stroke="#000" stroke-width="1" d="M211.581,104.282c-0.311,0.093-0.622,0.031-0.871-0.187c0.156-0.218,0.342-0.436,0.498-0.654
		c0.436,0.093,0.903,0.062,1.307-0.124c0.156,0.249,0.218,0.56,0.156,0.84C212.328,104.313,211.955,104.375,211.581,104.282"/>
	<path class="path" fill="none" stroke="#000" stroke-width="1" d="M120.111,50.844c0.436-0.809,1.774-0.871,2.303-0.125c-0.373,0.809-1.681,0.965-2.241,0.249"/>
	<path class="path" fill="none" stroke="#000" stroke-width="1" d="M53.041,228.307c-0.187-0.249,0.342-0.498,0.591-0.28c0.062,0.84-0.124,1.681-0.529,2.428
		c-0.56-0.529-0.56-1.525,0-2.054"/>
	<path class="path" fill="none" stroke="#000" stroke-width="1" d="M321.944,220.526c-0.249-0.622,0.218-1.307,0.809-1.681c-0.031,0.373,0.093,0.747,0.125,1.152
		c0.031,0.373-0.093,0.809-0.436,0.996c-0.374,0.156-0.871-0.249-0.685-0.591"/>
	<path class="path" fill="none" stroke="#000" stroke-width="1" d="M33.869,229.085c0.654-0.062,1.307,0.467,1.401,1.12c-0.591,0.062-1.152,0.124-1.743,0.187
		c-0.093-0.436,0.062-0.934,0.405-1.245"/>
	<path class="path" fill="none" stroke="#000" stroke-width="1" d="M323.437,187.1c0,0.373-0.031,0.778-0.062,1.152c-0.436-0.124-0.903-0.28-1.152-0.654
		c-0.28-0.342-0.249-0.996,0.156-1.152c0.218,0.342,0.529,0.591,0.934,0.685"/>
	<path class="path" fill="none" stroke="#000" stroke-width="1" d="M301.527,104.313c-0.311,0-0.622,0-0.934,0c-0.28-0.405,0.249-0.965,0.747-0.934
		c0.498,0.062,0.871,0.467,1.183,0.84c-0.218,0.28-0.716,0.311-0.965,0.031"/>
	<path class="path" fill="none" stroke="#000" stroke-width="1" d="M71.528,120.155c0.405,0.156,0.809,0.342,1.214,0.498c-0.187,0.996-1.618,0.903-2.583,0.56
		c-0.311-0.622,0.685-1.183,1.369-0.996"/>
	<path class="path" fill="none" stroke="#000" stroke-width="1" d="M57.896,228.774c0.031,0.249,0.062,0.529,0.093,0.778c-0.373,0.311-0.871,0.467-1.369,0.467
		c-0.56-0.436-0.591-1.401-0.062-1.867c0.436,0.249,0.84,0.467,1.245,0.685"/>
	<path class="path" fill="none" stroke="#000" stroke-width="1" d="M118.959,216.823c0.871,0.685,0.965,2.147,0.187,2.957c-0.529-0.809-0.654-1.898-0.28-2.801"/>
	<path class="path" fill="none" stroke="#000" stroke-width="1" d="M310.086,235.185c-0.498,0.342-1.307-0.156-1.245-0.747c0.591-0.218,1.152-0.405,1.743-0.622
		c0.249,0.187,0.436,0.467,0.436,0.778c-0.405-0.031-0.809,0.187-0.996,0.56"/>
	<path class="path" fill="none" stroke="#000" stroke-width="1" d="M209.527,47.856c0.685,0.311,1.245,0.871,1.587,1.525c-0.934,0.529-2.21-0.716-1.712-1.65"/>
	<path class="path" fill="none" stroke="#000" stroke-width="1" d="M276.255,105.029c-0.373-0.56-0.809-1.058-1.338-1.494c0.436-0.187,0.934-0.249,1.401-0.156
		c0.374,0.529,0.374,1.307-0.031,1.805"/>
	<path class="path" fill="none" stroke="#000" stroke-width="1" d="M315.688,187.816c-0.28,0.218-0.529,0.405-0.778,0.622c-0.405-0.747,0.467-1.774,1.276-1.525
		c0.28,0.342,0.062,0.965-0.373,1.058"/>
	<path class="path" fill="none" stroke="#000" stroke-width="1" d="M104.892,74.435c-0.373,1.12-2.241,1.307-2.832,0.249c0.778-0.56,1.899-0.622,2.739-0.187"/>
	<path class="path" fill="none" stroke="#000" stroke-width="1" d="M203.956,238.578c0.716-0.187,1.525-0.093,2.147,0.311c-0.156,0.249-0.28,0.529-0.436,0.809
		c-0.529,0-1.027,0-1.556-0.031c-0.28-0.28-0.373-0.716-0.249-1.089"/>
	<path class="path" fill="none" stroke="#000" stroke-width="1" d="M153.506,49.35c-0.187,0.778-0.747,1.463-1.463,1.805c-0.062-0.809,0.311-1.587,0.934-2.085
		c0.156-0.124,0.405-0.249,0.591-0.156S153.724,49.381,153.506,49.35"/>
	<path class="path" fill="none" stroke="#000" stroke-width="1" d="M128.67,156.444c-0.342,0.124-0.436-0.498-0.156-0.716c0.654-0.249,1.401-0.249,2.054,0.031
		c-0.093,0.84-1.463,1.089-1.836,0.342"/>
	<path class="path" fill="none" stroke="#000" stroke-width="1" d="M351.666,130.208c0.685-0.342,1.587-0.124,2.085,0.436c-0.871-0.093-1.774,0.124-2.49,0.591
		c-0.125-0.218-0.249-0.436-0.373-0.654c0.156-0.218,0.436-0.405,0.747-0.436"/>
	<path class="path" fill="none" stroke="#000" stroke-width="1" d="M316.372,235.03c-0.747,0.28-1.587,0.373-2.396,0.311c-0.156-0.28-0.311-0.56-0.467-0.809
		c0.809-0.436,1.774-0.591,2.677-0.436c0.062,0.249,0.124,0.498,0.187,0.747"/>
	<path class="path" fill="none" stroke="#000" stroke-width="1" d="M150.02,88.627c-0.311-0.903-0.342-1.867-0.031-2.77c0.84,0.934,1.058,2.334,0.56,3.486
		c-0.125-0.249-0.28-0.529-0.405-0.778"/>
	<path class="path" fill="none" stroke="#000" stroke-width="1" d="M246.159,197.309c-0.342-0.311-0.498-0.84-0.342-1.276c0.996,0.218,1.867,0.934,2.272,1.867
		C247.404,197.931,246.719,197.713,246.159,197.309"/>
	<path class="path" fill="none" stroke="#000" stroke-width="1" d="M177.657,115.829c-0.654,0.529-1.12,1.338-1.214,2.179c-0.622-0.685-0.467-1.93,0.342-2.428
		c0.28-0.218,0.747-0.124,0.965,0.187"/>
	<path class="path" fill="none" stroke="#000" stroke-width="1" d="M262.125,92.86c-0.965,0.529-2.334,0.093-2.832-0.871c0.716-0.156,1.494-0.187,2.241-0.093
		c0.28,0.062,0.591,0.124,0.778,0.373c0.187,0.218,0.125,0.654-0.187,0.716"/>
	<path class="path" fill="none" stroke="#000" stroke-width="1" d="M207.909,55.575c0.467,0.965,0.903,1.898,1.338,2.863c-0.529,0.28-1.245-0.125-1.463-0.685
		c-0.249-0.591-0.124-1.214-0.031-1.836"/>
	<path class="path" fill="none" stroke="#000" stroke-width="1" d="M152.759,201.728c0.373-0.124,0.84,0.062,1.027,0.405c-0.654,0.996-2.241,1.183-3.112,0.373
		c0.747-0.093,1.463-0.405,2.054-0.84"/>
	<path class="path" fill="none" stroke="#000" stroke-width="1" d="M88.614,189.279c0.498-0.373,1.245-0.156,1.65,0.311c0.405,0.498,0.529,1.12,0.654,1.743
		c-1.027,0.093-2.054-0.871-2.023-1.898"/>
	<path class="path" fill="none" stroke="#000" stroke-width="1" d="M287.024,94.79c-0.28-0.249-0.373-0.716-0.249-1.089c0.996,0.156,1.961,0.56,2.739,1.152
		c0,0.28,0.031,0.591,0.031,0.903c-0.436,0.156-0.934,0.218-1.401,0.156c-0.124-0.529-0.56-0.965-1.089-1.089"/>
	<path class="path" fill="none" stroke="#000" stroke-width="1" d="M97.049,108.048c0.436-0.156,0.934,0.218,0.965,0.685c-0.467,0.56-1.338,0.747-1.961,0.373
		c-0.654-0.373-0.934-1.214-0.685-1.899C95.959,107.425,96.52,107.706,97.049,108.048"/>
	<path class="path" fill="none" stroke="#000" stroke-width="1" d="M192.659,216.418c0.187-0.218,0.373-0.467,0.529-0.716c0.747,1.152,0.84,2.645,0.28,3.859
		c-0.654-0.84-0.903-1.992-0.685-3.05"/>
	<path class="path" fill="none" stroke="#000" stroke-width="1" d="M105.608,68.211c-0.965,0.187-2.054-0.436-2.334-1.401c-0.093-0.249-0.124-0.529-0.031-0.778
		C104.332,66.312,105.234,67.152,105.608,68.211"/>
	<path class="path" fill="none" stroke="#000" stroke-width="1" d="M280.301,189.092c0.156-0.436,0.778-0.591,1.152-0.28c0.156,0.996,0,2.054-0.373,2.988
		C280.799,190.897,280.55,189.995,280.301,189.092"/>
	<path class="path" fill="none" stroke="#000" stroke-width="1" d="M215.005,102.726c0.28,0.031,0.56,0.062,0.84,0.124c0.062,0.747-0.809,1.152-1.525,1.369
		c-0.093-0.373-0.654-0.529-0.903-0.249c-0.187-0.28-0.187-0.654,0.031-0.934c0.218,0.311,0.654,0.436,1.027,0.28
		c-0.031-0.187-0.062-0.436,0.093-0.591c0.124-0.187,0.467-0.156,0.498,0.062"/>
	<path class="path" fill="none" stroke="#000" stroke-width="1" d="M254.282,211.563c-0.093,0.436-0.809,0.436-1.058,0.062c-0.249-0.373-0.187-0.903-0.093-1.338
		c0.093-0.498,0.187-1.027,0.28-1.525C253.722,209.696,254.002,210.629,254.282,211.563"/>
	<path class="path" fill="none" stroke="#000" stroke-width="1" d="M135.486,110.071c0,0.498,0,1.027,0,1.556c-0.373,0.405-0.871-0.436-0.809-0.996
		c0.124-0.871,0.373-1.743,0.685-2.583C135.517,108.702,135.548,109.386,135.486,110.071"/>
	<path class="path" fill="none" stroke="#000" stroke-width="1" d="M72.897,107.208c-1.058-0.622-1.836-1.712-2.023-2.894
		C71.839,104.998,72.555,106.056,72.897,107.208"/>
	<path class="path" fill="none" stroke="#000" stroke-width="1" d="M51.578,195.223c-0.529-0.622-0.529-1.587-0.062-2.241c0.311,1.12,0.498,2.272,0.591,3.424
		c-0.218-0.342-0.436-0.716-0.654-1.058"/>
	<path class="path" fill="none" stroke="#000" stroke-width="1" d="M140.341,95.879c0.373,0.591,0.187,1.432-0.373,1.805c-1.027,0.187-2.459,0.093-2.583-0.934
		C138.193,96.066,139.283,95.723,140.341,95.879"/>
	<path class="path" fill="none" stroke="#000" stroke-width="1" d="M259.853,97.093c-0.809-0.467-1.401-1.214-1.65-2.116c0.529,0,1.058,0,1.618,0
		c0.342,0.56,0.716,1.12,1.058,1.681c-0.093,0.28-0.187,0.56-0.405,0.685c-0.249,0.156-0.622,0.031-0.654-0.249"/>
	<path class="path" fill="none" stroke="#000" stroke-width="1" d="M326.861,182.183c0.467-0.498,0.903-0.965,1.369-1.463c0.218,1.245-0.373,2.583-1.463,3.237
		C326.052,183.832,326.363,182.712,326.861,182.183"/>
	<path class="path" fill="none" stroke="#000" stroke-width="1" d="M78.935,95.972c-0.373-0.311-0.498-0.871-0.28-1.307c1.027,0.871,1.681,2.21,1.681,3.548
		c-0.654-0.591-1.152-1.338-1.463-2.179"/>
	<path class="path" fill="none" stroke="#000" stroke-width="1" d="M107.506,83.43c-0.031-1.183,0.747-2.334,1.867-2.708C109.529,81.874,108.471,82.745,107.506,83.43"
		/>
	<path class="path" fill="none" stroke="#000" stroke-width="1" d="M303.83,210.972c0.031-0.311,0.093-0.622,0.28-0.84c0.093-0.124,0.249-0.218,0.405-0.28
		c0.903,1.369,0.84,3.299-0.124,4.606C303.892,213.368,303.674,212.154,303.83,210.972"/>
	<path class="path" fill="none" stroke="#000" stroke-width="1" d="M167.231,101.668c0,0.622,0,1.245,0,1.867c-0.311,0.156-0.716,0.218-1.058,0.124
		c-0.591-1.245-0.685-2.739-0.28-4.046c0.436,0.685,0.84,1.369,1.276,2.085"/>
	<path class="path" fill="none" stroke="#000" stroke-width="1" d="M302.71,102.228c-0.311-0.467-0.84-0.809-1.401-0.871c-0.062-0.747,1.027-1.027,1.743-0.716
		c0.685,0.311,1.276,0.934,2.023,0.965c-0.498,0.778-1.618,1.089-2.459,0.685"/>
	<path class="path" fill="none" stroke="#000" stroke-width="1" d="M107.102,73.252c-1.027-0.685-2.054-1.401-3.05-2.116c0.498-0.622,1.556-0.56,2.147-0.031
		C106.821,71.603,107.07,72.474,107.102,73.252"/>
	<path class="path" fill="none" stroke="#000" stroke-width="1" d="M104.238,63.324c-0.436,0-0.498-0.716-0.124-0.965c0.373-0.218,0.84-0.093,1.276,0.031
		c0.871,0.56,1.338,1.712,1.058,2.739c-0.685-0.716-1.338-1.401-1.992-2.116"/>
	<path class="path" fill="none" stroke="#000" stroke-width="1" d="M133.93,74.84c-1.058,0.124-2.116-0.218-2.894-0.903c0.965-0.685,2.365-0.529,3.175,0.28
		c0.529,0.124,0.249,1.089-0.249,0.934"/>
	<path class="path" fill="none" stroke="#000" stroke-width="1" d="M205.046,105.558c0.809-0.405,1.774-0.467,2.614-0.156c0,0.84-0.56,1.681-1.369,1.992
		c-0.591-0.716-1.432-1.214-2.334-1.369c-0.062-0.467,0.622-0.56,1.058-0.436"/>
	<path class="path" fill="none" stroke="#000" stroke-width="1" d="M144.169,50.657c-0.747-0.529-1.183-1.463-1.089-2.396c0.996,0.685,1.992,1.369,2.988,2.054
		c-0.249,0.249-0.498,0.498-0.747,0.747c-0.373-0.156-0.747-0.311-1.12-0.467"/>
	<path class="path" fill="none" stroke="#000" stroke-width="1" d="M299.722,229.739c-0.28,0.218-0.685-0.373-0.342-0.56c1.369-0.218,2.708-0.436,4.077-0.654
		C302.461,229.396,301.06,229.832,299.722,229.739"/>
	<path class="path" fill="none" stroke="#000" stroke-width="1" d="M283.413,100.89c-0.56-0.218-1.152-0.467-1.525-0.934s-0.436-1.245,0-1.618
		c0.373,0.84,0.903,1.618,1.587,2.241c0.156-0.249,0.218-0.56,0.187-0.84c0.467,0.218,0.342,1.089-0.187,1.152"/>
	<path class="path" fill="none" stroke="#000" stroke-width="1" d="M304.203,110.009c-0.716,0.529-1.805,0.156-2.334-0.56s-0.56-1.65-0.467-2.552
		c0.373-0.031,0.716-0.093,1.089-0.156C302.896,107.923,303.488,109.013,304.203,110.009"/>
	<path class="path" fill="none" stroke="#000" stroke-width="1" d="M253.691,158.654c0.187,0.747,0.218,1.867-0.56,2.054c0.062-1.183-0.093-2.739-1.245-3.05
		c0.373-0.342,0.716-0.716,1.089-1.058c0.56,0.498,0.871,1.276,0.778,2.023"/>
	<path class="path" fill="none" stroke="#000" stroke-width="1" d="M228.699,146.049c0.903-0.218,1.867-0.093,2.677,0.342c-0.685,0.218-1.369,0.405-2.054,0.591
		c-0.903-0.156-1.774-0.342-2.677-0.529C227.205,145.987,227.983,145.831,228.699,146.049"/>
	<path class="path" fill="none" stroke="#000" stroke-width="1" d="M244.883,239.574c-1.867,0.654-3.921,0.622-5.727-0.093
		C241.055,239.262,242.984,239.294,244.883,239.574"/>
	<path class="path" fill="none" stroke="#000" stroke-width="1" d="M53.912,221.958c0.342,1.743,0.28,3.548-0.156,5.291C53.197,225.537,53.259,223.639,53.912,221.958"
		/>
	<path class="path" fill="none" stroke="#000" stroke-width="1" d="M163.123,131.297c0.093-1.618,0.187-3.206,0.249-4.824
		C164.212,127.967,164.119,129.896,163.123,131.297"/>
	<path class="path" fill="none" stroke="#000" stroke-width="1" d="M122.258,158c0.622-0.747,1.525-1.245,2.49-1.401c0.903-0.156,1.836,0,2.739,0.187
		C125.993,157.845,124.064,158.312,122.258,158"/>
	<path class="path" fill="none" stroke="#000" stroke-width="1" d="M281.235,77.828c-0.187-0.747,0.747-1.307,1.525-1.276c0.778,0.031,1.556,0.311,2.272,0.062
		c0.156,0.373,0.311,0.747,0.467,1.12C284.098,77.765,282.666,77.796,281.235,77.828"/>
	<path class="path" fill="none" stroke="#000" stroke-width="1" d="M117.248,193.947c-0.56-1.556-0.311-3.392,0.654-4.731
		C119.457,190.368,119.053,193.263,117.248,193.947"/>
	<path class="path" fill="none" stroke="#000" stroke-width="1" d="M140.559,101.823c-1.463-0.062-2.926-0.591-4.139-1.463c-0.342-0.124-0.498-0.591-0.28-0.871
		C137.913,98.96,139.999,100.049,140.559,101.823"/>
	<path class="path" fill="none" stroke="#000" stroke-width="1" d="M192.41,238.547c-0.249,0.934-1.401,1.245-2.365,1.183c-0.934-0.062-1.93-0.373-2.801-0.062
		c-0.062-0.373-0.093-0.747-0.124-1.12C188.893,238.36,190.667,238.36,192.41,238.547"/>
	<path class="path" fill="none" stroke="#000" stroke-width="1" d="M279.149,142.906c-0.342,0.871-1.898,0.747-2.085-0.187c1.525-0.342,3.143-0.405,4.7-0.187
		c-0.373,0.311-0.747,0.654-1.214,0.778c-0.498,0.124-1.089-0.031-1.276-0.498"/>
	<path class="path" fill="none" stroke="#000" stroke-width="1" d="M325.896,169.454c-0.934-0.342-1.836-0.654-2.77-0.996c-0.591-0.218-1.307-0.591-1.214-1.214
		c1.618-0.373,3.019,1.463,4.668,1.401C326.363,168.924,326.114,169.205,325.896,169.454"/>
	<path class="path" fill="none" stroke="#000" stroke-width="1" d="M158.61,225.755c-1.463,0.716-3.175,0.903-4.762,0.529c-0.373-0.093-0.809-0.622-0.467-0.778
		C155.124,225.599,156.867,225.662,158.61,225.755"/>
	<path class="path" fill="none" stroke="#000" stroke-width="1" d="M105.763,97.155c0.591,0.529,0.871,1.432,0.654,2.21c-1.183-1.214-2.054-2.739-2.49-4.388
		c0.84,0.436,1.525,1.183,1.867,2.054"/>
	<path class="path" fill="none" stroke="#000" stroke-width="1" d="M71.933,100.205c1.65,0.654,2.863,2.303,2.988,4.077C73.924,102.913,72.928,101.574,71.933,100.205"
		/>
	<path class="path" fill="none" stroke="#000" stroke-width="1" d="M54.566,204.342c-0.156,0.249-0.342,0.498-0.498,0.716c-0.093,0.187-0.218,0.342-0.311,0.498
		c-1.618-0.28-2.77-2.147-2.303-3.704C52.699,202.351,53.788,203.222,54.566,204.342"/>
	<path class="path" fill="none" stroke="#000" stroke-width="1" d="M142.457,111.005c-1.93,0.56-4.17-1.12-4.139-3.112c0.436-0.187,0.903-0.249,1.369-0.156
		C140.31,109.044,141.275,110.164,142.457,111.005"/>
	<path class="path" fill="none" stroke="#000" stroke-width="1" d="M49.991,188.656c0.249-0.498,0.56-0.934,0.965-1.307c0.467-0.467,1.245-0.84,1.774-0.405
		c-1.152,0.996-1.743,2.552-1.587,4.046c-0.467,0.342-1.245-0.031-1.432-0.591C49.493,189.808,49.68,189.186,49.991,188.656"/>
	<path class="path" fill="none" stroke="#000" stroke-width="1" d="M304.297,144.96c0.56,1.93,0.809,3.984,0.778,5.976C303.425,149.504,303.083,146.796,304.297,144.96
		"/>
	<path class="path" fill="none" stroke="#000" stroke-width="1" d="M77.348,82.434c-1.152,1.369-2.147,2.863-2.957,4.419C73.707,84.924,75.294,82.558,77.348,82.434"/>
	<path class="path" fill="none" stroke="#000" stroke-width="1" d="M227.952,43.903c-0.529-1.712,0.747-3.735,2.49-3.953c0.187-0.031,0.405-0.031,0.56,0.062
		c-0.342,0.591-0.965,1.027-1.65,1.152C228.886,42.067,228.419,42.97,227.952,43.903"/>
	<path class="path" fill="none" stroke="#000" stroke-width="1" d="M302.772,126.877c0.498-0.249,1.12-0.249,1.618,0c0.311,1.836,0.373,3.735,0.187,5.602
		c-0.405,0.436-0.996-0.342-1.089-0.934C303.27,129.99,303.021,128.433,302.772,126.877"/>
	<path class="path" fill="none" stroke="#000" stroke-width="1" d="M119.613,144.337c0.031-0.28,0.062-0.56,0.218-0.809c0.249-0.342,0.778-0.467,1.152-0.28
		c0.498,2.054,0.311,4.264-0.56,6.193C119.706,147.854,119.395,146.049,119.613,144.337"/>
	<path class="path" fill="none" stroke="#000" stroke-width="1" d="M157.365,101.045c-0.654-0.031-1.089-0.716-1.089-1.369c-0.031-0.622,0.311-1.214,0.622-1.774
		c0.405-0.778,0.84-1.556,1.245-2.334c0.156,0.934,0.28,1.898,0.405,2.832C158.703,99.489,158.486,101.108,157.365,101.045"/>
	<path class="path" fill="none" stroke="#000" stroke-width="1" d="M58.861,205.805c1.836-1.338,4.637-1.245,6.349,0.28C63.094,206.428,60.915,206.334,58.861,205.805"
		/>
	<path class="path" fill="none" stroke="#000" stroke-width="1" d="M256.118,156.133c-0.031-1.089,0-2.179,0.062-3.268c0.062-0.934,0.654-2.21,1.556-1.867
		c0.093,1.961,0.093,3.89,0.062,5.851c-0.031,0.249-0.031,0.529-0.187,0.716c-0.28,0.342-0.903,0.218-1.183-0.124
		C256.181,157.067,256.15,156.6,256.118,156.133"/>
	<path class="path" fill="none" stroke="#000" stroke-width="1" d="M295.956,132.479c-1.587-1.898-2.21-4.606-1.556-6.972
		C295.458,127.655,295.987,130.052,295.956,132.479"/>
	<path class="path" fill="none" stroke="#000" stroke-width="1" d="M151.825,205.338c0.871-0.093,1.743-0.187,2.614-0.28c0.156,1.152-1.587,1.93-2.334,1.058
		c-0.342,0.218-0.685,0.467-1.027,0.716c-0.436,0.156-0.965,0.342-1.432,0.124c-0.436-0.218-0.529-1.027-0.062-1.152
		c0.654,0.467,1.681,0.249,2.116-0.436"/>
	<path class="path" fill="none" stroke="#000" stroke-width="1" d="M134.925,142.19c0.311,0.405,0.405,0.965,0.405,1.494c0.031,1.65-0.311,3.268-0.965,4.762
		c-1.027-2.054-1.401-4.419-1.058-6.691C133.867,141.536,134.552,141.692,134.925,142.19"/>
	<path class="path" fill="none" stroke="#000" stroke-width="1" d="M152.292,105.216c1.183-0.156,2.365-0.311,3.517-0.498c1.12-0.124,2.521-0.156,3.112,0.809
		c-1.618,0.654-3.361,0.965-5.073,0.965C153.039,106.492,151.95,105.932,152.292,105.216"/>
	<path class="path" fill="none" stroke="#000" stroke-width="1" d="M284.814,105.34c-1.214,0.249-2.428,0.498-3.61,0.716c-1.027,0.218-2.147-0.187-2.863-0.965
		c0.498-0.28,1.089-0.405,1.681-0.342C281.515,103.94,283.538,104.189,284.814,105.34"/>
	<path class="path" fill="none" stroke="#000" stroke-width="1" d="M279.336,91.335c0.093-0.56,0.965-0.218,1.276,0.249c1.089,1.618,1.556,3.641,1.276,5.571
		c-0.809-1.774-1.65-3.579-2.459-5.353C279.367,91.646,279.305,91.491,279.336,91.335"/>
	<path class="path" fill="none" stroke="#000" stroke-width="1" d="M190.978,105.247c1.681,0.031,3.361,0.093,5.042,0.124c0.249,0.622-0.747,1.276-1.214,0.778
		c-1.432,0.093-2.863,0-4.295-0.218c-0.218,0.093-0.405-0.28-0.249-0.498C190.418,105.247,190.729,105.247,190.978,105.247"/>
	<path class="path" fill="none" stroke="#000" stroke-width="1" d="M119.146,214.955c-0.467-1.681-0.591-3.424-0.342-5.166c0.093-0.654,0.218-1.307,0.373-1.93
		C119.8,210.162,119.769,212.652,119.146,214.955"/>
	<path class="path" fill="none" stroke="#000" stroke-width="1" d="M62.782,137.895c-0.031,0.622-0.373,1.214-0.871,1.556c-0.218-0.591-1.027-0.654-1.65-0.591
		c-0.84,0.062-1.681,0.156-2.49,0.218c-0.093-0.529,0.062-1.12,0.405-1.556c1.774,0.187,3.579-0.031,5.26-0.56
		c0.156,0.218,0.218,0.529,0.156,0.809C63.343,137.926,63.062,137.957,62.782,137.895"/>
	<path class="path" fill="none" stroke="#000" stroke-width="1" d="M125.651,85.826c-0.654,0.062-1.027-0.716-1.027-1.369c-0.031-0.654,0.124-1.369-0.28-1.899
		c-0.654-0.809-2.334-0.591-2.583-1.618c1.276-0.342,2.739,0.156,3.548,1.183C126.118,83.15,126.273,84.675,125.651,85.826"/>
	<path class="path" fill="none" stroke="#000" stroke-width="1" d="M281.141,191.738c0.218,0.156,0.436,0.28,0.654,0.436c-0.342,0.062-0.342,0.56-0.124,0.809
		c0.218,0.218,0.56,0.311,0.871,0.405c0.996,0.405,1.743,1.463,1.743,2.552c-0.405,0.218-0.903,0.249-1.307,0.031
		c-0.965-0.809-1.93-1.618-2.863-2.428c0.342-0.124,0.685-0.249,1.027-0.373C281.141,192.702,281.141,192.236,281.141,191.738"/>
	<path class="path" fill="none" stroke="#000" stroke-width="1" d="M121.107,43.343c0.529-1.525,3.05-1.805,3.859-0.405c0.622,1.058,0.622,2.459,0,3.517
		c-0.778-0.249-0.622-1.369-0.809-2.179C123.846,43.063,122.072,42.503,121.107,43.343"/>
	<path class="path" fill="none" stroke="#000" stroke-width="1" d="M245.132,101.979c1.432,0.405,3.112-0.436,3.704-1.805c0.529,1.307-0.498,2.988-1.898,3.143
		c-0.996,0.093-1.992-0.467-2.988-0.249c-0.124-0.311-0.28-0.591-0.405-0.871C244.043,102.477,244.696,102.384,245.132,101.979"/>
	<path class="path" fill="none" stroke="#000" stroke-width="1" d="M230.598,94.292c-1.401-1.743-2.521-3.766-3.268-5.882
		C229.446,89.468,230.815,91.926,230.598,94.292"/>
	<path class="path" fill="none" stroke="#000" stroke-width="1" d="M190.511,91.677c-0.031,2.365-0.031,4.731-0.062,7.065c-0.996-2.272-1.058-4.917-0.156-7.252
		c-0.156,0.062-0.124-0.28,0.031-0.218C190.48,91.304,190.511,91.522,190.511,91.677"/>
	<path class="path" fill="none" stroke="#000" stroke-width="1" d="M72.462,188.937c2.521-0.778,5.229-1.027,7.874-0.685C77.97,189.652,75.014,189.901,72.462,188.937"
		/>
	<path class="path" fill="none" stroke="#000" stroke-width="1" d="M306.04,188.999c1.245-0.187,2.49-0.405,3.735-0.622c1.089-0.187,2.49-0.218,3.05,0.716
		c-1.245,0.498-2.459,0.965-3.766,1.089c-0.778,0.062-1.556,0-2.303-0.187C306.289,189.87,305.728,189.372,306.04,188.999"/>
	<path class="path" fill="none" stroke="#000" stroke-width="1" d="M289.825,229.521c2.428-0.529,4.917-0.685,7.376-0.498c0.218,0.156,0.218,0.56-0.031,0.654
		c-1.027,0.28-2.054,0.529-3.081,0.778C292.688,230.05,291.256,229.739,289.825,229.521"/>
	<path class="path" fill="none" stroke="#000" stroke-width="1" d="M187.212,105.496c-0.56,0.498-1.432,0.654-2.085,0.311c-0.654,0.685-1.712-0.062-2.303-0.778
		c2.365,0.093,4.731,0.187,7.127,0.28c-0.156,0.28-0.311,0.56-0.467,0.84C188.644,106.212,187.617,106.212,187.212,105.496"/>
	<path class="path" fill="none" stroke="#000" stroke-width="1" d="M91.789,154.639c1.681-0.342,3.361-0.654,5.042-0.996c0.965-0.156,2.085-0.311,2.77,0.373
		c-0.124,0.187-0.249,0.373-0.373,0.56C96.8,155.199,94.217,155.199,91.789,154.639"/>
	<path class="path" fill="none" stroke="#000" stroke-width="1" d="M316.902,190.182c-0.28,3.019-0.529,6.007-0.778,8.995
		C315.065,196.25,315.377,192.889,316.902,190.182"/>
	<path class="path" fill="none" stroke="#000" stroke-width="1" d="M298.134,190.617c-0.498,0.062-1.027,0.124-1.463-0.093c-0.467-0.187-0.778-0.747-0.56-1.183
		c2.739-0.654,5.571-0.84,8.372-0.56c0.218,0.685-0.747,1.12-1.463,1.214C301.371,190.213,299.753,190.399,298.134,190.617"/>
	<path class="path" fill="none" stroke="#000" stroke-width="1" d="M208.905,105.247c0-0.747,0.809-1.401,1.556-1.214c-0.218,0.903-0.467,1.836-0.342,2.739
		c0.156,0.934,0.716,1.836,1.618,2.085c0.591,0.156,0.529,1.12,0.031,1.401c-0.529,0.311-1.183,0.093-1.681-0.218
		C208.594,109.013,208.064,106.834,208.905,105.247"/>
	<path class="path" fill="none" stroke="#000" stroke-width="1" d="M158.766,89.716c0.218-2.272,0.405-4.513,0.622-6.785c0.062-0.436,0.529-0.809,0.965-0.747
		c1.214,2.21-1.525,4.917-0.716,7.314C159.326,89.561,159.046,89.623,158.766,89.716"/>
	<path class="path" fill="none" stroke="#000" stroke-width="1" d="M295.52,156.413c-0.062-2.241,0.062-4.513,0.373-6.754c0.031-0.218,0.062-0.467,0.187-0.622
		c0.218-0.342,0.716-0.436,1.027-0.218c0.28,3.175,0.187,6.349-0.249,9.493C296.018,158.529,295.551,157.316,295.52,156.413"/>
	<path class="path" fill="none" stroke="#000" stroke-width="1" d="M336.696,220.215c-1.183,0.218-2.365,0.405-3.548,0.622c-0.498,0.093-0.996,0.156-1.494,0.062
		c-0.654-0.124-1.214-0.529-1.743-0.903c2.863-0.716,5.727-1.338,8.621-1.898c0.405,0.405,0.218,1.152-0.218,1.525
		C337.847,219.997,337.256,220.122,336.696,220.215"/>
	<path class="path" fill="none" stroke="#000" stroke-width="1" d="M255.807,195.006c1.774-0.156,3.579-0.28,5.353-0.436c0.809-0.062,1.65,0.373,2.085,1.058
		c-0.996,0.124-1.992,0.249-2.988,0.373c-1.401,0.591-2.957,0.84-4.482,0.685C255.527,196.157,255.527,195.504,255.807,195.006"/>
	<path class="path" fill="none" stroke="#000" stroke-width="1" d="M256.896,103.846c-0.903-1.276,0.156-3.05-0.062-4.606c-0.093-0.747-0.529-1.432-0.965-2.116
		c-0.249-0.405-0.498-0.809-0.778-1.214c0.373-0.436,1.058-0.405,1.525-0.124c0.467,0.311,0.747,0.809,0.965,1.338
		C258.422,99.302,258.173,101.886,256.896,103.846"/>
	<path class="path" fill="none" stroke="#000" stroke-width="1" d="M229.975,129.367c1.65,0.093,3.268,0.809,4.482,1.961c-1.338,0.436-2.801,0.498-4.202,0.156
		c-0.342-0.311-0.716-0.622-1.058-0.903c0.405-0.062,0.28-0.778-0.124-0.903c-0.373-0.156-0.809,0-1.214-0.062
		c-0.436-0.062-0.809-0.591-0.498-0.84c0.747-0.249,1.525-0.28,2.272-0.187C229.757,128.838,229.851,129.118,229.975,129.367"/>
	<path class="path" fill="none" stroke="#000" stroke-width="1" d="M47.439,227.467c0.996-1.276,3.175-1.307,4.233-0.124c-1.089,0.467-2.365,0.56-3.517,0.249
		c-0.934,1.276-3.361,0.654-3.579-0.903C45.571,226.72,46.567,227,47.439,227.467"/>
	<path class="path" fill="none" stroke="#000" stroke-width="1" d="M64.588,189.092c2.179-0.156,4.357-0.311,6.536-0.498c0.436-0.031,0.996,0,1.183,0.405
		c-2.708,1.12-5.696,1.494-8.59,1.058C63.28,189.715,64.027,189.123,64.588,189.092"/>
	<path class="path" fill="none" stroke="#000" stroke-width="1" d="M72.368,171.165c1.494,0.84,2.023,2.708,2.147,4.419c0.124,1.898-0.124,3.828-0.747,5.633
		c-0.778,0.062-1.058-0.996-1.089-1.774C72.586,176.674,72.462,173.935,72.368,171.165"/>
	<path class="path" fill="none" stroke="#000" stroke-width="1" d="M77.721,132.23c-0.093-1.307-0.187-2.583-0.249-3.89c-0.093-1.214-0.187-2.49,0.156-3.704
		c1.712,2.894,2.365,6.411,1.805,9.742c-0.498,0.187-1.089-0.124-1.369-0.591C77.784,133.32,77.753,132.76,77.721,132.23"/>
	<path class="path" fill="none" stroke="#000" stroke-width="1" d="M161.753,104.126c-0.249-0.249-0.28-0.622-0.28-0.934c0-2.708,0.031-5.478,1.089-7.936
		c-0.311,2.272-0.187,4.637,0.342,6.878c0.124,0.498,0.249,1.027,0.062,1.525C162.781,104.126,162.127,104.469,161.753,104.126"/>
	<path class="path" fill="none" stroke="#000" stroke-width="1" d="M109.031,102.539c2.428-0.591,5.104-0.062,7.127,1.432c0.405,0.311,0.84,0.685,0.903,1.214
		c0.093,0.498-0.342,1.089-0.84,0.996c0.218-0.622-0.156-1.338-0.716-1.681c-0.56-0.373-1.245-0.436-1.899-0.498
		c-1.369-0.156-2.739-0.28-4.108-0.436C109.342,103.224,109.187,102.882,109.031,102.539"/>
	<path class="path" fill="none" stroke="#000" stroke-width="1" d="M196.082,119.906c-0.747-0.871-2.241-0.529-3.019,0.311c-0.747,0.84-1.027,1.992-1.401,3.081
		c-0.187,0.498-0.654,1.12-1.12,0.84c0.187-0.716,0.342-1.432,0.529-2.147c0.218-0.934,0.467-1.898,0.996-2.708
		c0.529-0.809,1.463-1.432,2.396-1.338C195.429,118.007,196.331,118.972,196.082,119.906"/>
	<path class="path" fill="none" stroke="#000" stroke-width="1" d="M245.35,195.753c-0.84-0.249-0.996-1.307-1.152-2.179c-0.187-1.12-0.622-2.21-1.245-3.175
		c-0.373-0.56-0.809-1.089-0.871-1.774c-0.031-0.654,0.591-1.401,1.214-1.152c-0.56,0.809-0.436,2.023,0.28,2.708
		C245.101,191.551,245.786,193.761,245.35,195.753"/>
	<path class="path" fill="none" stroke="#000" stroke-width="1" d="M135.33,224.79c0.156,0.249,0.311,0.498,0.467,0.747c-3.175,1.089-6.94-0.591-9.897,1.027
		c-0.062-0.747,0.84-1.183,1.587-1.214c0.747,0,1.525,0.187,2.21-0.156c0.529-0.249,1.401-0.685,1.494-0.093
		C132.529,224.666,133.961,224.572,135.33,224.79"/>
	<path class="path" fill="none" stroke="#000" stroke-width="1" d="M186.029,200.141c-0.685,0.062-0.871-0.903-0.778-1.587c0.187-1.494,0.373-2.988,0.56-4.482
		c0.093-0.934,0.218-1.898,0.809-2.614c0.405-0.498,1.027-1.152,0.591-1.618c0.965,0.498,0.622,1.93,0.218,2.926
		C186.496,195.099,186.029,197.62,186.029,200.141"/>
	<path class="path" fill="none" stroke="#000" stroke-width="1" d="M53.757,166.746c0.187,0.405,0.342,0.809,0.498,1.214c-3.361,1.058-7.065,1.152-10.488,0.249
		c0.56-0.778,1.65-0.903,2.614-0.965C48.839,167.057,51.298,166.902,53.757,166.746"/>
	<path class="path" fill="none" stroke="#000" stroke-width="1" d="M93.719,84.612c0.124,0.311,0.124,0.685-0.062,0.996c-1.432-0.373-2.241-1.805-3.05-3.05
		c-0.778-1.245-1.961-2.552-3.424-2.365c0.436-0.809,1.401-1.338,2.334-1.276C90.637,81.002,92.038,82.932,93.719,84.612"/>
	<path class="path" fill="none" stroke="#000" stroke-width="1" d="M194.184,238.764c0.062-0.311,0.28-0.622,0.56-0.747c1.618,0.529,3.33,0.747,5.042,0.56
		c1.338-0.124,3.05-0.342,3.797,0.809c-1.432,0.467-2.988,0.467-4.419-0.031c-0.373-0.156-0.84-0.342-1.214-0.124
		C196.767,239.885,195.18,239.667,194.184,238.764"/>
	<path class="path" fill="none" stroke="#000" stroke-width="1" d="M179.494,238.453c-0.467-0.187-1.214-0.249-1.214,0.249c-0.467-0.436-0.934-0.84-1.401-1.276
		c1.587,0.249,3.143,0.467,4.731,0.716c0.498,0.062,1.058,0.124,1.432-0.187c-0.031,0.373,0.778,0.342,0.716-0.062
		c0.903,0.56,2.023,0.747,3.081,0.56c0.124,0.124-0.124,0.311-0.311,0.342C184.162,239.076,181.703,239.325,179.494,238.453"/>
	<path class="path" fill="none" stroke="#000" stroke-width="1" d="M237.413,141.972c-0.405-0.156-0.809-0.311-1.214-0.498c0.249-3.673,0.218-7.376-0.124-11.049
		c1.152,0.124,1.525,1.65,1.556,2.801C237.694,136.152,237.631,139.078,237.413,141.972"/>
	<path class="path" fill="none" stroke="#000" stroke-width="1" d="M118.991,107.239c0.747-0.56,1.65-0.84,2.552-0.809c2.708-0.56,5.478-0.747,8.216-0.529
		c0.249,0.84-0.965,1.276-1.836,1.276C124.966,107.208,121.978,107.208,118.991,107.239"/>
	<path class="path" fill="none" stroke="#000" stroke-width="1" d="M235.079,240.227c-3.735-0.093-7.47-0.187-11.235-0.28c-0.436,0-1.089-0.249-0.934-0.685
		c3.299-0.56,6.66-0.685,9.99-0.311C233.803,239.076,234.861,239.356,235.079,240.227"/>
	<path class="path" fill="none" stroke="#000" stroke-width="1" d="M128.234,233.007c0.156,0.156,0.342,0.342,0.498,0.498c1.587-0.467,3.206-0.654,4.855-0.56
		c-0.031,0.373-0.031,0.778-0.031,1.152c0.093-0.405-0.56-0.405-0.934-0.249c-0.373,0.187-1.058,0.031-0.871-0.311
		c-0.342,0.498-1.058,0.56-1.681,0.56c-1.992,0-3.984,0-5.976,0c-0.591,0-1.369-0.187-1.369-0.778
		C124.562,233.225,126.398,233.131,128.234,233.007"/>
	<path class="path" fill="none" stroke="#000" stroke-width="1" d="M177.471,132.666c-1.027,0.436-2.396-0.156-2.77-1.214c2.645-0.124,5.322-0.28,7.999-0.405
		c0.934-0.062,1.961-0.093,2.739,0.436c0.529,0.311,0.903,0.996,0.622,1.494s-0.934,0.591-1.494,0.622
		c-2.179,0.062-4.451,0.124-6.318-0.934c-0.093,0.529-0.187,1.027-0.28,1.556C177.813,133.693,177.626,133.164,177.471,132.666"/>
	<path class="path" fill="none" stroke="#000" stroke-width="1" d="M237.725,152.211c-0.062,0.249-0.124,0.529-0.187,0.809c-3.237,0.747-6.567,1.12-9.897,1.058
		c-0.685,0-1.65-0.529-1.245-1.089c1.774-0.591,3.797-0.405,5.447,0.498c-0.062-0.342,0.311-0.685,0.654-0.654
		c2.303-0.311,4.637-0.654,6.94-0.996C239.001,152.274,238.285,152.429,237.725,152.211"/>
	<path class="path" fill="none" stroke="#000" stroke-width="1" d="M267.852,162.451c-0.529,0.031-1.058,0.062-1.587,0.093c-0.56-1.712-1.152-3.424-1.743-5.135
		c-0.716-1.992-1.463-4.108-3.081-5.478c1.401-0.249,2.926,0.373,3.766,1.525c0.654,0.84,0.903,1.867,1.152,2.894
		C266.856,158.374,267.354,160.428,267.852,162.451"/>
	<path class="path" fill="none" stroke="#000" stroke-width="1" d="M72.462,163.447c-1.587-2.645-1.992-5.851-2.365-8.932c-0.218-1.836-0.436-3.766,0.249-5.509
		c0.654,3.455,1.338,6.94,1.992,10.395C72.586,160.739,72.835,162.14,72.462,163.447"/>
	<path class="path" fill="none" stroke="#000" stroke-width="1" d="M135.33,184.984c-1.183-4.513-0.591-9.275-0.031-13.912c0.031-0.187,0.062-0.405,0.156-0.56
		c0.311-0.373,0.934-0.218,1.214,0.156c0.28,0.405,0.28,0.903,0.249,1.369c-0.187,3.05-0.871,6.1-0.373,9.088
		c0.124,0.747,0.342,1.525,0.218,2.272C136.668,184.175,136.108,184.922,135.33,184.984"/>
	<path class="path" fill="none" stroke="#000" stroke-width="1" d="M104.051,91.926c0.28-1.338,2.085-1.836,3.33-1.245c1.245,0.591,1.961,1.899,2.49,3.143
		c0.809,1.93,1.369,4.17,0.591,6.1c-0.156,0.405-0.467,0.871-0.903,0.934c-0.622,0.093-1.089-0.591-1.089-1.214
		c0-0.622,0.311-1.183,0.498-1.774c0.467-1.463,0.156-3.143-0.84-4.326C107.164,92.362,105.576,91.739,104.051,91.926"/>
	<path class="path" fill="none" stroke="#000" stroke-width="1" d="M260.569,140.011c0.093-0.342,0.249-0.716,0.498-0.996c0.467-3.704,1.338-7.345,2.552-10.862
		c0.249-0.716,0.716-1.556,1.463-1.432c-0.124,1.245-0.436,2.459-0.747,3.673c-0.84,3.268-1.681,6.505-2.49,9.742
		C261.409,140.105,260.974,140.074,260.569,140.011"/>
	<path class="path" fill="none" stroke="#000" stroke-width="1" d="M252.446,142.283c0.124,0.467-0.622,0.778-1.027,0.498c-0.405-0.28-0.529-0.84-0.591-1.307
		c-0.529-3.206-1.058-6.411-1.587-9.617c-0.249-1.432-0.498-2.894-0.156-4.295c1.027-0.031,1.401,1.338,1.463,2.365
		C250.796,134.098,251.45,138.237,252.446,142.283"/>
	<path class="path" fill="none" stroke="#000" stroke-width="1" d="M128.39,61.675c0.373,0.249,0.747,0.529,1.089,0.778c0.187,1.307,0.342,2.614,0,3.89
		c-0.342,1.245-1.401,2.396-2.677,2.459c-1.12,0.062-1.618,1.494-1.432,2.583c0.156,1.12,0.685,2.21,0.405,3.299
		c-0.809-0.124-1.183-1.089-1.369-1.898c-0.249-0.965-0.498-1.961-0.311-2.957c0.187-0.965,0.903-1.93,1.898-2.023
		c1.214-0.093,2.054-1.307,2.272-2.521C128.483,64.102,128.296,62.888,128.39,61.675"/>
	<path class="path" fill="none" stroke="#000" stroke-width="1" d="M127.145,135.965c-0.062-0.622-0.124-1.245,0.093-1.805c0.218-0.591,0.809-1.058,1.401-0.934
		c0.56,5.602,1.027,11.173,1.369,16.775c-0.529,0.436-1.12-0.467-1.214-1.152C128.141,144.555,127.612,140.26,127.145,135.965"/>
	<path class="path" fill="none" stroke="#000" stroke-width="1" d="M133.649,66.436c-0.778-1.214-0.218-3.019-1.12-4.17c-0.809-0.996-2.334-0.965-3.61-0.84
		c0.934-1.245,2.832-1.65,4.202-0.903c2.614,2.894,0.467,7.719,2.054,11.298c-0.311,0.062-0.591,0.093-0.903,0.124
		c-0.187-1.774-0.498-3.797-1.93-4.886C132.778,66.841,133.214,66.654,133.649,66.436"/>
	<path class="path" fill="none" stroke="#000" stroke-width="1" d="M114.945,49.443c1.992-0.965,2.801-3.673,4.886-4.326c1.027-0.311,2.179-0.062,2.957,0.685
		c1.401,1.338,3.424,1.743,5.322,2.116c-0.093,1.058-1.463,1.556-2.49,1.245c-0.996-0.311-1.774-1.12-2.645-1.743
		c-0.84-0.622-1.992-1.089-2.957-0.654c-0.934,0.436-1.307,1.556-1.898,2.428c-0.56,0.903-1.867,1.587-2.583,0.84
		C115.349,49.817,115.131,49.63,114.945,49.443"/>
	<path class="path" fill="none" stroke="#000" stroke-width="1" d="M290.634,230.797c0.28,0.124,0.249,0.622,0,0.809c-0.249,0.218-0.622,0.218-0.934,0.218
		c-2.241,0-4.451-0.031-6.66-0.031c-0.778-0.031-1.587-0.031-2.365-0.062c-2.085-0.156-4.108-0.591-6.038-1.369
		c0.218-0.622,0.965-0.903,1.65-0.871c0.685,0.031,1.307,0.311,1.961,0.498c1.338,0.373,2.739,0.28,4.139,0.249
		c2.428-0.031,4.855,0.124,7.252,0.498C289.98,230.766,290.291,230.797,290.634,230.797"/>
	<path class="path" fill="none" stroke="#000" stroke-width="1" d="M105.981,160.054c0.84,0,1.712-0.031,2.428-0.498c0.218,0.218,0.685,0.124,0.778-0.187
		c0.249,0.28,0.249,0.747,0.031,1.027c-3.268,0.218-6.536,0.747-9.71,1.587c-1.681-0.996-4.357-0.187-5.415-1.836
		c0.56-0.28,1.12-0.591,1.712-0.871c0.031,0.809,1.089,1.027,1.899,0.996C100.472,160.21,103.211,160.148,105.981,160.054"/>
	<path class="path" fill="none" stroke="#000" stroke-width="1" d="M254.749,145.613c2.739-0.031,5.509,0.218,8.185,0.747c0.125,0.311,0.218,0.591,0.311,0.903
		c0.529,0,1.089,0,1.618-0.031c0.062,0.84-0.218,1.712-0.809,2.334c-1.836-1.463-4.451-1.867-6.629-1.027
		c-0.467,0.156-0.903,0.373-1.369,0.373c-0.311-0.031-0.622-0.124-0.903-0.249c-1.805-0.716-3.641-1.401-5.447-2.116
		c0.187-0.218,0.529-0.311,0.809-0.218c0.093-0.342,0.187-0.685,0.311-1.027C252.104,145.676,253.442,145.613,254.749,145.613"/>
	<path class="path" fill="none" stroke="#000" stroke-width="1" d="M265.767,146.734c1.338-4.108,4.077-7.781,7.656-10.208c0.654-0.436,1.369-0.996,1.276-1.743
		c0.809,0.622,0.591,1.961-0.093,2.739c-0.685,0.778-1.65,1.214-2.459,1.836C269.532,141.381,268.817,145.458,265.767,146.734"/>
	<path class="path" fill="none" stroke="#000" stroke-width="1" d="M206.073,144.68c-0.622,0.093-1.245-0.436-1.463-1.027c-0.218-0.622-0.156-1.276-0.062-1.93
		c0.436-3.704,1.089-7.376,1.93-11.018c0.28-1.214,0.591-2.428,1.338-3.392c1.12,0.778,0.747,2.49,0.311,3.797
		C206.726,135.498,206.042,140.074,206.073,144.68"/>
	<path class="path" fill="none" stroke="#000" stroke-width="1" d="M141.928,148.726c-1.401-1.152-1.027-3.361-0.529-5.104c1.027-3.486,2.054-6.972,3.05-10.457
		c0.28-0.311,0.747-0.405,1.12-0.218c-0.031,2.739-0.591,5.478-1.587,8.061c-0.934,2.365-2.272,4.949-1.276,7.314
		C142.457,148.446,142.177,148.57,141.928,148.726"/>
	<path class="path" fill="none" stroke="#000" stroke-width="1" d="M152.012,133.102c1.152,1.432,0.965,3.455,0.747,5.26c-0.218,1.774-0.436,3.548-0.654,5.322
		c-0.124,0.934-0.28,1.961-1.027,2.583c-1.214,1.027-1.992,2.521-2.179,4.077c-0.685-0.56-0.685-1.65-0.342-2.49
		c0.342-0.84,0.903-1.556,1.245-2.396c0.249-0.591,0.342-1.183,0.436-1.805C150.829,140.136,151.421,136.619,152.012,133.102"/>
	<path class="path" fill="none" stroke="#000" stroke-width="1" d="M200.719,140.447c-0.249-3.797-1.618-7.407-2.863-11.018c-0.311-0.934-0.591-2.147,0.156-2.801
		c2.894,5.291,4.419,11.298,4.482,17.304C201.093,143.715,200.813,141.848,200.719,140.447"/>
	<path class="path" fill="none" stroke="#000" stroke-width="1" d="M209.994,238.796c0.436,0,1.027,0.187,0.965,0.591c0.28,0,0.529-0.218,0.591-0.498
		c0.934-0.093,1.867-0.062,2.77,0.124c2.708-0.467,5.509-0.498,8.216-0.062c0.405,0.498-0.56,1.027-1.214,0.996
		c-5.073-0.062-10.115-0.124-15.188-0.187c0.156-0.342,0.311-0.685,0.467-1.027c0.342,0.062,0.685,0.28,0.871,0.591
		C208.189,238.796,209.123,238.796,209.994,238.796"/>
	<path class="path" fill="none" stroke="#000" stroke-width="1" d="M231.874,47.327c-0.124-0.405-0.031-0.903,0.218-1.245c0.436,0.311,0.778,0.778,0.965,1.276
		c0.405-0.031,0.809-0.031,1.214-0.031c0.529-0.716,0.124-1.712-0.405-2.428c-0.498-0.716-1.12-1.525-0.903-2.396
		c1.587,1.65,3.143,3.268,4.7,4.886c-1.774-0.124-3.61,0.622-4.824,1.93c-0.591-1.245-2.739-0.405-3.766-1.338
		c-0.56-0.498-0.591-1.432-0.218-2.085c0.373-0.654,1.058-1.089,1.774-1.338c-0.062,0.467,0.28,0.965,0.716,1.089
		c-0.311,0.311-0.622,0.622-0.903,0.903c0.124,0.28,0.28,0.529,0.436,0.809C231.22,47.327,231.531,47.327,231.874,47.327"/>
	<path class="path" fill="none" stroke="#000" stroke-width="1" d="M67.202,120.186c-0.56,0.093-0.871-0.622-0.871-1.214c-0.062-1.836,0.809-3.641,1.992-5.073
		c1.183-1.432,2.677-2.552,4.17-3.673c0.28,0.249,0.56,0.498,0.84,0.747c-1.027,0.996-2.054,1.961-3.081,2.926
		c-0.436,0.405-0.903,0.903-0.778,1.494c0.124,0.685,0.903,0.965,1.587,1.12c1.089,0.249,2.21,0.498,3.299,0.747
		c0.062,0.342,0.124,0.685,0.156,0.996c-2.21,0.249-4.544-0.405-6.318-1.743C67.855,117.727,67.544,118.972,67.202,120.186"/>
	<path class="path" fill="none" stroke="#000" stroke-width="1" d="M78.406,168.676c-1.027-0.436-0.903-1.93-0.622-3.019c0.498-1.805,0.996-3.61,1.494-5.415
		c0.405-1.494,0.84-3.081,0.436-4.575c-0.622-2.303-0.342-4.824,0.809-6.878c0.28,2.552,0.56,5.104,0.84,7.656
		c0.093,0.84,0,1.992-0.84,2.147c-0.934,3.05-1.245,6.256-0.934,9.43C79.122,168.053,78.686,168.302,78.406,168.676"/>
	<path class="path" fill="none" stroke="#000" stroke-width="1" d="M170.717,98.493c0.467-0.467,0.809-1.027,1.027-1.65c0.498-0.093,0.996-0.031,1.432,0.218
		c-0.809,0.467-1.214,1.463-1.183,2.396c0.062,0.934,0.436,1.805,0.809,2.677c0.654,1.525,1.338,3.05,1.992,4.575
		c-1.93-1.307-3.424-3.268-4.108-5.509c-0.903-3.05-5.851-3.455-6.567-6.536C166.578,95.412,168.85,96.719,170.717,98.493"/>
	<path class="path" fill="none" stroke="#000" stroke-width="1" d="M275.882,40.853c1.089,1.214,3.206,1.338,4.451,0.249c0.031,1.369-1.494,2.396-2.863,2.272
		c-1.369-0.124-2.521-1.089-3.392-2.147c-0.622-0.156-1.276-0.342-1.898-0.187c-0.622,0.156-1.183,0.809-0.996,1.432
		c0.156,0.498,0.685,0.778,1.152,0.965c1.276,0.591,2.583,1.152,3.859,1.743c-0.622,1.089-2.614-1.027-3.392-0.031
		c-0.716,0.903-2.303,0.342-2.77-0.685c-0.498-1.058-0.187-2.272,0.093-3.392C271.462,39.328,274.419,39.204,275.882,40.853"/>
	<path class="path" fill="none" stroke="#000" stroke-width="1" d="M291.287,140.945c-0.031-0.28-0.093-0.591-0.156-0.871c1.152-0.934,2.832-0.809,4.264-0.436
		c1.463,0.373,2.926,0.903,4.388,0.56c2.428-0.56,5.042-0.124,7.189,1.152c0.498,0.311,1.027,0.778,0.934,1.338
		c-1.867,0.934-4.015-0.903-6.1-0.747c-1.432,0.093-2.614,1.089-3.922,1.65c-1.338,0.56-3.268,0.373-3.673-0.996
		c0.903-0.187,1.867-0.187,2.77,0C295.645,140.976,293.31,140.322,291.287,140.945"/>
	<path class="path" fill="none" stroke="#000" stroke-width="1" d="M100.815,75.369c-0.124,0.311-0.218,0.622-0.311,0.965c-2.21-0.062-4.419-0.031-6.598,0.124
		c-0.218-0.187-0.187-0.591,0.062-0.747c1.494-1.463,2.334-3.548,2.21-5.633c-0.031-0.591,0.747-0.871,1.307-0.778
		c0.591,0.124,1.152,0.405,1.712,0.28c1.058-0.218,1.307-1.587,1.245-2.677c-0.062-1.089-0.062-2.428,0.934-2.894
		c-0.031,1.494-0.093,3.019-0.124,4.513c0,0.778-0.405,1.836-1.12,1.587c-1.058-0.311-2.272,0.187-2.988,1.058
		c-0.685,0.871-0.934,2.023-0.903,3.143c0,0.28,0.031,0.591,0.218,0.778c0.218,0.28,0.622,0.28,0.996,0.28
		C98.574,75.369,99.694,75.369,100.815,75.369"/>
	<path class="path" fill="none" stroke="#000" stroke-width="1" d="M161.287,132.604c0.187,4.139,0.249,8.621-2.179,11.951c0.311-3.579,0.498-7.127,0.591-10.706
		c0.124-4.357,0.093-8.746-0.685-13.009c0.373-0.28,0.809,0.187,0.996,0.622c0.871,2.054,0.965,4.326,1.058,6.536
		C161.162,129.523,161.224,131.079,161.287,132.604"/>
	<path class="path" fill="none" stroke="#000" stroke-width="1" d="M167.885,149.317c-0.778-0.062-1.494,0.436-2.272,0.654c-0.778,0.187-1.899-0.249-1.774-1.027
		c0.373-0.124,0.778-0.031,1.058,0.187c0.124-0.311,0.218-0.622,0.311-0.934c0.187,0.124,0.373,0.249,0.56,0.373
		c1.681-0.342,3.361-0.436,5.073-0.56c3.953-0.218,7.936-0.467,11.92-0.716c1.152-0.062,2.459-0.093,3.299,0.747
		c0.187,0.187,0.311,0.654,0,0.716c-0.28-0.28-0.871-0.031-0.84,0.373c-0.187-0.529-0.965-0.56-1.525-0.467
		C178.467,149.504,173.145,149.722,167.885,149.317"/>
	<path class="path" fill="none" stroke="#000" stroke-width="1" d="M168.103,132.946c2.396,0.093,4.762,0.156,7.158,0.218c-0.218,0.436,0.156,0.965,0.622,1.089
		c0.467,0.156,0.965,0,1.401-0.156c-1.089,1.463-0.747,3.517-0.654,5.353c0.093,2.272-0.28,4.606-1.369,6.629
		c-0.373-0.405-0.373-1.027-0.342-1.587c0.156-3.112,0.28-6.225,0.405-9.337c-3.89-0.156-7.812-0.093-11.733,0.218
		c0-0.965,0.778-1.774,1.681-2.116C166.142,132.915,167.138,132.915,168.103,132.946"/>
	<path class="path" fill="none" stroke="#000" stroke-width="1" d="M82.297,102.352c-1.338-1.712-0.124-4.202-0.28-6.38c-0.062-1.058-0.467-2.085-1.152-2.894
		c0.28-0.311,0.778-0.405,1.183-0.218c0.996,1.401,1.432,3.206,1.12,4.917c-0.156,1.058-0.591,2.179-0.062,3.112
		c0.436,0.716,1.307,1.027,2.085,1.369c2.085,0.965,3.766,2.739,4.606,4.855c0.311,0.716,1.214,0.965,2.023,0.934
		c0.778,0,1.618-0.156,2.303,0.187c-0.124,0.218-0.249,0.436-0.373,0.654c-1.027-0.218-2.085,0.124-3.143,0.156
		c-1.058,0.062-2.303-0.405-2.521-1.432c-0.311-1.401-1.276-2.677-2.521-3.392C84.475,103.597,83.106,103.317,82.297,102.352"/>
	<path class="path" fill="none" stroke="#000" stroke-width="1" d="M187.617,156.538c-2.894,0.124-5.789,0.218-8.683,0.342c-5.789,0.311-11.578,0.747-17.367,1.338
		c-0.498,0.062-0.716-0.716-0.436-1.12c0.311-0.373,0.871-0.498,1.369-0.56c6.007-0.809,12.076-1.214,18.145-1.183
		c1.307,0,2.521-0.436,3.797-0.591c1.276-0.187,2.708-0.062,3.61,0.84C187.897,155.915,187.772,156.226,187.617,156.538"/>
	<path class="path" fill="none" stroke="#000" stroke-width="1" d="M57.647,140.011c-2.957,0.093-5.913,0.591-8.87,0.467c-2.023-0.062-4.046-0.156-6.069-0.218
		c-0.436-0.031-0.871-0.031-1.307-0.062c-2.894-0.156-5.758-0.56-8.59-1.245c-0.187-0.591,0.342-1.214,0.934-1.401
		c0.591-0.156,1.245-0.031,1.836,0.062c2.085,0.373,4.17,0.405,6.287,0.311c2.241-0.062,4.513-0.218,6.754-0.498
		c1.93-0.249,3.984,0.373,5.447,1.65C55.219,138.486,56.589,139.264,57.647,140.011"/>
	<path class="path" fill="none" stroke="#000" stroke-width="1" d="M281.577,65.441c-0.436-0.809-0.249-1.867,0.311-2.645c0.529-0.778,1.338-1.276,2.147-1.774
		c0.809-0.467,1.65-0.934,2.583-0.903c0.903,0.062,1.836,0.84,1.743,1.743c-0.187,1.369,0.156,2.77,0.903,3.921
		c-0.903,0.405-1.743-0.685-1.867-1.618c-0.124-0.965,0.062-2.023-0.498-2.801c-1.401-0.498-2.739,0.809-3.641,1.992
		c-0.373,0.467-0.778,1.027-0.778,1.65s0.685,1.245,1.245,0.965c0.405,0.156,0.249,0.84-0.124,1.089
		c-0.373,0.28-0.84,0.373-1.152,0.716c-0.342,0.405-0.249,1.058,0.156,1.369c0.405,0.311,1.089,0.218,1.369-0.218
		c0.654,0.124,1.338,0.062,1.992-0.187c0.436,0.685,0.436,1.618-0.031,2.272c-1.494-1.089-3.641-1.214-5.26-0.311
		C279.772,69.082,282.511,67.059,281.577,65.441"/>
	<path class="path" fill="none" stroke="#000" stroke-width="1" d="M143.764,42.254c-0.903,0.28-1.774,0.747-2.49,1.369c0.56,2.739-1.12,5.758-3.766,6.754
		c-0.467-0.965,0.218-2.085,0.934-2.832c0.747-0.778,1.65-1.525,1.805-2.583c0.062-0.685-0.187-1.369-0.031-2.023
		c0.311-1.276,1.93-1.65,3.237-1.587c0.809,0.031,1.65,0.156,2.303,0.56c0.685,0.436,1.214,1.214,1.058,2.023
		c-0.093,0.405-0.342,0.778-0.436,1.183c-0.093,0.405,0.031,0.965,0.436,1.058c1.058,0.311,2.054,1.027,2.521,2.023
		c0.498,1.027,0.373,2.334-0.405,3.112c-0.342,0.311-0.747-0.311-0.778-0.747c-0.093-0.622-0.156-1.214-0.218-1.805
		c-1.774-0.778-3.206-2.272-3.89-4.077c0.498-0.311,1.089-0.467,1.65-0.436C145.943,43.156,144.854,42.067,143.764,42.254"/>
	<path class="path" fill="none" stroke="#000" stroke-width="1" d="M199.475,71.416c-2.085-0.716-3.019-3.268-2.894-5.478c0.062-0.716,0.187-1.463,0-2.147
		c-0.218-0.716-0.871-1.369-1.587-1.245c-0.373,0.062-0.716,0.342-0.996,0.591c-0.903,0.747-1.836,1.65-1.867,2.801
		c-0.031,0.747,0.311,1.463,0.436,2.179c0.124,0.747-0.093,1.65-0.809,1.867c-1.525,0.467-2.77,1.805-3.143,3.33
		c-0.996-1.276-0.342-3.424,1.183-3.984c0.996-0.342,0.871-1.774,0.871-2.832c-0.031-1.712,0.84-3.424,2.21-4.451
		c0.965-0.716,2.241-1.089,3.392-0.747c1.12,0.373,2.023,1.587,1.743,2.739C197.452,66.53,198.79,68.957,199.475,71.416"/>
	<path class="path" fill="none" stroke="#000" stroke-width="1" d="M95.897,104.251c-1.774,0.965-3.859,1.401-5.882,1.183c0.156-0.903,1.214-1.369,2.147-1.401
		c0.934-0.062,1.899,0.062,2.739-0.373c1.618-0.903,1.338-3.237,1.556-5.104c0.373-3.33,3.392-6.193,6.754-6.442
		c0.436,0.218,0.218,0.965-0.218,1.183c-0.436,0.218-0.934,0.124-1.432,0.187c-1.836,0.218-2.801,2.241-3.392,3.984
		c-0.467,1.276-0.903,2.583-0.934,3.921c0,1.369,0.498,2.801,1.618,3.548c0.436,0.28,0.934,0.467,1.307,0.809
		s0.622,0.934,0.342,1.369c-0.934-0.249-1.494-1.152-2.116-1.898C97.765,104.469,96.738,103.815,95.897,104.251"/>
	<path class="path" fill="none" stroke="#000" stroke-width="1" d="M123.534,58.594c-0.156-0.28-0.311-0.56-0.467-0.871c1.494-1.743,3.61-2.894,5.882-3.237
		c0.716-0.125,1.183-0.871,1.338-1.618c0.156-0.747,0.093-1.525,0.342-2.241c0.467-1.307,1.992-2.179,3.361-1.836
		c1.369,0.311,2.365,1.774,2.147,3.175c-0.373,2.614,0.996,5.384,3.299,6.691c-1.338,0.996-3.33-0.156-3.984-1.681
		c-0.654-1.556-0.467-3.299-0.685-4.949c-0.062-0.622-0.249-1.307-0.809-1.587c-1.027-0.56-2.116,0.809-2.303,1.992
		c-0.156,1.183-0.124,2.583-1.12,3.268c-0.622,0.436-1.463,0.342-2.21,0.529C126.553,56.695,125.34,58.687,123.534,58.594"/>
	<path class="path" fill="none" stroke="#000" stroke-width="1" d="M115.598,201.759c-0.062-0.467-0.156-0.903-0.218-1.369c-0.28-1.587-0.529-3.268,0.093-4.762
		c0.778,1.463,1.463,2.957,2.054,4.482c6.505,1.183,13.134-0.965,19.732-0.591c0.778,0.031,1.743,0.218,2.023,0.965
		c-2.521,0.56-5.104,0.84-7.687,0.871c-1.681,0-3.424-0.124-5.042,0.342c-3.05,0.809-6.38,0.716-9.368-0.342
		c0.124,1.307-0.062,2.645-0.529,3.89C116.034,204.187,115.816,202.973,115.598,201.759"/>
	<path class="path" fill="none" stroke="#000" stroke-width="1" d="M185.096,46.922c0.529-0.249,1.152,0.187,1.432,0.716c0.249,0.498,0.311,1.12,0.591,1.618
		c0.56,1.089,1.961,1.992,1.494,3.112c-1.338-0.218-1.992-1.65-2.645-2.832c-0.622-1.183-1.898-2.428-3.112-1.867
		c0.56-1.183,0.84-2.49,1.432-3.641c0.591-1.152,1.65-2.21,2.957-2.303c0.529-0.062,1.058,0.062,1.556,0.28
		c2.023,0.809,3.455,2.988,3.392,5.166c0.56,0.342,1.276,0.187,1.93,0.124c0.654-0.031,1.463,0.249,1.525,0.903
		c0.062,0.84-1.12,1.12-1.992,1.058c-1.152-0.062-2.334-0.156-3.392-0.654c-1.058-0.529-1.93-1.556-1.867-2.739
		c0.654,0.373,1.245,0.903,1.681,1.494c0.654-0.965,0.56-2.334-0.218-3.175c-0.747-0.84-2.085-1.089-3.112-0.56
		C185.594,44.215,185.065,45.615,185.096,46.922"/>
	<path class="path" fill="none" stroke="#000" stroke-width="1" d="M293.995,191.364c-0.716-2.677-0.778-5.509-0.249-8.216c0.156-0.747,0.996-1.681,1.494-1.089
		c0.156,0.187,0.187,0.436,0.187,0.685c0.249,10.333,0.093,20.635-0.467,30.936c-0.373,0.467-1.214,0.249-1.525-0.249
		c-0.342-0.498-0.342-1.152-0.311-1.743c0.125-3.019,0.218-6.007,0.342-9.026c0.062-2.428,0.156-4.886,0.28-7.314
		C293.808,194.041,293.902,192.702,293.995,191.364"/>
	<path class="path" fill="none" stroke="#000" stroke-width="1" d="M175.167,49.35c0.249-0.529,0.747-0.84,1.245-1.152c0.84-0.529,1.867-1.089,2.801-0.747
		c1.867,0.622,1.369,3.61,2.708,5.042c1.276,1.369,3.673,0.903,5.073,2.147c1.089,0.965,1.058,2.926-0.062,3.859
		c-0.498,0.062-0.373-0.716-0.28-1.183c0.124-0.685-0.311-1.369-0.903-1.743c-0.56-0.373-1.245-0.498-1.93-0.685
		c-1.712-0.436-3.579-1.307-4.015-3.019c-0.156-0.622-0.093-1.338-0.373-1.898c-0.436-0.809-1.556-1.152-2.334-0.685
		c-0.778,0.436-1.058,1.587-0.591,2.334c0.498,0.809-0.062,1.898-0.84,2.49c-0.747,0.591-1.712,0.903-2.365,1.587
		c-0.56,0.56-0.871,1.307-1.432,1.836c-0.529,0.56-1.494,0.871-2.085,0.342c0.654-2.179,2.334-3.984,4.451-4.793
		c0.622-0.249,0.84-1.058,0.809-1.743C175.012,50.657,174.856,49.941,175.167,49.35"/>
	<path class="path" fill="none" stroke="#000" stroke-width="1" d="M114.758,57.629c-0.373-0.093-0.716-0.342-0.934-0.654c-0.156,0.778-1.307,0.591-1.898,0.093
		c-0.591-0.529-1.245-1.245-1.961-1.027c-0.716,0.249-1.463-0.342-1.712-1.027c-0.28-0.685-0.249-1.432-0.311-2.179
		c-0.124-1.027-0.498-2.054-1.276-2.708c-0.778-0.654-2.023-0.84-2.832-0.218c-1.369,1.058-0.654,3.268-1.245,4.886
		c-0.747,1.992-3.206,2.645-5.291,3.019c-0.467,0.093-0.934,0.156-1.369,0c-0.436-0.156-0.747-0.654-0.591-1.058
		c0.996-0.311,1.992-0.591,2.988-0.871c0.84-0.249,1.712-0.529,2.272-1.214c0.934-1.152,0.467-2.863,0.965-4.264
		c0.622-1.743,2.863-2.614,4.606-2.023c1.774,0.591,2.988,2.365,3.237,4.202c0.093,0.56,0.093,1.183,0.373,1.681
		c0.311,0.498,1.027,0.809,1.463,0.467c0.529,1.089,2.023,1.618,3.143,1.089c0.529,0.311,1.058,0.654,1.587,0.965
		C115.442,56.819,114.976,57.162,114.758,57.629"/>
	<path class="path" fill="none" stroke="#000" stroke-width="1" d="M201.778,50.782c-1.245,1.401-4.046,0.56-5.011,2.179c-0.436,0.716-0.311,1.587-0.311,2.428
		c0.031,0.809-0.218,1.774-0.965,2.085c-1.027-1.618-0.965-3.859,0.156-5.415c1.089-1.556,3.206-2.334,5.042-1.899
		c-0.249-1.089-0.373-2.241,0-3.299c0.342-1.058,1.214-1.992,2.303-2.147c0.934-0.124,1.836,0.28,2.583,0.871
		c1.12,0.871,1.93,2.179,2.241,3.579c0.187,0.996,0.373,2.334,1.401,2.552c1.961,0.405,2.739,3.361,1.276,4.7
		c0.093-1.214-0.467-2.49-1.432-3.237c-0.436-0.342-0.965-0.591-1.369-0.965c-0.965-0.903-1.152-2.334-1.587-3.579
		c-0.405-1.245-1.432-2.552-2.739-2.365c-0.871,0.156-1.525,0.996-1.712,1.867C201.466,49.008,201.622,49.91,201.778,50.782"/>
	<path class="path" fill="none" stroke="#000" stroke-width="1" d="M278.807,46.082c0.187-0.498,0.405-1.058,0.871-1.338c0.311-0.218,0.685-0.28,0.996-0.467
		c1.369-0.716,1.245-2.926,2.552-3.735c0.903-0.529,2.147-0.125,2.832,0.685c0.716,0.778,1.027,1.836,1.307,2.863
		c0.996,3.548,1.961,7.096,2.957,10.675c-1.245,0.28-2.054-1.276-2.365-2.49c-0.654-2.583-1.307-5.135-1.961-7.687
		c-0.218-0.84-0.467-1.712-1.183-2.21c-0.685-0.498-1.93-0.156-1.961,0.685c-0.031,1.463-1.556,2.365-2.459,3.517
		c-1.712,2.21-1.027,5.384-1.432,8.123c-0.903,0.156-1.307-1.058-1.307-1.961C277.687,50.47,278.091,48.23,278.807,46.082"/>
	<path class="path" fill="none" stroke="#000" stroke-width="1" d="M153.008,71.447c1.525-1.089,2.428-2.988,2.365-4.855c-0.062-1.027,0.622-1.898,1.152-2.77
		c0.56-0.871,0.934-2.023,0.373-2.832c1.307-0.529,2.739-0.84,4.17-0.934c0.56-0.031,1.152-0.031,1.681,0.156
		c1.65,0.654,1.992,2.77,2.085,4.513c0.062,1.432,0.156,2.832,0.218,4.264c0.062,0.84,0.778,1.463,1.556,1.836
		c0.747,0.342,1.587,0.529,2.272,1.027c0.436,0.342,0.778,1.089,0.28,1.369c-0.218,0.124-0.498,0.062-0.747-0.031
		c-1.681-0.498-3.548-1.152-4.295-2.739c-0.311-0.685-0.405-1.432-0.467-2.179c-0.093-1.089-0.187-2.179-0.28-3.268
		c-0.093-1.307-0.342-2.832-1.494-3.486c-0.809-0.467-1.899-0.28-2.677,0.218c-0.809,0.529-1.369,1.338-1.836,2.179
		c-0.28,0.529-0.529,1.089-0.622,1.681c-0.187,1.183,0.342,2.396,0.156,3.579C156.618,70.856,154.595,72.039,153.008,71.447"/>
	<path class="path" fill="none" stroke="#000" stroke-width="1" d="M285.187,224.572c-0.373,0.311-1.027,0.249-1.307-0.156c-0.903,0.187-1.867,0.249-2.801,0.311
		c-3.237,0.156-6.505,0.342-9.742,0.529c-0.934,0.031-1.836,0.093-2.77,0.124c-6.629,0.373-13.258,0.747-19.888,0.622
		c0.187-0.809,1.245-0.996,2.054-1.027c1.93-0.093,3.828-0.156,5.758-0.218c9.119-0.373,18.269-0.716,27.419-1.058
		C284.503,223.67,285.405,223.981,285.187,224.572"/>
	<path class="path" fill="none" stroke="#000" stroke-width="1" d="M147.126,223.483c0.031,0.934-0.747,1.743-1.65,2.085c-0.871,0.342-1.836,0.311-2.801,0.249
		c-1.401-0.062-2.801-0.124-4.233-0.218c-0.124-0.218-0.28-0.436-0.436-0.654c0.84-0.529,2.116-0.342,2.708,0.467
		c0.031-0.311,0.436-0.405,0.747-0.436c0.778-0.062,1.525-0.093,2.303-0.156c0.436-0.031,0.871-0.062,1.214-0.342
		c0.467-0.342,0.529-0.996,0.591-1.587c0.467-4.886,0.871-9.773,1.152-14.659c0.093-1.525,0.187-3.019,0.187-4.513
		c0.031-1.463-0.031-2.926-0.156-4.357c0.716-0.28,1.525-0.124,2.085,0.373c-0.062,0.871-0.124,1.743-0.187,2.645
		c-0.187,2.645-0.249,5.322-0.218,7.999C148.495,214.769,147.001,219.095,147.126,223.483"/>
	<path class="path" fill="none" stroke="#000" stroke-width="1" d="M268.412,48.728c-0.498-0.342-1.089-0.591-1.494-1.089c-0.529-0.716-0.436-1.681-0.498-2.552
		c-0.062-1.058-0.436-2.147-1.245-2.832c-0.809-0.654-2.148-0.747-2.894,0.031c-0.685,0.747-0.591,1.898-0.311,2.894
		c0.28,0.965,0.716,1.961,0.498,2.988c-2.179,0.498-3.828,2.708-3.735,4.949c-0.498,0.529-1.307-0.405-1.307-1.152
		c0-1.556,0.996-3.05,2.428-3.673c0.436-0.218,0.965-0.373,1.183-0.809c0.218-0.405-0.28-1.089-0.654-0.778
		c0-1.712-0.996-3.579-0.062-5.011c0.218-0.405,0.591-0.685,0.965-0.903c2.303-1.369,5.758,0.031,6.442,2.645
		c0.342,1.369,0.093,3.05,1.152,4.046c0.716,0.654,1.898,0.778,2.428,1.618c0.249,0.405,0.28,0.934,0.249,1.463
		c-0.062,1.774-0.56,3.517-1.432,5.073C270.373,53.147,270.435,50.19,268.412,48.728"/>
	<path class="path" fill="none" stroke="#000" stroke-width="1" d="M8.753,165.252c-0.28,0.716-1.587,0.622-1.743-0.156c3.704-1.089,7.625-1.12,11.484-1.152
		c7.345,0,14.659-0.031,22.004-0.062c1.432,0,3.112,0.156,3.797,1.401c-4.451-0.031-8.901-0.062-13.321-0.093
		c-4.077-0.031-8.154-0.031-12.2,0.156c-2.521,0.124-5.042,0.249-7.563,0.373c-0.218-0.28-0.591-0.436-0.965-0.405
		C10.091,165.968,8.877,165.937,8.753,165.252"/>
	<path class="path" fill="none" stroke="#000" stroke-width="1" d="M64.619,139.513c0.342,0,0.654-0.031,0.996-0.062c0.187-0.218,0.124-0.622-0.156-0.716
		c1.183-0.311,2.085-1.401,2.21-2.614c-0.654,0.124-1.307-0.373-1.618-0.965c-0.28-0.622-0.311-1.307-0.311-1.992
		c-0.062-2.085-0.093-4.17-0.156-6.256c0.373-0.934,0.778-1.899,1.152-2.863c0.56,3.05,0.903,6.1,0.965,9.181
		c0.031,1.618,1.712,2.988,3.299,2.677c-1.556,1.867-3.143,3.704-4.7,5.54c-0.591,0.685-1.183,1.369-1.992,1.712
		c-1.525,0.685-3.641,0.124-4.637,1.463c-1.525,1.992-3.361,3.735-5.415,5.198c-0.405-0.747,0.187-1.65,0.747-2.272
		c1.401-1.618,2.801-3.268,4.202-4.886c1.65-0.156,3.268-0.529,4.793-1.12C64.681,141.132,64.961,140.229,64.619,139.513"/>
	<path class="path" fill="none" stroke="#000" stroke-width="1" d="M221.634,202.226c-1.027,3.517-1.432,7.221-1.12,10.862c0.062,1.152,0.093,2.552-0.903,3.081
		c-0.405-4.295-0.342-8.652,0.187-12.978c0.124-0.778,0.311-1.712,1.027-2.054c1.152-0.529,2.023-1.65,2.241-2.894
		c0.124,8.248,0.249,16.495,0.373,24.743c-0.965-0.187-1.245-1.401-1.307-2.365c-0.342-5.415-0.373-10.831-0.124-16.215
		C222.07,203.658,222.07,202.849,221.634,202.226"/>
	<path class="path" fill="none" stroke="#000" stroke-width="1" d="M225.4,177.795c-0.871-3.61,1.401-7.283,1.214-11.018c-0.031-0.934-0.249-1.867-0.436-2.77
		c-0.467-2.147-0.934-4.264-1.401-6.411c-0.716-3.206-1.401-6.567-0.654-9.773c0.342-1.307,0.903-2.677,0.467-3.953
		c-0.28-0.778,0.373-1.556,1.058-1.961c0.654-0.436,1.463-0.778,1.836-1.494c0.498,0.311,0.56,1.058,0.342,1.587
		c-0.249,0.529-0.685,0.934-1.027,1.432c-0.498,0.747-0.716,1.618-0.934,2.49c-0.747,2.832-1.463,5.851-0.498,8.621
		c1.867,5.447,3.019,11.111,3.455,16.869c-0.56,0.187-1.12,0.405-1.681,0.591C227.454,174.06,226.801,176.238,225.4,177.795"/>
	<path class="path" fill="none" stroke="#000" stroke-width="1" d="M220.358,73.782c-1.058-1.089-0.031-2.832,0.031-4.357c0.062-1.152-0.467-2.272-0.529-3.424
		c-0.093-1.152,0.622-2.583,1.805-2.49c-0.436,0.903-0.871,1.867-0.871,2.894c0,0.996,0.529,2.116,1.494,2.428
		c0.965,0.311,2.21-0.529,2.023-1.525c-0.56-2.739,1.152-5.727,3.766-6.66c1.743-0.187,3.517,0.996,3.984,2.677
		c0.311,1.152,0.062,2.396,0.156,3.579c0.093,1.183,0.747,2.552,1.93,2.708c0.809,0.125,1.494,0.965,1.432,1.805
		c-0.062,0.809-0.84,1.525-1.681,1.525c0.716-0.249,0.498-1.369-0.124-1.805c-0.622-0.405-1.432-0.436-2.085-0.809
		c-1.089-0.591-1.525-2.116-0.903-3.175c0.56-0.996,0.498-2.334-0.124-3.268c-0.622-0.965-1.805-1.525-2.957-1.432
		c-1.089,0.124-1.805,1.276-1.961,2.365c-0.187,1.089-0.031,2.21-0.28,3.268c-0.218,1.089-1.089,2.147-2.179,2.085
		c-0.778-0.062-1.463,0.529-1.774,1.245c-0.342,0.685-0.342,1.494-0.373,2.241C220.887,73.719,220.638,73.75,220.358,73.782"/>
	<path class="path" fill="none" stroke="#000" stroke-width="1" d="M174.421,237.706c-1.027,0.187-2.085,0.062-3.05-0.373c-1.712,0.529-3.548,0.529-5.26,0.062
		c-6.287-0.965-12.605-1.65-18.923-2.054c-3.641-0.218-7.283-0.373-10.893-0.871c-0.405-0.062-0.903-0.28-0.809-0.685
		c8.154,0,16.308,0.529,24.4,1.65c1.152-0.467,2.459-0.031,3.673,0.342c3.455,1.058,7.127,1.369,10.737,0.903
		C174.327,237.022,174.389,237.364,174.421,237.706"/>
	<path class="path" fill="none" stroke="#000" stroke-width="1" d="M214.694,109.573c-0.156-0.373-0.311-0.716-0.467-1.089c1.494-0.934,3.143-1.836,4.886-1.743
		c2.085,0.124,3.828,1.681,4.98,3.424c2.521,3.766,2.957,8.528,2.894,13.041c-0.031,4.544-0.529,9.119,0.405,13.538
		c0.249,1.152,0.529,2.49-0.218,3.392c-1.214-1.867-1.432-4.17-1.587-6.38c-0.249-3.641-0.311-7.314-0.218-10.955
		c0.031-1.432,0.093-2.863-0.031-4.295c-0.249-2.708-1.152-5.353-2.677-7.625c-0.871-1.369-2.241-2.708-3.859-2.583
		C217.37,108.421,216.156,109.666,214.694,109.573"/>
	<path class="path" fill="none" stroke="#000" stroke-width="1" d="M68.696,226.222c5.509-0.405,11.018-0.809,16.557-1.214c1.463-0.093,2.926-0.218,4.388-0.218
		c2.365-0.062,4.731,0.124,7.127,0.311c3.548,0.28,7.096,0.56,10.675,0.84c0.311,0.187,0.218,0.747-0.093,0.965
		c-0.311,0.218-0.716,0.187-1.089,0.156c-13.881-0.716-27.824-0.311-41.643,1.214C65.615,227.093,67.14,226.315,68.696,226.222"/>
	<path class="path" fill="none" stroke="#000" stroke-width="1" d="M58.083,110.911c0.187-1.992,0.373-3.984,0.591-5.976c0.031-0.498,0.093-1.027,0.373-1.432
		c0.311-0.467,0.84-0.716,1.338-0.934c1.836-0.809,3.89-1.65,5.727-0.871c0.685,0.311,1.525-0.062,1.992-0.654
		c0.467-0.591,0.654-1.338,0.809-2.085c0.342-1.494,0.716-2.988,1.058-4.513c0.249-1.12,0.56-2.303,1.307-3.175
		c0.622-0.716,1.494-1.183,2.365-1.618c1.214-0.622,2.645-1.214,3.921-0.716c1.494,0.622,2.023,2.428,3.143,3.579
		c-1.089-0.124-1.867-1.089-2.77-1.681c-2.147-1.338-5.415-0.218-6.287,2.179c-0.249,0.685-0.311,1.432-0.405,2.147
		c-0.405,2.49-1.369,4.917-2.801,7.003c-0.529,0.747-1.432,1.556-2.272,1.152c-1.027-0.498-2.179-0.809-3.299-0.654
		s-2.21,0.871-2.583,1.93c-0.373,1.089,0.031,2.334-0.373,3.455c-0.124,0.373-0.342,0.716-0.373,1.12
		c-0.031,0.405,0.218,0.871,0.622,0.871C59.452,110.32,58.768,110.6,58.083,110.911"/>
	<path class="path" fill="none" stroke="#000" stroke-width="1" d="M236.293,103.379c-1.681-1.65-3.455-3.766-2.926-6.038c1.183,1.556,2.303,3.175,3.299,4.855
		c0.249-1.058,0.498-2.147,0.373-3.237c-0.124-1.089-0.685-2.21-1.712-2.645c-0.685-0.311-1.494-0.249-2.241-0.373
		s-1.587-0.498-1.805-1.214c1.089-1.058,0.778-2.832,0.373-4.326c-0.373-1.369-0.903-2.988-2.272-3.455
		c-0.436-0.187-0.903-0.187-1.369-0.218c-1.556-0.031-3.112-0.093-4.637-0.156c0.031-0.934,1.12-1.463,2.054-1.463
		c0.903,0.031,1.805,0.405,2.739,0.405c0.56,0.031,1.152-0.124,1.743-0.031c1.898,0.311,2.583,2.677,2.801,4.606
		c0.218,1.899,0.685,4.264,2.552,4.793c2.708,0.778,4.388,4.077,3.361,6.723c-0.249,0.218-0.498,0.467-0.747,0.716
		c0.498-0.031,0.996,0.311,1.152,0.778c1.089-0.934,2.801-1.027,3.984-0.218C240.868,103.722,238.503,103.877,236.293,103.379"/>
	<path class="path" fill="none" stroke="#000" stroke-width="1" d="M128.794,204.249c2.148,0.529,4.357,0.716,6.536,0.903c3.361,0.28,6.754,0.591,10.115,0.871
		c-0.156,0.373-0.311,0.778-0.467,1.152c-6.131-0.218-12.262-0.467-18.363-0.685c-0.311-0.031-0.654,0-0.84,0.187
		c-0.187,0.187-0.187,0.467-0.187,0.716c-0.187,5.166-0.342,10.302-0.529,15.468c-1.12,0.093-1.494-1.432-1.494-2.552
		c0.031-2.645,0.062-5.26,0.062-7.905c0.031-2.303,0.062-4.668,0.996-6.785c-2.023,0.218-4.108,0.093-6.131-0.28
		c-0.062-0.373-0.124-0.747-0.187-1.152c2.926-0.342,5.882-0.249,8.746,0.342c0.373,0.062,0.747,0.156,1.152,0.249
		C128.39,204.623,128.576,204.436,128.794,204.249"/>
	<path class="path" fill="none" stroke="#000" stroke-width="1" d="M280.799,85.888c0.436-0.156,0.871-0.249,1.338-0.218c1.836,0.124,2.801,2.21,3.361,3.953
		c0.405,1.214,0.778,2.428,1.183,3.641c-0.56,0.747-0.685,1.836-0.249,2.677c0.467,0.934,1.463,1.494,2.49,1.65
		c-1.214,0.903-3.237,0.124-3.548-1.369c-0.467-2.179-0.903-4.388-1.369-6.598c-0.187-0.778-0.374-1.681-1.027-2.179
		c-0.685-0.498-1.65-0.436-2.396-0.062c-0.778,0.373-1.338,0.996-1.898,1.65c-0.871,1.027-1.712,2.428-1.12,3.641
		c0.654,1.245,1.307,2.521,1.556,3.921c0.218,1.369,0,2.926-0.934,3.953c-1.525,0.093-3.112,0.218-4.388,1.058
		c-0.187,0.903-0.373,1.805-0.591,2.677c-0.965-0.498-1.525-1.712-1.307-2.801c1.463-1.152,3.175-1.961,4.98-2.334
		c0.685-0.311,0.934-1.183,0.778-1.899c-0.156-0.716-0.56-1.369-0.871-2.023C275.166,91.771,277.158,87.102,280.799,85.888"/>
	<path class="path" fill="none" stroke="#000" stroke-width="1" d="M99.383,233.816c1.401-0.156,2.77-0.28,4.17-0.405c0.685,0.218,1.369,0.405,2.054,0.622
		c-8.434,0.965-16.9,1.432-25.365,1.401c-3.735-0.436-7.501-0.342-11.204,0.249c-1.432,0.218-3.081,0.467-4.139-0.498
		c10.769-2.583,22.128-0.591,33.146-1.867C98.2,233.816,98.885,233.847,99.383,233.816"/>
	<path class="path" fill="none" stroke="#000" stroke-width="1" d="M202.12,92.829c-0.654,2.334-1.276,4.668-1.93,7.003c0.156,0.405,0.747-0.124,0.747-0.591
		c0.031-0.436,0.436-1.089,0.716-0.747c-0.934,3.424-0.529,7.189,1.183,10.302c-0.28,0.062-0.529,0.124-0.809,0.187
		c-2.396-1.681-2.894-4.98-3.175-7.905c-0.093-0.996-0.187-2.023-0.093-3.019c0.125-1.307,0.56-2.552,0.996-3.797
		c0.529-1.525,1.089-3.05,2.054-4.326c0.965-1.276,2.459-2.272,4.077-2.241c2.085,0.031,4.139,1.712,6.1,0.996
		c0.56-0.218,1.152,0.28,1.401,0.809c0.28,0.56,0.342,1.183,0.716,1.65c0.934,1.183,1.089,2.832,0.778,4.295
		c-0.311,1.463-1.058,2.801-1.805,4.108c-0.56-0.716-0.156-1.743,0.093-2.614c0.622-2.085,0.28-4.451-0.934-6.256
		c-0.685-0.996-2.054-1.214-3.268-1.338c-2.179-0.218-4.793-0.249-6.038,1.525C202.525,91.459,202.307,92.144,202.12,92.829"/>
	<path class="path" fill="none" stroke="#000" stroke-width="1" d="M162.22,51.28c-0.342,0.218-0.84,0.124-1.058-0.187c-0.654,2.116,0.467,4.668,2.49,5.602
		c-1.12,0.903-2.894,0.125-3.61-1.12c-0.716-1.245-0.716-2.739-0.84-4.17c-0.031-0.622-0.124-1.245-0.498-1.743
		c-0.342-0.498-1.089-0.747-1.587-0.405c-0.529,1.214-1.058,2.428-1.587,3.641c-0.436,0.996-1.214,2.21-2.303,1.961
		c-2.583-0.591-3.953,4.233-6.567,3.735c0.716-2.801,3.361-4.98,6.225-5.104c1.214-0.062,1.805-1.494,1.992-2.708
		c0.187-1.183,0.405-2.614,1.494-3.143c0.591-0.28,1.307-0.218,1.961-0.311c0.654-0.093,1.369-0.498,1.432-1.152
		c0.062-1.152,1.183-1.93,2.179-2.49c1.401-0.809,3.361-1.525,4.388-0.28c0.591,0.716,0.498,1.774,0.778,2.677
		c0.249,0.903,1.338,1.743,2.054,1.12c0.28,0.311,0.373,0.809,0.156,1.152c-0.778,0.965-2.552,0.84-3.206-0.249
		c-0.716-1.245-0.124-3.299-1.463-3.922c-1.058-0.498-2.179,0.654-2.708,1.712c-0.529,1.058-1.214,2.365-2.396,2.396
		C160.042,49.568,161.007,50.657,162.22,51.28"/>
	<path class="path" fill="none" stroke="#000" stroke-width="1" d="M105.203,83.803c0.031,0.685,0.28,1.369,0.156,2.054c-0.156,0.685-0.871,1.338-1.494,1.027
		c-0.654-1.774-0.436-3.828,0.591-5.415c1.058-1.556,2.863-2.583,4.731-2.677c0.498-0.031,1.027,0,1.432-0.249
		c0.903-0.56,0.685-1.898,0.56-2.957c-0.187-1.525,0.062-3.05,0.28-4.575c0.249-1.556,0.529-3.237,1.681-4.326
		c1.899-1.805,5.198-0.996,7.003,0.934c1.867,2.023,2.521,5.073,1.681,7.718c-0.249,0.747-0.622,1.494-0.747,2.303
		c-0.093,0.809,0.124,1.743,0.809,2.179c-1.432,0.187-2.77-1.432-2.272-2.77c0.187-0.56,0.591-0.996,0.871-1.494
		c1.027-1.743,0.498-4.015-0.56-5.727c-0.591-0.965-1.369-1.867-2.428-2.334c-1.027-0.467-2.334-0.436-3.206,0.311
		c-0.903,0.778-1.089,2.054-1.245,3.237c-0.28,2.739-0.498,5.447-0.591,8.185c-0.903,0.622-1.898,1.089-2.926,1.401
		c-0.405-0.56-1.152-0.871-1.836-0.716C106.137,80.504,105.079,82.154,105.203,83.803"/>
	<path class="path" fill="none" stroke="#000" stroke-width="1" d="M165.146,85.017c0.124-1.681,0.124-3.704-1.276-4.668c-1.805,0.405-3.797-1.898-5.291-0.778
		c-0.373,0.28-0.591,0.716-0.747,1.12c-0.934,2.147-1.338,4.482-1.214,6.816c0.062,1.12,0.467,2.49,1.587,2.614
		c-0.467,0.218-0.778,0.716-0.809,1.245c0.591,0.28,0.373,1.214-0.156,1.587c-0.529,0.373-1.214,0.436-1.805,0.716
		c-1.898,0.903-1.898,3.548-1.992,5.664c-0.031,1.338-0.218,2.677-0.56,3.984c-0.156,0.56-0.622,1.245-1.12,0.965
		c-0.218-2.179-0.156-4.419,0.218-6.629c0.373-2.085,1.183-4.388,3.112-5.322c0.778-0.342,1.12-1.276,1.089-2.116
		c-0.031-0.84-0.342-1.618-0.56-2.459c-0.622-2.521-0.187-5.291,1.214-7.47c0.498-0.809,1.152-1.556,2.023-1.898
		s1.992-0.218,2.583,0.529c0.84,1.058,2.552,0.934,3.641,1.743c0.996,0.747,1.276,2.116,1.338,3.361
		c0.124,2.988-0.622,5.976-2.085,8.559c-0.716-0.405-0.405-1.463-0.124-2.241C164.866,88.658,165.021,86.822,165.146,85.017"/>
	<path class="path" fill="none" stroke="#000" stroke-width="1" d="M249.365,42.254c0.187-0.218,0.436-0.311,0.716-0.405c0.903-0.373,1.805-0.747,2.708-1.12
		c1.12,1.089,1.93,2.521,2.241,4.046c-0.84,0.28-1.556-0.56-2.116-1.245c-0.529-0.685-1.525-1.369-2.21-0.778
		c-0.031,1.307-0.062,2.614-0.062,3.921c-0.031,0.249-0.031,0.498-0.187,0.685c-0.156,0.187-0.405,0.249-0.654,0.28
		c-1.369,0.218-2.801-0.031-4.046-0.685c-0.311,0.903,0.249,1.867,0.934,2.521c0.716,0.622,1.587,1.089,2.147,1.867
		c1.058,1.401,0.84,3.33,0.56,5.073c-0.062,0.249-0.124,0.56-0.373,0.685c-0.311,0.187-0.965,0.249-0.747,0.529
		c-0.903-1.712,0.747-4.264-0.654-5.602c-0.467-0.436-1.12-0.591-1.65-0.965c-0.809-0.591-1.152-1.618-1.338-2.583
		c-0.218-0.996-0.373-2.023-0.965-2.832c-0.622-0.778-1.836-1.245-2.645-0.622c0.156,2.147-0.031,4.855-2.023,5.664
		c-1.245,0.467-1.93,1.836-2.21,3.143c-0.28,1.276-0.28,2.645-0.716,3.922c-1.369-2.085-1.089-5.104,0.654-6.909
		c0.996-1.058,2.521-1.867,2.739-3.299c0.124-0.84-0.218-1.681-0.062-2.49c0.249-1.401,1.992-2.147,3.361-1.774
		c1.369,0.373,2.396,1.556,3.112,2.801c1.058,0.124,2.116,0.218,3.175,0.342c0-0.996,0-1.992,0.031-2.988
		C249.085,43.032,249.085,42.565,249.365,42.254"/>
	<path class="path" fill="none" stroke="#000" stroke-width="1" d="M216.81,56.851c-0.249,0.062-0.498,0.093-0.716,0.156c-0.373-1.618-0.747-3.299-0.311-4.917
		c0.436-1.587,1.93-3.05,3.579-2.801c0.591-1.089,0.716-2.428,0.405-3.61c-0.373-0.498-1.183-0.156-1.618,0.28
		c-0.405,0.467-0.809,1.089-1.432,1.12c-0.28,0-0.56-0.125-0.809-0.28c-1.245-0.747-2.054-2.054-3.268-2.832
		c-1.214-0.778-3.268-0.654-3.641,0.747c-0.218,0.903,0.28,2.116-0.498,2.614c-0.809-0.934-1.058-2.334-0.654-3.486
		c0.56-1.089,1.805-1.774,3.05-1.805c1.245,0,2.428,0.56,3.361,1.401c1.152,1.027,2.459,2.614,3.859,1.992
		c0.031-0.405,0.342-0.685,0.654-0.934c1.338-1.089,3.143-2.21,4.7-1.432c1.058,0.56,1.525,1.805,1.867,2.926
		c1.058,3.33,2.116,6.629,3.175,9.959c-0.529,0.156-1.12,0.187-1.65,0.093c-0.84-2.926-1.712-5.82-2.552-8.746
		c-0.218-0.747-0.436-1.494-0.965-2.085c-0.498-0.591-1.369-0.965-2.085-0.622c0.062,1.401-0.031,2.801-0.28,4.202
		c-0.218,1.12-0.934,2.521-2.054,2.272c-0.871-0.187-1.338,0.965-1.494,1.836C217.215,54.205,217.028,55.543,216.81,56.851"/>
	<path class="path" fill="none" stroke="#000" stroke-width="1" d="M310.864,149.068c-1.681-2.739-1.898-6.131-1.463-9.306c0.436-3.175,1.463-6.225,2.147-9.368
		c1.152,2.023,0.405,4.513-0.156,6.723c-1.12,4.482-1.245,9.866,2.116,13.009c0.84-0.249,1.681-0.498,2.552-0.747
		c4.793,0.56,9.648,0.716,14.472,0.498c0.249,0.84-0.996,1.307-1.867,1.307c-4.077,0.093-8.154,0.156-12.231,0.249
		c1.805,3.766,2.863,7.843,3.175,11.982c-0.747-1.183-1.463-2.396-2.21-3.579C315.221,156.226,313.042,152.647,310.864,149.068"/>
	<path class="path" fill="none" stroke="#000" stroke-width="1" d="M91.509,71.603c0.031-1.681-0.156-3.392-0.934-4.886c-0.778-1.463-2.272-2.677-3.953-2.677
		c-1.494,0-2.863,0.934-3.766,2.116c-0.903,1.183-1.432,2.645-1.898,4.046c-0.685,1.992-1.338,4.077-1.089,6.162
		c0.124,0.996-0.778,1.898-1.743,2.179c-0.965,0.28-2.023,0.062-2.988-0.156c-2.894,2.334-2.116,7.034-4.139,10.146
		c-0.778-0.591-0.56-1.805-0.28-2.739c0.311-0.996,0.654-2.023,0.965-3.019c0.56-1.836,1.307-3.859,3.05-4.668
		c0.778-0.373,1.681-0.436,2.49-0.716c0.809-0.28,1.618-0.934,1.65-1.805c0.031-2.708,0.156-5.509,1.214-7.999
		c1.058-2.521,3.268-4.7,5.976-4.949c1.338-0.093,2.708,0.28,3.797,1.058c2.77,1.992,3.175,5.913,2.926,9.306
		c-0.187,2.179-0.778,4.668-2.77,5.509c-0.498-0.156-0.622-0.809-0.467-1.276c0.187-0.498,0.56-0.871,0.871-1.276
		C91.322,74.746,91.509,73.128,91.509,71.603"/>
	<path class="path" fill="none" stroke="#000" stroke-width="1" d="M54.068,159.588c-0.28-2.147-0.56-4.357,0.062-6.411c0.622-2.054,2.459-3.89,4.606-3.828
		c2.179,0.093,4.357-0.654,6.069-1.992c-0.342,2.428-2.988,4.264-5.353,3.735c-1.307-0.311-2.645,0.685-3.206,1.93
		c-0.529,1.214-0.498,2.614-0.436,3.953c0.28,7.532,0.56,15.095,0.84,22.626c0.031,0.934-0.218,2.179-1.12,2.21
		c-0.28-4.606-0.529-9.212-0.809-13.85c-0.156-2.583-0.311-5.198-1.214-7.625c-4.077,0.156-8.154,0.311-12.2,0.498
		c-0.965,0.031-2.241-0.156-2.396-1.089C43.828,158.374,49.119,158.312,54.068,159.588"/>
	<path class="path" fill="none" stroke="#000" stroke-width="1" d="M217.557,77.423c1.681,1.867,2.023,4.824,0.84,7.034c-0.747,0.062-0.498-1.214-0.934-1.836
		c-0.56-0.809-2.428-0.529-2.303-1.525c0.778-0.622,2.116-0.093,2.303,0.871c0.747-0.903,0.249-2.303-0.56-3.175
		c-0.809-0.84-1.899-1.432-2.583-2.428c-1.12-1.65-0.747-3.89-0.498-5.882c0.249-2.023,0.124-4.419-1.556-5.54
		c-1.152-0.747-2.677-0.622-4.046-0.467c-0.405,0.062-0.871,0.125-1.183,0.405c-0.28,0.28-0.373,0.654-0.436,1.027
		c-0.529,2.708-0.498,5.478,0.062,8.185c0.124,0.622-0.467,1.183-1.089,1.401c-0.591,0.187-1.276,0.156-1.898,0.373
		c-1.743,0.56-2.334,2.708-2.552,4.544c-0.125,0.778-0.218,1.618-0.716,2.21c-0.467,0.622-1.525,0.84-2.023,0.249
		c0.436-1.276,0.871-2.583,1.307-3.89c0.373-1.12,0.778-2.272,1.525-3.237c0.716-0.934,1.867-1.618,3.05-1.525
		c0.591,0.062,0.996-0.591,0.965-1.183c-0.031-0.591-0.373-1.089-0.56-1.65c-0.809-2.521,1.307-5.198,0.84-7.812
		c2.023-0.654,4.171-0.903,6.287-0.716c0.529,0.062,1.089,0.125,1.587,0.405c0.436,0.28,0.778,0.685,1.089,1.152
		c1.276,1.992,1.587,4.544,1.183,6.878c-0.218,1.245-0.591,2.583-0.093,3.735C215.97,75.991,216.872,76.645,217.557,77.423"/>
	<path class="path" fill="none" stroke="#000" stroke-width="1" d="M217.09,101.979c-0.498-2.677,0.903-5.602,3.268-6.94c0.498-0.124,1.089,0.187,1.245,0.685
		c1.961-1.463,3.112-3.984,2.863-6.411c1.618,2.21,3.206,4.419,4.793,6.66c0.809,1.12,1.681,2.365,1.712,3.766
		c-1.898-2.085-3.517-4.419-4.855-6.909c-0.28-0.56-1.183-0.311-1.432,0.249c-0.218,0.56,0,1.214,0.249,1.743
		c0.436,0.903,0.934,1.712,1.432,2.552c0.716,1.183,1.432,2.334,2.147,3.517c0.28,0.467,0.591,0.965,1.058,1.245
		c0.685,0.405,1.494,0.28,2.272,0.373c0.747,0.062,1.618,0.529,1.618,1.307c-1.961-0.062-3.921-0.093-5.851-0.156
		c-2.739-0.062-5.509-0.124-8.185,0.436C218.989,103.099,218.117,102.321,217.09,101.979 M222.288,97.591
		c1.525,1.93,3.175,3.921,5.415,4.917c0.622-0.124,0.405-1.089,0.031-1.587c-0.996-1.369-1.961-2.77-2.957-4.139
		c-0.156-0.218-0.342-0.467-0.591-0.56c-0.84-0.311-1.556,0.965-2.428,0.84c-1.525-0.218-3.112,1.058-3.175,2.614
		c-0.062,1.525,1.401,2.957,2.957,2.863c-0.031-0.373-0.031-0.747-0.031-1.12c0.903,0.747,2.116,1.089,3.268,0.934
		c0.156-0.965-0.778-1.712-1.525-2.303C222.506,99.427,221.759,98.4,222.288,97.591"/>
	<path class="path" fill="none" stroke="#000" stroke-width="1" d="M148.651,73.377c0.965-0.093,1.961,0.187,2.739,0.778c0.56-0.467,1.276-0.965,1.992-0.747
		c0.685,0.218,0.747,1.556,0,1.494c-1.587-0.124-3.175-0.249-4.731-0.373c-0.529,0.965-1.027,1.93-1.089,3.019
		c-0.062,1.058,0.498,2.241,1.525,2.552c1.463,0.467,2.583,1.961,2.583,3.517c-0.591,0.529-1.276-0.529-1.743-1.183
		c-0.56-0.778-1.556-1.089-2.428-1.556c-0.871-0.467-1.681-1.338-1.432-2.303c0.591-2.272,0.965-4.606,1.027-6.972
		c0.031-0.996,0-2.054-0.373-2.988c-0.373-0.934-1.214-1.743-2.21-1.836c-1.961-0.218-3.143,2.023-3.766,3.89
		c-0.716,2.21-1.463,4.513-1.276,6.816c0.093,1.152,0.342,2.49-0.498,3.237c-0.342,0.311-0.809,0.436-1.214,0.591
		c-2.77,1.058-4.419,4.419-3.486,7.221c0.187,0.591,0.311,1.525-0.311,1.618c-1.307-1.587-1.805-3.828-1.245-5.789
		c0.56-1.961,2.116-3.641,4.077-4.295c1.276-0.436,1.338-2.21,1.307-3.579c-0.062-3.206,0.778-6.442,2.428-9.181
		c0.56-0.934,1.276-1.867,2.303-2.179c1.152-0.342,2.396,0.187,3.486,0.716c0.498,0.249,1.027,0.498,1.369,0.934
		c0.467,0.591,0.56,1.369,0.622,2.116C148.402,70.389,148.526,71.883,148.651,73.377"/>
	<path class="path" fill="none" stroke="#000" stroke-width="1" d="M86.685,122.147c-0.28,3.019-0.591,6.038-0.903,9.057c-0.342,3.424-0.467,7.376,2.054,9.71
		c2.116,1.961,1.183,5.447,1.774,8.279c0.093,0.591,0.342,1.214,0.903,1.432c0.093,1.712-0.809,3.424-2.241,4.326
		c1.027-2.957,0.156-6.193-0.84-9.15c-1.338-3.953-2.894-7.874-4.637-11.671c0.56,0.436,1.152-0.56,1.214-1.245
		c0.405-3.921,0.778-7.812,1.183-11.733c0.405-4.108,0.373-9.181-3.206-11.235c-2.334-1.338-5.26-0.778-7.874-0.187
		c-0.218-0.778-0.622-1.494-1.214-2.023c3.424,0.467,7.221-0.405,10.146,1.401c2.054,1.214,3.268,3.548,3.673,5.882
		C87.152,117.354,86.934,119.781,86.685,122.147"/>
	<path class="path" fill="none" stroke="#000" stroke-width="1" d="M187.741,80.193c-2.023-0.529-3.735-2.179-4.357-4.202c2.085-3.61,1.712-8.434-0.84-11.733
		c-0.373-0.467-0.778-0.903-1.338-1.089c-1.401-0.436-2.645,0.996-3.392,2.241c-0.685,1.152-1.307,2.396-1.214,3.704
		c0.124,1.93,1.836,3.735,1.214,5.571c-0.934,0.249-1.867,0.529-2.614,1.089c-0.778,0.56-1.338,1.525-1.152,2.49
		c0.84,3.984,1.152,8.092,0.965,12.169c-0.467-0.28-0.591-0.903-0.685-1.463c-0.529-3.237-1.089-6.474-1.65-9.71
		c-0.156-1.058-0.342-2.21,0.062-3.206c0.591-1.463,2.241-2.179,3.704-2.77c-0.498-1.401-1.214-2.801-1.245-4.295
		c-0.062-2.054,1.12-3.953,2.241-5.695c0.591-0.871,1.245-1.805,2.241-2.085c1.152-0.342,2.334,0.311,3.237,1.089
		c3.299,2.832,4.451,7.874,2.739,11.858c-0.56,1.276,0.498,2.708,1.556,3.61c1.058,0.934,2.334,1.93,2.396,3.33
		c0.124,3.175,1.961,6.567,0.342,9.244c-0.031-1.245-0.747-2.459-1.836-3.081c-0.498-0.28-1.152-0.716-0.903-1.214
		c1.027,0.062,2.023,0.498,2.739,1.214c0.56-1.743-0.249-3.797-1.836-4.7C187.337,82.122,188.613,80.411,187.741,80.193"/>
	<path class="path" fill="none" stroke="#000" stroke-width="1" d="M61.631,166.995c0.218,0.529,0.84,0.747,1.401,0.871c4.388,0.996,9.119,0.249,13.009-2.023
		c-0.031,1.307-0.56,2.614-1.463,3.579c0.934,0.591,2.085,0.622,3.206,0.622c2.832,0,5.696,0.031,8.559,0.031
		c0.809-2.241,0.965-4.7,0.373-7.003c-0.373-1.525-1.027-3.206-0.342-4.606c2.708,2.459,2.614,6.691,2.272,10.333
		c-0.436,4.762-0.84,9.524-1.276,14.254c-0.871-2.552-1.12-5.353-0.716-8.03c0.249-1.65-1.307-3.143-2.926-3.517
		c-1.65-0.342-3.33,0.031-5.011,0.249c-1.65,0.218-3.517,0.156-4.793-0.903c-3.486-2.801-9.679,0.934-12.792-2.241
		c-0.373,4.513-1.027,8.995-2.054,13.414c-0.156,0.716-0.716,1.65-1.369,1.307c0.716-6.038,1.214-12.107,1.463-18.176
		c0.093-1.992-0.031-4.326-1.712-5.384c0.685-1.183,0.405-2.614,0.436-3.953c0.062-1.338,0.84-2.957,2.179-2.894
		C59.359,157.627,59.888,162.544,61.631,166.995"/>
	<path class="path" fill="none" stroke="#000" stroke-width="1" d="M198.945,200.639c7.003-2.116,15.53,1.307,21.319-3.112c-0.124-2.428,0.56-4.917,1.992-6.909
		c0.654,1.587,0.903,3.361,0.685,5.042c1.867-0.342,3.704-0.654,5.571-0.996c0.996-0.187,2.023-0.373,2.988-0.093
		c0.965,0.28,1.836,1.183,1.743,2.179c-3.424-1.089-7.314-0.685-10.426,1.152c-7.065,4.202-15.81,3.859-24.027,3.424
		c-0.654,7.625-1.276,15.25-1.93,22.875c-0.062,0.685-0.373,1.618-1.058,1.494c-0.031-7.625,0.249-15.281,0.809-22.907
		c-3.081,0.716-6.411,0.373-9.306-0.934c2.179-0.622,4.513-0.654,6.691-0.062c1.743,0.436,2.801-1.93,2.708-3.735
		c-0.062-1.774-0.311-4.015,1.214-4.949c0.716-0.467,1.276,0.747,1.245,1.587C199.101,196.686,199.039,198.647,198.945,200.639"/>
	<path class="path" fill="none" stroke="#000" stroke-width="1" d="M290.042,66.654c0.778,0.871,1.805,1.494,2.957,1.774c-0.685-1.618-0.436-3.548,0.622-4.917
		c0.436-0.591,1.027-1.058,1.712-1.307c1.276-0.436,2.739,0.062,3.735,0.934c0.996,0.903,1.618,2.147,2.085,3.424
		c3.237,8.434,0.965,17.958,2.241,26.921c0.093,0.529,0.187,1.089,0.529,1.494c0.591,0.716,1.65,0.716,2.521,1.089
		c1.743,0.778,2.241,3.424,0.903,4.793c-0.311-2.614-2.645-4.855-5.26-4.98c-0.062-4.077-0.093-8.123-0.156-12.2
		c-0.062-5.571-0.156-11.298-2.023-16.557c-0.685-1.898-2.365-4.046-4.264-3.361c-1.369,0.529-1.805,2.272-1.587,3.704
		c0.187,1.432,0.809,2.832,0.747,4.295c-0.062,1.774-1.214,3.455-2.863,4.139c-0.56,0.249-0.622,1.152-0.187,1.587
		c0.467,0.436,1.183,0.498,1.774,0.311c-1.961,0.934-2.179,3.673-1.774,5.82c0.405,2.147,1.089,4.513-0.062,6.38
		c-0.591-4.202-1.027-8.403-1.307-12.605c-0.56,0.218-1.214,0.187-1.774-0.062c0.654,0.156,1.245-0.342,1.681-0.809
		c1.027-1.027,2.054-2.085,2.645-3.392c0.622-1.307,0.685-2.957-0.187-4.108c-1.961,0.249-3.984,0.062-5.882-0.56
		c0.591-0.809,2.023-0.747,2.521,0.124C289.607,67.93,289.825,67.308,290.042,66.654"/>
	<path class="path" fill="none" stroke="#000" stroke-width="1" d="M301.153,96.844c0.156-0.218,0.436,0.156,0.28,0.373c-0.156,0.218-0.436,0.187-0.716,0.218
		c-2.988,0.062-4.388,3.797-4.482,6.785c-0.093,2.739,0.436,5.82,2.708,7.314c-0.934,0.373-2.116,0.218-2.894-0.436
		c-0.093,0.934-1.152,1.494-2.085,1.587c-0.934,0.062-1.93-0.124-2.801,0.187c-1.898,0.622-2.49,2.957-2.739,4.949
		c-0.871,7.532-0.778,15.157,0.311,22.658c1.245,8.808,0.342,17.802-1.805,26.392c-2.894-8.683,3.299-18.612,0.062-27.17
		c-0.903-2.334-0.84-4.886-0.778-7.376c0.093-3.517,0.218-7.065,0.311-10.582c0.062-2.832,0.187-5.82,1.65-8.248
		c1.494-2.396,4.824-3.921,7.252-2.459c-0.84-4.077-1.65-8.154-2.49-12.2c-1.276-0.373-2.521-0.716-3.797-1.058
		c0.934-1.027,2.708-1.183,3.766-0.28c1.089,0.871,1.307,2.614,0.467,3.735c0.996,0.467,2.085-0.436,2.552-1.432
		c0.436-0.996,0.56-2.147,1.276-2.957C298.166,95.692,300.157,95.692,301.153,96.844"/>
	<path class="path" fill="none" stroke="#000" stroke-width="1" d="M313.509,134.44c2.023-8.185,1.276-18.114-5.353-23.373c-1.494-1.214-1.152-3.61-0.311-5.384
		c0.84-1.743,2.085-3.486,1.93-5.415c2.428,2.147-1.712,6.225-0.56,9.275c0.28,0.716,0.871,1.307,1.369,1.867
		c4.139,4.606,6.287,10.924,5.851,17.118c4.886,0.654,9.804-0.529,14.69-1.214c4.917-0.685,10.208-0.778,14.41,1.774
		c-4.046,0.249-8.154-0.124-12.076-1.152c-0.871-0.249-1.369,1.12-0.84,1.805c0.56,0.685,1.556,0.809,2.428,0.84
		c-5.82-0.685-11.764-0.56-17.553,0.405c-1.867,0.311-3.175,2.241-3.424,4.139c-0.218,1.898,0.342,3.797,0.903,5.633
		c5.54-0.156,11.049,0.031,16.557,0.498c-5.291,1.743-10.986,1.276-16.557,0.809c0.187,2.428,0.342,4.855,0.498,7.283
		C312.98,144.866,312.264,139.42,313.509,134.44"/>
	<path class="path" fill="none" stroke="#000" stroke-width="1" d="M317.524,200.732c0.934-7.594,1.867-15.219,1.836-22.875c-10.706,0.809-21.413,1.214-32.15,1.276
		c-0.498-1.12-0.809-2.303-0.903-3.517c-0.031-0.342-0.031-0.685,0.156-0.934c0.405-0.529,1.369-0.218,1.618,0.405
		c0.249,0.654,0.062,1.338-0.156,1.992c9.617-0.342,19.234-0.685,28.851-1.027c0.747-0.031,1.556-0.093,2.085-0.56
		c0.56-0.498,0.56-1.618-0.124-1.836c-10.146-0.062-20.292-0.156-30.438-0.218c-1.401,0-2.863-0.031-4.108-0.622
		c0.467-1.214,2.023-1.401,3.33-1.401c11.796-0.062,23.622,0.156,35.418,0.654c1.369,0.062,2.77-0.654,3.517-1.836
		c-0.062,1.743-0.125,3.455-0.187,5.198c1.307,0.28,2.334,1.463,2.428,2.801c-2.334-0.436-4.762-0.467-7.127-0.093
		c-1.214,11.111-2.428,22.222-2.926,33.364c-0.747,0.436-1.836,0.249-2.396-0.467C316.684,207.61,317.088,204.156,317.524,200.732
		 M324.962,175.087c0.311-0.373,0.062-0.996-0.342-1.245c-0.436-0.218-0.934-0.218-1.432-0.187
		c-0.903,0.031-1.836,0.093-2.739,0.124c-0.062,1.183,0.996,2.241,2.147,2.459s2.365-0.187,3.361-0.809
		C325.647,175.305,325.305,175.18,324.962,175.087"/>
	<path class="path" fill="none" stroke="#000" stroke-width="1" d="M243.296,150.033c0,4.451-1.712,9.275,0.467,13.165c1.556-4.482,2.77-9.057,3.673-13.663
		c0.218-1.214,0.436-2.396,0.373-3.61c-0.249-3.61-2.894-6.505-5.415-9.119c4.855,1.992,7.781,7.781,6.505,12.854
		c-2.023,8.123-3.455,16.371-4.233,24.681c-2.303-6.629-3.392-13.694-3.268-20.697c0.187-7.625-0.591-15.219-2.303-22.658
		c-0.622-2.77-6.411-0.124-7.283-2.832c1.556,0.28,3.175,0.56,4.7,0.156c1.525-0.405,2.957-1.712,2.926-3.299
		c-0.093-8.061,5.291-15.873,12.823-18.705c-2.614-4.824-0.654-10.706,1.307-15.81c0.529-1.369,1.089-2.77,2.085-3.828
		c0.996-1.058,2.583-1.681,3.953-1.183c-6.38,5.166-8.683,14.752-5.353,22.253c-8.497,1.961-14.223,11.764-11.827,20.105
		c-0.747-1.463-1.494-2.926-2.241-4.388c0.156,6.411,0.84,12.823,2.054,19.141C242.736,145.053,243.296,147.543,243.296,150.033"/>
	<path class="path" fill="none" stroke="#000" stroke-width="1" d="M247.933,75.431c-0.529-1.805,0.093-3.766-0.031-5.633c-0.124-1.899-1.836-4.015-3.579-3.299
		c-1.587,0.654-1.587,2.832-1.587,4.544s-0.965,3.953-2.645,3.579c-1.712-0.373-3.143,1.556-3.206,3.33
		c-0.031,1.743,0.778,3.392,1.152,5.104c-0.591-0.249-1.245-0.311-1.836-0.187c0.56,2.739,0.778,5.571,0.654,8.341
		c-1.992-4.451-2.459-9.586-1.245-14.317c0.467-1.836,1.805-3.984,3.641-3.579c1.027,0.249,1.961-0.871,2.116-1.93
		c0.187-1.058-0.093-2.147,0.062-3.206c0.311-1.93,2.179-3.486,4.108-3.424c1.961,0.062,3.704,1.743,3.89,3.673
		c2.334-0.56,4.575-1.432,6.723-2.521c-0.871-0.871-1.712-1.743-2.583-2.614c1.058-1.836,2.552-3.921,4.668-3.828
		c1.992,0.093,3.33,2.116,3.859,4.046c0.498,1.93,0.591,4.015,1.65,5.695c1.058,1.681,3.735,2.583,5.011,1.058
		c1.681-1.93-0.747-4.917-0.218-7.407c0.436-1.93,2.708-3.081,4.637-2.614c1.93,0.467,3.33,2.21,3.859,4.108
		c0.498,1.93,0.187,3.953-0.373,5.851c-0.498,1.618,0.778,3.206,1.774,4.575c0.996,1.401,1.618,3.579,0.218,4.606
		c0.125-1.899-0.747-3.797-2.272-4.917c-1.432-1.058-1.618-3.143-1.401-4.917c0.249-1.774,0.747-3.579,0.249-5.291
		c-0.529-1.712-2.677-3.081-4.108-2.054c-1.961,1.401-0.249,4.419-0.342,6.816c-0.093,2.054-1.93,3.89-3.984,3.953
		c0.373,3.828-0.249,7.719-1.774,11.235c-0.56-4.077-0.342-8.279,0.622-12.262c-2.054,0.405-4.264-0.187-5.851-1.494
		c1.338,0,2.708,0,4.046,0.031c-2.085-1.836-3.424-4.513-3.579-7.283c-0.062-1.307-1.463-2.334-2.708-2.023
		c-1.245,0.342-2.023,1.898-1.463,3.081c0.84,1.774-1.027,4.139-2.957,3.766c1.245,1.463,2.801,2.645,4.575,3.392
		c-2.894,1.027-5.82-3.89-8.465-2.303c-0.498,2.552-0.342,5.229,0.498,7.687c1.556,4.451,1.774,9.399,0.654,13.974
		C250.267,85.577,249.458,80.411,247.933,75.431"/>
	<path class="path" fill="none" stroke="#000" stroke-width="1" d="M58.954,197.309c-0.031,1.369,0.436,2.708,1.276,3.766c6.629-0.28,13.383-0.529,19.763,1.307
		c-7.283,0.716-14.628,0.56-21.879-0.436c0.685,7.501,0.405,15.064-0.778,22.471c-0.124,0.778-0.965,1.774-1.432,1.12
		c-0.124-3.081,0.124-6.162,0.716-9.212c-0.809,0.342-1.587,0.871-2.21,1.494c0.654-1.961,1.307-3.953,1.681-5.976
		c0.903-5.104-0.093-10.52-2.739-14.97c0.965,0.871,1.961,1.774,2.957,2.677c0.062-0.871,0.093-1.774,0.156-2.677
		c0.654-0.031,1.276-0.187,1.836-0.467c-2.023-0.218-3.859-1.898-4.202-3.953c-0.342-2.023,0.778-4.233,2.645-5.104
		c-0.996-0.747-2.303-0.965-3.486-0.622c-0.498-0.28-0.405-1.058,0.031-1.401c0.436-0.342,1.027-0.373,1.587-0.373
		c10.955-0.156,21.911-0.311,32.835-0.436c0.685-0.031,0.996-0.809,1.152-1.463c1.338-6.007,2.023-12.169,2.085-18.3
		c0.031-3.175-0.809-7.221-3.921-7.781c0.218-1.432,2.303-1.743,3.424-0.84c1.12,0.871,1.432,2.396,1.65,3.828
		c0.903,6.287,0.622,12.729-0.84,18.923c-0.405,1.805-0.903,3.828,0.093,5.384c0.996,1.556,4.108,1.276,4.046-0.56
		c1.307,2.832,1.681,6.225,0.249,8.995s-4.98,4.482-7.812,3.237c-1.276-0.56-2.832,0.405-3.392,1.681
		c-0.591,1.276-0.467,2.739-0.373,4.108c0.591,7.625,0.56,15.717-3.268,22.346c0.654-7.625,1.338-15.25,2.023-22.875
		c0.124-1.525,0.124-3.392-1.183-4.202c-0.622-0.373-1.369-0.405-2.116-0.436c-6.318-0.156-12.605-0.342-18.923-0.529
		c-0.529-0.031-1.12,0-1.432,0.405C58.985,196.686,58.954,196.997,58.954,197.309 M89.112,193.947
		c1.152-0.062,2.334-0.156,3.33-0.654c2.241-1.089,3.175-4.264,1.867-6.38c-2.614,0.124-5.229-0.062-7.812-0.218
		c-8.652-0.436-17.336-0.156-25.988,0.093c-0.747,0.031-1.525,0.031-2.21,0.342c-2.147,0.903-2.583,3.797-2.116,6.1
		c0.031,0.124,0.062,0.28,0.156,0.373c0.218,0.28,0.654,0.187,0.996,0.062c1.774-0.498,3.641-0.436,5.478-0.373
		c1.307,0.062,2.614,0.124,3.921,0.156c4.575,0.187,9.181,0.373,13.756,0.56C83.355,194.134,86.249,194.103,89.112,193.947"/>
	<path class="path" fill="none" stroke="#000" stroke-width="1" d="M190.853,148.103c3.05,3.579,9.617,1.214,13.009,4.482c-0.498-1.183-1.027-2.428-0.903-3.735
		c0.093-1.276,1.089-2.583,2.365-2.583c1.276-0.031,2.272,1.805,1.307,2.645c-0.342-0.622-0.685-1.276-1.058-1.93
		c-1.587,0.436-1.525,3.05-0.156,3.984c1.401,0.934,3.237,0.654,4.855,0.187c1.587-0.467,3.268-1.089,4.886-0.716
		c3.61,0.778,6.38-3.019,8.123-6.256c-2.552,4.762-1.65,10.769,0.871,15.561c-2.614-1.867-4.17-5.104-3.953-8.279
		c-4.077,0.56-8.154,1.152-12.262,1.743c0.436,0.498,0.871,1.027,1.276,1.525c-1.867,0.436-2.988,2.832-2.147,4.575
		c0.373,0.747-0.934,1.401-1.587,0.871c-0.622-0.56-0.591-1.525-0.405-2.334c0.342-1.494,1.089-2.832,2.085-3.984
		c-4.575-0.591-9.088-1.681-13.414-3.206c2.085,3.424-0.249,7.718-0.311,11.733c0,1.65,0.373,3.268,0.591,4.886
		c0.685,4.824-0.062,9.835-2.116,14.223c12.511,0.062,25.023-0.28,37.503-1.027c1.307-0.062,2.365,1.214,2.521,2.49
		c0.187,1.307-0.311,2.583-0.778,3.797c-0.373,0.903-0.778,1.898-1.618,2.428c-0.716,0.436-1.587,0.467-2.428,0.467
		c-9.524,0.218-19.078,0.436-28.602,0.622c0.124,0.809,0.716,1.494,1.463,1.774c-1.681,0.436-3.392,0.591-5.104,0.498
		c-1.401-0.062-2.863-0.342-3.953-1.214c-2.926-2.303-1.712-6.909-0.218-10.333c2.241-5.135,1.93-11.018,0.871-16.495
		c-1.089-5.478-2.926-10.8-3.641-16.34c-0.467-3.424-0.467-6.909-0.498-10.364c-0.031-4.513-0.062-9.057-0.093-13.601
		c-0.031-2.116,0-4.357,1.183-6.1c1.401-2.085,3.984-2.894,6.287-3.859c2.583-1.089,5.011-2.583,7.127-4.419
		c0.405,2.49-2.147,4.482-4.544,5.26c-2.396,0.778-5.135,1.058-6.972,2.801c-2.677,2.552-2.116,6.94-1.338,10.582
		c0.218,1.027,0.996,2.334,1.93,1.836c-1.245-0.031-2.116,1.338-2.147,2.583s0.498,2.428,0.716,3.641
		C190.324,140.416,188.27,145.084,190.853,148.103 M217.277,188.003c1.058,0,2.116-0.031,3.175-0.031
		c2.739-0.062,5.509-0.093,8.216-0.56c0.871-1.618,1.401-3.424,1.494-5.26c-9.057,2.023-18.643-0.342-27.762,1.463
		c-1.12,0.218-2.459,0.436-3.299-0.342c-1.494-1.463-4.295,1.245-5.976,0c-1.027-0.809-2.49,0.591-2.552,1.93
		c-0.062,1.307,0.56,2.614,0.342,3.921c2.023,0.342,4.202,0.124,6.1-0.685c1.152-0.498,2.396-0.436,3.641-0.405
		C206.197,188.19,211.737,188.096,217.277,188.003 M192.534,159.401c0.156-1.743,0.28-3.486,0.436-5.26
		c0.218-2.614-1.65-5.291-4.202-5.976c0.84,1.681,1.681,3.392,1.93,5.26C191.009,155.573,190.729,158.249,192.534,159.401"/>
	<path class="path" fill="none" stroke="#000" stroke-width="1" d="M192.526,227.267c-4.853,0.015-9.706,0.028-14.558,0.044c-43.23,0.156-86.584,0.529-129.409,6.349
		c-4.949,0.654-10.302,1.618-13.539,5.384c38.468-9.026,78.399-9.43,117.925-9.555c13.243-0.044,26.49-0.062,39.738-0.114
		C192.679,228.669,192.656,227.962,192.526,227.267z"/>
	<path class="path" fill="none" stroke="#000" stroke-width="1" d="M319.267,223.203c-42.095,3.654-84.391,3.933-126.64,4.063c0.127,0.696,0.151,1.402,0.156,2.109
		c33.984-0.134,67.972-0.502,101.896-2.158c8.154-0.373,16.308-0.84,24.432-1.338c6.287-0.342,12.574-0.716,18.861-1.089
		C332.214,222.114,325.554,222.674,319.267,223.203z"/>
	<path class="path" fill="none" stroke="#000" stroke-width="1" d="M278.216,131.919c1.276-5.82,0.747-11.858,0.187-17.802c-0.156-1.743-0.405-3.641-1.681-4.855
		c-1.307-1.214-3.268-1.276-5.011-1.587c-1.774-0.311-3.735-1.214-4.015-2.988c-0.56-4.015-1.152-8.03-1.743-12.045
		c-0.28-2.116-0.685-4.419-2.272-5.913c-1.183-1.12-3.112-1.961-3.05-3.61c2.459,0.467,4.419,2.459,5.478,4.7
		c1.089,2.272,1.463,4.793,1.805,7.283c0.373,2.677,0.716,5.384,1.089,8.061c0.28,1.992,2.49,3.05,4.419,3.517
		c1.961,0.467,4.17,0.84,5.322,2.49c0.685,0.996,0.809,2.272,0.934,3.486c0.467,6.007,0.467,12.045-0.031,18.051
		c1.898-0.342,3.797-0.685,5.696-1.027c-2.926,1.712-4.668,5.198-4.357,8.559c-1.463-1.587-0.498-4.108,0.498-6.038
		c-0.249-0.685-1.245-1.027-1.899-0.654c-2.054,5.944-3.237,12.2-3.424,18.456c2.708,0.031,5.415,0.031,8.092,0.062
		c-1.089,1.245-3.05,1.089-4.731,1.183s-3.735,1.12-3.486,2.77c0.965,6.909,1.992,13.787,3.05,20.666
		c0.156,1.027,0.622,2.334,1.681,2.334c2.303-0.031,4.357,2.21,4.108,4.513c-0.249,2.272-2.77,4.046-5.011,3.517
		c-1.027-0.249-2.085,0.498-2.552,1.463c-0.436,0.965-0.436,2.085-0.436,3.143c0.062,7.345,0.125,14.69,0.218,22.035
		c0,1.587-0.156,3.486-1.525,4.264c-0.747-9.897-0.747-19.856,0-29.754c0.093-1.183-1.525-1.587-2.708-1.556
		c-6.723,0.124-13.476,0.218-20.199,0.342c0.249,7.967,0.467,15.966,0.716,23.965c-0.529-2.614-1.027-5.26-1.556-7.874
		c-0.529,6.038-1.089,12.076-1.65,18.082c-0.871,0.249-1.276-1.058-1.183-1.961c0.685-10.053,1.401-20.105,2.116-30.158
		c0.093-1.089-0.249-2.645-1.369-2.552c-1.93,0.218-3.984,0.187-5.633-0.809s-2.708-3.237-1.805-4.949
		c1.027-1.992,3.735-2.179,5.944-2.147c10.208,0.28,20.417,0.529,30.625,0.778c-3.641-9.804-8.372-19.203-14.068-27.948
		c3.424,1.089,5.384,4.606,6.754,7.936c1.369,3.33,2.583,7.003,5.509,9.119c-3.143-8.185-3.61-17.367-1.338-25.863
		C276.504,137.708,277.593,134.876,278.216,131.919 M274.107,182.556c1.525-0.093,3.299-0.093,4.264,1.089
		c0.903-1.463,2.801-2.241,4.451-1.836c0.249-1.183,0.031-2.957-1.183-2.863c-8.683,0.529-17.429,0.436-26.112-0.28
		c-3.859-0.342-7.781-0.156-11.609,0.56c-0.622,0.747-0.218,1.992,0.591,2.521c0.778,0.56,1.836,0.622,2.801,0.685
		c4.824,0.218,9.648,0.436,14.441,0.467C265.891,182.93,269.999,182.805,274.107,182.556"/>
</g>
</svg>
