<?xml version="1.0" encoding="iso-8859-1"?>
<!-- Generator: Adobe Illustrator 21.1.0, SVG Export Plug-In . SVG Version: 6.00 Build 0)  -->
<svg version="1.1" id="Layer_1" xmlns="http://www.w3.org/2000/svg" xmlns:xlink="http://www.w3.org/1999/xlink" x="0px" y="0px"
	 viewBox="0 0 300 370" style="enable-background:new 0 0 300 370;" xml:space="preserve">
	 <style>
    /* <![CDATA[ */
    .path {
  stroke-dasharray: 2000;
  stroke-dashoffset: 2000;
  animation: dash 40s linear;
  animation-fill-mode: forwards;
 
}

@keyframes dash {
  from {
    stroke-dashoffset: 2000;
  }
  to {
    stroke-dashoffset: 0;
  }
}
    /* ]]> */
  </style>
<g id="Vorm_11">
	<desc  xmlns:shape="http://adobe.com/products/shape"></desc>
	<path class="path" fill="none" stroke="#000" stroke-width="1" d="M146.219,116c-0.3-0.382-0.927-0.763-1.172-0.327c-1.831,3.328-6.131,4.876-9.739,3.906
		c-0.013,0.574-0.083,1.148-0.17,1.716c3.686,0.752,7.74-0.381,10.372-3.059c2.099,2.563,4.199,5.126,6.298,7.688
		c1.063-0.273,0.627-1.908-0.055-2.781C149.9,120.771,148.073,118.372,146.219,116z"/>
	<path class="path" fill="none" stroke="#000" stroke-width="1" d="M112.385,124.07c-6.271,10.933-7.252,24.755-2.535,36.451c-0.354-6.107-0.682-12.187-1.009-18.294
		c4.554,0.713,9.125,1.313,13.705,1.816c-0.133-0.598-0.241-1.2-0.323-1.804c-4.39-0.399-8.769-1.008-13.109-1.865
		c0.954-5.344,2.563-10.551,4.798-15.486c0.436-0.982-0.382-2.181-1.418-2.508s-2.154-0.055-3.19,0.218
		c-0.518-2.944,1.963-5.453,4.226-7.416c4.826-4.171,10.033-8.533,16.331-9.433c1.972-0.279,4.163-0.062,5.942,0.77
		c0.313-0.253,0.63-0.499,0.955-0.736c-1.889-0.76-3.841-1.284-5.916-1.37c-7.334-0.3-13.577,4.962-19.03,9.897
		c-4.144,3.762-6.107,9.815-4.935,15.295C106.769,126.687,109.468,123.961,112.385,124.07z"/>
	<path class="path" fill="none" stroke="#000" stroke-width="1" d="M181.961,314.695c-0.545-2.426-1.99-4.526-2.972-6.789c-3.054-6.979-1.636-15.022-0.136-22.492
		c-1.418-0.409-2.835-0.818-4.253-1.227c-0.589-30.136-7.469-59.745-14.407-89.086c-0.623-0.026-1.245-0.063-1.866-0.117
		c0.226,1.144,0.453,2.288,0.679,3.433c0.382,1.908,0.763,3.844,1.145,5.753c0.082,0.409,0.164,0.845-0.027,1.2
		c-0.218,0.354-0.627,0.545-1.009,0.682c-4.88,1.799-10.224,2.426-15.377,1.745c1.118-3.381,0.654-7.061,0.191-10.578
		c-0.252-1.807-0.497-3.614-0.742-5.421c-0.008-0.002-0.017-0.004-0.025-0.006c-0.669-0.14-1.344-0.228-2.021-0.299
		c0.158,4.405,0.512,8.808,1.098,13.169c0.436,3.462-1.418,6.734-3.217,9.706c-0.249,0.413-0.505,0.827-0.768,1.237
		c0.59,0.323,1.13,0.718,1.632,1.164c0.701-1.021,1.38-2.056,2.026-3.11c-0.627,5.425,8.206,8.288,7.852,13.741
		c-0.709,10.306,0.518,20.72,3.626,30.562c-0.818-12.268-1.636-24.564-2.454-36.833c0.509-0.349,1.073-0.614,1.662-0.801
		c-0.117-0.592-0.219-1.185-0.304-1.783c-0.957,0.437-1.96,0.768-2.994,0.947c-0.763-2.345-1.5-4.717-2.263-7.088
		c-0.327-1.009-0.927-2.208-1.963-2.154c0.354,3.053,1.2,6.025,2.508,8.806c0.3,0.627,0.927,1.009,1.445,1.5
		c0.491,0.491,0.845,1.336,0.409,1.881c-3.762-2.536-6.107-7.061-5.971-11.614c0-0.491,0.164-1.118,0.627-1.2
		c5.889,0.682,11.914-0.164,17.394-2.399c0.791,2.944,1.227,5.998,1.363,9.024c-2.045,0.164-4.09,0.3-6.134,0.436
		c-0.763,0.055-1.581,0.136-2.181,0.573c-0.672,0.483-1.396,0.891-2.147,1.241c0.086,0.602,0.187,1.2,0.305,1.796
		c1.087-0.326,2.26-0.37,3.368-0.093c-3.272,3.435-3.408,8.806-2.481,13.468c0.927,4.635,2.726,9.188,2.645,13.932
		c-0.055,3.544-1.145,6.979-1.309,10.496c-0.136,3.517,0.9,7.443,3.953,9.242c1.418,6.325,0.327,13.168-2.972,18.73
		c0.845,6.407,0.436,13.005-1.2,19.275c-2.536,9.624,0.245,20.502,7.143,27.7c-0.245-6.816-6.598-12.241-6.87-19.057
		c-0.218-4.826,2.672-9.27,3.054-14.068c1.908,0.136,3.79,0.273,5.698,0.436c-1.472,3.653-1.881,7.743-1.2,11.614
		c3.353,0.218,6.952-0.109,9.542-2.236c2.59-2.127,3.408-6.57,0.9-8.779c5.78,5.425,8.179,14.177,5.971,21.783
		c-0.682,2.29-1.718,4.471-1.99,6.843c-0.273,2.345,0.436,5.044,2.481,6.271C176.7,329.145,183.461,321.756,181.961,314.695z
		 M173.81,284.242c-2.127-1.227-4.853-0.273-7.252-0.736c-0.682-4.062-1.554-8.07-2.672-12.05c0.818-0.382,1.827,0.055,2.372,0.791
		c0.545,0.709,0.736,1.609,0.927,2.508c0.136,0.736,0.3,1.445,0.436,2.181c0.409,2.099,0.845,4.226,1.118,6.352
		c0.464-0.573,1.636-0.3,1.908-1.009c0.082-0.191,0.055-0.409,0-0.627c-0.273-1.609-0.791-3.163-1.5-4.635
		c-0.273-0.573,0.354-1.172,0.954-1.445c0.573-0.273,1.281-0.654,1.281-1.281c0.218,0.136,0.409,0.273,0.627,0.409
		C172.338,277.917,172.937,281.134,173.81,284.242z M160.505,282.17c0.518-2.317,0.573-4.771,0.136-7.116
		c0.818,0.409,1.963,0.027,2.59,0.654c0.327,0.354,0.409,0.845,0.464,1.309c0.3,2.208,0.627,4.444,0.927,6.652
		c-1.227,0.436-2.508,0.654-3.817,0.682C160.178,283.915,160.314,282.933,160.505,282.17z M160.096,271.728
		c-0.082-0.6,0.164-1.281,0.709-1.527c1.227,0.9,1.772,2.59,1.363,4.035c-0.573,0.164-1.036-0.382-1.363-0.872
		C160.478,272.846,160.178,272.328,160.096,271.728z M168.793,271.456c-0.027-0.6,0.845-0.845,1.281-0.491
		c0.463,0.354,0.573,1.009,0.6,1.581c0,0.491-0.027,1.036-0.354,1.418c-0.3,0.382-0.982,0.518-1.281,0.109
		c-0.164-0.191-0.164-0.464-0.164-0.709C168.848,272.71,168.821,272.083,168.793,271.456z M157.37,262.459
		c-1.99-3.163-0.354-7.198,0.436-10.851c0.845-3.871,0.654-7.961-0.518-11.75c-0.954-3.026-2.536-6.325-1.2-9.188
		c-0.709-0.136-1.472,0.354-1.636,1.036c0.545-2.699,1.091-5.398,1.663-8.097c0.273-1.418,0.573-2.863,1.418-4.035
		c0.845-1.145,2.372-1.963,3.735-1.499c1.581,0.545,2.208,2.426,2.645,4.035c3.163,12.241,6.325,24.51,7.797,37.051
		c0.436,3.544,0.354,7.879-2.726,9.679c-2.099,1.281-4.907,0.682-6.925-0.736C160.069,266.657,158.706,264.531,157.37,262.459z
		 M172.556,308.179c-1.963,0.627-3.953,1.227-5.916,1.854c-0.709,0.218-1.445,0.436-2.181,0.273c-0.709-0.191-1.336-0.9-1.145-1.609
		c0.573-2.099,1.145-4.199,1.718-6.298c0.382-1.418,0.791-2.89,0.763-4.362c0-1.499-0.464-3.053-1.554-4.035
		c-0.436-0.409-0.027-1.172,0.545-1.363c0.545-0.191,1.172-0.082,1.745-0.218c0.573-0.109,1.118-0.736,0.845-1.254
		c-1.227-0.055-2.426,0-3.653,0.164c-0.327-0.191-0.491-0.627-0.382-1.009c2.208-0.627,4.526-0.654,6.816-0.682
		c-0.273,1.091-0.409,2.236-0.409,3.353c0,1.5,0.218,2.972,0.436,4.444c0.218,1.581,0.464,3.19,0.982,4.689
		C171.847,304.117,173.019,306.135,172.556,308.179z M175.473,297.847c-0.082,0.654-0.763,1.063-1.418,1.091
		c-0.654,0.027-1.254-0.245-1.854-0.518c-0.191-1.227-0.382-2.454-0.573-3.708c-0.191-1.091-0.191-2.535,0.845-2.972
		c0.654-0.245,0.872-1.091,0.682-1.745c-0.3-1.036-1.281-1.718-2.317-1.963c-1.009-0.245-2.072-0.136-3.135,0
		c-1.172,0.136-2.345,0.245-3.517,0.382c-1.118,0.136-2.508,0.491-2.754,1.609c-0.109,0.6,0.164,1.2,0.436,1.745
		c0.954,2.045,1.69,4.226,2.154,6.434c-1.663,0.327-3.435,0.218-5.044-0.3c-1.172-3.735-1.663-7.661-1.472-11.56
		c3.49-0.218,6.979-0.436,10.469-0.654c2.754-0.164,5.616-0.3,8.179,0.736C176.318,290.24,176.1,294.084,175.473,297.847z"/>
	<path class="path" fill="none" stroke="#000" stroke-width="1" d="M133.378,220.282c0.382,0.463-0.055,1.281-0.627,1.281c-1.281-0.409-2.127-1.881-1.827-3.19
		c0.791,0.436,1.609,0.872,2.399,1.336c-3.353-3.599-6.489-7.388-9.324-11.396c-1.009-1.418-1.036-3.299-1.036-5.044
		c0.044-4.515,0.073-9.03,0.111-13.546c-0.674-0.027-1.349-0.052-2.024-0.077c-0.199,4.234-0.163,8.478,0.141,12.696
		c0.082,1.363,0.191,2.781-0.436,3.98c-0.6,1.227-2.263,1.99-3.353,1.2c0.273-0.6,0.709-1.145,1.281-1.527
		c0.109-0.463-0.573-0.763-1.036-0.573c-0.436,0.191-0.736,0.627-1.118,0.927c-0.484,0.423-1.116,0.592-1.755,0.685
		c0.086,0.364,0.158,0.733,0.211,1.113c0.058,0.414,0.119,0.825,0.191,1.232c3.228-0.543,6.306-0.752,8.769,1.223
		c2.236,1.772,3.026,4.771,4.253,7.361c1.2,2.59,3.653,5.18,6.461,4.635c-0.927,1.091-1.854,2.154-2.781,3.244
		c-0.6-1.39-1.69-2.59-2.999-3.353c0.682,1.609,1.363,3.217,2.072,4.826c3.306-3.157,6.273-6.685,8.873-10.459
		c-0.499-0.447-1.034-0.846-1.625-1.17C136.949,217.634,135.492,219.459,133.378,220.282z"/>
	<path class="path" fill="none" stroke="#000" stroke-width="1" d="M162.795,121.289c0.3-2.317-1.499-4.444-3.571-5.534c-2.099-1.063-4.471-1.363-6.707-2.045
		c-5.553-1.698-10.347-5.714-15.632-7.874c-0.326,0.242-0.648,0.488-0.964,0.742c1.292,0.63,2.357,1.589,2.938,2.933
		c6.707,2.699,13.386,5.371,20.093,8.07c0.872,0.354,1.799,0.763,2.208,1.609c0.6,1.254-0.463,2.808-1.799,3.244
		c-1.336,0.464-2.781,0.109-4.144-0.245c1.227,3.353,2.454,6.707,3.681,10.033c1.39,3.79,2.808,7.743,2.263,11.751
		c-4.095,0.063-8.19,0.068-12.283,0.026c0.065,0.589,0.115,1.18,0.169,1.77c3.801,0.08,7.604,0.097,11.405,0.031
		c-1.254,6.68-4.035,13.059-8.043,18.539c-4.312-0.565-8.614-1.125-12.924-1.685c-0.1,0.687-0.189,1.379-0.359,2.046
		c0.373,0.034,0.747,0.067,1.124,0.075c2.645,0.082,5.289-0.545,7.934-0.382c0.627,0.055,1.418,0.3,1.499,0.927
		c-3.712,0.712-7.5,1.068-11.278,1.066c-0.352,0.555-0.766,1.072-1.116,1.626c-0.016,0.026-0.027,0.053-0.043,0.079
		c0.666,0.086,1.333,0.173,1.995,0.254c0.218,0.027,0.436,0.082,0.6,0.218c0.164,0.136,0.218,0.382,0.273,0.6
		c0.463,1.963,0.927,3.899,1.39,5.862c-0.273,0-0.545-0.027-0.845-0.027c-0.927-1.69-2.917-2.726-4.826-2.563
		c-1.145,0.082-2.29-0.627-2.726-1.69c-0.436-1.036-0.082-2.372,0.791-3.081c1.074,0.132,2.157,0.273,3.239,0.413
		c0.351-0.581,0.765-1.122,1.136-1.692c-1.672-0.004-3.342-0.072-5.002-0.221c-0.791-0.082-1.609-0.164-2.29-0.518
		c-1.2-0.627-1.908-1.854-2.536-3.026c-0.245-0.055-0.218-0.436,0-0.545c0.191-0.136,0.464-0.055,0.682,0
		c3.26,0.973,6.522,2.287,9.899,2.618c0.174-0.668,0.266-1.362,0.366-2.052c-6.259-0.813-12.524-1.626-18.77-2.447
		c3.353,0.545,6.489,2.563,8.315,5.425c-7.116-1.091-14.232-2.208-21.347-3.326c6.025,2.563,12.432,4.28,18.921,5.098
		c2.563,1.009,0.709,4.935-1.581,6.461c-2.29,1.499-5.207,4.089-3.653,6.352c-0.845,0.981-2.154,1.581-3.462,1.581
		c0.464-4.607,1.281-9.16,2.454-13.632c-2.617-0.654-5.235-1.309-7.852-1.936c2.536,0.736,1.936,4.444,0.872,6.87
		c-2.245,5.137-4.119,10.433-5.754,15.802c0.764-0.082,1.531-0.116,2.301-0.112c0.362-1.756,0.424-3.641,1.789-4.703
		c0.982-0.736,2.29-0.791,3.517-0.818c1.581-0.027,3.135-0.055,4.717-0.082c0.709,0,1.663,0.245,1.581,0.954
		c-0.178,1.801-0.296,3.607-0.383,5.415c0.674,0.027,1.348,0.057,2.021,0.088c0.008-1.017,0.015-2.033,0.025-3.05
		c0-0.872,0.055-1.854,0.736-2.372c0.409-0.3,0.927-0.382,1.445-0.436c4.144-0.409,8.343-0.354,12.459,0.164
		c1.472,0.191,3.299,0.845,3.299,2.345c0,1.707,0.037,3.415,0.097,5.124c0.681,0.07,1.36,0.172,2.039,0.304
		c-0.228-1.682-0.456-3.364-0.691-5.046c-0.055-0.545,0.354-1.063,0.872-1.281c0.518-0.191,1.091-0.191,1.636-0.164
		c1.745,0.082,3.462,0.164,5.207,0.245c2.208,0.109,4.689,0.354,6.052,2.072c0.791,0.954,1.036,2.236,1.281,3.435
		c0.257,1.301,0.515,2.602,0.772,3.903c0.62,0.054,1.242,0.098,1.864,0.125c-0.115-0.488-0.231-0.977-0.346-1.465
		c-0.6-2.535-1.227-5.125-2.781-7.225c-1.527-2.072-4.226-3.517-6.734-2.808c-0.709-4.935-1.445-9.842-2.181-14.777
		c4.88,0.491,8.07-4.798,9.978-9.297c2.208-5.18,4.444-10.469,4.689-16.085c0.273-6.898-2.454-13.495-5.125-19.82
		C159.251,125.215,162.495,123.607,162.795,121.289z M113.776,175.952c0.927-2.781,1.827-5.562,2.726-8.37
		c0.872,0.327,1.963,0.627,2.099,1.554c0.027,0.273-0.055,0.573-0.136,0.845c-0.763,2.645-1.554,5.262-2.317,7.879
		c-0.3,0.981-1.881,1.2-2.426,0.327C113.312,177.533,113.558,176.688,113.776,175.952z M112.658,181.759
		c-0.191-0.763,0.982-1.063,1.772-0.954h0.027c0.818-0.164,1.718,0.218,2.127,0.927
		C115.275,181.923,113.967,181.923,112.658,181.759z M129.343,167.882c0.436-0.573,1.39-0.818,1.854-0.273
		c0.218,0.218,0.3,0.545,0.354,0.845c0.245,0.927,0.464,1.908,0.218,2.835c-0.245,0.954-1.118,1.799-2.072,1.636
		c-0.573-0.872-0.736-1.963-0.791-2.999C128.88,169.218,128.934,168.427,129.343,167.882z M121.764,182.959l-0.191,0.082
		c-0.3-0.736,0.3-1.69,1.091-1.718C122.882,182.059,122.5,183.15,121.764,182.959z M130.379,181.132
		c-2.481,0.273-5.18,1.309-7.334,0.027c0.218-0.409,0.409-0.791,0.6-1.2c1.963,0.463,3.953,0.763,5.971,0.845
		c-0.573-0.791-1.472-1.39-2.454-1.636c-0.791-0.191-1.636-0.136-2.426-0.382c-0.763-0.218-1.527-0.872-1.5-1.69
		c2.208-1.609,4.853-2.508,7.552-2.863c2.808-0.354,5.862-0.082,8.152,1.609c0.954,1.772-0.654,4.008-2.563,4.662
		C134.469,181.187,132.37,180.887,130.379,181.132z M148.782,183.531c-1.99-0.354-4.062,0.354-6.08,0.191
		c-0.872-0.082-1.718-0.354-2.563-0.6c-1.499-0.436-2.972-0.872-4.471-1.309c2.563-0.109,4.826-2.481,4.798-5.044
		c0.464-0.354,1.172,0.136,1.309,0.709c0.136,0.573-0.055,1.172-0.109,1.772c-0.082,1.418,0.709,2.699,1.172,4.062
		c0.491-0.164,1.009-0.3,1.527-0.463c-0.791-4.362-1.581-8.724-2.317-13.114c-0.082-0.382-0.136-0.845,0.136-1.172
		c0.245-0.3,0.709-0.3,1.118-0.3c1.2,0,2.808,0.354,2.89,1.554c0.218,2.454,0.736,4.88,1.254,7.307
		C147.882,179.251,148.319,181.378,148.782,183.531z"/>
	<path class="path" fill="none" stroke="#000" stroke-width="1" d="M117.756,224.59c-0.9-1.963,0.409-4.226,1.881-5.807c1.472-1.581,3.272-3.163,3.462-5.316
		c0.218-2.154-2.59-4.362-4.062-2.781c0.982,0.545,1.99,1.063,2.972,1.581c-1.39,2.236-2.781,4.498-4.199,6.734
		c-1.554-5.78-10.714-7.361-14.122-2.426c-0.491-2.263-0.245-4.635,0.682-6.734c3.317,1.172,7.098,0.171,10.7-0.441
		c-0.046-0.26-0.085-0.522-0.121-0.786c-0.072-0.533-0.153-1.057-0.273-1.564c-0.192,0.026-0.385,0.047-0.573,0.065
		c-3.272,0.354-6.543,0.709-9.815,1.063c-0.327-0.327-0.055-0.954,0.382-1.091c0.436-0.164,0.927,0,1.363,0.164
		c-0.627-0.6-0.818-1.554-0.845-2.454c-0.136-2.999,0.954-5.916,2.018-8.724c0.763-1.99,1.527-3.98,2.263-5.971
		c0.149-0.386,0.252-0.797,0.341-1.213c-0.773-0.005-1.543,0.033-2.312,0.118c-0.972,3.199-1.86,6.423-2.691,9.656
		c-1.445,5.671-2.726,11.369-4.008,17.067c-1.118,4.989-2.236,10.006-3.353,14.995c-0.097,0.443-0.193,0.888-0.291,1.331
		c0.645,0.11,1.284,0.294,1.909,0.476c0.551-2.189,1.121-4.373,1.708-6.551c0.9-3.381,1.936-6.952,4.498-9.324
		c2.59-2.372,7.198-2.89,9.351-0.109c1.554,2.045,1.227,4.88,0.791,7.388c-0.591,3.277-1.287,6.603-1.677,9.919
		c0.621,0.044,1.244,0.058,1.867,0.019c0.113-1.018,0.245-2.032,0.382-3.04c0.354-2.89,1.445-6.516,4.362-6.761
		c0.29,4.515,0.001,9.02-0.606,13.505c0.446-0.084,0.912-0.1,1.345-0.099c0.049,0,0.097,0.004,0.146,0.005
		c0.388-3.091,0.721-6.189,0.97-9.294c0.191-2.399,0.382-4.935,1.718-6.952c1.227-1.854,3.49-3.762,2.59-5.834
		C123.591,218.483,120.674,221.536,117.756,224.59z"/>
	<path class="path" fill="none" stroke="#000" stroke-width="1" d="M116.448,254.389c-1.091,4.88-2.208,9.76-3.326,14.64c-0.245,1.118-0.545,2.317-1.363,3.081
		c-0.682,0.654-1.636,0.9-2.536,1.118c-3.081,0.763-6.407,1.254-9.379,0.109c-2.972-1.118-5.316-4.389-4.417-7.443
		c2.017,0.164,3.817,1.799,5.834,1.499c1.418-0.245,2.481-1.418,3.435-2.508l4.907-5.725c3.081-3.626,6.325-7.634,6.407-12.378
		c0.027-1.663-0.354-3.299-0.545-4.962c-0.312-2.61-0.161-5.247,0.127-7.862c-0.624,0.038-1.248,0.041-1.87-0.002
		c-0.426,3.686-0.466,7.361,0.462,10.945c1.009,3.899-1.636,7.743-4.144,10.905c-1.5,1.936-3.026,3.871-4.553,5.78
		c-1.69,2.154-3.926,4.553-6.625,4.171c-1.936-0.273-3.408-1.963-4.008-3.817c-0.573-1.854-0.436-3.871-0.245-5.78
		c0.827-7.948,2.481-15.779,4.43-23.534c-0.628-0.185-1.265-0.364-1.907-0.472c-1.232,5.608-2.446,11.239-3.15,16.918
		c-1.39,11.314-0.763,22.765-0.136,34.134c1.227-3.544,2.045-7.252,2.399-10.987c0.409,2.127,0.818,4.253,1.227,6.38
		c0.518-0.136,1.036-0.273,1.554-0.409c-0.055,1.581-0.136,3.135-0.191,4.717c-2.535-1.145-5.562,0.9-6.652,3.462
		c-1.063,2.563-0.791,5.48-0.709,8.261c0.164,7.443-1.336,14.913-4.389,21.702c-3.135,6.952-1.745,15.676,3.353,21.32
		c-4.713-11.496-2.729-25.496,4.999-35.228c-0.573,2.553-1.471,5.111-2.355,7.474c-0.327,0.927-0.682,1.908-0.382,2.863
		c0.218,0.763,0.845,1.336,1.499,1.772c2.781,1.908,6.952,1.718,9.297-0.709c2.372-2.399,2.345-6.843-0.245-9.024
		c1.118-0.464,2.236-0.954,3.353-1.445c4.635,7.552,6.216,16.903,4.28,25.546c-0.327-2.208-0.682-4.417-1.009-6.625
		c-0.354,2.808-0.709,5.616-1.063,8.424c0.6-0.627,1.2-1.227,1.827-1.854c-0.872,4.989-1.745,9.951-2.617,14.913
		c5.862-9.869,7.17-22.356,3.49-33.234c-1.363-4.062-1.554-8.397-1.745-12.677c-0.273-6.461-0.545-12.95-0.818-19.411
		c-0.082-1.663,0.354-3.899,2.018-4.008c1.908-0.082,2.89-2.263,3.435-4.117c3.148-10.698,5.42-21.662,6.816-32.735
		c-0.488-0.014-1.006-0.003-1.493,0.096C118.961,243.281,117.701,248.86,116.448,254.389z M101.153,274.209
		c0.327,0.436,0.654,0.872,0.982,1.309c0.245,0.627,0.109,1.39-0.3,1.936c0.327,0,0.436,0.436,0.436,0.763
		c0.055,1.718,0.109,3.408,0.164,5.098c0.354-0.136,0.709-0.3,1.036-0.464c0.436-0.981,0.845-1.963,1.254-2.944
		c0.191-0.409,0.354-0.845,0.436-1.281c0.164-0.9-0.082-1.827,0.055-2.699c0.164-0.9,1.036-1.799,1.881-1.445
		c0.191,2.754,0.218,5.534,0.055,8.315c-0.027,0.354-0.082,0.763-0.409,0.927c-0.164,0.082-0.354,0.082-0.545,0.055
		c-1.745-0.109-3.517-0.245-5.262-0.382c-0.436-2.29-0.682-4.635-0.654-6.979C100.281,275.6,100.417,274.618,101.153,274.209z
		 M92.265,300.9c0.463-3.571,0.9-7.143,1.336-10.742c2.837,3.356,2.839,7.788,1.843,12.236
		C94.385,301.905,93.325,301.416,92.265,300.9z M96.382,313.768c-0.545,0.082-1.172,0.164-1.581-0.191
		c-0.545-0.464-0.463-1.281-0.3-1.963c0.491-2.29,1.2-4.526,2.045-6.707c0.545-1.363,1.172-2.726,1.336-4.199
		c0.3-2.345-0.573-4.771-0.082-7.088c0.518,0.164,1.172-0.136,1.39-0.654c-0.191-1.145-1.827-1.718-2.726-0.954
		c-0.273-0.491-0.382-1.091-0.327-1.636c2.045-0.027,4.089-0.027,6.107-0.055c0.327,0,0.627,0,0.927,0.136
		c0.6,0.245,0.9,0.954,0.845,1.609c-0.055,0.627-0.354,1.227-0.682,1.799c-1.472,2.454-3.299,5.262-2.345,7.961
		c1.227,3.49,1.963,7.143,2.208,10.824C100.935,313.032,98.672,313.387,96.382,313.768z M108.241,300.355
		c-0.791,0.682-1.581,1.39-2.563,1.69c-0.981,0.327-2.208,0.136-2.808-0.709c-0.518-0.709-0.463-1.69-0.164-2.508
		c0.327-0.818,0.872-1.527,1.309-2.29c1.036-1.772,1.527-3.871,1.336-5.916c-0.055-0.682-0.245-1.445-0.818-1.827
		c-0.436-0.245-0.954-0.245-1.445-0.245c-1.418,0.055-2.835,0.082-4.253,0.136c-1.581,0.027-3.244,0.109-4.662,0.845
		c-0.436-0.981-0.9-2.127-0.436-3.108c0.518-1.118,1.936-1.418,3.163-1.527c2.808-0.273,5.671-0.164,8.452,0.327
		c1.2,0.191,2.645,0.791,2.672,1.99l0.245,9.815c0,0.654,0.055,1.39,0.464,1.881C109.114,299.346,108.65,299.973,108.241,300.355z"
		/>
	<path class="path" fill="none" stroke="#000" stroke-width="1" d="M122.649,144.054c8.737,0.956,17.514,1.524,26.297,1.712c-0.054-0.59-0.104-1.18-0.169-1.768
		c-4.729-0.049-9.454-0.163-14.172-0.352c2.399-1.499,4.471-3.544,5.998-5.943c0.654,0.327,0.382,1.281,0.191,1.963
		c-0.164,0.709,0.354,1.772,0.954,1.363c0.518-6.052,3.98-11.778,9.079-15.049c-1.99-0.463-4.062,0.6-5.453,2.099
		c-1.39,1.499-2.263,3.381-3.326,5.125c-1.908,3.163-4.444,5.916-7.443,8.07c-0.436,0.327-0.927,0.627-1.445,0.763
		c-1.254,0.327-2.508-0.382-3.462-1.254c-2.317-2.181-3.353-5.316-4.635-8.234c-1.254-2.917-3.054-5.916-6.025-7.061
		c-1.254-0.464-0.573-2.372,0.3-3.408c0.791-0.927,1.636-1.908,2.754-2.426c1.091-0.545,2.59-0.491,3.408,0.409
		c1.772,1.963,5.18-0.436,7.579,0.6c0.635,0.272,1.296,0.47,1.968,0.613c0.089-0.572,0.165-1.15,0.174-1.724
		c-0.765-0.215-1.5-0.537-2.169-0.988c-0.763-0.518-1.745,0.055-2.563,0.436c-2.808,1.254-6.516-0.436-7.416-3.381
		c-2.018,2.072-4.008,4.171-5.998,6.243c-1.145,1.172-0.573,3.19,0.518,4.389c1.063,1.2,2.59,1.963,3.653,3.19
		c1.718,1.936,2.045,4.717,2.672,7.252c0.6,2.536,1.908,5.289,4.417,5.971c-2.004-0.085-4.008-0.235-6.01-0.415
		C122.407,142.854,122.516,143.455,122.649,144.054z"/>
	<path class="path" fill="none" stroke="#000" stroke-width="1" d="M173.755,297.574c-0.082-0.218-0.027-0.491,0.109-0.682c0.3,0,0.573,0,0.845,0
		c0.218,0.545,0.082,1.2-0.327,1.609c-0.218,0.109-0.463,0.055-0.654-0.082c0-0.273,0-0.545,0-0.818"/>
	<path class="path" fill="none" stroke="#000" stroke-width="1" d="M97.663,309.324c0,0.354,0,0.709,0,1.091c-0.191,0.109-0.463,0.164-0.709,0.136
		c-0.109-0.6-0.164-1.2-0.082-1.799c0.191-0.109,0.436-0.164,0.654-0.109c0.136,0.191,0.191,0.436,0.136,0.654"/>
	<path class="path" fill="none" stroke="#000" stroke-width="1" d="M116.584,96.561c0.327,0.273,0.218,0.927-0.191,1.063c-0.273-0.6-0.545-1.172-0.818-1.772
		c0.409-0.245,1.009,0.164,0.954,0.627"/>
	<path class="path" fill="none" stroke="#000" stroke-width="1" d="M101.535,292.939c-0.109-0.545-0.191-1.227,0.3-1.472c0.545,0.382,0.872,1.091,0.736,1.745
		C102.243,293.484,101.671,293.348,101.535,292.939"/>
	<path class="path" fill="none" stroke="#000" stroke-width="1" d="M92.347,192.719c0.409,0.109,0.872,0.573,0.518,0.791c-0.791,0.327-1.799,0.109-2.399-0.545
		c0.6-0.218,1.254-0.3,1.881-0.191"/>
	<path class="path" fill="none" stroke="#000" stroke-width="1" d="M124.518,69.243c0.354-0.327,0.927-0.382,1.309-0.082c-0.382,0.545-0.954,0.954-1.581,1.172
		c-0.218-0.164-0.354-0.409-0.382-0.654c0.218-0.136,0.436-0.273,0.682-0.409"/>
	<path class="path" fill="none" stroke="#000" stroke-width="1" d="M164.349,235.005c0.763,0.573,0.927,1.772,0.382,2.536c-0.273-0.818-0.409-1.663-0.463-2.508"/>
	<path class="path" fill="none" stroke="#000" stroke-width="1" d="M125.881,171.999c-0.6,0.763-1.854,0.845-2.563,0.218c0.136-0.245,0.273-0.463,0.382-0.709
		c0.709-0.136,1.445,0.027,2.072,0.382"/>
	<path class="path" fill="none" stroke="#000" stroke-width="1" d="M93.028,315.595c0.382,0.245,0.736,0.518,1.091,0.791c-0.627,0.382-1.309,0.627-2.017,0.709
		c-0.436-0.627,0.164-1.636,0.927-1.581"/>
	<path class="path" fill="none" stroke="#000" stroke-width="1" d="M73.699,257.579c0.218,0.763-0.382,1.636-1.172,1.718c-0.573-0.845-0.218-2.154,0.709-2.59
		c0.109,0.3,0.218,0.627,0.327,0.927"/>
	<path class="path" fill="none" stroke="#000" stroke-width="1" d="M87.303,340.105c-0.082-0.354-0.164-0.736-0.218-1.091c0.491-0.191,1.091-0.191,1.609,0.027
		c0.055,0.736-0.218,1.499-0.736,2.017c-0.218-0.327-0.436-0.627-0.654-0.927"/>
	<path class="path" fill="none" stroke="#000" stroke-width="1" d="M86.785,240.348c-0.027,0.409-0.3,0.791-0.709,0.954c-0.3-0.927-0.191-1.963,0.3-2.808
		c0.191,0.136,0.409,0.273,0.627,0.409c-0.082,0.491-0.191,0.954-0.273,1.418"/>
	<path class="path" fill="none" stroke="#000" stroke-width="1" d="M122.228,68.862c0,0.927-1.063,1.663-1.936,1.336c0.354-0.763,1.091-1.363,1.908-1.527"/>
	<path class="path" fill="none" stroke="#000" stroke-width="1" d="M123.291,32.056c0.055,0.763-0.463,1.527-1.2,1.772c-0.763-0.954-0.109-2.617,1.118-2.808
		c0.027,0.327,0.082,0.682,0.136,1.009"/>
	<path class="path" fill="none" stroke="#000" stroke-width="1" d="M123.591,301.663c0.273,0.382,0.654,0.654,1.063,0.845c0.082,0.436,0.027,0.872-0.164,1.281
		c-0.791-0.436-1.499-1.091-1.99-1.854c0.218-0.354,0.736-0.518,1.091-0.3"/>
	<path class="path" fill="none" stroke="#000" stroke-width="1" d="M114.021,158.831c0.055,0.245,0.027,0.518-0.136,0.709c-0.954-0.682-1.254-2.099-0.682-3.108
		c0.3,0.791,0.627,1.554,0.954,2.345"/>
	<path class="path" fill="none" stroke="#000" stroke-width="1" d="M141.857,122.162c0.518,0.027,1.091,0.109,1.445,0.518c0.6,0.682-0.109,1.963-1.009,1.827
		c-0.9-0.164-1.145-1.609-0.354-2.072"/>
	<path class="path" fill="none" stroke="#000" stroke-width="1" d="M122.5,124.588c-0.436-0.463-0.9-1.009-0.763-1.609c0.218-0.791,1.554-0.818,1.908-0.082
		c0.354,0.736-0.245,1.69-1.036,1.854"/>
	<path class="path" fill="none" stroke="#000" stroke-width="1" d="M113.231,136.993c-0.3-0.136-0.654-0.164-0.981-0.109c-0.109-0.218-0.164-0.463-0.136-0.709
		c1.118-0.327,2.345-0.109,3.272,0.545c-0.6,0.463-1.472,0.573-2.181,0.273"/>
	<path class="path" fill="none" stroke="#000" stroke-width="1" d="M130.516,205.996c-0.872,0.027-1.745,0.055-2.617,0.055c0.981-0.491,2.099-0.736,3.19-0.709
		c-0.082,0.3-0.273,0.6-0.573,0.763"/>
	<path class="path" fill="none" stroke="#000" stroke-width="1" d="M165.685,82.357c-0.273-0.027-0.573-0.027-0.845-0.055c0.627-0.927,1.827-1.445,2.944-1.254
		c-0.245,0.9-1.172,1.554-2.099,1.472"/>
	<path class="path" fill="none" stroke="#000" stroke-width="1" d="M116.066,26.958c0.818,0.736,1.009,2.099,0.436,3.026c-0.191,0.273-0.436,0.545-0.763,0.573
		C115.112,29.439,115.248,27.94,116.066,26.958"/>
	<path class="path" fill="none" stroke="#000" stroke-width="1" d="M152.163,35.9c-0.382-0.164-0.573-0.682-0.382-1.063c0.164-0.382,0.682-0.545,1.063-0.354
		c0.245,0.136,0.409,0.382,0.545,0.627c0.191,0.382,0.3,0.845,0.191,1.254c-0.109,0.409-0.545,0.736-0.954,0.654
		c-0.409-0.109-0.627-0.736-0.273-0.981"/>
	<path class="path" fill="none" stroke="#000" stroke-width="1" d="M104.043,140.128c0.409-0.627,0.818-1.254,1.227-1.881c-0.109,1.363-0.218,2.699-0.354,4.062
		c-0.709-0.436-1.091-1.363-0.927-2.181"/>
	<path class="path" fill="none" stroke="#000" stroke-width="1" d="M112.058,193.592c-0.818,1.036-1.554,2.099-2.29,3.217
		C109.305,195.364,110.532,193.619,112.058,193.592"/>
	<path class="path" fill="none" stroke="#000" stroke-width="1" d="M163.886,52.286c0.709,0.273,1.145,1.036,1.091,1.772c-1.418-0.082-2.726-0.954-3.572-2.099
		c0.818-0.3,1.772-0.191,2.481,0.3"/>
	<path class="path" fill="none" stroke="#000" stroke-width="1" d="M91.911,282.606c0.245,0.818-0.027,1.772-0.682,2.29c-0.954-1.036-1.091-2.699-0.3-3.871
		c0.354,0.518,0.682,1.036,1.036,1.554"/>
	<path class="path" fill="none" stroke="#000" stroke-width="1" d="M163.313,124.343c0.109,0.627-0.463,1.172-1.036,1.445c-0.791,0.382-1.69,0.545-2.59,0.463
		c-0.136-0.245-0.164-0.518-0.136-0.763C160.86,125.324,162.141,124.942,163.313,124.343"/>
	<path class="path" fill="none" stroke="#000" stroke-width="1" d="M105.433,36.664c-0.845,0.055-1.581-0.818-1.418-1.663c1.609-0.327,3.353,1.036,3.381,2.699
		c-0.736-0.055-1.418-0.409-1.908-0.927"/>
	<path class="path" fill="none" stroke="#000" stroke-width="1" d="M99.653,48.005c-0.709,1.39-2.317,2.29-3.871,2.127C96.382,48.66,98.072,47.705,99.653,48.005"/>
	<path class="path" fill="none" stroke="#000" stroke-width="1" d="M85.286,333.452c0.191-0.327,0.736-0.218,0.954,0.082c0.191,0.327,0.164,0.736,0.136,1.091
		c-0.082,0.981-0.164,1.936-0.245,2.89c-1.036-0.818-1.036-2.372-0.927-3.681C85.204,333.698,85.231,333.562,85.286,333.452"/>
	<path class="path" fill="none" stroke="#000" stroke-width="1" d="M109.386,203.761c0.164-0.164,0.3-0.354,0.382-0.6c1.036,0.654,1.963,1.499,2.672,2.508
		C111.159,206.351,109.332,205.206,109.386,203.761"/>
	<path class="path" fill="none" stroke="#000" stroke-width="1" d="M166.258,110.875c1.254,0.3,2.481,0.627,3.735,0.927c-1.472,0.545-3.19,0.273-4.444-0.682
		C165.549,110.847,165.985,110.793,166.258,110.875"/>
	<path class="path" fill="none" stroke="#000" stroke-width="1" d="M82.041,293.348c-0.027-0.573-0.027-1.172-0.055-1.772c0.082-0.3,0.491-0.491,0.763-0.354
		c0.573,0.654,0.164,1.636-0.327,2.317c-0.518,0.682-1.118,1.445-0.927,2.263c-0.436-0.818-0.273-1.908,0.382-2.563"/>
	<path class="path" fill="none" stroke="#000" stroke-width="1" d="M166.176,306.571c1.091,0.6,2.535,0.573,3.572-0.109c0.3,0.109,0.463,0.491,0.327,0.791
		c-0.709,0.109-1.309,0.573-1.963,0.9c-0.654,0.327-1.472,0.518-2.072,0.109C165.44,307.852,165.467,306.707,166.176,306.571"/>
	<path class="path" fill="none" stroke="#000" stroke-width="1" d="M81.551,194.409c-0.273-0.845,0.136-1.854,0.927-2.236c0.055,1.227-0.027,2.481-0.218,3.735
		c-0.109-0.164-0.354,0-0.382,0.164c-0.027,0.191,0.055,0.354,0.082,0.545c0.027,0.6-0.981,0.872-1.227,0.327
		C81.523,196.4,81.878,195.309,81.551,194.409"/>
	<path class="path" fill="none" stroke="#000" stroke-width="1" d="M163.668,46.37c-0.436-0.109-0.981-0.436-0.845-0.872c2.563-0.436,5.207-0.382,7.743,0.109
		C168.466,46.697,165.958,46.969,163.668,46.37"/>
	<path class="path" fill="none" stroke="#000" stroke-width="1" d="M104.206,146.371c0.164,1.145,0.327,2.263,0.463,3.381c0.164,1.145,0.3,2.372-0.273,3.381
		c-0.191,0.327-0.736,0.573-0.872,0.245c-0.191-2.29-0.218-4.553-0.109-6.843C103.688,146.48,103.934,146.426,104.206,146.371"/>
	<path class="path" fill="none" stroke="#000" stroke-width="1" d="M155.952,281.788c-0.791-1.881-1.581-4.062-0.6-5.834c-0.436,0-0.518-0.818-0.082-0.872
		c0.9,2.154,1.336,4.498,1.281,6.843C156.334,281.87,156.143,281.843,155.952,281.788"/>
	<path class="path" fill="none" stroke="#000" stroke-width="1" d="M74.789,262.568c0.109-0.436,0.3-0.872,0.573-1.254c-0.654-0.027-0.709-0.954-0.545-1.581
		c0.164-0.763,0.354-1.499,0.518-2.263c0.436-0.109,0.872,0.218,1.036,0.627c0.164,0.409,0.136,0.845,0.109,1.281
		c-0.055,1.009-0.136,2.017-0.218,3.026c0.055-0.409-0.218-0.818-0.6-0.981C75.771,261.941,75.335,262.513,74.789,262.568"/>
	<path class="path" fill="none" stroke="#000" stroke-width="1" d="M158.351,42.007c-0.436-0.027-0.872-0.055-1.309-0.082c0.954-2.454,2.972-4.444,5.425-5.344
		c0.545,0.981-0.654,1.936-1.554,2.59C159.851,39.908,158.979,40.89,158.351,42.007"/>
	<path class="path" fill="none" stroke="#000" stroke-width="1" d="M154.725,274.018c0.109-1.145,0.082-2.29-0.027-3.408c0.191-0.136,0.409-0.3,0.627-0.436
		c-0.409-0.872-0.791-1.718-1.2-2.59c0.3-0.136,0.627-0.273,0.927-0.382c0.136,0.245,0.3,0.463,0.463,0.682
		c0.545,1.554,0.6,3.272,0.164,4.853C155.543,273.282,155.271,273.882,154.725,274.018"/>
	<path class="path" fill="none" stroke="#000" stroke-width="1" d="M156.007,193.537c-1.963-1.581-3.899-3.163-5.862-4.744c-0.518-0.436-1.118-1.009-1.009-1.663
		c0.409-0.164,0.818,0.109,1.145,0.382c1.227,1.009,2.481,2.045,3.708,3.081C154.944,191.356,155.98,192.31,156.007,193.537"/>
	<path class="path" fill="none" stroke="#000" stroke-width="1" d="M86.758,236.995c0.327,0.327,0.409,0.9,0.164,1.281c-0.218-0.191-0.491-0.327-0.791-0.382
		c0.382-1.581,1.036-3.135,1.118-4.771c0.027-0.9-0.109-1.827,0.136-2.699c0.273-0.872,1.145-1.663,2.017-1.39
		c-0.627,1.799-0.954,3.681-1.009,5.589c-0.164,0.109-0.436,0.164-0.654,0.109C88.121,235.577,87.63,236.722,86.758,236.995"/>
	<path class="path" fill="none" stroke="#000" stroke-width="1" d="M132.26,210.168c-0.573-0.136-1.145,0.164-1.718,0.3c-1.472,0.382-2.972-0.354-4.308-1.063
		c1.036-0.573,2.345-0.709,3.49-0.327c0.6-0.709,1.663-0.763,2.59-0.545c0.9,0.191,1.772,0.6,2.699,0.6
		c1.69-0.027,3.653-1.309,4.907-0.164c-0.218,0.164-0.327,0.463-0.3,0.709C137.277,210.549,134.687,210.713,132.26,210.168"/>
	<path class="path" fill="none" stroke="#000" stroke-width="1" d="M124.763,71.997c0.818,0,1.745,0.055,2.263,0.682c0.327,1.2,0.763,2.372,1.363,3.462
		c-0.327,0.354-0.9,0-1.172-0.409c-0.245-0.409-0.518-0.927-0.981-0.954c-0.518-0.055-0.845,0.573-0.845,1.091
		c0,0.518,0.191,1.036,0.136,1.554c-0.109,0.791-0.791,1.363-1.527,1.69c-1.418,0.6-3.135,0.436-4.389-0.436
		c-1.281-0.9-2.045-2.454-1.963-3.98c-0.682-0.573-0.354-1.745,0.354-2.236s1.636-0.518,2.508-0.491
		C121.928,71.97,123.345,71.97,124.763,71.997"/>
	<path class="path" fill="none" stroke="#000" stroke-width="1" d="M96.873,206.296c-1.554,2.944-3.108,5.862-4.662,8.806c-0.872,1.69-2.345,3.053-4.09,3.79
		c2.372-4.253,4.935-8.397,7.661-12.432c0.136-0.191,0.3-0.436,0.545-0.518C96.573,205.86,96.9,206.051,96.873,206.296"/>
	<path class="path" fill="none" stroke="#000" stroke-width="1" d="M122.146,43.943c-0.6,0-1.145,0.436-1.254,1.009c0.791,0.273,0.6,1.472,0.082,2.154
		c-0.491,0.682-1.172,1.445-0.9,2.236c1.854,5.153,2.617,10.687,2.236,16.14c0,0.327-0.027,0.654-0.218,0.927
		c-0.164,0.218-0.436,0.354-0.709,0.491c-3.026,1.445-6.243,2.508-9.542,3.135c-0.463-5.235-0.872-10.769,1.39-15.513
		c0.491-1.036-0.055-2.29-0.845-3.135c-0.791-0.818-1.799-1.418-2.535-2.317c-0.736-0.872-1.118-2.236-0.436-3.163
		c0.273-0.382,0.682-0.627,1.091-0.872c2.808-1.663,5.616-3.353,8.452-5.044c0.218-0.136,0.436-0.273,0.709-0.273
		c0.573-0.055,1.036,0.436,1.39,0.9c0.654,0.845,1.336,1.69,1.99,2.563c0.627,0.818,1.118,2.29,0.109,2.617
		C122.664,45.306,122.282,44.652,122.146,43.943 M118.329,50.459c-0.682,0.981-1.527,1.881-2.481,2.645
		c-1.418,2.835-2.236,5.998-2.345,9.188c-0.027,0.818,0,1.636,0,2.481c0.027,1.227,0.055,2.481,0.082,3.708
		c2.017-0.9,4.062-1.827,6.08-2.726c0.3-0.136,0.573-0.273,0.736-0.545c0.164-0.218,0.164-0.518,0.164-0.763
		c0.136-3.871-0.191-7.77-0.927-11.56C119.447,51.959,119.174,50.923,118.329,50.459 M116.366,46.86
		c-0.327-0.518-0.818-0.927-1.363-1.2c-0.845-0.436-1.936-0.491-2.781-0.027c-0.845,0.491-1.363,1.527-1.118,2.454
		c1.254,0.709,1.772,2.508,3.19,2.863c0.954,0.273,2.017-0.354,2.426-1.254C117.129,48.769,116.938,47.678,116.366,46.86
		 M118.465,41.189c-0.055,1.418-0.109,2.863-0.191,4.308c0,0.518-0.027,1.036,0.164,1.499c0.218,0.463,0.709,0.845,1.227,0.736
		c1.2-1.718,0.218-4.09,0.682-6.134C119.801,41.244,119.12,41.08,118.465,41.189 M117.484,45.143c0.545-0.354,0.491-1.2,0.191-1.772
		c-0.245-0.463-0.654-0.872-1.118-1.145c-0.409,0.6-0.791,1.281-0.682,1.99C116.011,44.925,116.884,45.524,117.484,45.143"/>
	<path class="path" fill="none" stroke="#000" stroke-width="1" d="M92.038,127.89c0.295,0.089,0.585,0.189,0.877,0.286c0.409-1.633,0.826-3.267,1.232-4.897
		c0.218-0.872,0.491-1.799,1.172-2.372c1.445-1.145,3.517,0,4.962,1.118c-0.409-2.181,0.218-5.016,2.372-5.534
		c-1.718-1.963-3.217-4.09-4.498-6.352c-0.436,1.118-1.145,2.127-2.017,2.972c-0.136-1.445,0.3-2.944,1.227-4.062
		c3.517-0.872,7.089-1.499,10.687-1.963c-1.118,4.035-2.236,8.043-3.326,12.078c-0.682,2.426-1.363,4.88-2.018,7.307
		c-0.383,1.388-0.765,2.771-1.148,4.155c0.519,0.063,1.039,0.117,1.561,0.168c1.126-4.229,2.372-8.43,3.622-12.638
		c1.363-4.553,2.726-9.133,4.09-13.686c-4.117,1.2-8.315,2.017-12.568,2.454c-0.818,0.082-1.663,0.191-2.263,0.682
		c-0.9,0.736-0.981,2.045-1.063,3.217c-0.316,5.76-2.039,11.326-3.607,16.89C91.566,127.761,91.803,127.819,92.038,127.89z"/>
	<path class="path" fill="none" stroke="#000" stroke-width="1" d="M101.533,130.721c-0.781,2.825-1.562,5.648-2.343,8.48c-0.382,1.39-1.227,3.108-2.672,2.972
		c-2.317-0.273-4.607-0.545-6.925-0.791c1.106-4.363,2.202-8.738,3.297-13.109c-0.292-0.098-0.584-0.198-0.879-0.287
		c-0.235-0.071-0.471-0.13-0.708-0.18c-0.182,0.645-0.363,1.29-0.537,1.935c-1.254,4.608-2.29,9.27-3.108,13.959
		c1.799-1.636,4.608-0.9,6.979-0.436c2.399,0.463,5.643,0,6.107-2.399c0.666-3.356,1.473-6.674,2.35-9.976
		C102.573,130.838,102.052,130.784,101.533,130.721z"/>
	<path class="path" fill="none" stroke="#000" stroke-width="1" d="M164.758,115.946c-0.463-1.554-0.927-3.081-1.39-4.635c-0.545-1.772-1.009-3.926,0.191-5.344
		c2.754,1.445,5.862,2.181,8.997,2.099c1.39-0.027,2.154,1.554,2.563,2.89c2.781,8.779,5.562,17.53,8.343,26.309
		c0.709,2.263,1.418,4.635,0.954,6.952c-0.436-0.164-0.818-0.545-0.981-0.981c-2.59,0.872-5.207,1.745-7.825,2.645
		c-0.791,0.273-1.636,0.518-2.454,0.3c-1.445-0.382-2.045-2.099-2.399-3.544c-1.745-6.979-4.093-13.793-4.365-20.963
		c-0.092-0.594,0,0-0.235-1.173C165.284,118.736,165.385,117.963,164.758,115.946 M164.54,107.848
		c-0.545,0.273-0.463,1.118-0.109,1.636c0.327,0.518,0.818,0.981,0.845,1.609c0.245,1.145,0.491,2.29,0.736,3.462
		c0.191,0.9,0.409,1.827,0.981,2.535c0.6,0.709,1.663,1.091,2.454,0.6c0.3-1.609,0.573-3.244,0.872-4.853
		c0.109-0.654,0.218-1.39-0.191-1.936c-0.218-0.354-0.6-0.545-0.981-0.709C167.621,109.402,166.067,108.639,164.54,107.848
		 M176.263,123.252c-0.491,0.491-1.309,0.382-1.936,0.109c-0.627-0.245-1.254-0.627-1.936-0.545
		c-0.573,0.055-1.036,0.409-1.472,0.791c-1.254,1.063-2.508,2.617-2.072,4.199c1.445,5.044,2.59,10.169,3.435,15.349
		c0.136,0.791,0.927,1.336,1.718,1.418c0.818,0.082,1.581-0.191,2.345-0.436c1.336-0.463,2.645-0.927,3.98-1.39
		c0.682-0.218,1.445-0.518,1.827-1.145c0.436-0.763,0.191-1.718-0.055-2.535c-1.963-6.489-3.926-12.95-5.889-19.439
		c-0.327-0.518-1.254-0.245-1.472,0.354c-0.245,0.573,0.055,1.254,0.409,1.745C175.527,122.243,176.018,122.68,176.263,123.252
		 M174.498,117.163c0.429-0.179,0.13-0.208,0.729-0.072c-0.463-1.827-0.927-3.626-1.418-5.453c-0.191-0.818-0.463-1.718-1.118-2.263
		c-0.654-0.545-1.854-0.491-2.181,0.3c0.654,1.854,1.281,3.708,1.936,5.562c0.472,1.086,0.472,1.086,0.299,0.991
		c0.735,0.479,0.315,0.166,1.129,0.897"/>
	<path class="path" fill="none" stroke="#000" stroke-width="1" d="M97.718,171.917c-2.045-0.055-3.135,2.317-3.708,4.28c-1.254,4.444-2.508,8.861-3.762,13.305
		c-0.245,0.791-0.518,1.663-1.227,2.127c-1.827,1.172-4.689-1.472-6.216,0.055c0.327-1.118,0.245-2.372-0.218-3.462
		c1.091-1.009,1.554-2.563,1.936-4.008c2.972-10.933,5.235-22.029,6.843-33.234c0.136-1.145-0.763-2.208-1.827-2.617
		s-2.263-0.3-3.381-0.218c-1.063,12.65-2.127,25.273-3.163,37.923c-0.082,0.9-0.463,2.099-1.363,2.045
		c0.245-14.177,1.363-28.299,3.353-42.34c2.181-1.009,5.016,2.808,6.707,1.063c2.208-2.263,6.107-2.645,8.752-0.845
		c0.709,0.491,0.845,1.499,0.872,2.372c0.3,7.143-0.818,14.231-1.936,21.293C99.217,170.663,98.754,171.944,97.718,171.917
		 M90.602,166.846c-1.936,7.497-3.844,14.995-5.753,22.492c1.009,0.518,2.181,0.736,3.299,0.654
		c2.072-5.235,3.681-10.633,4.798-16.14c0.3-1.499,1.254-3.435,2.699-2.972c1.554,0.463,2.481-1.69,2.645-3.299
		c0.682-5.916,1.363-11.86,2.045-17.776c0.164-1.527-1.145-2.917-2.617-3.272c-1.499-0.327-3.053,0.164-4.389,0.9
		C93.846,153.978,92.211,160.494,90.602,166.846"/>
	<path class="path" fill="none" stroke="#000" stroke-width="1" d="M188.75,231.733c0.818-4.607-0.573-9.379-2.699-13.55c-2.127-4.199-4.989-7.961-7.361-11.996
		c-0.791-1.336-1.554-2.808-1.472-4.389c0.218-3.462,4.826-5.262,8.07-3.926c3.217,1.336,5.207,4.553,6.761,7.688
		c2.099-3.98,4.226-7.988,6.325-11.969c1.227,2.426,6.052,0.845,6.952,3.381c0.3,0.818-0.027,1.718-0.327,2.536
		c-1.69,4.171-3.899,8.124-6.598,11.723c-0.845,1.145-0.954,2.617-0.981,4.035c-0.164,5.425,0.273,10.851,1.336,16.167
		c0.136,0.682,0.3,1.418,0.027,2.072c-1.527,3.953,2.672,8.642,0.763,12.432c-1.772,0-3.544,0-5.289,0
		c-0.518-2.563-1.281-5.098-2.236-7.525c1.063-0.927,0.109-2.645-1.009-3.49C189.922,234.105,188.505,233.096,188.75,231.733
		 M191.531,233.669c1.718-0.409,3.462-0.791,5.207-1.2c-0.872-2.972-1.009-6.134-1.145-9.215c-0.136-3.053-0.245-6.08-0.382-9.106
		c-0.027-0.818-0.055-1.663,0.273-2.399c0.3-0.709,0.927-1.254,1.472-1.799c2.508-2.535,4.09-5.807,5.616-9.024
		c0.6-1.254,1.172-2.863,0.327-3.953c-0.682-0.845-2.017-0.954-2.999-0.491c-0.981,0.463-1.69,1.336-2.317,2.263
		c-2.181,3.244-3.517,7.088-3.817,11.014c-1.99-2.426-3.98-4.853-5.971-7.279c-1.472-1.772-3.353-3.762-5.644-3.49
		c-2.345,0.273-3.817,3.381-2.535,5.371c1.718,2.645,3.462,5.289,5.18,7.934c2.072,3.163,4.199,6.434,4.989,10.169
		C190.549,226.171,190.004,230.179,191.531,233.669 M194.203,234.732c-0.027,2.699,0.245,5.425,0.791,8.07
		c0.082,0.491,0.218,0.981,0.545,1.336c0.682,0.736,1.936,0.463,2.808-0.027c-0.518-3.135-1.336-6.216-2.127-9.27
		C195.539,234.786,194.884,234.759,194.203,234.732"/>
	<path class="path" fill="none" stroke="#000" stroke-width="1" d="M194.121,195.364c-2.917,1.091-6.298-0.354-8.37-2.645c-2.099-2.317-3.19-5.344-4.226-8.288
		c-2.726-7.688-5.453-15.377-8.179-23.065c-0.791-2.236-1.609-4.553-3.135-6.38c-0.736-0.9,0.164-2.345,1.281-2.699
		c1.118-0.354,2.345-0.082,3.517-0.245c1.145-0.191,2.399-1.118,2.181-2.263c-0.354-1.718,1.881-2.645,3.599-2.917
		c1.445-0.191,2.863-0.409,4.308-0.627c0.627-0.082,1.309-0.191,1.908,0.082c0.9,0.436,1.227,1.527,1.445,2.508
		c1.499,6.407,2.999,12.814,4.498,19.193c0.545,2.236,0.545,5.371-1.663,5.943c2.208,6.298,3.435,12.95,3.571,19.657
		C194.884,194.3,194.775,195.146,194.121,195.364 M185.533,180.451c1.009,1.799,1.009,3.926,1.063,5.998
		c0.055,2.045,0.191,4.199,1.363,5.889c1.172,1.69,3.708,2.59,5.316,1.336c-0.327-7.007-1.663-13.932-3.98-20.557
		c1.145,0,2.045-1.063,2.29-2.154c0.245-1.118,0-2.263-0.245-3.381c-1.499-6.734-2.999-13.441-4.498-20.175
		c-2.399,0.382-4.798,0.736-7.17,1.118c-0.491,0.082-1.118,0.354-1.009,0.818c1.527,7.116,3.053,14.231,4.553,21.347
		c0.682,3.217,1.39,6.434,1.2,9.706C184.797,180.423,185.151,180.423,185.533,180.451 M171.492,154.005
		c1.745,2.236,2.726,4.962,3.681,7.661c2.59,7.334,5.207,14.668,7.797,22.002c0.327,0.927,0.654,1.881,0.736,2.863
		c0.082,1.281-0.082,2.972,1.091,3.49c0.3-1.581-0.082-3.217-0.491-4.771c-2.699-10.851-4.853-21.838-6.434-32.934
		C175.8,153.078,173.673,153.651,171.492,154.005"/>
	<path class="path" fill="none" stroke="#000" stroke-width="1" d="M150.718,74.996c1.39,6.025-1.581,12.132-4.471,17.612c-1.145,2.181-2.699,4.635-5.153,4.88
		c-1.69-3.381-3.353-6.761-5.044-10.142c-1.636,2.154-1.609,5.425,0.082,7.552c0.818,1.036,1.963,1.772,2.863,2.754
		c0.9,0.954,1.581,2.345,1.145,3.599c-4.526,1.99-9.651,1.936-14.613,1.854c-1.663-0.055-3.462-0.136-4.717-1.227
		c-1.254-1.091-1.281-3.571,0.3-4.09c3.653-1.227,4.907-6.68,2.208-9.406c-0.382,3.381-1.581,6.652-3.49,9.433
		c-3.49-3.244-5.644-7.716-6.816-12.35c-1.172-4.608-1.472-9.406-1.745-14.15c0-0.218,0-0.463,0.164-0.627
		c0.3-0.3,0.791,0.136,1.036,0.518c3.19,5.262,6.789,10.251,10.796,14.94c0.518,0.627,1.091,1.281,1.827,1.609
		c0.6,0.273,1.227,0.354,1.881,0.382c6.734,0.436,13.85-2.508,17.53-8.179c0.736-1.145,2.045-2.535,3.135-1.745
		c-0.954,2.917-3.108,5.453-5.862,6.843c-1.908,0.981-2.59,3.462-2.127,5.562c0.463,2.072,1.827,3.844,3.135,5.534
		c2.045-3.899,3.871-7.906,5.453-12.023c0.954-2.481,1.772-5.534,0.164-7.661C149.273,76.168,150.091,75.65,150.718,74.996
		 M122.882,100.76c0-0.573,0.164-1.145,0.491-1.581c0.218,0.6,0.436,1.227,0.627,1.827c4.253,0.573,8.615,0.409,12.814-0.463
		c0.545-0.109,1.2-0.409,1.172-0.954c-0.027-0.191-0.136-0.354-0.273-0.518c-1.309-1.936-2.972-4.062-5.289-4.226
		c-2.208-0.164-4.662-0.218-6.352,1.172c-1.091,0.927-2.208,1.854-3.326,2.781c-0.409,0.327-0.845,0.736-0.872,1.254
		C121.819,100.596,122.5,101.114,122.882,100.76 M120.483,93.235c0.491-1.418,1.009-2.89,0.9-4.417
		c-0.245-4.226-4.907-6.816-6.352-10.796c-0.136-0.409-0.273-0.872-0.6-1.172c-0.327-0.273-0.954-0.3-1.145,0.082
		c-0.109,0.218-0.082,0.436-0.027,0.654c0.6,3.762,1.663,7.443,3.108,10.933c0.927,2.263,2.045,4.444,2.726,6.789
		C119.856,94.926,120.21,94.053,120.483,93.235 M129.67,92.226c0.709,0,1.445,0.109,2.127,0c0.709-0.136,1.418-0.545,1.636-1.227
		c0.191-0.682-0.327-1.554-1.036-1.472c-1.963,0.191-3.926,0.218-5.916,0.218c-0.654,0.573-0.218,1.772,0.573,2.181
		C127.844,92.308,128.798,92.199,129.67,92.226"/>
	<path class="path" fill="none" stroke="#000" stroke-width="1" d="M85.258,227.316c-0.709,5.807-1.418,11.641-2.099,17.449c0.654-0.055,1.336-0.136,2.017-0.191
		c0.273,0.736,0.573,1.554,0.3,2.29c-0.245,0.736-1.336,1.2-1.854,0.627c0.654-0.354,1.172-0.927,1.472-1.581
		c-0.3-1.036-2.045-0.791-2.535,0.191c-0.491,0.981-0.164,2.154,0.055,3.217c0.927,4.062,0.6,8.424-0.954,12.296
		c-0.273-1.554-0.109-3.135,0.436-4.608c-2.181,0.491-4.989,0.709-6.134-1.227c0.109-6.952,0.218-13.904,0.327-20.829
		c0.055-3.053,0.109-6.08-0.082-9.133c-0.463-7.088-2.208-14.013-4.199-20.856c-0.736-2.617-1.145-6.216,1.336-7.388
		c1.39-0.682,3.626-0.627,3.762-2.154c2.345,3.353,4.826,7.116,4.362,11.205c2.481-0.218,3.953-2.726,5.126-4.88
		c1.172-2.181,2.972-4.58,5.425-4.362c1.118,0.082,2.099,0.736,2.999,1.418c0.791,0.573,1.636,1.281,1.854,2.236
		c0.327,1.472-0.9,2.781-1.936,3.871c-4.471,4.635-7.579,10.578-8.861,16.903C85.695,223.636,85.477,225.462,85.258,227.316
		 M80.624,208.123c-1.609-2.699-2.835-5.644-3.653-8.697c-1.145-0.436-2.508,0.273-3.108,1.336s-0.573,2.399-0.327,3.571
		c0.627,3.081,2.617,5.698,3.762,8.615c1.336,3.517,1.39,7.388,1.363,11.151c-0.082,5.071-0.327,10.142-0.736,15.213
		c-0.136,1.418,0.027,3.272,1.39,3.626c1.609,0.436,2.645-1.69,2.863-3.326c0.9-5.971,0.872-12.078,2.154-17.967
		c1.554-7.034,5.044-13.632,9.951-18.893c1.118-1.2-0.518-3.353-2.154-3.19c-1.663,0.164-2.835,1.663-3.653,3.108
		c-0.818,1.445-1.527,3.053-2.917,3.953c-0.518,0.327-1.145,0.545-1.499,1.036c-0.545,0.736-0.354,1.745-0.463,2.617
		c-0.136,0.9-1.118,1.827-1.827,1.281C81.96,210.359,81.251,209.186,80.624,208.123 M80.46,244.956
		c-0.545-0.082-1.091-0.136-1.663-0.191c-0.845,3.435-0.954,7.034-0.327,10.496c0.382,0.573,1.336,0.382,1.745-0.164
		c0.409-0.573,0.409-1.309,0.382-1.99C80.569,250.381,80.515,247.655,80.46,244.956"/>
	<path class="path" fill="none" stroke="#000" stroke-width="1" d="M140.167,79.058c-0.9,0.109-1.827,0.218-2.645-0.109c-1.99-0.818-2.127-3.544-1.936-5.671
		c0.709-0.463,1.336-1.036,1.881-1.69c0-0.6-0.763-0.872-1.363-0.9c-2.999-0.191-6.707,0.872-8.561-1.499
		c-0.627-0.818-0.872-1.881-1.063-2.89c-1.145-5.616-2.263-11.232-3.381-16.849c-0.191-0.845-0.354-1.772-0.027-2.563
		c0.3-0.709,0.954-1.227,1.609-1.663c5.344-3.462,12.732-3.49,18.103-0.055c0.981,0.627,2.317,0,3.163-0.845
		c0.818-0.818,1.527-1.881,2.645-2.29c1.936-0.654,3.817,0.981,5.18,2.481c1.718,1.854,3.572,4.389,2.508,6.707
		c-0.545,1.227-1.827,1.99-2.808,2.917c-1.009,0.927-1.827,2.426-1.172,3.626c1.472,2.617,0.981,5.862,0.327,8.806
		c-0.6,2.726-1.309,5.453-2.099,8.152c-1.309-0.545-2.699-1.063-4.089-0.9c-1.39,0.136-2.808,1.281-2.726,2.672
		C143.766,78.104,141.748,78.84,140.167,79.058 M131.006,68.998c1.881,0.082,3.762,0.082,5.644,0.055
		c0.736-2.835,1.499-5.644,2.263-8.479c0.954-3.49,1.936-7.088,4.199-9.951c0.627-0.791,0.518-1.963,0-2.835
		c-0.545-0.872-1.418-1.445-2.317-1.908c-4.089-2.127-9.16-2.263-13.359-0.354c-1.554,0.709-3.217,2.181-2.781,3.844
		c1.609,5.971,2.835,12.023,3.681,18.157C128.471,68.616,129.889,68.944,131.006,68.998 M149.464,72.515
		c0.545-2.481,1.063-4.989,1.581-7.497c0.136-0.6,0.273-1.227,0.327-1.854c0.436-3.953-2.017-8.043-5.698-9.569
		c-0.954,2.645-1.908,5.262-2.863,7.906c-0.736,2.017-1.472,4.199-0.9,6.271c1.363,0.709,2.345,1.936,3.462,2.972
		C146.492,71.806,147.937,72.706,149.464,72.515 M148.1,52.013c-0.709-2.181-1.009-4.471-0.9-6.761
		c-0.709,0.382-1.418,0.736-1.936,1.363c-0.518,0.6-0.736,1.499-0.354,2.181c0.682,1.172-0.354,2.563-1.2,3.626
		c-2.263,2.835-3.517,6.489-3.517,10.142c1.527-3.163,3.026-6.325,4.526-9.46c0.436-0.9,1.663-1.2,2.617-0.845
		c0.927,0.327,1.609,1.145,2.154,2.017c0.245,0.382,0.491,0.818,0.927,0.981c0.409,0.164,1.036-0.109,0.981-0.573
		c-0.136-1.227,1.227-2.045,2.072-2.999c1.363-1.499,1.418-4.035,0.109-5.616c-0.654,0.109-1.145,0.654-1.554,1.172
		C150.718,48.823,149.409,50.405,148.1,52.013 M144.038,71.152c-0.164-0.818-1.2-1.063-2.045-1.2
		c-0.818-0.109-1.854-0.518-1.827-1.363c0.027-1.2,0.055-2.399,0.082-3.599c0.027-0.654-0.191-1.554-0.845-1.527
		c-0.981,1.936-0.927,4.199-0.872,6.38c0.027,0.573,0.082,1.227,0.518,1.581c0.436,0.354,1.063,0.3,1.609,0.218
		C141.775,71.479,142.92,71.315,144.038,71.152 M152.272,45.415c-0.3-0.981-0.981-1.827-1.827-2.399
		c-0.136-0.055-0.273-0.136-0.436-0.109c-0.109,0.027-0.191,0.109-0.245,0.218c-0.927,1.091-1.472,2.535-1.472,3.953
		c0,0.354,0.027,0.736,0.3,0.954c0.382,0.327,1.009,0.055,1.254-0.382c0.218-0.436,0.191-0.954,0.136-1.445
		C150.745,45.933,151.508,45.661,152.272,45.415"/>
</g>
</svg>
