<?xml version="1.0" encoding="iso-8859-1"?>
<!-- Generator: Adobe Illustrator 21.1.0, SVG Export Plug-In . SVG Version: 6.00 Build 0)  -->
<svg version="1.1" id="Layer_1" xmlns="http://www.w3.org/2000/svg" xmlns:xlink="http://www.w3.org/1999/xlink" x="0px" y="0px"
	 viewBox="0 0 146.231 190.452" style="enable-background:new 0 0 146.231 190.452;" xml:space="preserve">
	 <style>
    /* <![CDATA[ */
    .path {
  stroke-dasharray: 2000;
  stroke-dashoffset: 2000;
  animation: dash 40s linear;
  animation-fill-mode: forwards;
 
}

@keyframes dash {
  from {
    stroke-dashoffset: 2000;
  }
  to {
    stroke-dashoffset: 0;
  }
}
    /* ]]> */
  </style>
<g id="Vorm_6">
	<desc  xmlns:shape="http://adobe.com/products/shape"></desc>
	<path class="path" fill="none" stroke="#000" stroke-width="1" d="M116.449,149.128c3.296,7.099,10.677,11.212,17.607,14.846c-8.141-1.324-15.466-6.846-18.959-14.311
		c-4.789-10.198-2.395-22.255-4.564-33.326c-1.662,4.451-4.057,8.592-7.099,12.226c-3.071,3.662-6.761,6.789-10.282,10.057
		c-7.972,7.465-15.1,15.86-21.128,24.959c-2.535,3.859-8.001,4.057-12.621,3.831c-4.705-0.225-9.409-0.451-14.114-0.676
		c-1.549-0.085-3.099-0.141-4.592-0.592c-5.043-1.521-7.916-6.817-9.409-11.888c-1.465-5.043-2.169-10.508-5.212-14.818
		c-2.338-3.296-0.817-7.831-0.958-11.86c-0.254-7.268-6.029-12.987-8.733-19.72c-3.55-8.789-1.69-18.677-0.704-28.115
		c0.338-3.099,0.423-6.648-1.775-8.874c-2.733-2.817-2.93-7.747-0.394-10.733c4.282-5.071-1.155-13.973,3.099-19.044
		c-0.282,4.986-0.113,10.029,0.479,15.015c0.254,2.113-1.324,3.916-2.592,5.634c-1.24,1.69-2.226,4.197-0.845,5.831
		c3.69,4.395,3.888,10.705,3.211,16.424c-0.704,5.691-2.085,11.494-0.93,17.1c1.775,8.677,9.296,15.522,10.198,24.311
		c0.338,3.437-0.366,6.958,0.31,10.339c0.648,3.437,2.676,6.451,4,9.719c1.662,4.197,2.141,8.817,4.085,12.874
		c1.972,4.085,6.198,7.662,10.62,6.676c6.029-1.352,12.339,2.056,18.396,0.873c4.31-0.845,7.888-3.944,10.62-7.381
		c2.733-3.465,4.817-7.409,7.55-10.874c4.564-5.747,10.705-10.029,15.917-15.24c4.761-4.733,8.733-10.282,11.691-16.311
		c2.141-4.338-1.465-10.254,1.409-14.114c0.507,1.944,0.704,3.972,0.592,5.972c3.888-5.155,7.803-10.282,11.691-15.409
		c2.479-3.268,5.043-6.733,5.55-10.761c0.704-5.719-2.789-11.043-6.085-15.748c-0.254-0.338-0.535-0.732-0.958-0.873
		c-0.535-0.197-1.127,0.028-1.634,0.254c-1.944,0.873-3.888,1.747-5.831,2.62c-2.676,1.211-5.803,3.127-5.578,6.057
		c-0.366-1.718-0.761-3.437-1.155-5.155c-0.282,2.648-2.254,5.043-4.789,5.86c-0.507-0.282-0.676-0.986-0.366-1.465
		c1.465-0.451,2.733-1.549,3.352-2.958c-0.901-0.085-1.831-0.141-2.733-0.225c6.169-2.366,12.367-4.733,18.536-7.127
		c1.409-0.535,2.676,1.155,3.042,2.648c0.366,1.465,0.704,3.268,2.141,3.775c-0.761-4.986-1.521-9.944-2.282-14.931
		c-0.197,0.676-0.394,1.352-0.592,2.028c-0.254-0.592-0.761-1.099-1.352-1.352c-3.578,1.352-6.874,3.437-9.634,6.085
		c4.141-1.296,8.31-2.564,12.452-3.859c-5.127,4.592-11.606,7.634-18.424,8.62c0.845-0.507,1.352-1.493,1.268-2.479
		c-1.155-0.197-2.31-0.366-3.465-0.563c5.634-2.986,11.268-5.972,16.903-8.958c0.761-0.394,1.606-0.901,1.859-1.718
		c0.507-1.578-1.014-4,0.535-4.536c0.93,4.451,1.859,8.93,2.789,13.409c0.62,2.873,1.211,5.719,1.803,8.592
		c1.155,5.55,2.282,11.466,0.31,16.79c-1.071,2.845-2.958,5.324-4.817,7.719c-3.775,4.93-7.578,9.832-11.381,14.762
		c-0.563,0.732-0.535,1.775-0.479,2.704c0.535,8.817,1.07,17.607,1.972,26.368C114.364,141.888,114.843,145.691,116.449,149.128
		 M109.829,63.065c0.62,0.254,1.409-0.141,1.606-0.761c-0.366-0.141-0.704-0.366-0.986-0.676c-0.366,0.451-0.817,0.873-1.296,1.211
		c0.197,0.169,0.479,0.197,0.704,0.141"/>
	<path class="path" fill="none" stroke="#000" stroke-width="1" d="M85.574,6.414c0.338,0.366-0.282,0.901-0.761,0.789c-0.479-0.085-0.845-0.479-1.324-0.648
		c0.648-0.254,1.38-0.282,2.028-0.056"/>
	<path class="path" fill="none" stroke="#000" stroke-width="1" d="M68.812,124.309c-0.338-0.451-0.028-1.183,0.507-1.296c0.197,0.817,0.197,1.718-0.028,2.535
		c-0.113-0.423-0.197-0.873-0.31-1.296"/>
	<path class="path" fill="none" stroke="#000" stroke-width="1" d="M99.856,12.583c0.93,0.028,1.803,0.507,2.338,1.268c-0.732,0.169-1.465,0.197-2.197,0.141
		c-0.141-0.423-0.197-0.845-0.141-1.268"/>
	<path class="path" fill="none" stroke="#000" stroke-width="1" d="M104.533,65.263c0.282-0.535,1.07-0.761,1.578-0.423c-0.056,0.93-1.268,1.211-2.197,1.296
		c0.056-0.366,0.282-0.676,0.62-0.845"/>
	<path class="path" fill="none" stroke="#000" stroke-width="1" d="M99.349,33.12c-0.254-0.394,0.113-0.958,0.563-1.099c0.451-0.141,0.93,0,1.38,0.141
		c-0.535,0.535-1.24,0.873-2,0.93"/>
	<path class="path" fill="none" stroke="#000" stroke-width="1" d="M49.459,13.203c0.31,0.141,0.394,0.563,0.197,0.845c-0.479,0.366-0.958,0.732-1.437,1.127
		c-0.169-0.225-0.225-0.507-0.169-0.761c0.451-0.366,0.93-0.761,1.409-1.127"/>
	<path class="path" fill="none" stroke="#000" stroke-width="1" d="M95.321,9.456c-0.479,0.761-1.944,0.338-1.944-0.563c0.563,0.113,1.155,0.225,1.718,0.338"/>
	<path class="path" fill="none" stroke="#000" stroke-width="1" d="M54.107,8.921c-0.028,0.958-0.845,1.859-1.831,1.972c0-0.901,0.648-1.775,1.521-2.056"/>
	<path class="path" fill="none" stroke="#000" stroke-width="1" d="M103.997,85.828c0.254-0.563,0.817-0.986,1.437-1.099c0.225,1.127-0.817,2.282-1.944,2.169
		c0.141-0.366,0.282-0.732,0.451-1.099"/>
	<path class="path" fill="none" stroke="#000" stroke-width="1" d="M23.119,35.683c0.113-0.282,0.197-0.592,0.31-0.873c0.282,1.127,0.141,2.338-0.366,3.381
		c-0.169-0.817-0.169-1.69,0.028-2.507"/>
	<path class="path" fill="none" stroke="#000" stroke-width="1" d="M59.431,31.176c0.507-0.423,1.127-0.704,1.747-0.845c-0.028,0.93-0.592,1.831-1.437,2.226
		c-0.225-0.141-0.479-0.282-0.704-0.394c-0.085-0.423,0-1.042,0.423-1.014"/>
	<path class="path" fill="none" stroke="#000" stroke-width="1" d="M25.063,31.711c0.31,0.113,0.648,0,0.845-0.225c0.338,0.113,0.507,0.563,0.338,0.901
		c-0.479,0.732-1.211,1.324-2.056,1.634c-0.254-0.845,0.141-1.803,0.901-2.254"/>
	<path class="path" fill="none" stroke="#000" stroke-width="1" d="M78.615,62.699c-0.62-0.225-1.24-0.423-1.831-0.648c1.211-0.451,2.648-0.254,3.69,0.479
		c-0.592,0.225-1.24,0.282-1.887,0.169"/>
	<path class="path" fill="none" stroke="#000" stroke-width="1" d="M42.106,14.64c-0.845,0.507-1.521,1.268-1.887,2.169c-0.085-1.183,0.704-2.366,1.803-2.789
		c0.056,0.225,0.085,0.451,0.141,0.676"/>
	<path class="path" fill="none" stroke="#000" stroke-width="1" d="M26.865,27.091c-0.141,0.761-0.648,1.437-1.296,1.859c-0.141-1.296,0.648-2.62,1.803-3.183
		c0,0.479-0.197,0.93-0.507,1.268"/>
	<path class="path" fill="none" stroke="#000" stroke-width="1" d="M124.928,45.402c-0.338,0.085-0.676-0.254-0.704-0.62c-0.028-0.338,0.141-0.676,0.282-0.958
		c0.901,0.845,1.268,2.225,0.873,3.381C125.069,46.67,124.9,46.05,124.928,45.402"/>
	<path class="path" fill="none" stroke="#000" stroke-width="1" d="M46.303,30.725c0.366-0.732,0.93-1.38,1.578-1.859c-0.451,1.155-0.873,2.338-1.324,3.493
		c-0.254-0.507-0.31-1.07-0.197-1.606"/>
	<path class="path" fill="none" stroke="#000" stroke-width="1" d="M113.153,30.866c0.225-1.099,1.099-2.028,2.169-2.366c0.169-0.056,0.366-0.085,0.507,0.028
		c0.141,0.113,0.084,0.394-0.085,0.394C115.322,29.993,114.28,30.782,113.153,30.866"/>
	<path class="path" fill="none" stroke="#000" stroke-width="1" d="M60.163,15.823c0.563-0.535,1.268-0.958,2.028-1.155c-0.676,1.211-1.803,2.141-3.099,2.592
		c-0.028-0.197-0.056-0.394-0.085-0.592c0.451-0.169,0.845-0.479,1.127-0.845"/>
	<path class="path" fill="none" stroke="#000" stroke-width="1" d="M106.786,27.288c-0.732,1.24-2.423,1.831-3.747,1.324c1.268-0.732,2.535-1.437,3.831-2.169
		C106.843,26.725,106.814,27.007,106.786,27.288"/>
	<path class="path" fill="none" stroke="#000" stroke-width="1" d="M74.953,3.907c0.676-0.169,1.437-0.282,1.972,0.141c0.535,0.423,0.254,1.578-0.423,1.409
		c-1.352-0.31-2.704-0.648-4.028-0.986C73.291,4.273,74.108,4.104,74.953,3.907"/>
	<path class="path" fill="none" stroke="#000" stroke-width="1" d="M59.065,176.087c0.31,1.859,0.056,3.803-0.761,5.521c-0.282,0-0.563,0-0.845,0
		c-0.141-1.042-0.282-2.056-0.085-3.071C57.572,177.524,58.135,176.51,59.065,176.087"/>
	<path class="path" fill="none" stroke="#000" stroke-width="1" d="M116.308,96.842c0.028,1.549-0.62,3.071-1.718,4.141c-0.282,0.282-0.817,0.507-1.014,0.169
		C113.942,99.462,114.928,97.913,116.308,96.842"/>
	<path class="path" fill="none" stroke="#000" stroke-width="1" d="M52.585,105.575c0.028-0.479-0.141-0.958,0.056-1.38c0.141-0.31,0.451-0.535,0.789-0.535
		c0.873,0.873,0.93,2.395,0.169,3.324c-0.761,0.958-2.254,1.211-3.296,0.592C51.43,107.716,52.585,106.702,52.585,105.575"/>
	<path class="path" fill="none" stroke="#000" stroke-width="1" d="M103.49,77.602c0.169-1.634,1.465-3.099,3.071-3.437c0.366,0.254,0.789,0.479,1.211,0.62
		C106.364,75.742,104.927,76.7,103.49,77.602"/>
	<path class="path" fill="none" stroke="#000" stroke-width="1" d="M48.275,155.156c0.254,1.549,0.535,3.127,0.817,4.676c0.085,0.535-0.085,1.296-0.592,1.183
		c-1.071-1.296-1.606-2.986-1.493-4.62C47.064,155.663,47.684,154.734,48.275,155.156"/>
	<path class="path" fill="none" stroke="#000" stroke-width="1" d="M76.136,124.788c0.873-0.254,1.268,1.042,1.24,1.944c-0.028,1.465-0.085,2.958-0.113,4.451
		c-0.761,0.113-1.07-0.93-1.07-1.69C76.165,127.915,76.136,126.337,76.136,124.788"/>
	<path class="path" fill="none" stroke="#000" stroke-width="1" d="M20.809,28.359c-0.479-2.197,0.761-4.648,2.817-5.55C22.696,24.669,21.767,26.5,20.809,28.359"/>
	<path class="path" fill="none" stroke="#000" stroke-width="1" d="M53.769,124.732c-0.761-1.606-0.085-3.521,0.592-5.183c0.282,0.028,0.535,0.085,0.817,0.113
		c0.423,1.718,0.338,3.606-0.282,5.268C54.586,124.675,54.135,124.591,53.769,124.732"/>
	<path class="path" fill="none" stroke="#000" stroke-width="1" d="M58.079,118.365c-0.028,2.056-0.169,4.141-0.366,6.198c-0.056,0.366-0.535,0.592-0.845,0.394
		c-0.197-1.775-0.169-3.606,0.113-5.381C57.065,118.956,57.459,118.168,58.079,118.365"/>
	<path class="path" fill="none" stroke="#000" stroke-width="1" d="M102.983,14.245c1.747,0.056,3.493,0.394,5.155,0.986c0.479,0.366,0.761,0.986,0.732,1.606
		c-1.662-0.479-3.296-0.93-4.93-1.38C103.349,15.288,102.617,14.724,102.983,14.245"/>
	<path class="path" fill="none" stroke="#000" stroke-width="1" d="M44.641,11.851c0.732-0.282,1.493-0.535,2.254-0.789c0.958,0.282,2.085-0.197,2.535-1.099
		c0.197,0.254,0.366,0.507,0.563,0.789c-0.676,1.042-2,1.634-3.211,1.465c-0.62-0.085-1.493-0.225-1.69,0.366
		C44.839,12.442,44.641,12.161,44.641,11.851"/>
	<path class="path" fill="none" stroke="#000" stroke-width="1" d="M38.247,121.013c-0.141,1.634-0.704,3.211-1.634,4.564c-0.451,0.676-1.493,1.296-1.972,0.62
		C34.725,123.971,36.19,121.886,38.247,121.013"/>
	<path class="path" fill="none" stroke="#000" stroke-width="1" d="M66.615,127.408c-0.31,0.141-0.648,0.169-0.958,0.085c-0.479-0.761-0.282-1.775-0.141-2.676
		c0.141-0.901,0.085-2-0.704-2.479c0.986-0.338,2.169,0.225,2.507,1.183c0.085,0.225,0.141,0.451,0.169,0.676
		c0.113,0.704,0.254,1.409,0.394,2.113C67.234,126.14,66.53,126.76,66.615,127.408"/>
	<path class="path" fill="none" stroke="#000" stroke-width="1" d="M71.235,124.393c1.042-0.028,2,0.761,2.507,1.662c0.479,0.93,0.648,2,0.789,3.042
		c0.028,0.197,0.056,0.394,0.085,0.592c-1.437-0.676-2.902-1.352-4.366-2.028C70.587,126.563,70.897,125.464,71.235,124.393"/>
	<path class="path" fill="none" stroke="#000" stroke-width="1" d="M59.572,121.436c1.493-0.423,3.127-0.169,4.451,0.648c-0.31,0.113-0.648,0.197-0.958,0.31
		c0.592,0.958,0.704,2.282,0.056,3.183c-0.648,0.93-2.141,1.211-2.958,0.423C59.037,124.901,59.882,122.985,59.572,121.436"/>
	<path class="path" fill="none" stroke="#000" stroke-width="1" d="M114.449,54.924c1.803-1.38,3.888-2.395,6.085-3.014c0.394-0.085,0.958-0.085,1.042,0.31
		C119.266,53.318,116.9,54.22,114.449,54.924"/>
	<path class="path" fill="none" stroke="#000" stroke-width="1" d="M79.291,15.485c-1.268,1.634-2.817,3.014-4.564,4.113c-0.31,0.197-0.704,0.394-1.042,0.197
		C75.094,17.879,77.066,16.358,79.291,15.485"/>
	<path class="path" fill="none" stroke="#000" stroke-width="1" d="M115.801,74.841c0.789-1.634,2.141-2.958,3.803-3.69c-0.366,2.028-1.493,3.916-3.099,5.212
		c-0.676,0.254-1.465,0.507-2.113,0.169c-0.648-0.31-0.732-1.521,0-1.634C114.843,74.869,115.322,74.869,115.801,74.841"/>
	<path class="path" fill="none" stroke="#000" stroke-width="1" d="M29.316,32.359c-0.507,0.901-1.014,1.803-1.521,2.704c-0.31,0.563-0.62,1.127-1.127,1.521
		c-0.62-1.211-0.056-2.676,0.676-3.859c0.704-1.183,1.578-2.338,1.606-3.719c0.648,0.113,1.07,0.817,1.042,1.493
		C29.964,31.176,29.626,31.768,29.316,32.359"/>
	<path class="path" fill="none" stroke="#000" stroke-width="1" d="M83.038,40.134c-0.254-1.296,0-2.648,0.676-3.775c0.901-1.549,2.704-2.676,4.451-2.282
		c0,0.366-0.225,0.648-0.479,0.901C86.137,36.697,84.588,38.416,83.038,40.134"/>
	<path class="path" fill="none" stroke="#000" stroke-width="1" d="M88.701,32.613c-0.31-0.366-0.31-0.93,0-1.296c0.254,0.169,0.676-0.141,0.592-0.451
		c1.127-1.775,3.099-2.958,5.212-3.127c0.056,0.282,0.028,0.592-0.084,0.873c-0.648-0.085-1.24,0.366-1.747,0.761
		c-0.986,0.817-1.972,1.662-2.958,2.479C89.32,32.049,88.982,32.303,88.701,32.613"/>
	<path class="path" fill="none" stroke="#000" stroke-width="1" d="M45.12,15.09c-0.197,0.169-0.197,0.507,0.028,0.648c-1.803,0.986-2.733,3.437-4.761,3.775
		c0.958-1.916,2.451-3.578,4.226-4.761c0.535,0.056,1.071-0.31,1.268-0.817C46.303,14.414,45.712,15.316,45.12,15.09"/>
	<path class="path" fill="none" stroke="#000" stroke-width="1" d="M105.462,96.223c-0.761-1.183-0.366-2.845,0.563-3.916c0.958-1.07,2.282-1.662,3.578-2.254
		c0.479-0.197,1.042-0.423,1.493-0.169c-0.31,1.521-2.282,2.028-3.127,3.324c-0.394,0.592-0.535,1.296-0.845,1.944
		C106.814,95.772,106.167,96.363,105.462,96.223"/>
	<path class="path" fill="none" stroke="#000" stroke-width="1" d="M13.034,95.208c-0.761-1.887-0.535-4.028-0.31-6.029c0.197-1.662,0.423-3.409,1.38-4.761
		c0.451,1.634-0.169,3.324-0.563,4.986C13.062,91.293,12.893,93.265,13.034,95.208"/>
	<path class="path" fill="none" stroke="#000" stroke-width="1" d="M41.402,22.246c1.324-2.282,3.014-4.31,5.014-6.029c0.31-0.254,0.873-0.479,1.042-0.085
		C45.655,18.358,43.627,20.415,41.402,22.246"/>
	<path class="path" fill="none" stroke="#000" stroke-width="1" d="M35.035,13.287c-0.817,1.437-2.733,1.747-4.141,2.62c-0.592,0.338-1.099,0.817-1.493,1.352
		c-0.535,0.704-1.437,1.634-2.085,1.014c1.465-1.972,3.578-3.324,5.662-4.676C33.598,13.203,34.472,12.809,35.035,13.287"/>
	<path class="path" fill="none" stroke="#000" stroke-width="1" d="M35.317,96.983c-0.282-3.099-0.563-6.226-0.845-9.325c-0.056-0.704-0.113-1.409,0.028-2.085
		c0.958,0.028,1.324,1.24,1.437,2.169C36.303,90.842,36.641,94.138,35.317,96.983"/>
	<path class="path" fill="none" stroke="#000" stroke-width="1" d="M106.026,80.109c0.704-0.873,1.887-1.38,3.042-1.24c-1.183,1.803-2.62,3.409-4.31,4.761
		c-0.62,0.479-1.437,0.958-2.141,0.62c0.986-1.296,2.028-2.845,1.606-4.423c-0.282-1.042,0.958-2.141,1.972-1.747
		C105.828,78.672,105.772,79.461,106.026,80.109"/>
	<path class="path" fill="none" stroke="#000" stroke-width="1" d="M35.57,32.754c0.451-1.803,1.38-3.493,2.676-4.845c0.085,1.549-0.169,3.127-0.732,4.564
		c0.789-0.169,1.465-0.761,1.775-1.493c0.676,0.31,0.592,1.352,0.085,1.887c-0.535,0.535-1.268,0.732-1.916,1.099
		c-0.648,0.338-1.268,1.014-1.07,1.747C35.767,34.866,35.486,33.796,35.57,32.754"/>
	<path class="path" fill="none" stroke="#000" stroke-width="1" d="M33.317,123.886c0.169,0.93,0.338,1.887,0.113,2.789c-0.225,0.901-0.958,1.747-1.887,1.803
		c-0.282,0.62-1.07,0.958-1.69,0.676c-0.113,0.93-0.394,1.831-0.817,2.676c-0.225,0.394-0.592,0.845-1.042,0.761
		c-0.648-0.141-0.592-1.099-0.338-1.718c0.789-1.887,1.803-3.719,2.986-5.381c0.197,0.197,0.394,0.366,0.592,0.563
		C32.133,125.577,32.866,124.816,33.317,123.886"/>
	<path class="path" fill="none" stroke="#000" stroke-width="1" d="M102.054,28.021c-2.789,1.634-5.606,3.24-8.395,4.845c-0.423,0.254-1.183,0.282-1.127-0.197
		c2.761-2.648,6-4.761,9.522-6.198C102.054,26.979,102.054,27.514,102.054,28.021"/>
	<path class="path" fill="none" stroke="#000" stroke-width="1" d="M37.57,112.111c1.296-1.24,2.986-2.085,4.761-2.338c0.338,0.31,0.845,0.394,1.268,0.254
		c0.113,1.718,0.986,3.296,1.803,4.789c0.479,0.845,0.93,1.662,1.409,2.507c-0.845,0.169-1.718-0.366-2.282-1.042
		c-0.563-0.648-0.93-1.465-1.521-2.113c-1.183-1.352-3.24-1.831-4.902-1.155C37.937,112.703,37.768,112.421,37.57,112.111"/>
	<path class="path" fill="none" stroke="#000" stroke-width="1" d="M85.968,30.415c0.338-0.282,1.042-0.479,1.099-0.028c-2.366,2.958-4.874,5.775-7.522,8.479
		c-0.732-1.014,0.141-2.395,1.014-3.296C82.249,33.74,84.052,32.021,85.968,30.415"/>
	<path class="path" fill="none" stroke="#000" stroke-width="1" d="M65.319,14.612c1.634-2.902,3.803-5.521,6.367-7.662c0.366-0.282,0.761-0.592,1.211-0.62
		c0.423,0,0.845,0.254,1.042,0.648C70.277,8.358,69.037,13.457,65.319,14.612"/>
	<path class="path" fill="none" stroke="#000" stroke-width="1" d="M38.218,15.344c-2.564,2.93-5.127,5.86-7.662,8.789c1.155-3.972,3.859-7.465,7.381-9.606
		c0-0.31,0.535-0.282,0.62,0C38.641,14.837,38.416,15.119,38.218,15.344"/>
	<path class="path" fill="none" stroke="#000" stroke-width="1" d="M94.138,23.063c2.056-1.803,4.536-3.042,6.958-4.254c1.38-0.676,2.733-1.352,4.085-2.028
		c0.394,0.169,0.479,0.761,0.254,1.155c-0.225,0.394-0.648,0.62-1.042,0.817c-3.521,1.803-7.043,3.634-10.564,5.437
		C93.461,23.936,93.799,23.344,94.138,23.063"/>
	<path class="path" fill="none" stroke="#000" stroke-width="1" d="M56.727,36.247c0.225,0.479-0.169,1.07-0.676,1.296c-0.479,0.197-1.042,0.141-1.578,0.113
		c-3.352-0.197-6.676,0.507-10.001,1.042c-1.099,0.169-2.338,0.31-3.268-0.338c0.028-0.986,1.24-1.437,2.226-1.606
		c3.888-0.62,7.803-0.986,11.719-1.099C55.741,35.627,56.473,35.683,56.727,36.247"/>
	<path class="path" fill="none" stroke="#000" stroke-width="1" d="M114.364,45.909c-2.141,1.69-4.507,3.127-7.015,4.254c-0.986,0.479-2,0.873-3.042,1.211
		c-1.183,0.394-2.366,0.732-3.578,0.958c-0.366-0.817,0.648-1.549,1.493-1.916c3.014-1.24,6.057-2.479,9.071-3.719
		C112.28,46.304,113.294,45.881,114.364,45.909"/>
	<path class="path" fill="none" stroke="#000" stroke-width="1" d="M99.293,33.204c-0.423,1.155-1.183,2.226-2.141,3.014c-0.31,0.338-0.394,0.873-0.169,1.268
		c-1.042,0.845-2.113,1.662-3.183,2.507c-0.084-0.704-0.169-1.38-0.225-2.085c-0.676,0.535-1.099,1.324-1.183,2.141
		c-0.901-0.338-1.099-1.606-0.648-2.451s1.324-1.352,2.169-1.831c-0.169,0.451-0.084,0.986,0.169,1.38
		c0.282-0.592,0.873-0.986,1.493-1.07c-0.085-0.394-0.169-0.789-0.254-1.183c1.24-0.338,2.395-1.014,3.24-1.972
		C98.814,33.007,99.039,33.12,99.293,33.204"/>
	<path class="path" fill="none" stroke="#000" stroke-width="1" d="M22.64,78.165c3.493,0.479,7.155-0.535,9.86-2.761c0.451-0.366,0.901-0.789,1.465-0.873
		c0.592-0.056,1.24,0.423,1.099,0.986c-1.775,1.409-3.634,2.733-5.747,3.55c-3.127,1.211-6.677,1.296-9.832,0.225
		c0.028-0.648,0.648-1.127,1.268-1.24C21.372,77.94,22.02,78.052,22.64,78.165"/>
	<path class="path" fill="none" stroke="#000" stroke-width="1" d="M80.249,75.376c1.268-0.507,2.761-1.155,3.916-0.423c-0.028,0.563-0.592,0.93-1.099,1.183
		c-4.226,2.085-9.127,2.676-13.719,1.69c-0.451-0.085-0.901-0.225-1.24-0.535c-0.338-0.31-0.479-0.901-0.169-1.24
		c0.338-0.423,1.014-0.282,1.549-0.141C73.009,76.926,76.869,76.728,80.249,75.376"/>
	<path class="path" fill="none" stroke="#000" stroke-width="1" d="M39.683,16.555c-0.113,3.606-3.775,5.944-5.634,9.043c-0.845,1.38-1.409,3.071-2.817,3.888
		c0.141-1.606,0.648-3.155,1.465-4.536c0.704-1.211,1.606-2.282,2.535-3.324C36.697,19.936,38.19,18.246,39.683,16.555"/>
	<path class="path" fill="none" stroke="#000" stroke-width="1" d="M65.488,33.796c-0.423-0.141-0.592-0.676-0.479-1.127c0.085-0.423,0.394-0.761,0.704-1.099
		c2.93-3.127,6.169-5.972,9.691-8.451c0.225,0.282,0.31,0.704,0.197,1.07c-1.887,0.901-3.521,2.395-4.564,4.226
		c-0.169,0.254-0.31,0.535-0.592,0.648c-0.282,0.085-0.676-0.141-0.592-0.423C68.925,30.725,67.375,32.528,65.488,33.796"/>
	<path class="path" fill="none" stroke="#000" stroke-width="1" d="M56.698,9.034c1.831-1.409,3.972-2.451,6.226-3.014c0.085,0.169-0.085,0.338-0.254,0.479
		c-3.972,3.268-8.057,6.479-12.198,9.578c-0.282-0.873,0.451-1.718,1.099-2.338c0.93-0.901,1.887-1.775,2.817-2.648
		C55.149,10.386,55.881,9.682,56.698,9.034"/>
	<path class="path" fill="none" stroke="#000" stroke-width="1" d="M20.809,41.12c-0.873-1.211-0.789-2.789-0.592-4.254c0.423-3.127,1.296-6.169,2.62-9.043
		c0.704-1.549,1.578-3.099,2.958-4.085c-0.845,2.197-1.69,4.423-2.535,6.62c-1.099,2.873-2.197,5.831-1.887,8.874
		C21.457,39.937,21.485,40.895,20.809,41.12"/>
	<path class="path" fill="none" stroke="#000" stroke-width="1" d="M52.529,112.956c0.845-0.113,1.578-0.789,1.747-1.606c-1.718-0.451-3.578-0.31-5.212,0.338
		c0.479,0.845,0.986,1.69,1.211,2.648c0.197,0.93,0.056,2.028-0.592,2.704c-0.648-1.24-1.296-2.479-1.944-3.747
		c-0.394-0.761-0.789-1.606-0.563-2.423c0.394-1.324,2.085-1.634,3.465-1.606c2.507,0,5.409,0.62,6.451,2.873
		c-1.296,0.958-2.817,1.634-4.395,2C52.529,113.773,52.473,113.35,52.529,112.956"/>
	<path class="path" fill="none" stroke="#000" stroke-width="1" d="M120.477,38.472c-1.803-0.056-3.437,0.93-5.043,1.747c-1.578,0.817-3.465,1.521-5.127,0.873
		c1.409-0.958,2.958-1.775,4.592-2.395c1.775-0.676,3.578-1.38,5.381-2.056c0.225,1.155,1.042,2.197,2.113,2.676
		c0.338,0.169,0.366,0.592,0.338,0.958c-0.028,1.38-0.085,2.761-0.141,4.141C121.238,42.754,120.449,40.613,120.477,38.472"/>
	<path class="path" fill="none" stroke="#000" stroke-width="1" d="M38.641,103.378c-1.578,2.733-2.451,5.888-2.479,9.043c0,1.38,1.634,2.113,2.986,2.31
		c1.352,0.197,2.958,0.338,3.662,1.521c-2.028,0.535-4.197,0.394-6.113-0.451c-0.451-0.197-0.93-0.423-1.24-0.817
		c-0.338-0.451-0.479-1.042-0.535-1.606c-0.507-3.381,0.254-6.93,2.085-9.832c0.197-0.338,0.479-0.704,0.873-0.789
		C38.247,102.646,38.754,102.984,38.641,103.378"/>
	<path class="path" fill="none" stroke="#000" stroke-width="1" d="M50.726,19.598c-2.254,3.324-4.536,6.648-6.817,9.972c-0.62,0.901-1.24,1.831-1.521,2.902
		c-0.225,0.789-0.479,1.859-1.324,1.887c-0.704-1.268,0.028-2.817,0.761-4.057c1.831-3.071,3.831-6.057,5.972-8.93
		C48.501,20.443,49.571,19.767,50.726,19.598"/>
	<path class="path" fill="none" stroke="#000" stroke-width="1" d="M80.785,14.245c0.085,0.789-0.704,1.549-1.493,1.437c-0.056-0.197-0.085-0.423-0.141-0.62
		c2.056-2.62,4.705-4.761,7.719-6.198c0.873-0.423,1.803-0.789,2.761-0.817c0.986-0.056,2,0.31,2.564,1.099
		c-1.775,0.282-3.465,1.127-4.733,2.395c-1.239,1.24-2.761,2.197-4.423,2.789c0.394-0.789,1.042-1.437,1.803-1.803
		c-0.648-0.451-1.521,0.056-2.085,0.592C82.193,13.682,81.573,14.358,80.785,14.245"/>
	<path class="path" fill="none" stroke="#000" stroke-width="1" d="M35.993,102.899c-0.93,2.169-3.099,3.493-4.564,5.324c-0.93,1.211-1.549,2.592-2.254,3.944
		c-0.986,1.916-2.113,3.775-3.409,5.521c-0.366-1.211,0.197-2.479,0.761-3.578c1.803-3.662,3.69-7.409,6.62-10.282
		C33.908,103.068,35.063,102.336,35.993,102.899"/>
	<path class="path" fill="none" stroke="#000" stroke-width="1" d="M117.35,42.191c-2.028,0.845-4.057,1.69-6.113,2.535c-1.127,0.479-2.282,0.958-3.409,1.409
		c-1.014,0.423-2,0.845-3.014,1.268c-0.845,0.338-1.718,0.704-2.62,0.62c1.465-2.028,4.113-2.704,6.479-3.465
		c2.761-0.873,5.409-2.028,7.944-3.437c0.958-0.563,2.056-1.155,3.127-0.845C119.407,41.289,118.308,41.796,117.35,42.191"/>
	<path class="path" fill="none" stroke="#000" stroke-width="1" d="M55.403,28.443c-1.042,0.169-1.521,1.352-1.916,2.31c-0.394,0.958-1.24,2.056-2.254,1.775
		c0.845-1.944,2.169-3.662,3.831-4.958c0.338,0.056,0.648,0.113,0.986,0.169c1.775-1.634,3.55-3.296,5.296-4.93
		c-0.648,1.042-1.268,2.085-1.916,3.127c-0.93,1.465-1.831,2.93-2.93,4.282c-0.732,0.901-1.578,1.718-2.479,2.479
		C54.05,31.176,54.529,29.683,55.403,28.443"/>
	<path class="path" fill="none" stroke="#000" stroke-width="1" d="M59.29,115.153c-1.549,0.93-3.437,1.042-5.24,1.099c-0.028-0.254-0.085-0.507-0.113-0.789
		c1.634-0.563,3.324-1.155,4.705-2.226c1.38-1.099,2.423-2.761,2.31-4.507c-0.197-2.592-2.845-4.817-2.225-7.353
		c1.69,1.69,3.042,3.775,3.465,6.141c0.451,2.338-0.113,4.93-1.747,6.676C60.107,114.562,59.713,114.872,59.29,115.153"/>
	<path class="path" fill="none" stroke="#000" stroke-width="1" d="M34.894,165.833c0,1.972-1.099,3.831-2.507,5.183c-1.437,1.38-3.211,2.338-4.958,3.296
		c-1.296,0.704-2.592,1.409-3.972,1.916c-1.437,0.535-3.409,0.676-4.197-0.648c3.268-0.845,6.423-2.169,9.325-3.944
		c1.352-0.817,2.648-1.747,3.606-2.986c0.958-1.268,1.521-2.873,1.268-4.423C34.218,163.833,34.894,164.96,34.894,165.833"/>
	<path class="path" fill="none" stroke="#000" stroke-width="1" d="M65.967,104.477c2.028,1.409,3.465,3.465,4.902,5.493c1.944,2.761,3.916,5.55,5.888,8.339
		c0.197,0.31-0.141,0.761-0.507,0.761c-0.394,0.028-0.732-0.225-1.014-0.479c-4.057-3.69-5.578-9.916-10.395-12.508
		c-0.93-0.479-2.028-0.901-2.507-1.859C63.206,103.209,64.896,103.688,65.967,104.477"/>
	<path class="path" fill="none" stroke="#000" stroke-width="1" d="M48.444,33.74c-0.535-1.803,0.507-3.662,1.634-5.155c2.902-3.916,6.507-7.324,10.592-9.972
		c0.704-0.451,1.634-0.93,2.395-0.507c-2.761,2.169-5.409,4.451-7.972,6.846c-2.056,1.944-4.085,4.028-5.127,6.648
		C49.628,32.444,49.318,33.458,48.444,33.74"/>
	<path class="path" fill="none" stroke="#000" stroke-width="1" d="M40.5,120.9c1.634-0.366,3.268-0.704,4.902-1.07c0.169,0.225,0.338,0.423,0.507,0.648
		c0.282-0.451,0.479-0.93,0.592-1.437c0.845,0.282,1.747,0.394,2.648,0.31c-0.085,1.634-0.169,3.24-0.254,4.874
		c0,0.479-0.056,0.986-0.366,1.352c-0.62,0.676-1.634,0.958-2.535,0.704c-0.873-0.254-1.578-1.07-1.718-1.972
		c-0.141-0.93,0.197-1.972-0.338-2.733c-0.282,0.423-0.563,0.845-0.845,1.296c0,0.958-0.056,1.916-0.169,2.902
		c-1.606,0.056-3.211-0.085-4.789-0.423C39.824,124.76,38.754,121.266,40.5,120.9 M46.839,125.689c1.042-1.38,1.437-3.24,1.07-4.93
		c-0.394,0.338-0.789,0.676-1.183,1.014C46.303,123.041,46.36,124.45,46.839,125.689"/>
	<path class="path" fill="none" stroke="#000" stroke-width="1" d="M115.716,93.546c-1.127,1.07-1.437,2.733-1.662,4.282c-0.366,0.056-0.704,0.085-1.07,0.141
		c-0.62-2.395,0.507-5.155,2.62-6.395c1.803-1.042,2.676-3.268,2.451-5.352c-0.225-2.056-1.437-3.916-2.958-5.296
		c-0.93-0.845-2.085-1.69-2.254-2.93c3.521,0.704,6.395,3.944,6.676,7.55c0.113,1.155-0.028,2.31-0.225,3.437
		c-0.141,0.93-0.338,1.887-0.93,2.592C117.66,92.42,116.533,92.786,115.716,93.546"/>
	<path class="path" fill="none" stroke="#000" stroke-width="1" d="M65.122,20.274c0.761-0.873,1.521-1.718,2.282-2.564c0.338,0.338,0.845,0.592,1.296,0.423
		c0.479-0.169,0.648-0.901,0.197-1.127c0.31-0.451,0.62-0.873,0.93-1.324c0.704-1.38,2.479-2,3.972-1.662
		c0.423,0.31-0.113,0.958-0.592,1.183c-0.817,0.423-1.634,0.817-2.451,1.24c0.451,2.197-1.521,4.057-3.155,5.634
		c-2.31,2.197-4.226,4.817-5.691,7.662c-0.141-0.338-0.732-0.254-0.789,0.113c-0.704-0.394-0.676-1.465-0.225-2.169
		c0.423-0.676,1.127-1.155,1.634-1.803c0.563-0.789,0.789-1.775,1.183-2.676c0.394-0.901,1.07-1.803,2.028-1.972
		C65.91,20.781,65.572,20.048,65.122,20.274"/>
	<path class="path" fill="none" stroke="#000" stroke-width="1" d="M82.278,129.549c1.24,3.324,0.451,7.324-1.944,9.916c-2.423,2.592-4.282,5.691-5.493,9.015
		c-0.254,0.676-0.479,1.409-0.986,1.944c-0.507,0.507-1.38,0.789-2,0.366c1.352-2.169,2.479-4.507,3.324-6.93
		c0.789-2.338,2.873-4,4.254-6.085C81.038,135.352,81.686,132.422,82.278,129.549"/>
	<path class="path" fill="none" stroke="#000" stroke-width="1" d="M38.5,73.911c-0.62,0.366-1.465,0.366-2.085-0.028c-2.507-1.972-5.268-3.662-8.141-5.014
		c-1.183-0.563-2.62-1.042-3.747-0.338c-1.887,1.155-3.775,2.338-5.662,3.521c-0.394,0.225-0.901,0.479-1.268,0.197
		c-0.563-0.423,0.056-1.296,0.648-1.718c1.747-1.155,3.465-2.31,5.212-3.493c0.563-0.366,1.211-0.789,1.916-0.676
		c4.085,0.648,7.691,3.014,11.156,5.324C37.373,72.249,38.303,72.925,38.5,73.911"/>
	<path class="path" fill="none" stroke="#000" stroke-width="1" d="M64.84,7.512c-1.718,1.944-3.409,3.859-5.127,5.803c-0.451-0.169-0.62-0.761-0.507-1.24
		c0.141-0.451,0.507-0.817,0.845-1.155c1.099-1.071,2.169-2.141,3.24-3.211c2.395-2.338,5.803-3.606,9.127-3.352
		c-3.211,2.395-6.198,5.099-8.902,8.085c-0.507-0.31-0.169-1.099,0.197-1.549c1.296-1.606,2.564-3.24,3.859-4.845
		C66.53,6.16,65.516,6.696,64.84,7.512"/>
	<path class="path" fill="none" stroke="#000" stroke-width="1" d="M65.037,74.249c2.592-2.93,5.86-5.268,9.437-6.789c0.225-0.085,0.451-0.197,0.648-0.141
		c4.676,1.042,8.536,4.282,12.93,6.226c0.479,0.225,0.282,1.07-0.225,1.24c-0.507,0.169-1.071-0.085-1.549-0.31
		c-3.465-1.747-6.958-3.493-10.423-5.24c-1.014-0.535-2.197,0.254-3.099,0.93c-1.887,1.493-3.888,2.817-5.972,4.028
		C66.248,74.503,65.403,74.785,65.037,74.249"/>
	<path class="path" fill="none" stroke="#000" stroke-width="1" d="M16.132,40.81c-0.225-0.169-0.479-0.338-0.704-0.507c-0.282-3.972-0.535-8.113,0.817-11.888
		c1.831-5.099,6.254-8.761,10.508-12.17c-0.141,1.465-0.845,2.873-1.944,3.859c-1.183,1.014-2.733,1.549-3.888,2.62
		c-0.732,0.676-1.24,1.549-1.69,2.423c-1.887,3.719-2.733,7.916-2.451,12.057C16.865,38.472,17.006,39.909,16.132,40.81"/>
	<path class="path" fill="none" stroke="#000" stroke-width="1" d="M44.613,108.787c-0.958-0.113-1.944-0.394-2.704-1.07c-0.732-0.648-1.155-1.662-0.93-2.62
		c1.042-4.113,2.056-8.226,3.099-12.339c0.282-1.155,0.563-2.282,0.873-3.409c0.563-2,1.183-3.972,1.859-5.916
		c0.789,0.563,0.648,1.775,0.423,2.704c-1.69,6.93-3.381,13.832-5.071,20.762c2.479-0.113,4.958,0.113,7.381,0.648
		C48.106,108.505,46.332,108.928,44.613,108.787"/>
	<path class="path" fill="none" stroke="#000" stroke-width="1" d="M57.234,139.014c2.423,0.761,4.817-2.169,7.268-1.493c-3.521,3.211-7.944,5.409-12.649,6.254
		c-2.197,0.394-4.423,0.507-6.677,0.62c-2.141,0.085-4.395,0.169-6.338-0.732c-2.395-1.099-4.592-2.676-6.395-4.62
		c1.944,0.028,3.888,0.761,5.381,2.028c1.437,1.211,3.493,1.296,5.381,1.268c2.507-0.056,4.986-0.197,7.465-0.451
		C53.121,141.634,55.881,141.099,57.234,139.014"/>
	<path class="path" fill="none" stroke="#000" stroke-width="1" d="M38.444,149.944c3.324-2.113,7.099-4.282,10.93-3.381c1.042,0.254,2.028,0.732,3.014,1.183
		c3.521,1.606,7.24,2.761,11.015,3.465c1.38,0.282,2.817,0.479,4.169,0.085c1.268-0.366,2.93-1.042,3.578,0.085
		c-2.873,2.479-7.24,1.775-10.958,0.93c-1.718-0.394-3.465-0.789-5.099-1.465c-1.944-0.817-3.775-2-5.831-2.338
		c-2.197-0.366-4.423,0.225-6.451,1.127C41.373,150.254,39.599,150.959,38.444,149.944"/>
	<path class="path" fill="none" stroke="#000" stroke-width="1" d="M97.208,93.152c-1.155,2.986-2.958,5.719-5.268,7.944c-1.296,1.268-2.761,2.395-3.775,3.888
		c-0.93,1.324-1.437,2.902-1.944,4.451c-1.549,4.733-3.099,9.465-4.648,14.226c-0.789-0.451-0.648-1.578-0.423-2.451
		c0.62-2.395,1.268-4.761,1.916-7.155c1.071-4.028,2.226-8.17,4.789-11.466c1.437-1.859,3.268-3.352,4.845-5.099
		c1.578-1.747,2.93-3.859,3.071-6.198c0.028-0.704,1.183-0.732,1.549-0.141C97.659,91.743,97.462,92.504,97.208,93.152"/>
	<path class="path" fill="none" stroke="#000" stroke-width="1" d="M99.969,17.936c-2.395,1.38-4.817,2.761-7.212,4.169c-1.071,0.592-2.338,1.211-3.437,0.704
		c-5.099,3.775-9.803,8.113-14.029,12.874c-0.254,0.31-0.789,0-0.845-0.394c-0.028-0.366,0.197-0.732,0.451-1.042
		c4.451-5.775,9.888-10.789,15.973-14.79c-0.732,0.704-0.958,1.887-0.507,2.817c3.888-2.423,7.888-4.62,12.029-6.592
		C101.969,16.724,100.927,17.372,99.969,17.936"/>
	<path class="path" fill="none" stroke="#000" stroke-width="1" d="M123.773,34.472c-0.282,0-0.563-0.028-0.845-0.028c-1.634-1.324-3.014-2.902-4.423-4.479
		c-1.437-1.634-2.902-3.268-4.338-4.902c-1.634,0.873-3.268,1.775-4.902,2.676c-0.141-1.69,1.296-3.352,2.986-3.437
		c-0.479-0.648-0.958-1.324-1.437-1.972c-0.141,0.394-0.507,0.873-0.845,0.648c-2.197,1.099-4.451,2.085-6.761,2.93
		c-0.197-0.789-1.211-1.07-1.972-0.845c-0.761,0.197-1.409,0.732-2.141,1.042c-0.732,0.31-1.718,0.338-2.197-0.282
		c3.071-1.747,6.254-3.296,9.522-4.648c1.014-0.423,2.254-0.789,3.127-0.113c0.169,0.113,0.338,0.282,0.535,0.225
		c0.169-0.056,0.056-0.451-0.085-0.31c1.155,0.254,2.226,0.817,3.071,1.634c-0.338,0.31-0.507,0.817-0.366,1.268
		c0.028-0.394,0.563-0.479,0.93-0.394c1.071,0.282,2,1.099,2.395,2.141c0.141,0.225,0.535,0.141,0.563-0.085
		c0.704,1.042,1.549,1.972,2.564,2.733c-0.056,1.07,0.648,2.113,1.606,2.479C121.914,31.88,122.928,33.12,123.773,34.472"/>
	<path class="path" fill="none" stroke="#000" stroke-width="1" d="M90.813,64.953c-1.211-0.817-1.747-2.338-1.916-3.775c-0.141-1.437,0.056-2.902-0.085-4.366
		c-0.085-1.099-0.366-2.254-0.197-3.352c0.197-1.127,0.873-2.113,1.493-3.042c2.761-4.057,5.521-8.085,8.282-12.142
		c2.028-2.986,5.324-4.789,8.508-6.507c0.451-0.225,1.155-0.394,1.324,0.085c-2.733,1.775-5.24,3.888-7.437,6.282
		c-3.859,4.197-6.761,9.184-9.606,14.114c-0.338,0.535-0.648,1.099-0.789,1.718c-0.113,0.563-0.084,1.127-0.056,1.69
		C90.475,58.755,90.644,61.854,90.813,64.953"/>
	<path class="path" fill="none" stroke="#000" stroke-width="1" d="M77.207,22.809c1.465-1.099,2.93-2.169,4.395-3.268c0.169,0.958,1.606,0.676,2.423,0.169
		c4.817-3.014,9.634-6.057,14.423-9.071c0.62,0.197,0.958,1.014,0.648,1.578c-4.845,2.282-9.437,5.155-13.578,8.536
		c-1.352,1.07-3.042,2.31-4.648,1.634c-0.31-0.113-0.648,0.113-0.901,0.31c-3.465,2.986-6.282,6.733-8.113,10.93
		c-1.042,0-2.056-0.338-2.93-0.93c-0.056-1.747,1.493-3.381,3.24-3.381c0.648-1.409,1.747-2.62,3.099-3.381
		c0.648-0.338,1.352-0.62,1.831-1.183C77.573,24.218,77.742,23.288,77.207,22.809"/>
	<path class="path" fill="none" stroke="#000" stroke-width="1" d="M52.191,122.337c-0.254,1.155-0.451,2.366-0.028,3.465c0.423,1.07,1.747,1.887,2.789,1.38
		c1.493-0.704,3.296-0.169,4.733,0.648c1.437,0.817,2.733,1.916,4.31,2.451c1.211,0.394,2.93,1.014,2.62,2.254
		c-2.451-0.056-4.902-1.014-6.705-2.648c-1.211-1.099-3.014-1.042-4.648-0.93c-4.423,0.31-8.818,0.648-13.24,0.958
		c-0.873,0.056-1.747,0.113-2.564,0.394c-3.014,0.958-4.986,4.479-8.141,4.536c0.141-0.507,0.535-0.93,0.901-1.296
		c2.902-2.902,6.423-6.057,10.508-5.55c2.761,0.338,5.606,0.056,8.254-0.789c0.282-0.958,0.254-2-0.056-2.958
		c-0.394,0.141-0.789,0.31-1.183,0.451c0.31-2.479,0.986-4.902,2.028-7.155C52.895,118.759,52.529,120.703,52.191,122.337"/>
	<path class="path" fill="none" stroke="#000" stroke-width="1" d="M41.317,92.617c-1.324-1.465-0.873-3.747-0.451-5.691c0.986-4.62,1.24-9.409,0.761-14.114
		c-0.197-2.225-0.648-4.564-2.169-6.198c-1.606-1.718-4.057-2.31-6.395-2.704c-5.831-0.958-11.804-1.211-17.691-0.817
		c-0.085-1.127,1.38-1.634,2.507-1.775c5.578-0.592,11.268-0.197,16.733,1.183c2.704,0.704,5.55,1.803,6.986,4.197
		c0.704,1.211,0.986,2.648,1.183,4.057C43.796,78.052,43.289,85.546,41.317,92.617"/>
	<path class="path" fill="none" stroke="#000" stroke-width="1" d="M114.477,33.148c0.592-0.535,1.127-1.155,1.887-1.437c0.732-0.282,1.747-0.056,2,0.704
		c-0.366,0.845,0.338,1.944,1.268,1.944c-0.394,0.789-1.465,1.155-2.226,0.732c0.592-0.197,0.873-1.014,0.535-1.549
		c-0.451-0.732-1.578-0.62-2.31-0.169c-0.704,0.479-1.268,1.183-2.028,1.549c-0.451,0.197-0.958,0.282-1.437,0.338
		c-0.648,0.113-1.268,0.197-1.887,0.282c-2.648,2.141-5.268,4.282-7.916,6.451c-0.31,0.225-0.648,0.535-0.704,0.93
		c-0.028,0.394,0.394,0.817,0.732,0.62c2.676-1.718,5.352-3.409,8.001-5.127c0.986-0.62,2.085-1.268,3.211-1.014
		c-0.986,0.873-2,1.747-3.014,2.62c-3.55,3.071-7.972,4.93-12.311,6.733c-0.732-0.507-1.099-1.493-0.901-2.366
		c0.986,0.423,2.254-0.028,2.733-0.986c1.859-3.719,5.24-6.648,9.156-8.029c0.563-0.451,1.352-0.479,2.056-0.62
		C112.477,34.528,113.575,33.909,114.477,33.148"/>
	<path class="path" fill="none" stroke="#000" stroke-width="1" d="M120.731,45.177c0.225-0.845-0.901-1.352-1.747-1.493c-0.282-0.62,0.789-1.042,1.352-0.648
		c0.563,0.394,0.789,1.099,1.296,1.549c0.197,0.169,0.423,0.31,0.563,0.507c0.535,0.732,0,2.056,0.789,2.479
		c-0.592,0.394-0.817,1.24-0.479,1.887c-2.479,1.127-4.986,2.254-7.465,3.381c-1.465,0.648-3.014,1.409-3.888,2.761
		c0.225,0.028,0.451,0.056,0.704,0.085c0.282,0.169,0,0.592-0.282,0.789c-1.803,1.183-3.606,2.366-5.409,3.55
		c-0.31,0.197-0.648,0.423-1.042,0.423s-0.789-0.31-0.761-0.676c1.803-0.901,2.845-2.789,4.169-4.282
		c3.183-3.578,8.001-5.099,12.423-6.902c0.648-0.282,1.409-0.845,1.127-1.493c-0.338-0.592-1.211-0.704-1.887-0.507
		c-0.676,0.197-1.268,0.648-1.916,0.93c-0.451,0.169-0.93,0.282-1.409,0.423c-4.057,1.155-7.099,4.817-11.212,5.831
		c-0.169-0.366-0.366-0.704-0.535-1.07c2.056-0.732,4.028-1.775,5.803-3.042c0.563-0.366,1.099-0.789,1.69-1.071
		c0.958-0.451,2.282-0.873,2.282-1.916c0.507,0.225,1.099,0.085,1.634-0.028C117.97,46.276,119.435,45.909,120.731,45.177"/>
	<path class="path" fill="none" stroke="#000" stroke-width="1" d="M52.952,132.084c-2.113,2.197-5.662,2.93-8.479,1.747c-0.31,0.62,0.169,1.409,0.817,1.69
		c0.648,0.254,1.38,0.141,2.085,0.028c6.395-1.014,12.902-1.465,19.382-1.352c-0.028-0.563,0.169-1.155,0.535-1.578
		c1.352,0.535,2.986,0.423,4.254-0.338c0.62,0.93,1.211,1.831,1.831,2.761c-7.944,0.817-15.888,1.662-23.833,2.507
		c-1.409,0.141-2.789,0.282-4.197,0.113c-3.493-0.507-7.071-0.451-10.564,0.141c-1.549,0.254-3.211,0.62-4.705,0.085
		c-1.465-0.535-2.592-2.451-1.69-3.747c0.901,2.169,3.888,2.254,6.226,1.972c2.226-0.282,4.423-0.535,6.648-0.817
		c1.014-0.113,2.056-0.254,2.986-0.732c-1.493-0.31-2.564-1.916-2.31-3.437c0.873,0.366,1.606,1.127,1.916,2.028
		c1.831-1.127,4.479,0.901,6.282-0.254c0.507-0.31,0.845-0.789,1.352-1.099C51.966,131.521,52.755,131.549,52.952,132.084"/>
	<path class="path" fill="none" stroke="#000" stroke-width="1" d="M109.096,82.334c1.071-1.803,2.226-3.831,1.747-5.86c-0.423-1.916,1.296-3.55,2.873-4.676
		c2.254-1.634,4.592-3.127,7.015-4.507c4.789,3.381,6.592,10.367,4.057,15.635c-0.958,1.972-1.296,4.141-1.944,6.226
		c-0.648,2.056-1.662,4.169-3.493,5.324c1.465-4.31,2.93-8.592,4.423-12.902c0.479-1.465,1.014-2.986,0.901-4.536
		c-0.085-1.578-0.817-3.042-1.521-4.451c-0.761-1.493-1.578-3.071-3.042-3.916c-1.352,1.606-2.986,2.986-4.817,4.028
		c-0.958,0.535-2.028,1.042-2.423,2.056c-0.282,0.648-0.225,1.409-0.225,2.141c-0.084,3.803-2.535,7.099-4.902,10.085
		c-1.69,2.141-3.381,4.31-5.071,6.451c-0.31,0.394-0.704,0.817-1.211,0.789c0.141-2.648,2.366-4.62,4.057-6.62
		C106.899,85.968,107.998,84.137,109.096,82.334"/>
	<path class="path" fill="none" stroke="#000" stroke-width="1" d="M66.305,59.15c2.169-0.169,4.31-0.366,6.451-0.535c2.451-0.197,4.958-0.423,7.353,0.141
		c4.366,0.986,7.775,4.31,10.93,7.493c1.296,1.268,2.648,2.733,2.733,4.564c-3.662-2.254-6.029-6.141-9.691-8.395
		c-5.747-3.55-13.128-2.169-19.748-0.676c-1.042,0.225-2.141,0.507-2.902,1.268c-0.817,0.789-1.07,1.972-1.296,3.071
		c-1.69,8.789-2.704,17.719-2.986,26.65c-1.07-1.521-1.07-3.521-1.014-5.409c0.282-7.437,1.155-14.874,2.564-22.199
		c0.254-1.268,0.535-2.592,1.324-3.606C61.459,59.685,64.023,59.347,66.305,59.15"/>
</g>
</svg>
