<?xml version="1.0" encoding="iso-8859-1"?>
<!-- Generator: Adobe Illustrator 21.1.0, SVG Export Plug-In . SVG Version: 6.00 Build 0)  -->
<svg version="1.1" id="Layer_1" xmlns="http://www.w3.org/2000/svg" xmlns:xlink="http://www.w3.org/1999/xlink" x="0px" y="0px"
	 viewBox="0 0 173.186 211.055" style="enable-background:new 0 0 173.186 211.055;" xml:space="preserve">
	 <style>
    /* <![CDATA[ */
    .path {
  stroke-dasharray: 2000;
  stroke-dashoffset: 2000;
  animation: dash 40s linear;
  animation-fill-mode: forwards;
 
}

@keyframes dash {
  from {
    stroke-dashoffset: 2000;
  }
  to {
    stroke-dashoffset: 0;
  }
}
    /* ]]> */
  </style>
<g id="Vorm_6">
	<desc  xmlns:shape="http://adobe.com/products/shape"></desc>
	<path class="path" fill="none" stroke="#000" stroke-width="1" d="M59.404,183.011c0.394,0,0.761,0,1.127,0c0.338,0.423-0.507,1.014-0.789,0.563
		c-0.479,0.056-0.958,0.113-1.409,0.141c-0.535-0.225-1.07-0.423-1.606-0.648c0.901-0.028,1.803-0.056,2.676-0.085"/>
	<path class="path" fill="none" stroke="#000" stroke-width="1" d="M136.48,105.71c0.141,0.704,0.028,1.465-0.31,2.113c-0.366,0.676-0.93,1.183-1.549,1.662
		c-0.31-0.338-0.62-0.648-0.958-0.986C134.254,107.287,135.269,106.301,136.48,105.71"/>
	<path class="path" fill="none" stroke="#000" stroke-width="1" d="M32.276,117.936c0.704-0.056,1.634,0.31,1.521,1.014c-1.69,0.817-3.521,1.352-5.409,1.521
		C29.149,119.035,30.67,118.049,32.276,117.936"/>
	<path class="path" fill="none" stroke="#000" stroke-width="1" d="M56.362,133.177c-0.479,0.676-1.155,1.183-1.916,1.465c-0.366,0.141-0.732,0.225-1.07,0.197
		c-0.028-1.211,0.676-2.395,1.718-2.986s2.423-0.563,3.437,0.085C58.165,132.754,57.263,133.261,56.362,133.177"/>
	<path class="path" fill="none" stroke="#000" stroke-width="1" d="M136.029,85.089c-0.845,0.225-2,0.028-2.226-0.817c1.944-0.592,3.69-1.831,4.874-3.493
		c0.338-0.141,0.761,0.169,0.873,0.535s-0.028,0.789-0.197,1.127C138.705,83.765,137.466,84.751,136.029,85.089"/>
	<path class="path" fill="none" stroke="#000" stroke-width="1" d="M101.886,183.631c-0.535,1.916-1.268,3.803-2.197,5.55c-0.451,0.873-1.38,1.831-2.197,1.324
		c0.986-2.366,2.085-4.705,3.296-6.958C101.154,183.574,101.52,183.602,101.886,183.631"/>
	<path class="path" fill="none" stroke="#000" stroke-width="1" d="M27.43,115.429c-0.338-0.366-0.535-0.873-0.338-1.324c0.197-0.451,0.873-0.62,1.155-0.254
		c0.704,0.986,2,1.296,3.211,1.296c1.183,0.028,2.395-0.197,3.55,0.085c0.197,0.338-0.028,0.789-0.366,1.014
		c-0.338,0.197-0.761,0.197-1.155,0.225c-0.704,0-1.38,0.028-2.056,0.056C29.994,116.556,28.36,116.528,27.43,115.429"/>
	<path class="path" fill="none" stroke="#000" stroke-width="1" d="M24.642,105.513c0.338-0.225,0.789-0.338,1.183-0.254c1.493,2.31,3.465,4.902,6.226,4.874
		c0.62,0,1.268-0.169,1.916-0.113c0.62,0.056,1.296,0.423,1.437,1.042c-1.38,0.93-3.211,0.732-4.874,0.479
		c-0.648-0.085-1.296-0.169-1.859-0.479c-1.07-0.507-1.747-1.606-2.338-2.648C25.768,107.457,25.205,106.471,24.642,105.513"/>
	<path class="path" fill="none" stroke="#000" stroke-width="1" d="M63.912,109.119c-0.225,1.465-0.761,2.902-1.549,4.169c3.662,0.141,7.324-0.056,10.958-0.62
		c1.183-0.169,2.479-0.366,3.521,0.254c-1.634,1.521-4.057,1.803-6.31,1.887c-3.183,0.113-6.367,0.056-9.522-0.197
		c-0.028-1.155-0.028-2.338,0.394-3.409C61.827,110.133,62.757,109.175,63.912,109.119"/>
	<path class="path" fill="none" stroke="#000" stroke-width="1" d="M73.095,142.417c0.704,0.789,1.409,1.747,1.268,2.789c-4.028-3.465-8.057-6.902-12.113-10.367
		c-0.479-0.423-1.014-0.93-1.07-1.578c0.479-0.282,1.07,0,1.521,0.31C66.588,135.994,70.081,138.98,73.095,142.417"/>
	<path class="path" fill="none" stroke="#000" stroke-width="1" d="M140.48,99.287c2.056-5.183,2.733-10.93,1.887-16.48c-0.085-0.563,0.761-0.648,1.296-0.648
		c1.324,7.099,0.085,14.677-3.437,21.015C139.41,102.076,139.973,100.555,140.48,99.287"/>
	<path class="path" fill="none" stroke="#000" stroke-width="1" d="M27.205,65.397c0.141-0.254,0.254-0.479,0.394-0.732c5.916,0.986,12.001,1.211,17.973,0.648
		c1.887-0.141,3.831-0.394,5.578,0.282c-0.394,0.676-1.268,0.845-2.028,0.986c-7.015,1.07-14.226,0.986-21.241-0.282
		C27.656,65.989,27.43,65.679,27.205,65.397"/>
	<path class="path" fill="none" stroke="#000" stroke-width="1" d="M153.974,171.404c0.789,0.254,1.606,0.535,2.366,0.789c2.423,0.817,4.789,1.69,7.155,2.62
		c0.141-0.31,0.62-0.366,0.845-0.113c-0.197,0.254-0.366,0.563-0.479,0.873c-1.803-0.704-3.662-1.437-5.606-1.578
		c-0.845-0.056-1.69,0-2.507-0.113c-1.183-0.141-2.31-0.535-3.437-0.958c-3.24-1.211-6.479-2.395-9.719-3.606
		c-0.479-0.338-0.789-0.901-0.817-1.465c0.986-0.169,2.028,0.169,2.986,0.479c0.845,0.282,1.662,0.563,2.507,0.845
		C149.523,169.911,151.749,170.672,153.974,171.404"/>
	<path class="path" fill="none" stroke="#000" stroke-width="1" d="M142.79,80.018c-1.662,0.761-3.352-2.226-4.986-1.409c-1.014,0.817-2.028,1.634-3.042,2.479
		c-0.535,0.423-1.099,0.873-1.521,1.465c-0.901,1.183-1.07,2.761-1.24,4.282c-0.282,2.733-0.563,5.493-0.845,8.254
		c-1.014-0.732-1.578-2.085-1.352-3.324c0.141-0.704,0.507-1.352,0.704-2.028c0.62-1.916,0.056-4.028,0.535-6
		c0.648-2.564,2.93-4.366,5.071-5.944c0.535-0.423,1.099-0.845,1.775-1.014c1.014-0.225,2.113,0.169,2.93,0.817
		C141.635,78.271,142.227,79.145,142.79,80.018"/>
	<path class="path" fill="none" stroke="#000" stroke-width="1" d="M12.162,91.089c-0.451-1.183-0.394-2.479-0.31-3.747c0.141-2.648,0.31-5.296,0.451-7.944
		c0.676,1.887,1.014,3.888,0.986,5.916c-0.056,2-0.451,4.226,0.732,5.86c0.817,1.183,2.254,1.747,3.606,2.169
		c2.704,0.817,5.521,1.296,8.367,1.38c0.986,0.028,2.31,0.338,2.31,1.324c-3.521,0.479-7.155,0.225-10.592-0.789
		C15.402,94.582,12.979,93.343,12.162,91.089"/>
	<path class="path" fill="none" stroke="#000" stroke-width="1" d="M135.128,101.231c-1.409,1.916-3.296,3.662-3.662,6c-0.141,0.873-0.056,1.803-0.479,2.564
		c-0.479,0.901-1.662,1.38-2.62,1.042c-0.986-0.338-1.634-1.437-1.437-2.451c0.732,0.592,1.662,0.901,2.592,0.845
		c0.676-3.352,2.225-6.564,4.507-9.127c0.507-0.62,1.07-1.183,1.437-1.887c0.732-1.465,0.507-3.324,1.437-4.648
		c0.394-0.563-0.028-1.38-0.648-1.718c-0.62-0.31-1.324-0.338-2-0.563c-0.648-0.225-1.296-0.789-1.211-1.465
		c1.296-0.366,2.676,0.141,3.944,0.62c0.366,0.141,0.789,0.31,1.042,0.62c0.366,0.451,0.366,1.07,0.31,1.634
		C138.086,95.766,136.959,98.752,135.128,101.231"/>
	<path class="path" fill="none" stroke="#000" stroke-width="1" d="M78.307,113.823c0.704-0.845,1.887-1.718,2.733-1.042c-1.747,2.902-4.141,5.437-6.958,7.353
		c-2.254,1.549-3.437,4.479-5.972,5.521c-0.423-1.099,0.563-2.254,1.578-2.902c1.014-0.648,2.226-1.324,2.423-2.479
		c-2.789,0.817-5.719,1.211-8.648,1.099c-1.352-0.056-3.071-0.535-3.211-1.887c1.69,0.056,3.352,0.085,5.014,0.141
		c0.986,0.028,1.972,0.056,2.93-0.141c1.916-0.366,3.634-1.578,5.578-1.549c0.93,0,1.662-0.789,2.282-1.493
		C76.814,115.57,77.546,114.696,78.307,113.823"/>
	<path class="path" fill="none" stroke="#000" stroke-width="1" d="M88.449,139.008c-0.394-0.31-0.282-0.958,0.056-1.324c0.338-0.366,0.817-0.535,1.211-0.845
		c0.479-0.394,0.789-0.93,1.127-1.437c4.057-6.761,7.606-13.832,10.564-21.128c0.507-1.296,1.099-2.676,2.282-3.381
		c0.225,1.127-0.197,2.282-0.62,3.352c-3.183,8.001-6.423,16.142-11.55,23.072C90.759,138.332,89.632,139.43,88.449,139.008"/>
	<path class="path" fill="none" stroke="#000" stroke-width="1" d="M53.348,177.208c1.211-1.38,3.324-1.437,5.155-1.296c4.395,0.338,8.789,1.042,13.071,2.113
		c2.873,0.732,5.521-1.662,7.522-3.859c1.578-1.718,3.24-3.69,3.211-6c0-0.845-0.028-2,0.789-2.197
		c0.817,1.972,0.423,4.254-0.592,6.113c-0.986,1.859-2.535,3.381-4.085,4.789c-1.662,1.521-3.55,3.042-5.775,3.211
		c-1.409,0.113-2.789-0.338-4.141-0.732c-3.944-1.155-8.029-1.831-12.113-2c-0.732-0.028-1.578,0-2.056,0.563
		C54.08,177.602,53.742,177.348,53.348,177.208"/>
	<path class="path" fill="none" stroke="#000" stroke-width="1" d="M48.559,140.078c-1.155-3.071,2.028-6.282,1.69-9.55c-0.901-8.62-0.254-17.41,1.916-25.805
		c0.62-2.451,1.747-5.24,4.197-5.86c-4.197,9.043-5.888,19.241-4.761,29.157C52.052,132.247,50.953,136.613,48.559,140.078"/>
	<path class="path" fill="none" stroke="#000" stroke-width="1" d="M25.825,114.415c-0.451,2.226-2.113,4.169-2.056,6.451c0.028,1.887,1.24,3.521,2.254,5.155
		c2.479,3.944,3.916,8.564,4.141,13.212c-2.141-4.648-4.254-9.325-6.395-13.973c-0.592-1.324-1.183-2.676-1.296-4.113
		c-0.254-3.859,3.127-7.832,1.352-11.297c-2.282-4.451-4.564-8.874-6.846-13.325c2.056,0.338,3.24,2.451,4.141,4.31
		c0.958,2.028,1.944,4.085,2.902,6.113C25.149,109.288,26.304,111.851,25.825,114.415"/>
	<path class="path" fill="none" stroke="#000" stroke-width="1" d="M69.208,54.411c-1.634,8.677,2.564,18.142-1.014,26.199c-0.535-6.958-0.732-13.916-0.563-20.903
		c0.085-3.324,0.225-6.705,1.324-9.86c0.845-2.366,2.169-4.536,3.606-6.592c3.099-4.395,6.761-8.395,10.846-11.86
		c0.648,0.986-0.225,2.226-1.042,3.071C76.73,40.297,70.673,46.467,69.208,54.411"/>
	<path class="path" fill="none" stroke="#000" stroke-width="1" d="M109.013,76.722c-8.536,6-16.48,12.874-23.607,20.48c-1.211,1.296-3.183,1.437-4.958,1.493
		c-7.127,0.197-14.254,0.141-21.382-0.169c3.944-2.535,9.043-1.916,13.719-1.437c4.648,0.451,9.944,0.451,13.24-2.902
		c6.198-6.282,12.987-11.973,20.227-17.015C107.098,76.609,108.281,76.046,109.013,76.722"/>
	<path class="path" fill="none" stroke="#000" stroke-width="1" d="M51.01,147.403c-0.845,2.535-3.662,3.944-6.31,4c-2.648,0.056-5.155-0.986-7.606-1.972
		c-0.732,3.268,0.93,6.93,3.916,8.536c2.507,1.352,5.55,1.211,8.423,1.042c5.916-0.366,11.832-0.704,17.776-1.07
		c-0.761-1.634-1.549-3.268-2.31-4.874c2.479,2,4.733,4.254,6.705,6.761c-0.535,0.845-1.803,0.056-2.733-0.366
		c-1.268-0.563-2.704-0.225-4.057,0.141c-5.831,1.549-11.804,3.211-17.804,2.479c-4.845-0.592-9.972-3.409-11.043-8.17
		c-0.338-1.578-0.225-3.268-0.761-4.817c-0.789-2.141-2.761-3.662-3.662-5.775c-1.268-3.042,0-6.479,1.127-9.578
		c2.338-6.282,4.197-12.846,4.197-19.522c-0.028-6.705-2.056-13.607-6.677-18.452c5.606,2.085,7.662,8.93,7.972,14.902
		c0.479,8.958-1.296,18.001-5.043,26.143c-1.183,2.535-0.592,5.691,1.07,7.972c1.662,2.254,4.226,3.719,6.93,4.507
		c3.24,0.958,7.747,0.282,8.536-2.986c0.479-2.028,2.592-3.183,4.62-3.606c2-0.423,4.141-0.366,6.085-1.07
		c1.916-0.732,3.662-2.648,3.211-4.676c1.803,1.268,0.986,4.367-0.873,5.55c-1.859,1.211-4.226,1.211-6.395,1.521
		C54.108,144.332,51.686,145.318,51.01,147.403"/>
	<path class="path" fill="none" stroke="#000" stroke-width="1" d="M137.015,51.875c-4.423-7.212-8.564-14.621-12.367-22.17c2.31,1.972,3.888,4.648,5.409,7.268
		c2.535,4.338,5.043,8.677,7.578,13.015c0.873,1.521,1.775,3.071,2.141,4.789c0.366,1.662,0.225,3.381,0.141,5.071
		c-0.197,3.719-0.113,7.437,0.225,11.128c0.085,1.099,0.31,2.338,1.268,2.845c4.028,2.141,4.874,7.465,5.268,12.029
		c0.507,6,0.873,12.536-2.535,17.466c-2.085,2.986-2,6.902-1.831,10.536c0.817,17.776,2.225,35.495,4.226,53.187
		c-1.183-0.676-1.465-2.197-1.634-3.55c-2.282-17.945-3.662-36.031-4.169-54.116c-1.493,5.24-7.437,8.733-12.733,7.55
		c0.423-1.944,3.296-1.549,5.212-2.085c1.296-0.338,2.338-1.296,3.24-2.282c5.803-6.141,9.296-14.424,9.634-22.847
		c0.254-5.465-1.127-11.466-5.521-14.677c-1.775-1.296-4.366-1.972-6.057-0.592c-2.873,2.31-5.127,5.381-6.507,8.817
		c-1.549-1.972,0.254-4.733,1.972-6.564c2.479-2.648,5.972-5.55,9.353-4.197C136.086,66.242,140.677,57.876,137.015,51.875"/>
	<path class="path" fill="none" stroke="#000" stroke-width="1" d="M15.402,85.652c-1.916-6.536-3.831-13.071-5.775-19.607c-0.676-2.366-1.38-4.733-1.634-7.212
		c-0.62-5.775,1.296-11.606,4.282-16.593c2.986-5.014,7.015-9.296,10.987-13.55c2.282-2.423,4.564-4.845,6.817-7.268
		c1.268-1.324,2.535-2.676,4.141-3.55c1.634-0.901,3.55-1.211,5.409-1.521C52.7,14.267,65.856,12.69,79.04,11.675
		c2.338-0.197,4.676-0.366,7.015-0.254c10.677,0.423,20.311,6.113,29.41,11.635c3.211,1.944,6.479,3.944,8.817,6.874
		c-3.916-2.338-7.86-4.676-11.775-7.015c-4.648-2.733-9.325-5.521-14.423-7.24c-11.522-3.944-24.142-2.282-36.2-0.563
		c-8.536,1.211-17.072,2.423-25.607,3.634c-1.887,0.282-3.352,1.718-4.676,3.071c-6.592,6.789-13.24,13.663-18.227,21.72
		c-1.916,3.127-3.606,6.507-4.113,10.17C7.767,64.552,16.838,74.778,15.402,85.652"/>
	<path class="path" fill="none" stroke="#000" stroke-width="1" d="M50.446,193.434c3.493-1.07,7.353-2.451,8.874-5.719c-3.268-0.141-6.507-0.282-9.775-0.423
		c-3.211-0.141-7.015-0.592-8.62-3.409c-0.732-1.24-0.873-2.733-0.986-4.169c-0.451-5.775-0.901-11.55-1.38-17.325
		c1.07,0.394,1.042,1.887,1.69,2.789c0.479,0.676,1.296,0.958,2.085,1.211c7.324,2.141,15.607,0.901,21.973-3.324
		c-0.873,2.535-3.183,4.395-5.691,5.296c-2.535,0.93-5.268,1.014-7.944,0.901c-3.381-0.113-6.761-0.507-10.057-1.183
		c0.254,3.578,0.479,7.127,0.732,10.705c0.085,1.324,0.197,2.733,0.93,3.831c1.268,2,3.916,2.451,6.254,2.676
		c9.719,0.845,19.494,0.563,29.129-0.817c1.07-0.141,2.169-0.338,3.155-0.761c1.211-0.535,2.225-1.465,3.211-2.366
		c13.522-12.395,26.734-25.326,37.129-40.453c1.606-2.31,3.127-4.733,3.859-7.437c1.887-6.958-1.831-14.705,0.873-21.354
		c0.31,4.395,0.648,8.817,0.958,13.24c0.225,3.099,0.423,6.282-0.479,9.24c-0.704,2.366-2.085,4.451-3.493,6.479
		c-11.099,16.086-24.762,30.284-39.524,43.13c-1.042,0.901-2.169,1.859-3.55,1.972c-5.381,0.423-10.733,0.873-16.086,1.296
		c-0.817,0.056-1.718,0.169-2.282,0.761c-5.831,6.113-14.48,9.437-22.931,8.817C42.502,195.829,46.474,194.617,50.446,193.434"/>
</g>
</svg>
