<?xml version="1.0" encoding="iso-8859-1"?>
<!-- Generator: Adobe Illustrator 21.1.0, SVG Export Plug-In . SVG Version: 6.00 Build 0)  -->
<svg version="1.1" id="Layer_1" xmlns="http://www.w3.org/2000/svg" xmlns:xlink="http://www.w3.org/1999/xlink" x="0px" y="0px"
	 viewBox="0 0 370 300" style="enable-background:new 0 0 370 300;" xml:space="preserve">
	 <style>
    /* <![CDATA[ */
    .path {
  stroke-dasharray: 2000;
  stroke-dashoffset: 2000;
  animation: dash 40s linear;
  animation-fill-mode: forwards;
 
}

@keyframes dash {
  from {
    stroke-dashoffset: 2000;
  }
  to {
    stroke-dashoffset: 0;
  }
}
    /* ]]> */
  </style>
<g id="Vorm_19">
	<desc  xmlns:shape="http://adobe.com/products/shape"></desc>
	<path class="path" fill="none" stroke="#000" stroke-width="1" d="M14.909,165.072c0.819-0.397,1.614-0.894,2.483-1.192c0.546-0.199,1.241,0.025,1.812-0.149
		c2.532-0.77,2.532-0.794,2.582,1.738c0,0.273,0,0.72,0.149,0.77c0.546,0.248,1.142,0.447,1.763,0.521
		c0.571,0.05,0.447,0.074,0.397,0.67c-0.223,1.638-0.174,3.327-0.05,4.99c0.05,0.571,0.521,1.092,1.39,1.092
		c3.302-0.074,6.629-0.124,9.93,0c1.415,0.05,3.103-0.794,4.171,0.943c0.025,0.05,0.149,0,0.223,0.025
		c1.961,0.149,3.923,0.472,5.884,0.447c2.408,0,4.841-0.248,7.249-0.472c1.812-0.149,3.376-1.961,3.401-3.774
		c0-1.117-0.05-2.21,0.025-3.327c0-0.066,0.048-0.146,0.109-0.227c-0.57-0.174-1.153-0.276-1.733-0.178
		c-0.223,0.256-0.531,0.475-0.76,0.504c-1.068,0.174-2.185,0.074-3.277,0.074c-5.214,0-10.427,0-15.64-0.025
		c-0.372,0-0.77-0.174-1.142-0.174c-2.433-0.025-4.891-0.174-7.299,0.05c-1.068,0.099-1.514,0.05-1.564-1.043
		c-0.025-0.596-0.124-1.018-0.894-1.117c-0.844-0.099-1.216-0.621-1.142-1.589c0.075-0.993-0.397-1.564-1.589-1.614
		c-2.855-0.099-5.536,0.223-7.746,2.284c-0.372,0.323-0.695,0.695-1.043,1.068c0.571,0,1.142,0.074,1.713,0.05
		C14.512,165.395,14.711,165.172,14.909,165.072z M26.18,168.772c1.589-0.099,3.252-0.546,4.717-0.174
		c3.5,0.869,6.976,0.199,10.477,0.372c2.681,0.149,5.362,0.05,8.044,0.05h4.593c0.819-0.025,1.192,0.447,1.266,1.192
		c0.124,0.968-1.142,2.135-1.961,2.582c-1.539,0.819-3.178,0.124-4.717,0.571c-2.309-0.124-4.494-0.273-6.653-0.075
		c-1.291,0.099-2.036-0.596-3.004-1.068c-0.372-0.199-0.993,0.05-1.514,0.05c-0.273,0.025-0.546-0.074-0.819-0.099
		c-3.376-0.05-6.728-0.199-10.079-0.149c-1.614,0.025-1.167-1.291-1.49-2.011C24.666,169.119,25.411,168.821,26.18,168.772z"/>
	<path class="path" fill="none" stroke="#000" stroke-width="1" d="M260.887,174.407c-0.819-0.646-1.862-1.092-2.507-1.887c-0.77-0.869-1.688-0.943-2.532-0.72
		c-1.117,0.273-2.234,0.819-3.203,1.465c-0.497,0.348-0.993,1.216-0.919,1.763c0.397,2.383,0.993,4.717,1.514,7.1
		c0.298,1.49,0.894,3.004,0.745,4.444c-0.273,2.582-0.943,5.114-1.589,7.646c-0.844,3.327-1.44,6.778-2.83,9.856
		c-1.043,2.309-1.614,4.667-2.284,7.001c-0.77,2.656-0.919,5.511-1.316,8.267c-0.174,1.216-0.497,1.39-1.49,0.67
		c-1.688-1.216-3.376-2.433-4.965-3.798c-2.061-1.738-3.972-3.649-6.852-4.071c-0.397-0.05-0.72-0.695-1.092-1.092
		c0.397-0.099,0.794-0.273,1.216-0.323c0.348-0.025,0.695,0.124,1.043,0.149c1.44,0.05,2.88,0.074,4.32,0.074
		c0.174,0,0.447-0.248,0.521-0.422c0.025-0.149-0.174-0.472-0.348-0.546c-0.447-0.124-0.919-0.248-1.39-0.248
		c-2.805,0.05-5.636,0.298-8.466,0.199c-4.866-0.124-9.707-0.472-14.573-0.695c-0.596-0.025-1.167,0.074-1.738-0.025
		c-1.192-0.199-2.358-0.571-3.55-0.695c-0.869-0.099-1.787-0.025-2.656,0.149c-1.365,0.273-2.681,0.943-4.022,0.993
		c-2.036,0.074-3.972,0.571-5.933,0.993c-1.142,0.223-2.309,0.497-3.476,0.521c-1.117,0.025-2.21-0.298-3.327-0.447
		c-0.894-0.124-1.862-0.05-2.731-0.323c-1.688-0.546-3.327-1.365-5.04-1.912c-1.986-0.621-3.5-2.185-5.611-2.582
		c-1.365-0.223-2.607-1.167-3.972-1.341c-2.607-0.372-5.238,0.099-7.895-0.472c-2.408-0.497-4.99-0.223-7.497-0.348
		c-2.234-0.124-4.494-0.223-6.728-0.497c-2.88-0.348-5.735-0.919-8.664-0.745c-0.943,0.05-1.936,0.199-2.83-0.05
		c-0.645-0.174-0.993,0.72-1.713,0.174c-0.323-0.223-1.167,0.422-1.738,0.348c-2.83-0.298-5.735,0.943-8.515-0.447
		c-0.223-0.099-0.596-0.05-0.844,0.025c-1.216,0.372-2.359,1.043-3.575,1.167c-2.532,0.248-4.295-1.39-5.884-3.054
		c-0.348-0.372-0.323-1.216-0.248-1.812c0.248-2.135,0.67-4.27,0.894-6.43c0.124-1.365,0-2.731,0.025-4.096
		c0.025-0.869,0.348-1.788,0.149-2.607c-0.216-0.993-0.295-1.614-0.157-2.066c-0.096-0.054-0.19-0.109-0.277-0.17
		c-0.33-0.232-0.605-0.521-0.862-0.828c-0.047,0.046-0.098,0.087-0.144,0.135c-0.199,0.199-0.546,0.298-0.844,0.348
		c-1.514,0.273-3.029,0.497-4.518,0.77c-0.323,0.05-0.67,0.074-0.894,0.248c-1.465,1.216-3.153,0.372-4.494,0.075
		c-1.44-0.323-3.004-0.348-4.345-1.068c-0.521-0.273-1.142-0.372-1.564-0.745c-0.77-0.695-1.316-1.639-2.11-2.259
		c-1.117-0.894-2.359-1.638-3.6-2.358c-0.596-0.348-0.943-0.497-0.273-1.167c0.646-0.695,0.943-1.663,0.323-2.483
		c-0.645-0.844-1.514-1.639-2.706-1.39c-0.472,0.099-0.869-0.05-1.291,0c-0.819,0.075-0.67-0.397-0.72-0.894
		c-0.099-1.068-0.124-2.16-0.447-3.153c-0.67-2.011-2.557-2.805-4.245-3.649c-0.869-0.422-1.986-0.497-3.004-0.497
		c-0.943,0-1.912,0.372-2.88,0.447c-2.185,0.124-4.345,0.223-6.529,0.248c-2.656,0.05-5.313,0.025-7.994,0.025
		c-2.309,0-4.618,0.025-6.927-0.025c-0.844-0.025-1.291,0.124-1.291,1.117c0,0.135-0.078,0.296-0.193,0.452
		c0.576-0.073,1.15,0.034,1.711,0.208c0.124-0.129,0.283-0.238,0.393-0.238c6.926-0.124,13.878,0.273,20.804-0.521
		c0.348-0.05,0.67,0.05,0.993-0.025c1.961-0.397,3.848-0.596,5.586,0.745c1.266,0.993,2.681,1.812,2.83,3.649
		c0.05,0.72,0.025,1.465,0.248,2.135c0.497,1.564,0.521,1.514-1.068,1.688c-1.192,0.149-2.383,0.323-3.476,0.72
		c-0.968,0.323-1.589,0.298-2.334-0.472c-1.415-1.44-3.153-2.259-5.238-1.986c-0.571,0.074-1.117,0.323-1.663,0.497
		c-1.44,0.422-2.88,0.794-4.295,1.291c-2.16,0.77-3.997,2.309-6.331,2.681c-0.174,0.025-0.298,0.248-0.447,0.372
		c0.149,0.124,0.273,0.348,0.447,0.348c0.72,0.025,1.49,0.199,2.135-0.025c1.862-0.646,3.649-1.539,5.536-2.21
		c1.614-0.596,3.277-1.192,4.965-1.415c1.117-0.124,2.334,0.422,3.5,0.695c0.298,0.075,0.521,0.348,0.794,0.546
		c-0.223,0.223-0.422,0.497-0.67,0.67c-0.72,0.521-1.663,0.869-2.16,1.564c-0.571,0.794-1.167,0.993-1.986,0.919
		c-1.688-0.124-3.178,0.397-4.568,1.266c-1.763,1.043-3.625,1.663-5.735,1.49c-0.77-0.05-1.763-0.099-2.334,0.273
		c-1.986,1.365-4.295,0.298-6.38,1.117c-1.266,0.497-3.078,1.216-3.476,2.358c-0.844,2.334-0.099,4.568,2.085,5.611
		c1.291,0.596,2.756,0.919,4.171,1.291c0.422,0.099,0.894,0.05,1.341-0.025c1.986-0.397,3.972-1.043,5.958-1.117
		c1.738-0.074,3.277-0.596,4.643-1.39c1.018-0.621,0.645,0,0.645,0.422c0.025,1.043,0.025,2.11,0,3.153
		c0,0.72,0.248,0.372,0.472,0.124c0.199-0.248,0.497-0.497,0.521-0.745c0.05-1.341,0-2.681,0.025-4.022
		c0.025-0.273,0.223-0.571,0.348-0.844c0.174,0.174,0.323,0.348,0.521,0.497c0.422,0.323,0.894,0.621,1.316,0.993
		c0.149,0.149,0.273,0.422,0.273,0.645c-0.025,0.199-0.174,0.422-0.348,0.571c-0.323,0.298-0.745,0.497-1.018,0.819
		c-0.174,0.223-0.174,0.596-0.248,0.919c0.323-0.074,0.67-0.124,0.993-0.248c0.149-0.025,0.223-0.248,0.372-0.323
		c0.844-0.422,1.589-0.199,2.061,0.596c0.149,0.273,0.149,0.919-0.025,1.018c-0.646,0.397-1.365,0.844-2.085,0.919
		c-2.135,0.199-4.295,0.223-6.455,0.273c-0.323,0.025-0.645-0.075-0.943-0.124c-2.036-0.323-3.972-1.117-6.107-0.894
		c-1.639,0.174-3.327,0.099-5.015,0.025c-1.291-0.075-2.607-0.199-3.873-0.546c-0.521-0.124-1.068-0.794-1.341-1.365
		c-0.273-0.571-0.273-1.316-0.273-1.986c0.05-1.912-0.323-3.575-1.936-4.94c-0.794-0.695-1.465-0.869-2.433-0.844
		c-3.476,0.025-6.976,0-10.477-0.075c-1.316-0.025-2.607-0.372-3.923-0.372c-1.216,0-2.433,0.447-3.625,0.422
		c-3.227-0.074-6.43-0.323-9.657-0.447c-1.092-0.05-1.912-0.298-2.259-1.514c-0.199-0.794-0.993-1.018-1.663-0.621
		c-1.39,0.844-3.947,0.422-5.015-0.894c-0.074-0.075-0.447-0.075-0.472,0c-0.497,1.142,0.422,2.483,1.688,2.507
		c1.117,0.025,2.234-0.075,3.352,0.05c0.546,0.05,1.241,0.348,1.514,0.745c0.546,0.894,1.465,1.092,2.234,1.167
		c2.756,0.199,5.511,0.273,8.267,0.273c6.703,0.025,13.431,0.025,20.134,0c0.819,0,1.341,0.298,1.862,0.919
		c1.092,1.291,1.415,2.781,1.415,4.394c-0.025,1.266,0.397,2.433,1.291,3.277c0.497,0.447,1.291,0.745,1.961,0.819
		c1.812,0.199,3.649,0.223,5.487,0.273c1.788,0.05,3.55,0,5.338,0.025c0.273,0,0.546,0.248,0.819,0.397
		c-0.223,0.199-0.422,0.397-0.621,0.571c-0.447,0.372-0.919,0.67-1.291,1.068c-1.167,1.266-0.72,2.632,0.869,3.203
		c0.397,0.149,1.688,0.273,0.571,1.341c-0.77,0.745-0.77,1.837-0.223,2.607c0.348,0.521,1.216,0.695,1.887,0.968
		c0.298,0.149,0.919,0.199,0.919,0.323c0.05,0.397-0.05,0.894-0.298,1.167c-0.794,0.919-0.869,2.085-0.422,2.93
		c0.546,0.993,1.514,1.887,2.93,1.812c0.596-0.025,1.216,0.074,1.812,0.05c1.068-0.074,2.259,0.05,3.178-0.372
		c1.415-0.621,2.458-1.738,4.32-1.564c0.77,0.074,1.887-0.298,2.88-0.348c1.862-0.124,3.054-0.968,3.55-2.855
		c0.223-0.819,0.074-1.763,0.025-2.632c-0.025-1.092-0.05-2.185-0.199-3.277c-0.199-1.663-0.546-3.327-0.77-5.015
		c-0.298-1.986-0.497-3.997-0.794-6.008c-0.099-0.67-0.149-1.713-0.546-1.936c-1.142-0.571-0.348-1.117-0.199-1.688
		c0.074-0.298,0.174-0.596,0.298-0.869c0.348-0.943,1.117-1.167,2.011-1.142c1.092,0.025,0.968,0.794,0.968,1.539
		c0,0.447,0.074,0.869,0.149,1.316c0.273,1.49,0.869,3.029,0.745,4.469c-0.124,1.44,0.248,2.656,0.571,3.947
		c0.546,2.061,0.794,4.245,1.564,6.182c0.844,2.135,0.695,4.345,1.192,6.48c0.174,0.819-0.298,1.415-0.894,1.688
		c-1.291,0.596-2.607,1.241-3.972,1.49c-2.731,0.472-5.511,0.72-8.267,1.018c-0.645,0.074-1.316,0.05-1.961,0.074
		c0.05,0.621,0.174,1.241,0.174,1.862c0.025,2.706,1.663,3.6,4.071,2.408c1.316-0.646,2.805-1.092,4.27-1.291
		c1.092-0.174,1.514-0.67,1.589-1.564c0.05-0.794,0.323-1.117,1.142-1.266c0.919-0.174,1.812-0.571,2.681-0.968
		c0.67-0.298,1.614-0.596,1.837-1.142c0.397-1.043,0.72-1.688,2.011-2.011c1.316-0.323,2.458-1.341,3.699-2.036
		c1.614-0.919,3.401-1.564,4.717-2.979c0.223-0.248,0.521-0.546,0.819-0.621c1.514-0.422,2.83-1.415,4.494-1.39
		c0.745,0,1.862,0.124,2.185-0.298c0.646-0.869,0.993-0.149,1.216,0.075c1.266,1.316,3.054,0.968,4.543,1.365
		c1.092,0.273,1.961,0.695,2.607,1.44c1.961,2.209,5.263,2.334,7.522,1.316c1.316-0.596,2.706-0.447,4.121,0.025
		c0.67,0.248,1.49,0.074,2.234,0.025c0.223,0,0.447-0.199,0.67-0.199c2.284-0.099,4.593-0.273,6.877-0.248
		c3.997,0.05,7.969-0.099,11.966,0.646c3.227,0.621,6.579,0.273,9.881,0.745c3.252,0.472,6.629,0.223,9.93,0.348
		c1.018,0.025,2.011,0.174,3.054,0.397c2.954,0.621,5.362,2.433,8.168,3.352c1.465,0.472,2.756,1.465,4.245,1.912
		c1.614,0.447,3.376,0.745,5.065,0.72c2.036-0.025,4.047,0.372,6.132-0.348c1.787-0.621,3.823-0.571,5.735-0.844
		c0.223-0.025,0.447-0.124,0.67-0.149c1.837-0.273,3.649-0.72,5.487-0.77c1.44-0.05,2.855,0.646,4.295,0.646
		c4.444,0.05,8.838,0.372,13.282,0.67c2.582,0.149,4.791,0.869,7.051,1.862c0.72,0.298,1.44,0.596,2.036,1.043
		c1.763,1.266,3.451,2.607,5.189,3.923c1.44,1.068,2.781,2.309,4.345,3.153c1.365,0.745,1.614,1.688,1.514,3.029
		c-0.05,0.521,0.124,1.092,0.223,1.638c0.05,0.273,0.099,0.546,0.174,0.794c0.174-0.273,0.422-0.546,0.546-0.869
		c0.099-0.273,0.025-0.571,0.025-0.869c0-3.997-0.05-7.994,1.192-11.917c0.72-2.309,0.968-4.717,1.912-7.026
		c1.44-3.5,2.334-7.249,3.302-10.924c0.447-1.614,0.397-3.376,0.869-4.99c0.72-2.532,1.291-4.99,0.422-7.597
		c-0.571-1.763-0.968-3.575-1.514-5.338c-0.497-1.663-0.348-2.433,0.943-3.078c2.433-1.216,3.5-1.192,5.412,0.521
		c0.223,0.223,0.497,0.447,0.77,0.521c0.348,0.099,0.72,0.074,1.092,0.099C261.209,175.028,261.135,174.606,260.887,174.407z
		 M83.628,212.937c-2.234,0.571-4.469,1.117-6.728,1.564c-0.348,0.074-0.794-0.397-1.192-0.621c0.273-0.298,0.497-0.794,0.844-0.894
		c1.092-0.298,2.21-0.447,3.327-0.646c1.291-0.298,2.458-0.521,3.625-0.596c0.248-0.025,0.546,0.372,0.819,0.571
		C84.1,212.54,83.901,212.863,83.628,212.937z M91.746,174.581c0.124,0.025,0.323,0.497,0.248,0.695
		c-0.05,0.199-0.422,0.422-0.621,0.422c-0.521-0.05-1.043-0.223-1.564-0.348c-0.149-0.348-0.174-0.571-0.199-0.794
		C90.306,174.556,91.026,174.506,91.746,174.581z M61.334,190.345c-1.862,0.77-5.735-0.025-7.1-1.415
		c-0.894-0.919-0.919-2.632-0.05-3.525c0.645-0.497,1.142-1.043,1.738-1.216c1.266-0.372,2.582-0.571,3.898-0.77
		c0.397-0.05,0.844,0.124,1.266,0.199c-0.149,0.273-0.298,0.546-0.472,0.794c-1.117,1.663-0.72,3.873,0.77,4.965
		c0.174,0.124,0.323,0.372,0.348,0.571C61.731,190.072,61.508,190.271,61.334,190.345z M70.644,188.359
		c-0.745,0.273-1.514,0.67-2.284,0.72c-1.192,0.099-2.408-0.05-3.625-0.074c-0.422,0.794-1.415,0.869-1.986,0.546
		c-0.596-0.323-1.117-1.192-1.192-1.887c-0.124-1.092-0.05-2.259,0.223-3.352c0.273-0.968,1.167-1.514,2.185-1.639
		c0.372-0.05,0.745,0,1.117,0c1.837,0,1.862,0,1.887,1.837v0.124c-0.05,0.497-0.074,0.993-0.124,1.49
		c-0.497-0.348-1.018-0.67-1.539-1.018c-0.571-0.397-1.092-0.943-1.713-1.167c-0.67-0.248-0.77,0.199-0.447,0.72
		c0.099,0.174,0.199,0.397,0.348,0.472c1.465,0.869,1.688,2.11,1.241,3.625c1.614-1.837,3.848-0.919,5.859-1.117
		c0.099,0,0.323,0.174,0.323,0.199C70.867,188.037,70.768,188.31,70.644,188.359z M71.339,186.721
		c-0.645-0.323-1.39-0.472-2.11-0.571c-1.365-0.174-0.943-1.341-1.266-2.085c-0.149-0.348,0.323-1.018-0.546-0.919
		c0,0-0.074-0.223-0.025-0.273c0.596-0.77,2.805-0.571,3.426,0.298c0.521,1.092,1.018,2.061,1.316,3.078
		C72.357,186.969,71.985,186.994,71.339,186.721z M75.733,188.608c-0.174,0.174-0.621,0.298-0.72,0.199
		c-0.745-0.77-1.688-1.241-1.688-2.731c-0.025-1.688-0.497-3.525-2.21-4.593c-0.223-0.149-0.894-0.497,0.124-0.596
		c0.943-0.074,1.862-0.447,2.805-0.695c0.447-0.199,0.794-0.273,1.142-0.348c-0.025,0.372,0.074,0.819-0.05,1.142
		c-0.248,0.646-0.745,1.192-0.943,1.837c-0.124,0.397-1.068,1.192,0.323,1.39c0.099,0.025,0.223,0.943,0.124,1.39
		c-0.248,1.068,0.025,1.812,0.943,2.383C75.733,188.061,75.808,188.533,75.733,188.608z M75.411,185.777
		c0.571-1.713,1.787-2.135,2.954-1.117c0.074,0.05,0.174,0.099,0.273,0.174c-0.422,0.571-0.894,1.092-1.266,1.713
		c-0.397,0.695-1.018,0.422-1.49,0.273C75.634,186.746,75.56,186.15,75.411,185.777z M76.652,191.065
		c-0.745-0.174-0.695-0.77-0.248-1.316c0.67-0.124,1.341,0.05,2.011,0.099c1.068,0.075,0.77,0.943,0.422,1.068
		C78.191,191.19,77.347,191.214,76.652,191.065z M78.141,194.218c0.323,0.77,0.67,1.44,0.968,2.11
		c0.025,0.099-0.223,0.298-0.348,0.472c-0.074-0.174-0.199-0.323-0.248-0.472c-0.149-0.621-0.248-1.241-0.372-1.862
		c-0.223-0.273-0.472-0.422-0.695-0.571c0.174-0.099,0.323-0.199,0.497-0.298C77.992,193.796,78.067,193.995,78.141,194.218z
		 M63.271,197.719c-0.05-0.646,1.365-1.639,2.21-1.639c0.943-0.025,1.887,0,2.855,0c1.142-0.323,2.011-0.77,2.954-0.919
		c0.397-0.074,1.365-0.695,1.44,0.546c0,0.124,0.447,0.323,0.67,0.348c0.819,0.05,1.812-0.273,1.564,1.167
		c0,0.099,0.298,0.223,0.472,0.348c0.074-0.174,0.174-0.323,0.199-0.497c0.05-0.223,0.025-0.497,0.025-0.745
		c-0.05-0.422-0.397-1.018,0.422-1.068c0.348,0,0.894,0,0.993,0.174c0.223,0.397,0.397,0.968,0.273,1.39
		c-0.422,1.638-1.862,1.837-3.252,2.259c-2.979,0.943-5.958,0.099-8.913,0.149C64.437,199.258,63.345,198.861,63.271,197.719z
		 M64.959,201.964c0.074-0.645,0.298-0.993,1.043-0.943c1.192,0.074,2.408,0.05,3.6,0c0.77-0.05,1.539-0.273,2.334-0.348
		c0.571-0.05,1.266-0.199,1.713,0.05c1.167,0.646,2.135,0.248,2.706-0.596c0.645-1.018,1.564-1.415,2.557-1.837
		c0.099-0.025,0.199-0.124,0.298-0.174c1.365-0.67,1.936-0.521,2.309,1.092c0.099,0.372-0.869,1.365-1.465,1.49
		c-0.77,0.174-1.688-0.248-2.507-0.422c-0.124-0.025-0.248-0.099-0.372-0.149c0.05,0.149,0.025,0.298,0.124,0.422
		c0.099,0.174,0.273,0.298,0.422,0.447c1.216,1.043,1.266,1.266-0.273,1.986c-1.043,0.521-2.259,0.695-3.401,1.043
		c-2.383,0-4.494,0-6.629-0.025C66.101,204,64.884,202.908,64.959,201.964z M81.965,200.847c0.223-0.174,0.968-0.099,1.043,0.025
		c0.223,0.521,0.348,1.142,0.273,1.688c0,0.199-0.67,0.323-1.043,0.472C80.823,202.039,80.798,201.716,81.965,200.847z
		 M74.666,208.742c-0.993,0.77-5.437,1.44-6.504,0.819c-0.695-0.422-1.341-0.894-1.192-1.837c0.149-0.968,0.67-1.738,1.639-1.986
		c1.117-0.298,2.284-0.521,3.426-0.695c0.223-0.05,0.596,0.248,0.72,0.472c0.099,0.149-0.223,0.472-0.248,0.745
		c-0.025,0.472,0,0.968,0.025,1.44c0.124-0.149,0.372-0.323,0.372-0.497c0-0.621,0.149-1.043,0.894-0.943
		c0.372,0,0.571,0.05,0.596,0c0.149-0.223-0.844-0.72,0.199-0.77c0.571-0.025,1.142-0.025,1.291,0.67
		C76.155,207.327,75.56,208.047,74.666,208.742z M77.521,207.749c-0.348,0-0.447,0.025-0.497-0.025
		c-0.372-0.174-0.695-3.128-0.372-3.327c0.074-0.05,0.298,0.025,0.348,0.099c0.521,0.844,1.192,1.663,1.514,2.582
		C78.812,207.873,77.992,207.699,77.521,207.749z M78.39,204.894c-0.099-0.075-0.174-0.174-0.248-0.248
		c-0.124-1.39,1.241-1.092,1.787-1.738c0-0.025,0.472,0.273,0.67,0.472c0.298,0.298,0.819,0.844,0.77,0.919
		c-0.472,0.621-0.968,1.291-1.639,1.638C79.532,206.036,78.837,205.266,78.39,204.894z M83.554,205.862
		c-0.472,0.67-1.192,1.167-1.912,1.589c-0.248,0.149-0.844-0.074-1.192-0.273c-0.447-0.248-0.521-0.546,0.099-0.77
		c0.695-0.248,1.365-0.546,1.936-0.968c0.422-0.273,0.67-0.77,0.993-1.167C83.603,204.72,83.827,205.465,83.554,205.862z
		 M83.33,198.339c0.05,0.174-0.223,0.447-0.348,0.695c-0.199-0.149-0.447-0.273-0.621-0.447c-0.05-0.05,0.05-0.298-0.025-0.348
		c-0.968-0.993-1.465-2.011-0.248-3.178c0.099-0.099,0.025-0.397,0.025-0.596c-0.372,0-0.745,0.124-1.068,0.298
		c-0.745,0.472-1.316,0.447-1.663-0.472c-0.099-0.223-0.149-0.546-0.298-0.596c-0.844-0.273-0.869-0.869-0.348-1.266
		c0.546-0.422,1.316-0.894,1.887,0.124c0.074,0.124,0.273,0.273,0.397,0.273c0.968,0,1.216,0.546,1.092,1.39
		C82.511,195.658,82.958,196.974,83.33,198.339z M82.089,191.612c0.025,0.149-0.124,0.323-0.174,0.497
		c-0.124-0.074-0.298-0.124-0.397-0.248c-0.223-0.223-0.645-0.472-0.621-0.695c0.074-1.018-0.546-1.291-1.291-1.589
		c-0.248-0.074-0.323-0.546-0.472-0.819c0.571-0.67,1.142-1.068,1.688-1.49c0.149-0.099,0.223-0.248,0.323-0.372
		c0.149,0.149,0.422,0.298,0.447,0.472C81.791,188.781,81.94,190.197,82.089,191.612z M107.883,198.811
		c-1.068,0.149-2.135,0.372-3.203,0.621c-2.334,0.596-4.32,1.812-6.355,3.203c-2.135,1.465-4.419,2.979-7.1,3.674
		c-1.043,0.273-0.894-0.447-0.894-0.745c0.05-3.476-1.465-6.604-2.085-9.93c-0.323-1.688-0.943-3.277-0.521-5.114
		c0.199-0.819-0.67-1.837-0.869-2.781c-0.273-1.241-0.348-2.507-0.521-3.774c-0.149-1.043-1.216-2.309-2.234-2.234
		c-0.745,0.074-1.614,0.596-2.061,1.192c-0.844,1.167-1.365,2.582-2.16,3.798c-0.497,0.745-0.894,1.763-2.11,1.638
		c-0.223-0.025-0.422-0.124-0.621-0.174c0.124-0.199,0.223-0.422,0.397-0.546c1.018-0.695,1.862-1.465,1.837-2.855
		c-0.025-0.869-0.521-1.465-1.216-1.638c-0.695-0.174-1.49,0.025-2.234,0.124c-0.248,0.025-0.472,0.223-0.695,0.348
		c0.099-0.223,0.149-0.472,0.273-0.695c0.695-1.216,0.844-2.805,2.433-3.401c0.447-2.359,2.458-2.284,4.146-2.681
		c1.44-0.323,2.905-0.596,4.369-0.869c2.632-0.372,3.922,1.291,5.437,2.656c0.745,0.695,1.663,1.167,2.458,1.812
		c0.869,0.695,1.713,1.44,2.532,2.234c1.192,1.167,2.383,2.135,4.245,2.284c2.135,0.149,4.22,0.77,6.355,1.192
		c0.149,0.025,0.397,0.223,0.422,0.372c0.199,1.663,0.372,3.327,0.521,4.99c0.174,2.036,0.298,4.096,0.497,6.132
		C109,198.439,108.653,198.737,107.883,198.811z M115.331,193.399c0,0.248-0.546,0.621-0.844,0.645
		c-0.919,0.099-1.837-0.025-2.731,0.075c-0.372,0.025-0.745,0.372-1.092,0.571c0.348,0.223,0.695,0.571,1.068,0.596
		c0.869,0.099,1.738-0.025,2.607,0.074c0.273,0.025,0.77,0.422,0.745,0.621c-0.074,1.092-0.273,2.185-0.472,3.277
		c-0.074,0.546-0.372,0.919-1.043,0.794c-0.919-0.199-1.862-0.248-2.756-0.546c-0.372-0.124-0.844-0.67-0.869-1.043
		c-0.149-1.986-0.174-3.997-0.298-6.008c-0.05-0.869,0.248-1.117,1.117-1.142c0.844,0,1.663-0.298,2.507-0.447
		c-0.124-0.422-0.348-0.943-0.596-0.968c-0.869-0.025-1.763,0.199-2.632,0.174c-0.372,0-0.745-0.348-1.117-0.546
		c0.248-0.298,0.472-0.819,0.794-0.869c1.018-0.174,2.061-0.273,3.103-0.248c0.67,0,1.043-0.273,0.993-0.819
		c0-0.248-0.621-0.695-0.919-0.67c-1.068,0.099-2.21-0.472-3.178,0.422c-0.099,0.074-0.695-0.397-1.043-0.621
		c0.298-0.447,0.521-1.192,0.919-1.266c1.763-0.372,3.575-0.571,5.387-0.77c0.174-0.025,0.621,0.323,0.621,0.497
		C115.554,187.913,115.48,190.668,115.331,193.399z"/>
	<path class="path" fill="none" stroke="#000" stroke-width="1" d="M252.88,168.989c-0.263-0.253-0.505-0.537-0.78-0.78c-0.018,0.012-0.034,0.036-0.052,0.041
		c-1.415,0.422-2.855,1.142-4.295,1.192c-2.284,0.05-4.295,0.894-6.132,1.912c-1.787,0.993-3.55,1.49-5.511,1.365
		c-1.713-0.099-3.451-0.521-5.164-0.422c-1.688,0.074-3.352,0.621-5.04,0.993c-1.465,0.298-3.078,0.372-4.394,1.043
		c-1.291,0.645-2.656,0.621-3.649,0.273c-1.862-0.621-3.649-0.695-5.462-0.348c-1.092,0.199-2.185,0.67-3.178,1.241
		c-1.738,0.968-3.401,1.514-5.263,0.248c-0.646-0.447-1.539-0.794-2.284-0.72c-0.844,0.124-1.713,0.67-2.458,1.167
		c-1.018,0.646-2.532,0.919-3.178,0.596c-1.266-0.67-2.582-1.316-3.947-1.763c-0.447-0.149-1.068,0.397-1.614,0.422
		c-2.756,0.05-4.891,1.862-7.423,2.507c-0.645,0.174-1.291,0.447-1.837,0.844c-0.968,0.67-1.564,0.497-2.085-0.447
		c-0.323-0.596-0.993-1.043-1.614-1.365c-0.72-0.397-1.514-0.348-2.358-0.05c-2.234,0.72-4.593-0.05-6.902,0.67
		c-1.614,0.497-3.426,0.422-5.139,0.745c-1.887,0.348-3.848,0.422-5.784,0.745c-2.21,0.372-4.518,0.124-6.728,0.794
		c-1.539,0.447-3.178,0.571-4.791,0.77c-2.408,0.298-4.841,0.521-7.249,0.745c-0.248,0.025-0.497,0-0.745,0.025
		c-1.837,0.248-3.674,0.546-5.536,0.695c-0.571,0.05-1.192-0.447-1.763-0.422c-1.291,0.05-2.085-0.819-2.805-1.564
		c-0.596-0.646-1.167-0.943-1.961-0.943c-1.043-0.025-2.085-0.074-3.103,0c-0.77,0.074-1.564,0.248-2.234,0.571
		c-1.695,0.824-3.474,1.5-4.861,2.816c0.318,0.367,0.667,0.699,1.091,0.963c0.217-0.514,0.78-0.793,1.909-1.147
		c0.149-0.025,0.273-0.149,0.397-0.223c1.837-1.291,3.848-2.085,6.107-1.713c0.77,0.124,1.663,0.372,2.185,0.894
		c1.316,1.316,2.905,2.036,4.643,1.986c2.16-0.05,4.345-0.149,6.529-0.596c2.11-0.422,4.345-0.124,6.504-0.794
		c1.465-0.447,3.004-0.571,4.518-0.77c2.259-0.298,4.518-0.472,6.778-0.77c1.639-0.223,3.252-0.149,4.916-0.646
		c1.887-0.596,3.972-0.621,5.958-0.819c1.241-0.124,2.483-0.099,3.699-0.199c1.961-0.174,3.923-0.397,5.884-0.521
		c0.397-0.025,0.943,0.174,1.241,0.472c0.348,0.348,0.472,0.968,0.819,1.365c0.323,0.372,0.869,0.869,1.241,0.794
		c0.794-0.149,1.539-0.621,2.309-0.943c1.415-0.596,2.83-1.167,4.245-1.763c1.117-0.472,2.234-1.142,3.401-1.341
		c1.142-0.199,2.408-0.025,3.55,0.223c1.117,0.223,2.135,0.844,3.252,1.142c1.465,0.348,2.656-0.521,3.848-1.167
		c1.068-0.596,2.036-0.819,3.153,0c1.365,1.018,2.855,1.465,4.494,0.447c0.571-0.372,1.167-0.77,1.787-0.993
		c1.142-0.397,2.284-0.77,3.451-0.968c0.894-0.149,1.837-0.099,2.756-0.025c0.894,0.099,1.787,0.521,2.656,0.447
		c1.912-0.149,3.823-0.447,5.71-0.869c1.39-0.298,2.681-1.167,4.047-1.266c2.731-0.199,5.487-0.223,8.217,0
		c1.44,0.124,2.731-0.05,3.947-0.546c2.259-0.943,4.345-2.334,6.902-2.532c0.794-0.05,1.564-0.645,2.309-0.621
		c1.291,0.025,2.656-1.092,3.898,0.248c0.147,0.171,0.63,0.03,0.953,0.05C254.113,170.067,253.465,169.551,252.88,168.989z"/>
	<path class="path" fill="none" stroke="#000" stroke-width="1" d="M362.649,219.541c-0.273-2.259-0.72-4.494-0.993-6.778c-0.174-1.663-0.174-3.352-0.248-5.015
		c-0.174-2.681-0.323-5.362-0.521-8.044c-0.075-1.068-0.223-2.11-0.397-3.178c-0.323-1.986-1.117-3.898-0.844-5.983
		c0.124-1.018,0.025-2.061,0.025-3.103c0-0.248-0.074-0.546,0.05-0.72c0.844-1.316,0.819-2.756,0.397-4.121
		c-0.794-2.582-1.738-5.139-2.706-7.671c-0.993-2.607-2.234-5.139-3.128-7.771c-0.695-2.061-1.912-3.6-3.625-4.767
		c-1.142-0.794-2.358-1.44-3.575-2.11c-2.632-1.415-5.238-2.83-7.895-4.171c-1.812-0.919-3.649-1.812-5.536-2.507
		c-1.837-0.695-3.699-1.341-5.636-1.688c-2.234-0.372-3.947-1.39-5.387-3.128c-1.291-1.564-2.88-2.93-5.164-2.334
		c-1.266,0.323-2.408,0.348-3.5-0.397c-0.174-0.124-0.546-0.149-0.645-0.05c-1.216,1.117-1.043,0.099-1.092-0.67
		c0-0.174-0.199-0.348-0.199-0.521c-0.099-0.695-0.397-1.514-0.149-2.061c0.77-1.713,1.291-3.426,0.844-5.313
		c-0.05-0.248-0.223-0.472-0.348-0.695c-0.124,0.223-0.348,0.447-0.372,0.67c-0.298,2.16-0.223,4.419-2.234,5.909
		c-0.124,0.099-0.099,0.397-0.149,0.596c0.273,0,0.546,0.05,0.794,0c0.348-0.074,0.546-0.248,0.621,0.372
		c0.099,0.695,0.497,1.365,0.745,2.036c0.025,0.099,0,0.298-0.074,0.323c-1.986,0.77-4.022,1.44-6.008,2.259
		c-2.681,1.117-5.288,2.458-8.019,3.426c-2.632,0.943-5.387,1.539-8.118,2.259c-1.316,0.348-2.632,0.646-3.947,0.943
		c-1.961,0.447-3.923,0.894-5.909,1.291c-2.532,0.521-4.469-0.844-6.43-2.11c-0.149-0.099-0.174-0.348-0.248-0.497
		c-0.993-1.862-0.372-3.774-0.223-5.66c0.199-2.359,0.819-4.667,0.869-7.026c0.099-4.196-0.124-8.416-0.149-12.612
		c-0.05-3.178-0.025-6.356,0-9.508c0-0.273,0.075-0.546,0.124-0.819c0.298-1.614,0.745-3.227,0.819-4.866
		c0.099-2.185-0.099-4.394-0.223-6.604c-0.025-1.018-0.099-2.036-0.248-3.029c-0.298-2.383-0.894-4.767-0.919-7.175
		c-0.124-5.76-0.223-11.544,1.117-17.229c0.521-2.135,0.422-4.419,0.546-6.629c0.099-1.465-0.447-2.805-1.39-3.873
		c-0.968-1.068-2.11-1.986-3.178-2.954c-0.397-0.348-0.77-0.695-1.216-0.943c-1.465-0.844-2.979-1.589-4.419-2.483
		c-1.763-1.117-3.476-2.334-5.189-3.55c-0.223-0.149-0.397-0.472-0.447-0.745c-0.025-0.124,0.273-0.447,0.447-0.472
		c1.564-0.199,3.153-0.397,4.742-0.472c0.645-0.025,1.266,0.422,1.912,0.447c2.284,0.05,4.568,0.025,6.877,0
		c0.372,0,0.72-0.248,1.092-0.323c1.216-0.223,2.532-0.993,3.575,0.074c1.39,1.39,3.227,1.415,4.891,1.688
		c2.383,0.397,4.692-0.472,7.001-1.092c1.415-0.397,2.805-0.968,4.22-1.49c0.968-0.348,2.805,0,3.352,0.695
		c0.422,0.596,0.77,1.266,1.142,1.887c0.745,1.216,1.291,2.557,2.632,3.302c0.819,0.472,1.589,1.117,2.259,1.763
		c1.514,1.465,3.078,2.855,4.345,4.494c1.241,1.589,2.359,3.327,3.054,5.189c1.192,3.153,1.837,6.529,3.004,9.682
		c1.316,3.451,3.029,6.753,4.494,10.179c0.993,2.309,1.912,4.667,2.731,7.051c0.77,2.259,1.39,4.568,1.986,6.877
		c0.273,1.018,0.571,2.11,0.472,3.128c-0.273,2.259-0.72,4.494-1.241,6.703c-0.223,1.018-0.72,2.036-1.266,2.929
		c-1.018,1.639-2.21,3.203-3.302,4.816c-1.018,1.514-2.061,3.029-3.078,4.568c-1.415,2.135-2.855,4.27-4.171,6.455
		c-0.273,0.497-0.099,1.241-0.124,1.887c0.273-0.472,0.571-0.943,0.844-1.415c0.05-0.074,0.124-0.099,0.174-0.174
		c1.787-2.532,3.6-5.04,5.362-7.597c1.763-2.557,3.451-5.189,5.288-7.721c1.167-1.614,1.688-3.376,1.812-5.338
		c0.099-1.39,0.174-2.805,0.521-4.121c0.372-1.365,0.124-2.557-0.273-3.923c-0.174-0.794-0.298-1.465-0.497-2.11
		c-0.894-2.905-1.763-5.809-2.756-8.664s-1.912-5.76-3.277-8.441c-1.192-2.309-2.532-4.469-3.029-7.075
		c-0.199-1.043-0.794-1.986-1.117-3.004c-0.72-2.234-1.092-4.643-2.185-6.653c-1.44-2.632-3.451-4.965-5.288-7.349
		c-0.497-0.67-1.192-1.291-1.912-1.614c-1.614-0.72-2.781-1.887-3.774-3.227c-0.819-1.117-1.49-2.358-2.259-3.525
		c-0.67-1.043-3.823-1.266-5.288-0.546c-1.465,0.695-2.979,1.44-4.568,1.738c-1.837,0.348-3.749,0.323-5.635,0.273
		c-1.663-0.025-3.302-0.323-4.469-1.713c-0.745-0.844-1.713-0.546-2.507-0.422c-1.787,0.298-3.55,0.993-5.338,1.117
		c-1.638,0.124-3.352-0.099-4.99-0.472c-2.036-0.472-3.923,0.074-5.66,0.844c-1.812,0.794-3.55,0.397-5.288,0.372
		c-1.291-0.05-2.557-1.117-3.823-1.092c-2.085,0.025-3.376-1.589-5.263-2.036c-1.812-0.422-4.096-0.223-5.214,1.291
		c-0.521,0.695-1.167,1.316-1.738,1.986c-1.44,1.713-3.277,3.029-4.369,5.065c-1.812,3.327-3.327,6.629-3.153,10.526
		c0.05,1.216-0.372,2.458-0.596,3.699c-0.596,3.227-1.365,6.43-1.812,9.682c-0.372,2.781-0.422,5.636-0.521,8.466
		c-0.119,4.08-0.211,8.183-0.241,12.287c0.398-0.019,0.796-0.043,1.195-0.076c0.211-0.627,0.624-1.127,1.33-1.486
		c0.298-0.174,0.745-0.124,0.968-0.348c1.291-1.241,2.805-0.819,4.22-0.546c1.713,0.323,3.376,0.844,5.04,1.316
		c1.192,0.323,2.383,0.645,3.55,1.043c1.713,0.596,3.401,1.44,5.164,1.887c2.483,0.646,5.04,1.043,7.572,1.514
		c0.521,0.124,1.192,0.025,1.589,0.298c1.39,1.018,3.103,0.894,4.593,1.092c3.103,0.447,6.306,0.323,9.459,0.323
		c0.968,0,1.365,0.149,1.241,1.241c-0.298,3.029-0.621,6.107-0.72,9.161c-0.074,2.905,0.174,5.809,0.199,8.714
		c0.05,3.649,0.149,7.299-0.025,10.948c-0.124,2.632-0.571,5.288-1.043,7.895c-0.372,2.135-0.273,4.071,1.589,5.487
		c0.422,0.323,1.018,0.422,1.49,0.695c0.174,0.099,0.372,0.447,0.323,0.571c-0.099,0.223-0.397,0.497-0.621,0.497
		c-2.259-0.174-4.295,0.621-6.331,1.514c-2.061,0.894-3.55,2.532-3.972,4.618c-0.646,3.054-0.745,6.231-1.068,9.384
		c-0.323,2.83-0.521,5.71-1.043,8.515c-0.596,3.178-1.465,6.306-2.284,9.459c-0.397,1.49-0.993,2.905-1.39,4.394
		c-0.323,1.291-0.521,2.607-0.695,3.922c-0.298,2.036-0.695,4.072-0.77,6.132c-0.074,2.557,0,5.089,0.372,7.671
		c0.323,2.284-0.223,4.692-0.348,7.051c-0.174,2.681-0.298,5.387-0.447,8.093c-0.025,0.223-0.124,0.472-0.05,0.67
		c0.074,0.223,0.298,0.397,0.472,0.596c0.149-0.174,0.397-0.323,0.447-0.497c0.199-0.919,0.422-1.862,0.497-2.781
		c0.149-1.961,0.223-3.898,0.248-5.859c0.075-3.426,0.025-6.852,0.099-10.303c0.099-3.5,0-7.051,0.546-10.526
		c0.521-3.352,1.738-6.629,2.582-9.955c0.72-2.756,1.465-5.536,1.961-8.366c0.497-2.805,0.72-5.66,1.018-8.515
		c0.273-2.458,0.447-4.916,0.794-7.373c0.223-1.663,0.571-3.401,2.21-4.394c0.67-0.422,1.341-0.894,2.085-1.142
		c1.564-0.521,3.203-0.844,4.791-1.316c0.646-0.174,1.291-0.72,1.912-0.695c4.022,0.199,7.845-0.645,11.668-1.738
		c0.447-0.149,0.968-0.074,1.415-0.199c1.142-0.323,2.259-0.77,3.401-1.068c1.539-0.397,3.153-0.571,4.642-1.068
		c1.514-0.497,2.93-1.316,4.419-1.912c2.259-0.894,4.543-1.713,6.827-2.582c0.67-0.248,1.415-0.422,2.011-0.794
		c1.266-0.77,2.483-1.44,4.047-1.117c0.844,0.174,1.787,0.447,2.532,0.199c1.787-0.596,3.153-0.223,4.369,1.167
		c0.596,0.67,1.241,1.291,1.912,1.912c1.514,1.465,3.376,2.11,5.437,2.483c1.539,0.273,3.054,0.77,4.518,1.316
		c2.036,0.794,4.022,1.663,5.958,2.632c2.507,1.266,4.94,2.656,7.398,3.997c1.142,0.621,2.334,1.216,3.376,1.986
		c0.968,0.67,2.085,1.415,2.607,2.408c1.092,2.011,1.862,4.196,2.731,6.306c0.372,0.894,0.72,1.763,1.043,2.656
		c0.546,1.49,0.968,3.029,1.614,4.444c1.043,2.185,1.266,4.469,1.142,6.852c-0.124,2.557-0.372,5.139-0.199,7.696
		c0.149,2.21,0.919,4.369,1.142,6.579c0.323,3.227,0.372,6.48,0.546,9.732c0.05,0.77,0.124,1.539,0.223,2.309
		c0.323,2.284,0.695,4.593,0.993,6.902c0.223,1.539,0.348,3.078,0.521,4.618c0.025,0.199,0.174,0.348,0.273,0.546
		c0.149-0.174,0.447-0.348,0.447-0.497C362.823,222.446,362.823,220.981,362.649,219.541z M231.964,96.974
		c-0.273,2.011,0.372,4.121-0.621,6.082c-0.596,1.167-1.539,1.763-2.607,2.284c-0.05,0.025-0.621-0.596-0.621-0.919
		c0-1.564,0.149-3.153,0.199-4.742c0.099-2.681,0.124-5.387,0.298-8.068c0.124-2.135,0.472-4.27,0.72-6.38
		c0.099-0.621,0.223-0.993,0.348-1.365c0.149,0.298,0.273,0.596,0.422,0.894c0.348,0.695,0.77,1.341,1.043,2.061
		c0.348,0.894,0.819,1.812,0.869,2.731C232.138,92.009,232.312,94.541,231.964,96.974z M271.835,111.647
		c-2.061-0.099-4.146-0.199-6.207-0.422c-3.128-0.372-6.256-0.745-9.359-1.341c-3.153-0.596-6.256-1.365-9.359-2.234
		c-1.564-0.447-2.979-1.365-4.543-1.887c-1.341-0.472-2.756-0.67-4.146-1.068c-1.266-0.348-2.483-0.794-3.749-1.142
		c-0.372-0.099-0.794-0.124-1.192-0.075c-0.894,0.124-0.919-0.447-0.645-0.943c1.514-2.632,3.078-5.263,4.642-7.87
		c0.348-1.018,0.596-1.837,1.068-2.532c1.514-2.309,1.192-3.823-0.298-5.561c-0.844-0.993-1.092-2.135-1.539-3.227
		c-0.099-0.273-0.323-0.497-0.472-0.72c-0.099,0.223-0.174,0.472-0.323,0.646c-0.993,1.39,0.447,1.961,0.943,2.83
		c0.521,0.869,1.117,1.688,1.589,2.582c0.521,0.943-0.05,1.738-0.497,2.532c-1.291,2.234-2.532,4.494-3.798,6.753
		c-0.298,0.546-0.05,1.44-1.043,1.514c-0.025-0.621-0.124-1.241-0.099-1.837c0.075-2.557,0.149-5.089,0.248-7.646
		c0.025-0.223,0.223-0.67,0.273-0.645c0.844,0.174,1.639,0.397,2.458,0.596c0.571,0.124,1.142,0.248,1.713,0.348
		c0.025,0,0.174-0.397,0.124-0.472c-0.422-0.447-0.819-0.968-1.341-1.216c-0.794-0.372-1.688-0.521-2.532-0.794
		c-0.372-0.124-0.869-0.248-1.092-0.546c-0.695-0.894-1.266-1.862-1.837-2.855c-0.397-0.67-0.919-1.415-0.943-2.16
		c-0.025-1.018,0.372-2.061,0.546-3.103c0.397-2.433,0.869-4.891,1.092-7.349c0.223-2.234,0.894-4.27,1.837-6.331
		c0.894-1.986,2.21-3.525,3.774-4.99c1.266-1.192,2.358-2.607,3.5-3.947c1.018-1.216,2.185-1.49,3.649-0.819
		c0.621,0.298,1.291,0.472,1.936,0.72c1.142,0.422,1.49,1.341,1.49,2.458c0,0.223,0.025,0.497,0.174,0.645
		c0.124,0.149,0.422,0.174,0.646,0.248c-0.025-0.199,0.025-0.397-0.025-0.571c-0.397-0.919-0.67-1.564,0.869-1.216
		c1.986,0.447,4.047,0.645,6.058,0.943c0.323,0.05,0.67,0.124,0.968,0.075c1.291-0.248,2.036,0.497,2.954,1.266
		c1.738,1.465,3.649,2.781,5.611,3.923c1.688,0.968,3.649,1.514,4.99,3.054c0.099,0.124,0.223,0.248,0.323,0.348
		c-0.074,0.05-0.149,0.074-0.199,0.124c-0.298,0.099-0.67,0.372-0.819,0.273c-1.365-0.794-2.706-1.663-4.047-2.507
		c-0.248-0.149-0.596-0.223-0.894-0.248c-0.323,0-0.646,0.124-0.968,0.199c0.223,0.124,0.497,0.248,0.72,0.397
		c1.688,1.092,3.352,2.234,5.065,3.277c0.323,0.199,0.869,0.075,1.316,0.075c1.49,0.025,2.011,0.521,2.607,1.936
		c0.819,2.011,0.372,4.022,0.199,6.033c-0.149,1.688-0.621,3.352-0.695,5.04c-0.248,4.94-0.546,9.881-0.472,14.796
		c0.05,3.749,0.596,7.497,0.943,11.246c0.05,0.596,0.149,1.192,0.248,1.763C273.473,111.448,273.3,111.721,271.835,111.647z"/>
	<path class="path" fill="none" stroke="#000" stroke-width="1" d="M252.843,167.034c-0.645-1.241-1.092-2.607-1.688-3.898c-0.546-1.216-1.216-2.383-1.713-3.625
		c-1.092-2.681-3.103-4.667-4.965-6.753c-1.068-1.192-2.632-2.135-3.128-3.5c-1.068-2.954-3.376-4.791-5.362-6.877
		c-1.688-1.787-2.954-3.823-3.848-5.983c-0.993-2.383-1.39-5.015-1.341-7.646c0.025-2.458-0.596-4.767-1.638-7.001
		c-0.919-1.986-0.894-4.146-0.844-6.281c0.05-2.011,0.074-4.047-0.149-6.033c-0.076-0.691-0.049-1.293,0.104-1.813
		c-0.389,0.032-0.778,0.055-1.166,0.074c-0.001,0.158-0.005,0.315-0.006,0.473c0,1.986,0.174,3.997,0.223,6.008
		c0.05,1.44-0.124,2.88,0.05,4.295c0.199,1.713,0.348,3.525,1.092,4.99c0.993,1.936,1.092,3.923,1.341,5.909
		c0.174,1.44,0.05,2.93,0.298,4.369c0.621,3.525,2.408,6.554,4.791,9.161c1.887,2.061,3.873,3.997,5.288,6.48
		c0.869,1.539,1.912,3.054,3.252,4.171c1.787,1.514,3.302,3.302,4.444,5.214c1.713,2.929,2.954,6.132,4.369,9.235
		c0.014,0.028-0.023,0.091-0.073,0.15c0.193,0.172,0.375,0.357,0.554,0.543c0.605,0.629,1.306,1.214,2.11,1.569
		c-0.082-0.256-0.157-0.508-0.307-0.722C253.985,168.697,253.29,167.927,252.843,167.034z"/>
	<path class="path" fill="none" stroke="#000" stroke-width="1" d="M11.905,162.491c0.025-0.074,0.099-0.074,0.174-0.074C12.029,162.466,12.005,162.515,11.905,162.491
		"/>
	<path class="path" fill="none" stroke="#000" stroke-width="1" d="M237.029,72.198c0.149-0.05,0.323,0.025,0.472,0.124C237.351,72.322,237.178,72.322,237.029,72.198"
		/>
	<path class="path" fill="none" stroke="#000" stroke-width="1" d="M106.865,191.785c-0.074,0-0.074-0.074-0.074-0.149C106.84,191.661,106.89,191.686,106.865,191.785"
		/>
	<path class="path" fill="none" stroke="#000" stroke-width="1" d="M293.632,250.45c-0.397,0.223-0.77,0.348-1.167,0.447c-0.025-0.149-0.05-0.298-0.074-0.447
		C292.788,250.4,293.21,250.35,293.632,250.45"/>
	<path class="path" fill="none" stroke="#000" stroke-width="1" d="M256.939,60.828c0.273,0,0.472,0.05,0.695,0.099c-0.05,0.099-0.074,0.199-0.099,0.298
		C257.312,61.125,257.088,61.001,256.939,60.828"/>
	<path class="path" fill="none" stroke="#000" stroke-width="1" d="M237.029,71.453c-0.174,0-0.348-0.124-0.497-0.273c-0.025,0,0.05-0.124,0.074-0.199
		C236.731,71.106,236.88,71.205,237.029,71.453"/>
	<path class="path" fill="none" stroke="#000" stroke-width="1" d="M101.478,187.441c0.099,0.124,0.223,0.273,0.323,0.472c0,0-0.149,0.124-0.248,0.174
		C101.528,187.888,101.503,187.689,101.478,187.441"/>
	<path class="path" fill="none" stroke="#000" stroke-width="1" d="M106.245,188.682c0.099,0.149,0.124,0.372,0.174,0.571c0,0.025-0.124,0.05-0.174,0.05
		C106.22,189.129,106.195,188.93,106.245,188.682"/>
	<path class="path" fill="none" stroke="#000" stroke-width="1" d="M101.478,187.317c-0.074-0.074-0.174-0.199-0.248-0.323c0.074-0.025,0.124-0.05,0.174-0.05
		C101.428,187.044,101.453,187.143,101.478,187.317"/>
	<path class="path" fill="none" stroke="#000" stroke-width="1" d="M74.84,206.805c-0.074,0.099-0.199,0.124-0.323,0.149c0,0-0.025-0.099-0.05-0.149
		C74.566,206.78,74.666,206.756,74.84,206.805"/>
	<path class="path" fill="none" stroke="#000" stroke-width="1" d="M246.885,68.151c-0.819,0.77-1.241,0-1.465-0.422c-0.298-0.546-0.298-1.241-0.447-1.887
		c0.149-0.025,0.372-0.099,0.422-0.025C245.916,66.562,246.438,67.332,246.885,68.151"/>
	<path class="path" fill="none" stroke="#000" stroke-width="1" d="M234.472,94.467c-0.199-0.348-1.465-0.199-0.67-1.018c0.323-0.323,0.993-0.273,1.514-0.397
		c0.025,0.248,0.149,0.571,0.05,0.745C235.167,94.045,234.819,94.194,234.472,94.467"/>
	<path class="path" fill="none" stroke="#000" stroke-width="1" d="M267.242,88.633c0.074,0.472,0.05,0.894,0.05,1.316c-0.323,0-0.695,0.074-0.968-0.05
		c-0.223-0.099-0.323-0.472-0.472-0.745C266.299,88.956,266.746,88.782,267.242,88.633"/>
	<path class="path" fill="none" stroke="#000" stroke-width="1" d="M110.589,198.116c0.77-1.092,1.936-1.068,3.078-1.043c0.124,0.025,0.397,0.397,0.372,0.422
		c-0.223,0.298-0.472,0.745-0.745,0.77C112.426,198.315,111.533,198.215,110.589,198.116"/>
	<path class="path" fill="none" stroke="#000" stroke-width="1" d="M64.487,169.02c-0.298,0-0.447,0-0.621-0.025c-0.273-0.025-0.571-0.074-0.844-0.124
		c0.074-0.174,0.149-0.472,0.248-0.497c0.323-0.05,0.67-0.05,0.968,0.05C64.413,168.499,64.487,168.821,64.487,169.02"/>
	<path class="path" fill="none" stroke="#000" stroke-width="1" d="M242.292,69.889c-0.943-1.812-1.936-3.575-1.291-5.66c0.05-0.149,0.124-0.273,0.174-0.422
		c0.099,0.124,0.298,0.248,0.298,0.372c-0.05,1.713,0.77,3.128,1.415,4.618C243.037,69.119,243.483,70.013,242.292,69.889"/>
	<path class="path" fill="none" stroke="#000" stroke-width="1" d="M240.802,61.2c0.099-1.266,0.248-2.458,0.447-3.649c0.025-0.174,0.273-0.298,0.422-0.447
		c0.099,0.124,0.323,0.248,0.298,0.348c-0.248,1.241-0.497,2.483-0.77,3.724C241.175,61.225,240.976,61.225,240.802,61.2"/>
	<path class="path" fill="none" stroke="#000" stroke-width="1" d="M264.884,87.143c0.497-0.546,0.695-1.341,1.589-1.043c0.124,0.05,0.273,0.372,0.248,0.422
		c-0.546,0.695-1.142,1.341-1.738,1.986c-0.025,0.025-0.397-0.124-0.397-0.174C264.635,87.963,264.735,87.59,264.884,87.143"/>
	<path class="path" fill="none" stroke="#000" stroke-width="1" d="M254.829,61.821c-0.124-0.397-0.199-0.72-0.273-1.043c0.348,0.174,0.67,0.348,0.993,0.546
		c0.074,0.05,0.074,0.223,0.099,0.323c0.149,0.422,0.298,0.844,0.447,1.266C255.698,62.565,255.301,62.218,254.829,61.821"/>
	<path class="path" fill="none" stroke="#000" stroke-width="1" d="M71.612,196.751c0.67,0.372,1.266,0.794,1.862,1.241c0.074,0.05,0.074,0.174,0.099,0.273
		c-0.571-0.05-1.192-0.025-1.713-0.199c-0.298-0.099-0.447-0.596-0.645-0.919C71.19,197.123,71.438,196.924,71.612,196.751"/>
	<path class="path" fill="none" stroke="#000" stroke-width="1" d="M238.27,70.957c-0.794-1.514-1.49-3.004-2.11-4.518c-0.099-0.199,0.248-0.571,0.397-0.844
		c0.149,0.149,0.372,0.273,0.447,0.472c0.72,1.514,1.39,3.054,2.085,4.593c0.025,0.099,0,0.223-0.025,0.348
		C238.841,70.981,238.618,70.957,238.27,70.957"/>
	<path class="path" fill="none" stroke="#000" stroke-width="1" d="M231.07,83.121c-0.124-0.72,0.199-0.819,0.67-0.77c0.794,0.099,1.589,0.149,2.358,0.273
		c0.174,0.025,0.372,0.223,0.422,0.372c0.199,0.497,0.323,0.993,0.497,1.514c-0.497-0.149-0.993-0.248-1.49-0.422
		C232.709,83.817,231.89,83.519,231.07,83.121"/>
	<path class="path" fill="none" stroke="#000" stroke-width="1" d="M249.243,61.821c0.447-0.67,0.819-1.316,1.192-1.912c0.074-0.149,0.199-0.248,0.298-0.372
		c0.074,0.124,0.149,0.248,0.174,0.372c0.099,0.521,0.223,1.068,0.248,1.614c0,0.323-0.248,0.943-0.273,0.943
		C250.286,62.342,249.417,62.963,249.243,61.821"/>
	<path class="path" fill="none" stroke="#000" stroke-width="1" d="M251.18,64.75c0.397,0.372,0.695,0.745,0.993,1.117c0.149,0.174,0.298,0.348,0.447,0.521
		c-0.273,0.025-0.546,0.124-0.819,0.074c-0.323-0.074-0.621-0.273-0.943-0.422c-0.372-0.149-0.77-0.273-1.167-0.422
		C250.137,65.321,250.584,65.023,251.18,64.75"/>
	<path class="path" fill="none" stroke="#000" stroke-width="1" d="M234.844,71.379c0.298,0.447,0.546,0.844,0.745,1.241c0.074,0.149,0.025,0.372,0.025,0.571
		c-0.223-0.074-0.596-0.099-0.621-0.223c-0.174-0.546-0.273-1.142-0.372-1.738c0.025,0,0.05,0,0.074,0
		C234.745,71.255,234.77,71.279,234.844,71.379"/>
	<path class="path" fill="none" stroke="#000" stroke-width="1" d="M88.494,194.144c0.025-0.472,0.124-0.869,0.223-1.266c0.273,0.273,0.645,0.546,0.819,0.894
		c0.323,0.621,0.571,1.316,0.819,1.986c0.05,0.174-0.074,0.372-0.124,0.571c-0.174-0.099-0.422-0.124-0.521-0.248
		C89.288,195.46,88.941,194.839,88.494,194.144"/>
	<path class="path" fill="none" stroke="#000" stroke-width="1" d="M288.344,126.493c-0.273,0.025-0.645,0-0.645-0.025c-0.05-1.142-0.099-2.259-0.025-3.376
		c0.074-0.943,0.298-1.862,0.497-2.781c0.05-0.174,0.223-0.298,0.348-0.447c0.149,0.124,0.372,0.248,0.422,0.397
		c0.099,0.497,0.199,1.018,0.149,1.514C288.89,123.315,288.642,124.879,288.344,126.493"/>
	<path class="path" fill="none" stroke="#000" stroke-width="1" d="M253.414,142.456c-0.174-1.043-0.372-1.961-0.472-2.88c-0.025-0.273,0.273-0.571,0.447-0.844
		c0.248,0.273,0.695,0.521,0.72,0.819c0.174,1.44,0.223,2.88,0.273,4.32c0.025,0.174-0.074,0.372-0.124,0.546
		c-0.124-0.124-0.348-0.248-0.422-0.422C253.662,143.523,253.538,143.052,253.414,142.456"/>
	<path class="path" fill="none" stroke="#000" stroke-width="1" d="M254.953,67.158c-0.77-0.372-1.341-0.77-1.564-1.614c-0.149-0.546-0.571-0.993-0.794-1.514
		c-0.099-0.223-0.05-0.497-0.074-0.77c0.199,0.124,0.447,0.174,0.596,0.323c0.794,0.869,1.564,1.738,2.358,2.607
		c0.199,0.223,0.422,0.447,0.645,0.67C255.748,66.984,255.375,67.109,254.953,67.158"/>
	<path class="path" fill="none" stroke="#000" stroke-width="1" d="M245.966,96.528c-0.099-0.77-0.223-1.39-0.223-2.011c0-0.248,0.273-0.497,0.447-0.72
		c0.174,0.223,0.447,0.422,0.497,0.67c0.124,0.745,0.199,1.49,0.248,2.234c0.025,0.273-0.074,0.546-0.124,0.819
		c-0.199-0.223-0.397-0.422-0.596-0.621C246.115,96.825,246.041,96.726,245.966,96.528"/>
	<path class="path" fill="none" stroke="#000" stroke-width="1" d="M242.987,59.04c0.174-0.72,0.323-1.316,0.521-1.887c0.05-0.149,0.223-0.248,0.348-0.348
		c0.025,0.149,0.099,0.298,0.099,0.447c0.025,1.068,0.025,2.135,0,3.203c0,0.199-0.149,0.372-0.248,0.571
		c-0.149-0.174-0.397-0.298-0.472-0.497C243.111,60.083,243.061,59.611,242.987,59.04"/>
	<path class="path" fill="none" stroke="#000" stroke-width="1" d="M245.47,59.04c0-0.248-0.05-0.397,0-0.497c0.099-0.348,0.223-0.645,0.348-0.968
		c0.124,0.323,0.273,0.67,0.372,1.018c0.124,0.397,0.199,0.819,0.248,1.241c0.025,0.223-0.074,0.447-0.124,0.695
		c-0.149-0.149-0.323-0.273-0.397-0.447C245.743,59.785,245.619,59.462,245.47,59.04"/>
	<path class="path" fill="none" stroke="#000" stroke-width="1" d="M344.327,195.137c0.745-1.887,1.415-3.724,2.085-5.561c0.074-0.174,0.273-0.298,0.397-0.447
		c0.149,0.174,0.372,0.323,0.422,0.521c0.074,0.323,0.124,0.695,0,0.993c-1.117,2.756-1.887,5.685-3.625,8.168
		c-0.124,0.223-0.422,0.323-0.621,0.497c-0.074-0.298-0.273-0.645-0.174-0.869C343.26,197.346,343.781,196.279,344.327,195.137"/>
	<path class="path" fill="none" stroke="#000" stroke-width="1" d="M186.061,191.289c0.223-0.298,0.298-0.571,0.521-0.72c0.447-0.348,0.943-0.621,1.44-0.919
		c-0.199,0.596-0.248,1.316-0.621,1.738c-1.589,1.812-3.426,3.327-5.387,4.692c-0.248,0.174-0.521,0.298-0.77,0.447
		c0.025-0.422-0.099-0.993,0.124-1.241c0.844-0.869,1.763-1.663,2.681-2.433C184.67,192.307,185.341,191.86,186.061,191.289"/>
	<path class="path" fill="none" stroke="#000" stroke-width="1" d="M262.848,84.114c1.291,0,1.514,0.298,1.192,1.39c-0.05,0.174-0.149,0.348-0.199,0.521
		c-0.298,0.894-0.273,0.869-0.919,0.323c-0.298-0.248-0.67-0.348-1.018-0.497c-0.348-0.174-0.993-0.372-0.993-0.521
		c0-0.67,0.223-1.341,0.348-2.011c0.199,0.074,0.397,0.099,0.596,0.199C262.153,83.692,262.426,83.916,262.848,84.114"/>
	<path class="path" fill="none" stroke="#000" stroke-width="1" d="M270.047,70.708c0.596,0.248,1.092,0.447,1.514,0.745c0.223,0.174,0.323,0.497,0.472,0.745
		c-0.248,0.074-0.521,0.273-0.72,0.223c-0.645-0.199-1.316-0.422-1.912-0.77c-1.316-0.745-2.607-1.589-3.898-2.408
		c-0.149-0.099-0.149-0.397-0.223-0.596c0.149,0.099,0.273,0.248,0.447,0.298C267.118,69.542,268.508,70.113,270.047,70.708"/>
	<path class="path" fill="none" stroke="#000" stroke-width="1" d="M242.987,66.488c-0.174-1.092-0.348-2.061-0.497-3.029c-0.025-0.149-0.025-0.298-0.025-0.447
		c0.174,0.099,0.447,0.174,0.497,0.298c0.199,0.67,0.521,1.365,0.472,2.011c-0.074,1.216,0.298,2.234,0.794,3.277
		c0.074,0.174,0.074,0.397,0.124,0.596c-0.149-0.124-0.323-0.248-0.397-0.397C243.608,68.077,243.31,67.332,242.987,66.488"/>
	<path class="path" fill="none" stroke="#000" stroke-width="1" d="M94.527,199.059c-0.372,0-0.67,0.05-0.869-0.025c-0.174-0.099-0.323-0.348-0.348-0.546
		c-0.025-0.124,0.199-0.397,0.348-0.422c1.887-0.124,3.55-0.894,5.263-1.564c0.223-0.074,0.472-0.199,0.67-0.174
		c0.298,0.05,0.571,0.223,0.844,0.323c-0.149,0.248-0.223,0.645-0.447,0.745C98.325,198.315,96.637,199.208,94.527,199.059"/>
	<path class="path" fill="none" stroke="#000" stroke-width="1" d="M200.336,187.565c0.099,0.919,0.447,1.936,0.124,2.632c-1.018,2.309-2.036,4.667-3.5,6.728
		c-1.539,2.185-3.575,4.022-5.412,6.008c-0.199,0.199-0.571,0.223-0.844,0.323c0.025-0.348-0.099-0.794,0.074-0.993
		c0.77-0.943,1.589-1.812,2.408-2.706c2.607-2.855,4.816-5.958,6.132-9.608c0.248-0.695,0.298-1.465,0.472-2.16
		C199.839,187.664,200.112,187.59,200.336,187.565"/>
	<path class="path" fill="none" stroke="#000" stroke-width="1" d="M241.497,179.695c0.397,1.589,0.844,3.054,1.216,4.543c0.099,0.323,0.025,0.695,0.025,1.018
		c-0.348-0.223-0.869-0.372-0.968-0.67c-0.497-1.415-0.894-2.855-1.266-4.295c-0.199-0.77-0.273-1.539-0.348-2.334
		c-0.05-0.422,0.05-0.869,0.099-1.316c0.025-0.074,0.323-0.199,0.348-0.174c0.149,0.174,0.323,0.372,0.372,0.571
		C241.175,177.883,241.324,178.727,241.497,179.695"/>
	<path class="path" fill="none" stroke="#000" stroke-width="1" d="M278.786,170.311c0.149-0.149,0.223-0.248,0.323-0.323c0.348-0.223,0.695-0.447,1.018-0.695
		c-0.025,0.348,0.025,0.72-0.099,1.018c-0.77,1.936-1.564,3.898-2.358,5.834c-0.794,1.936-1.589,3.898-2.433,5.809
		c-0.124,0.273-0.422,0.447-0.621,0.695c-0.124-0.298-0.397-0.621-0.323-0.844c0.348-1.167,0.745-2.334,1.216-3.476
		c0.794-1.986,1.639-3.947,2.458-5.909C278.265,171.751,278.488,171.056,278.786,170.311"/>
	<path class="path" fill="none" stroke="#000" stroke-width="1" d="M260.911,69.144c-0.223-0.323-0.372-0.571-0.521-0.844c0.273,0.05,0.621,0.025,0.844,0.174
		c0.819,0.521,1.564,1.167,2.408,1.639c2.309,1.39,4.642,2.731,7.001,4.022c0.497,0.248,1.167,0.273,1.738,0.273
		c0.571-0.025,0.819,0.248,0.596,0.67c-0.124,0.248-0.67,0.521-0.919,0.447c-1.018-0.323-2.036-0.72-2.979-1.216
		c-1.589-0.819-3.178-1.688-4.717-2.632C263.171,70.932,262.103,70.038,260.911,69.144"/>
	<path class="path" fill="none" stroke="#000" stroke-width="1" d="M296.909,85.778c0.521,1.043,1.018,1.986,1.39,2.979c0.099,0.273-0.174,0.67-0.298,1.018
		c-0.223-0.174-0.521-0.273-0.645-0.497c-1.117-2.011-2.284-4.022-3.252-6.107c-0.596-1.316-0.745-2.83-1.291-4.171
		c-0.844-2.135-1.862-4.196-2.756-6.306c-0.174-0.372-0.174-0.844-0.273-1.241c0.472,0.248,1.142,0.372,1.316,0.77
		c0.844,1.713,1.564,3.476,2.259,5.263c0.894,2.234,1.663,4.518,2.532,6.753C296.115,84.785,296.537,85.232,296.909,85.778"/>
	<path class="path" fill="none" stroke="#000" stroke-width="1" d="M142.193,186.15c0.124,2.234-0.497,4.196-1.167,6.207c-0.645,1.787-1.415,3.401-2.83,4.618
		c-0.645,0.546-1.564,0.869-2.408,1.117c-1.241,0.323-2.507,0.521-3.798,0.67c-0.298,0.05-0.645-0.372-0.968-0.571
		c0.323-0.298,0.596-0.745,0.968-0.844c0.67-0.199,1.415-0.199,2.11-0.298c3.625-0.497,4.841-1.763,5.884-5.511
		c0.521-1.887,1.49-3.649,1.216-5.71c-0.025-0.124,0.074-0.298,0.124-0.422C141.622,185.604,141.895,185.802,142.193,186.15"/>
	<path class="path" fill="none" stroke="#000" stroke-width="1" d="M243.037,189.055c1.043,1.216,2.061,2.358,3.029,3.525c0.397,0.472,0.794,0.968,1.117,1.514
		c0.099,0.149-0.025,0.447-0.074,0.695c-0.248-0.074-0.571-0.05-0.745-0.199c-0.596-0.546-1.216-1.092-1.738-1.713
		c-1.465-1.787-3.078-3.476-4.32-5.387c-1.142-1.812-3.054-3.203-3.327-5.511c-0.074-0.546,0.025-1.117,0.05-1.688
		c0.273,0.397,0.645,0.72,0.869,1.142c1.241,2.458,2.781,4.692,4.543,6.802C242.639,188.459,242.813,188.732,243.037,189.055"/>
	<path class="path" fill="none" stroke="#000" stroke-width="1" d="M338.369,171.552c-0.894,1.316-1.961,2.483-2.557,3.873c-0.894,2.135-2.756,3.873-2.731,6.405
		c0,0.323-0.298,0.67-0.447,0.993c-0.174-0.372-0.472-0.745-0.497-1.142c-0.074-0.497-0.074-1.092,0.149-1.514
		c0.993-2.085,1.936-4.196,3.153-6.132c1.415-2.234,3.078-4.32,4.692-6.43c0.298-0.397,0.894-0.596,1.39-0.819
		c0.074-0.025,0.447,0.248,0.447,0.298c-0.099,0.372-0.199,0.77-0.422,1.018c-0.645,0.745-1.39,1.39-2.061,2.085
		C339.114,170.609,338.791,171.056,338.369,171.552"/>
	<path class="path" fill="none" stroke="#000" stroke-width="1" d="M324.094,171.8c-1.266-1.316-2.458-2.557-3.649-3.823c-1.341-1.39-2.706-2.756-3.997-4.196
		c-1.465-1.663-2.83-3.401-4.22-5.114c-0.149-0.199-0.124-0.497-0.174-0.77c0.273,0.074,0.645,0.05,0.819,0.223
		c1.142,1.167,2.234,2.334,3.302,3.525c1.266,1.415,2.507,2.855,3.774,4.245c2.532,2.83,5.139,5.611,7.646,8.441
		c0.571,0.645,0.968,1.415,1.415,2.16c0.124,0.199,0.199,0.447,0.273,0.67c-0.273-0.099-0.645-0.099-0.819-0.298
		c-0.596-0.596-1.117-1.241-1.663-1.887C325.906,173.96,325.037,172.918,324.094,171.8"/>
	<path class="path" fill="none" stroke="#000" stroke-width="1" d="M211.011,197.992c-0.645-0.72-1.117-1.539-1.812-2.011c-1.639-1.142-2.656-2.929-3.054-4.543
		c-0.596-2.259-0.174-4.791-0.149-7.2c0-0.099,0.223-0.298,0.348-0.323c0.124,0,0.348,0.174,0.372,0.298
		c0.124,0.397,0.298,0.844,0.248,1.266c-0.199,1.986-0.199,4.022,0.571,5.884c0.521,1.291,1.465,2.483,2.433,3.55
		c1.862,2.036,3.898,3.923,5.834,5.909c0.174,0.149,0.199,0.447,0.273,0.67c-0.348,0.025-0.794,0.174-1.018,0.025
		c-0.794-0.621-1.514-1.316-2.259-1.986C212.227,199.035,211.656,198.538,211.011,197.992"/>
	<path class="path" fill="none" stroke="#000" stroke-width="1" d="M224.367,180.688c0.199-0.422,0.397-0.72,0.596-0.993c0.124,0.273,0.323,0.521,0.372,0.819
		c0.199,1.117,0.447,2.259,0.497,3.376c0.074,2.309,0.074,4.642,0,6.951c-0.05,1.589,0.844,2.483,2.036,3.252
		c0.869,0.521,1.688,1.092,2.507,1.688c0.199,0.149,0.298,0.447,0.422,0.67c-0.298,0.099-0.621,0.248-0.919,0.273
		c-0.273,0.025-0.621-0.025-0.794-0.174c-1.415-1.316-3.525-1.912-4.245-3.898c-0.348-0.968-0.422-2.085-0.447-3.153
		c-0.05-2.805-0.025-5.636-0.025-8.441C224.367,180.961,224.367,180.887,224.367,180.688"/>
	<path class="path" fill="none" stroke="#000" stroke-width="1" d="M321.239,219.342c0.099,2.656,0.149,5.238,0.174,7.82c0,0.223-0.248,0.447-0.397,0.695
		c-0.199-0.174-0.447-0.323-0.571-0.521c-0.149-0.273-0.248-0.596-0.248-0.894c-0.099-2.805-0.372-5.636-0.199-8.441
		c0.174-2.781,0.596-5.586,1.341-8.242c1.068-3.749,2.532-7.398,3.798-11.072c0.298-0.844,0.497-1.713,0.819-2.532
		c0.074-0.199,0.447-0.298,0.67-0.472c0.099,0.348,0.323,0.72,0.223,1.018c-0.248,0.819-0.67,1.614-0.943,2.458
		c-1.018,3.004-1.912,6.058-3.004,9.037c-0.943,2.557-1.49,5.139-1.49,7.845C321.413,217.108,321.264,218.2,321.239,219.342"/>
	<path class="path" fill="none" stroke="#000" stroke-width="1" d="M78.688,171.925c-0.099-0.248-0.248-0.497-0.199-0.645c0.273-0.596,0.77-1.142,0.844-1.738
		c0.124-0.894,0.571-1.216,1.341-1.589c0.968-0.422,1.713-0.546,2.607,0.05c0.869,0.596,1.092,1.44,1.068,2.433
		c-0.025,0.819-0.099,1.614-1.167,1.812c-0.199,0.05-0.372,0.298-0.596,0.348c-0.397,0.124-0.819,0.149-1.216,0.223
		c0.199-0.521,0.372-1.068,0.67-1.564c0.099-0.174,0.521-0.124,0.72-0.273c0.273-0.199,0.72-0.645,0.67-0.695
		c-0.273-0.372-0.596-0.794-1.018-0.993c-0.298-0.149-0.72-0.05-1.092-0.025c-0.819,0-1.912-0.273-0.745,1.142
		C81.145,171.105,80.128,171.974,78.688,171.925"/>
	<path class="path" fill="none" stroke="#000" stroke-width="1" d="M259.372,82.625c0.323,0.05,0.67,0.074,0.72,0.199c0.174,0.621-0.894,1.986-1.564,2.036
		c-1.49,0.074-3.004,0.124-4.469,0.248c-0.894,0.074-2.259,0.025-2.557,0.546c-0.695,1.192-2.433,0.72-2.88,2.085
		c-0.05,0.174-0.472,0.223-0.695,0.348c-0.074-0.248-0.273-0.521-0.223-0.72c0.273-0.968,0.596-1.887,0.943-2.83
		c0.05-0.174,0.273-0.298,0.397-0.422c0.05,0.174,0.149,0.372,0.124,0.546c-0.025,0.174-0.248,0.372-0.223,0.521
		c0.099,0.323,0.273,0.596,0.422,0.919c0.174-0.223,0.521-0.422,0.546-0.645c0.099-0.943,0.447-1.465,1.514-1.39
		c0.298,0.025,0.645-0.422,0.993-0.521c0.422-0.149,0.869-0.149,1.316-0.223C255.574,83.047,257.485,83.543,259.372,82.625"/>
	<path class="path" fill="none" stroke="#000" stroke-width="1" d="M293.93,172.793c-1.887,3.401-3.724,6.728-5.586,10.055c-1.241,2.259-2.532,4.494-3.749,6.753
		c-1.787,3.227-3.749,6.38-5.214,9.757c-1.167,2.731-2.781,5.263-3.203,8.366c-0.273,1.912-1.216,3.774-1.961,5.611
		c-0.77,1.887-1.266,3.798-1.216,5.834c0,0.248-0.199,0.497-0.298,0.745c-0.223-0.273-0.646-0.521-0.646-0.794
		c-0.074-2.88,0.621-5.561,1.788-8.168c0.67-1.514,0.844-3.203,1.44-4.767c0.993-2.706,2.011-5.437,3.277-8.044
		c1.837-3.674,3.848-7.274,5.859-10.849c1.49-2.656,3.128-5.238,4.618-7.895c1.018-1.763,1.862-3.625,2.855-5.387
		c0.67-1.167,1.465-2.309,2.284-3.401c0.174-0.248,0.695-0.248,1.068-0.348c-0.05,0.348,0,0.77-0.149,1.068
		C294.799,171.825,294.377,172.272,293.93,172.793"/>
	<path class="path" fill="none" stroke="#000" stroke-width="1" d="M307.783,204.025c0.571-2.284,1.192-4.444,1.713-6.604c0.397-1.713,0.645-3.451,1.018-5.164
		c0.397-1.862,0.819-3.699,1.291-5.536c0.323-1.266,0.77-2.507,1.192-3.724c0.124-0.298,0.422-0.546,0.645-0.794
		c0.099,0.348,0.298,0.72,0.323,1.092c0,0.422-0.124,0.844-0.248,1.241c-0.72,2.731-1.514,5.412-2.21,8.143
		c-0.621,2.483-1.043,5.015-1.787,7.448c-0.72,2.358-0.993,4.742-1.241,7.175c-0.174,2.036-0.72,4.022-0.919,6.033
		c-0.099,1.117,0.149,2.259,0.199,3.376c0.025,0.397,0.05,0.77,0,1.167c-0.025,0.273-0.174,0.521-0.248,0.794
		c-0.248-0.273-0.695-0.521-0.695-0.77c-0.05-2.11-0.124-4.245,0-6.355c0.124-2.011,0.447-4.022,0.72-6.033
		C307.585,205.067,307.684,204.596,307.783,204.025"/>
	<path class="path" fill="none" stroke="#000" stroke-width="1" d="M258.677,96.577c-2.855,0.199-5.66,0.372-8.466,0.372c-0.422,0-1.192-0.894-1.216-1.415
		c-0.124-1.986-0.149-3.997,0.521-5.958c0.472-1.341,1.49-1.043,2.408-0.968c0.77,0.025,1.539,0.223,2.259,0.472
		c1.49,0.546,2.929,1.142,4.369,1.787c0.894,0.422,1.787,0.894,2.607,1.465c0.323,0.223,0.472,0.745,0.67,1.142
		c0.025,0.025-0.273,0.323-0.348,0.298c-1.812-0.869-3.575-1.887-5.437-2.632c-1.49-0.596-3.078-0.993-4.667-1.291
		c-0.695-0.099-1.167,0.621-1.192,1.365c-0.05,1.192-0.025,2.383,0,3.6c0,0.72,0.348,0.993,1.117,0.968
		c1.39-0.05,2.83,0.124,4.196-0.05c1.564-0.199,3.078-0.72,4.642-1.092c0.298-0.074,0.621-0.099,0.943-0.099
		c0.174,0,0.348,0.099,0.521,0.174c-0.099,0.149-0.174,0.397-0.323,0.472C260.465,95.659,259.596,96.081,258.677,96.577"/>
	<path class="path" fill="none" stroke="#000" stroke-width="1" d="M157.089,196.08c0.943,0.248,1.912,0.273,2.805,0.521c1.018,0.273,1.961,0.819,2.954,1.117
		c0.596,0.174,1.291,0.099,1.912,0.199c1.862,0.273,3.724,0.596,5.561,0.894c1.043,0.149,2.085,0.298,3.128,0.521
		c0.074,0.025,0.124,0.72,0.025,0.77c-0.447,0.199-0.943,0.422-1.415,0.422c-1.018-0.025-2.085,0.05-3.004-0.273
		c-1.514-0.521-3.227-0.273-4.692-1.167c-0.447-0.273-1.192,0-1.787-0.149c-2.21-0.497-4.494-0.869-6.604-1.688
		c-1.639-0.645-3.426-1.117-4.767-2.607c-0.968-1.092-0.645-2.135-0.273-2.979c1.142-2.582,2.954-4.742,5.015-6.703
		c0.273-0.273,0.894-0.298,1.341-0.273c0.174,0,0.521,0.422,0.497,0.645c-0.025,0.273-0.298,0.77-0.472,0.77
		c-1.117,0.05-1.663,0.596-2.21,1.564c-0.745,1.316-1.837,2.408-2.756,3.6c-0.919,1.142-0.521,2.334,0.67,3.103
		C154.308,195.211,155.574,195.782,157.089,196.08"/>
	<path class="path" fill="none" stroke="#000" stroke-width="1" d="M8.802,178.752c-0.894-0.869-0.894-1.713-0.596-2.83c0.422-1.539,0.422-3.203,0.67-4.816
		c0.199-1.192,0.422-2.383,0.819-3.5c0.323-0.968,1.787-1.465,2.781-1.068c0.695,0.298,1.39,0.621,2.061,0.993
		c0.174,0.099,0.273,0.422,0.273,0.645c-0.025,0.124-0.323,0.323-0.472,0.323c-0.596-0.05-1.167-0.199-1.763-0.223
		c-0.72-0.025-1.415-0.223-1.912,0.745c-0.596,1.167-1.216,2.11-0.869,3.575c0.248,1.117-0.05,2.408-0.298,3.575
		c-0.323,1.539-0.397,1.514,1.068,1.539c4.146,0.074,8.292,0.099,12.438,0.273c0.745,0.05,1.465,0.645,2.185,1.018
		c0.273,0.124,0.521,0.397,0.794,0.422c2.731,0.199,5.437,0.422,8.168,0.472c1.415,0.025,2.83-0.323,4.245-0.447
		c0.72-0.074,1.44-0.05,2.16,0c2.855,0.199,5.71,0.497,8.565,0.621c1.713,0.074,3.426-0.099,5.139-0.124
		c1.192-0.025,2.383,0.05,3.6-0.025c1.614-0.099,3.252-0.348,4.866-0.447c0.298-0.025,0.596,0.298,0.894,0.472
		c-0.223,0.149-0.447,0.372-0.695,0.472c-1.912,0.919-3.997,0.472-6.008,0.72c-2.408,0.298-4.816,0.497-7.249,0.497
		c-1.713-0.025-3.426-0.596-5.164-0.645c-2.358-0.074-4.742,0.149-7.125,0.174c-3.6,0.05-7.2,0-10.799,0.025
		c-0.993,0-1.837-0.174-2.557-1.043c-0.323-0.422-1.092-0.67-1.663-0.67c-3.798-0.074-7.597-0.05-11.42-0.025
		C10.167,179.447,9.448,179.422,8.802,178.752"/>
</g>
</svg>
