<?xml version="1.0" encoding="iso-8859-1"?>
<!-- Generator: Adobe Illustrator 21.1.0, SVG Export Plug-In . SVG Version: 6.00 Build 0)  -->
<svg version="1.1" id="Layer_1" xmlns="http://www.w3.org/2000/svg" xmlns:xlink="http://www.w3.org/1999/xlink" x="0px" y="0px"
	 viewBox="0 0 370 300" style="enable-background:new 0 0 370 300;" xml:space="preserve">
	 <style>
    /* <![CDATA[ */
    .path {
  stroke-dasharray: 2000;
  stroke-dashoffset: 2000;
  animation: dash 40s linear;
  animation-fill-mode: forwards;
 
}

@keyframes dash {
  from {
    stroke-dashoffset: 2000;
  }
  to {
    stroke-dashoffset: 0;
  }
}
    /* ]]> */
  </style>
<g id="Vorm_16">
	<desc  xmlns:shape="http://adobe.com/products/shape"></desc>
	<path class="path" fill="none" stroke="#000" stroke-width="1" d="M109.328,60.639c0.198,0.71,0.38,1.423,0.522,2.144c19.139-2.651,38.277-5.307,57.423-7.945
		C147.868,55.662,128.564,57.846,109.328,60.639z"/>
	<path class="path" fill="none" stroke="#000" stroke-width="1" d="M35.827,146.097c0.879,4.127,1.732,8.254,2.609,12.381c0.428-0.106,0.851-0.236,1.22-0.46
		c0.249-0.152,0.464-0.348,0.683-0.538c0.912-2.422,2.325-4.65,4.11-6.507c1.322,2.424,0.303,5.84-2.121,7.134
		c4.407-0.055,5.426-7.905,1.184-9.117c-1.515,2.204-3.03,4.435-4.573,6.638c-0.441-5.482-0.909-10.963-1.377-16.445
		c-2.589,4.242-3.664,9.338-3.002,14.241C34.973,151,35.386,148.548,35.827,146.097z"/>
	<path class="path" fill="none" stroke="#000" stroke-width="1" d="M45.877,162.417c-0.41,0.01-0.826-0.014-1.236-0.041c-1.405-0.083-2.947-0.22-3.966-1.212
		c1.598-0.193,3.195-0.275,4.793-0.22c0.22,0,0.463,0.036,0.697,0.099c0.176-0.433,0.3-0.882,0.366-1.347l-6.517-1.286
		c0.08-0.252,0.171-0.501,0.262-0.749c-0.182,0.158-0.364,0.316-0.57,0.444c-0.375,0.232-0.818,0.361-1.25,0.469
		c0.024,0.111,0.047,0.222,0.07,0.333c-0.077-0.098-0.154-0.195-0.231-0.293c-0.04,0.01-0.081,0.02-0.12,0.03
		c-0.528,0.128-1.051,0.268-1.576,0.403c-0.242,0.062-0.539,0.117-0.806,0.214c0.726,0.935,1.497,1.833,2.321,2.676
		c-0.699-0.496-1.437-0.93-2.204-1.302c0.403,0.842,0.686,1.73,0.917,2.632c2.977,0.228,5.953,0.46,8.93,0.686
		C45.832,163.441,45.896,162.931,45.877,162.417z"/>
	<path class="path" fill="none" stroke="#000" stroke-width="1" d="M83.646,162.514c-0.881-4.352-3.829-7.933-6.694-11.321c-1.773-2.104-3.55-4.213-5.325-6.32
		c-0.489,0.397-0.982,0.787-1.484,1.165C74.643,151.527,79.137,157.017,83.646,162.514z"/>
	<path class="path" fill="none" stroke="#000" stroke-width="1" d="M63.838,71.74c-0.417-0.017-0.832-0.008-1.247-0.004c-0.924,10.475-2.742,20.873-5.422,31.049
		c0.442,0.096,0.88,0.212,1.315,0.346c2.088-10.417,4.176-20.833,6.257-31.25C64.443,71.813,64.144,71.753,63.838,71.74z"/>
	<path class="path" fill="none" stroke="#000" stroke-width="1" d="M70.698,70.901c-1.009-0.739-2.005-1.496-2.973-2.29c14.013-1.942,28.019-3.874,42.026-5.814
		c-0.142-0.721-0.325-1.434-0.523-2.144c-15.489,2.25-30.934,4.894-46.352,7.545c-0.079,1.147-0.177,2.293-0.278,3.439
		c0.412-0.004,0.825-0.013,1.239,0.003c0.313,0.012,0.618,0.075,0.921,0.146c0.098-0.489,0.196-0.978,0.294-1.467
		c1.186,0.577,2.366,1.15,3.552,1.726C69.227,71.547,69.944,71.196,70.698,70.901z"/>
	<path class="path" fill="none" stroke="#000" stroke-width="1" d="M218.434,195.732c-14.003-0.122-28.006,0.448-41.96,1.737c4.49-3.719,8.952-7.41,13.442-11.128
		c-3.168,0.716-5.729,3.002-8.401,4.848c-7.079,4.876-15.673,6.831-24.047,8.704c-11.183,2.479-22.394,4.986-33.578,7.492
		c14.599-2.314,29.198-4.628,43.797-6.941c2.748-0.434,5.96-0.678,8.049,0.911c-0.298-0.851,0.099-2.098,1.014-2.536
		c1.295-0.634,2.837-0.138,4.187,0.386c-1.129,0.634-2.286,1.295-3.416,1.928c0.716,0.771,1.432,1.57,2.149,2.341
		c-1.846,0.551-3.719,1.129-5.564,1.708c3.305,1.212,7.299,0.358,9.806-2.148c-0.854-0.771-2.011-1.185-3.168-1.129
		c0.771-3.085,4.765-3.801,7.933-3.884c9.815-0.27,19.635-0.328,29.454-0.195C218.253,197.133,218.341,196.432,218.434,195.732z"/>
	<path class="path" fill="none" stroke="#000" stroke-width="1" d="M85.574,151.964c-0.069,0.426-0.131,0.854-0.198,1.28c0.511,0.028,1.02,0.068,1.53,0.115
		c3.773-21.036,8.215-41.975,13.295-62.739c0.881-3.553,5.482-4.325,9.145-4.38c1.395-0.019,2.79-0.039,4.185-0.058
		c0.055-0.537,0.134-1.071,0.222-1.604C98.455,84.85,83.14,79.975,70.789,70.966c-0.75,0.292-1.466,0.636-2.088,1.126
		c10.319,5.021,20.623,10.028,30.922,15.03C94.361,108.607,89.072,130.12,85.574,151.964z"/>
	<path class="path" fill="none" stroke="#000" stroke-width="1" d="M352.709,198.185c0.413-2.093,0.826-4.214,1.212-6.308c-2.149,1.515-3.581,4.049-3.774,6.693
		c-5.867,0.689-11.762,1.377-17.629,2.066c-1.267-2.204,2.286-3.801,4.738-4.407c2.479-0.578,4.407-4.738,1.873-4.848
		c-4.683,0.854-8.649,4.793-9.558,9.448c0.881-4.6,1.735-9.228,2.617-13.855c-2.231,2.947-3.664,6.446-4.132,10.082
		c-0.248-3.443-1.708-6.804-4.077-9.31c0.551,3.746,1.543,7.437,2.975,10.963c-2.782-0.634-5.537-1.24-8.319-1.873
		c2.589,1.956,5.179,3.911,7.768,5.867c-18.125,0.854-36.387-0.992-54.016-5.426c1.019-0.331,2.038-0.689,3.057-1.019
		c-4.628,0.303-9.283,0.606-13.91,0.937c3.471-3.856,7.024-7.795,9.062-12.561c2.066-4.793,2.396-10.605-0.441-14.957
		c-4.628-7.079-14.764-7.217-23.221-6.556c5.371-2.231,11.652-2.176,16.968,0.165c2.396,1.047,4.683,2.562,7.3,2.755
		c4.655,0.358,8.704-3.801,9.834-8.319c1.157-4.545,0.11-9.31-0.992-13.855c-3.553-14.489-7.823-28.813-12.809-42.888
		c-3.058-8.704-6.831-17.877-14.599-22.89c-7.162-4.655-13.607-10.44-18.979-17.078c-5.096-6.06-14.434-8.043-21.54-4.6
		c7.382-2.975,15.26,2.562,21.32,7.74c7.658,6.556,15.315,13.112,22.973,19.64c-47.103-1.267-94.26-1.019-141.335,0.771
		c-0.407,0.015-0.814,0.009-1.222,0.017c-0.089,0.533-0.168,1.067-0.223,1.604c34.105-0.476,68.211-0.952,102.316-1.428
		c13.662-0.193,27.38-0.386,40.85,1.708c0.964,0.165,1.983,0.331,2.755,0.909c0.964,0.716,1.432,1.901,1.846,3.002
		c7.63,20.687,14.186,41.759,19.585,63.134c-25.975,2.644-51.923,5.261-77.898,7.906c-27.573,2.782-55.201,5.592-82.884,5.096
		c-9.586-0.165-19.144-0.716-28.702-1.295c-2.727-0.165-6.418-1.405-5.95-4.132c0.436-2.543,0.886-5.084,1.341-7.624
		c-0.509-0.047-1.018-0.087-1.528-0.114c-0.848,5.341-1.59,10.706-2.301,16.067c0.628-0.386,1.301-0.61,1.987-0.686
		c0.047-0.261,0.105-0.521,0.142-0.784c0.138-0.909,1.157-1.432,2.093-1.432c0.909,0,1.763,0.386,2.672,0.606
		c1.846,0.496,3.801,0.331,5.729,0.22c4.297-0.193,8.622,0.055,12.864,0.744c-1.295,1.019-3.113,0.964-4.765,0.909
		c-3.471-0.138-6.941-0.055-10.385,0.193c-2.424,0.165-5.013,0.551-6.721,2.231c-1.074,1.074-1.901,2.699-3.416,2.782
		c0.832-1.688,1.422-3.503,1.768-5.367c-0.686,0.081-1.359,0.309-1.985,0.707c-0.261,1.967-0.518,3.934-0.774,5.899
		c-2.321-1.914-4.513-3.981-6.582-6.17c-0.311,0.335-0.634,0.661-0.972,0.965c1.409,1.55,2.819,3.094,4.221,4.655
		c1.074,1.184,2.341,2.452,3.939,2.479c0.11,1.322-0.165,2.672-0.799,3.829c-2.778-3.393-5.536-6.765-8.309-10.153
		c-0.428,0.332-0.857,0.661-1.272,1.005c2.765,4.611,6.563,8.61,11.014,11.627c-1.019-8.484,9.42-15.894,17.078-12.148
		c-5.733,0.444-10.638,4.637-13.015,9.914c2.924-2.556,5.976-4.909,9.186-7.049c2.562-1.708,5.289-3.305,8.319-3.636
		c1.818-0.22,3.664,0.055,5.482,0.331c2.892,0.413,5.895,0.881,8.484,2.286c6.749,3.664,8.704,13.112,5.922,20.273
		c-1.653,4.27-4.765,8.043-8.897,9.971c-3.416,1.625-7.299,1.901-11.101,2.149c-1.818,0.138-3.636,0.248-5.454,0.386
		c-1.295,0.083-2.644,0.165-3.884-0.248c-2.341-0.799-3.746-3.168-4.903-5.371c-1.184-2.149-2.341-4.325-2.892-6.721
		c-1.129-4.958,0.799-10.495,4.793-13.663c-1.702,0.479-3.429,0.959-5.132,1.463c-0.531,1.213-0.931,2.48-1.175,3.771
		c-1.322,6.997,1.212,14.324,5.454,20.026c-6.253-3.443-10.66-10.082-11.404-17.188c-2.507,6.776,2.149,14.654,8.649,17.767
		c6.528,3.14,14.213,2.534,21.265,0.909c2.837-0.661,5.674-1.515,8.208-2.947c8.759-4.931,12.23-17.409,7.272-26.168
		c1.24,0.716,2.452,1.405,3.691,2.121c-3.884-3.471-7.768-6.941-11.679-10.412c8.704,7.658,21.678,7.107,33.22,6.115
		c25.782-2.176,51.537-4.38,77.32-6.583c-3.829,8.815-1.24,19.97,6.06,26.196c-5.564-6.776-6.859-16.83-3.168-24.791
		c-1.267-1.212-1.184-3.719,0.441-4.325c1.197-0.446,2.329,1.033,2.196,2.087c2.864-3.372,7.287-5.414,11.714-5.337
		c-6.886,1.79-12.506,7.795-13.8,14.792c-1.322,6.997,1.735,14.627,7.52,18.786c-6.911-0.409-13.828-0.627-20.746-0.689
		c-0.093,0.7-0.182,1.401-0.304,2.093c33.217,0.455,66.406,3.202,99.251,8.237c-0.22,1.35,1.928,1.487,3.195,0.992
		c3.498-1.377,6.997-2.727,10.495-4.104c11.376-0.606,22.697-2.176,33.826-4.683C360.89,198.24,356.786,198.212,352.709,198.185z
		 M339.019,192.951c0.578,0.276,0,1.157-0.578,1.432c-1.157,0.523-2.369,0.909-3.608,1.102
		C335.493,193.86,337.284,192.758,339.019,192.951z M244.097,160.916c-5.206,0.771-10.77,1.708-14.654,5.289
		c-2.121,2.011-5.344,2.148-8.264,2.204c-17.188,0.358-34.322,1.295-51.427,2.837c-3.939,0.358-7.961,0.771-11.597,2.286
		c-2.892,1.185-6.115,1.212-9.255,1.212c-3.829,0.028-7.658,0.028-11.486,0.028c-3.195,0.028-6.638-0.055-9.173-2.011
		c-4.49-3.416-10.467-4.82-16.004-3.719c2.286-2.121,5.84-1.68,8.925-1.267c3.471,0.468,6.941,0.689,10.44,0.689
		c3.526,0,7.024-0.248,10.55-0.496c27.325-1.846,54.678-3.967,81.975-6.28c3.801-0.331,7.63-0.661,11.431-1.157
		c14.076-1.763,28.041-5.592,42.2-4.848c0.11,2.424-0.193,4.876-0.881,7.217c-4.187,2.644-9.448-0.441-14.158-1.928
		C256.741,159.126,250.295,160.007,244.097,160.916z M259.247,196.835c-0.992,0.331-2.038,0.358-3.085,0.386
		c-3.664,0.028-7.3-0.11-10.963-0.413c-1.157-0.083-2.369-0.193-3.471-0.634c-1.487-0.606-2.699-1.735-3.691-3.002
		c-2.644-3.333-4.022-7.63-4.159-11.9c-0.22-5.454,1.901-11.376,6.638-14.103c2.066-1.157,4.462-1.653,6.804-2.011
		c3.829-0.606,7.768-0.992,11.569-0.303c3.829,0.716,7.547,2.589,9.806,5.757c2.231,3.168,2.672,7.713,0.496,10.936
		c0.303-2.093,0.248-4.214-0.11-6.28c-0.771,2.424-1.019,5.013-0.716,7.547c-1.212,3.168-2.672,6.253-4.352,9.2
		C262.856,194.026,261.424,196.119,259.247,196.835z"/>
	<path class="path" fill="none" stroke="#000" stroke-width="1" d="M72.445,171.956c0.412-0.34,0.836-0.667,1.258-0.997c-0.313-0.383-0.625-0.763-0.938-1.146
		c-0.248-0.331-0.551-0.661-0.909-0.854c-0.523-0.22-1.102-0.165-1.653-0.11c-4.876,0.496-9.916-0.854-13.91-3.691
		c0.799,0.165,1.763-0.028,2.204-0.716c0.441-0.689,0.083-1.818-0.716-1.928c-2.479-0.303-4.132-2.755-4.848-5.151
		c-1.157-3.774-0.854-7.988,0.854-11.569c1.377,0.634,2.149,2.149,2.424,3.636c0.303,1.515,0.165,3.03,0.303,4.545
		c0.248,2.782,1.35,5.482,3.223,7.52c0.909,1.019,1.983,1.846,3.113,2.617c2.424,1.598,5.123,2.782,7.933,3.471
		c0.028-0.523,0.083-1.047,0.11-1.57c1.246,1.374,2.498,2.759,3.751,4.136c0.337-0.305,0.665-0.626,0.974-0.96
		c-2.667-2.831-5.121-5.87-7.314-9.099c-0.947-0.961-1.88-1.935-2.803-2.92c-0.245,0.3-0.483,0.607-0.691,0.933
		c-0.095,0.149-0.187,0.306-0.273,0.468c0.043,0.048,0.088,0.094,0.13,0.142c0.468,0.523,0.909,1.074,1.129,1.708
		c0.22,0.661,0.138,1.46-0.386,1.928c1.047-0.413,2.286,0,3.14,0.744c0.854,0.744,1.405,1.79,1.928,2.782
		c-0.854,0.11-1.35-0.937-2.066-1.432c-0.358-0.248-0.771-0.358-1.157-0.496c-4.573-1.432-8.181-5.482-9.145-10.137
		c-0.11-0.634-0.193-1.295,0.11-1.873c2.15,2.097,4.22,4.275,6.217,6.526c0.254-0.494,0.609-0.962,0.977-1.387
		c-6.106-6.528-11.688-13.569-16.669-21.005c-2.176-3.25,0.165-7.52,2.452-10.715c0.248-0.331,0.578-0.716,0.992-0.716
		c0.386,0.028,0.689,0.331,0.937,0.634c5.646,6.901,11.303,13.794,16.954,20.688c0.502-0.376,0.995-0.767,1.483-1.163
		c-5.431-6.445-10.866-12.895-16.289-19.332c-0.937-1.129-0.716-2.782-0.413-4.242c1.198-5.999,2.401-11.998,3.603-17.997
		c-0.436-0.134-0.875-0.251-1.32-0.346c-2.44,9.245-5.585,18.308-9.418,27.074c-2.121,4.876,1.157,10.412,5.068,13.993
		c-3.223,5.013-3.333,11.872-0.22,16.94l-5.946-1.174c-0.067,0.469-0.193,0.922-0.369,1.359c0.603,0.189,1.108,0.58,0.917,1.137
		c-0.385,0.133-0.79,0.186-1.201,0.202c0.018,0.519-0.046,1.032-0.122,1.546c0.542,0.041,1.084,0.084,1.626,0.125
		c2.755,0.22,5.729,0.523,7.685,2.452c4.214,4.159,10.798,5.729,16.417,3.911C71.853,170.959,72.148,171.458,72.445,171.956z"/>
	<path class="path" fill="none" stroke="#000" stroke-width="1" d="M36.168,159.05c0.492-0.131,0.982-0.271,1.477-0.387c0.191-0.045,0.387-0.088,0.584-0.134
		c-2.63-3.343-5.283-6.664-7.911-10.009c1.098,3.845,2.964,7.491,5.411,10.661C35.876,159.128,36.028,159.087,36.168,159.05z"/>
	<path class="path" fill="none" stroke="#000" stroke-width="1" d="M35.79,160.609c-0.005-0.01,0.007-0.015,0.008-0.024c-5.356-2.551-12.11-2.127-16.994,1.296
		c5.972,0.465,11.945,0.919,17.917,1.377C36.487,162.348,36.203,161.455,35.79,160.609z M32.273,162.1
		c-0.165-0.028-0.358-0.055-0.496-0.138c-0.496-0.386,0.083-1.212,0.716-1.295c0.606-0.055,1.267,0.193,1.873,0
		c0.248,0.386,0.468,0.771,0.716,1.129C34.174,162.073,33.238,162.183,32.273,162.1z"/>
	<path class="path" fill="none" stroke="#000" stroke-width="1" d="M6.023,170.089c-0.468-0.028-0.826-0.551-0.689-0.992c0.386-0.165,0.826-0.22,1.212-0.138
		c0.138,0.22,0.275,0.468,0.413,0.689c-0.303,0.138-0.634,0.275-0.937,0.413"/>
	<path class="path" fill="none" stroke="#000" stroke-width="1" d="M1.726,274.871c0.083,0.248,0.028,0.496-0.11,0.716c-0.413-0.083-0.909-0.083-1.129,0.248
		c-0.028-0.358-0.165-0.716-0.386-0.992c0.523-0.193,1.129-0.193,1.653,0.028"/>
	<path class="path" fill="none" stroke="#000" stroke-width="1" d="M317.836,176.644c0.441,0.11,0.909,0.22,1.377,0.331c0.303,0.22,0.083,0.771-0.248,0.881
		c-0.358,0.138-0.744,0-1.102-0.165c-0.248-0.275-0.275-0.716-0.028-1.019"/>
	<path class="path" fill="none" stroke="#000" stroke-width="1" d="M149.176,77.894c-0.303-0.744-0.028-1.653,0.606-2.093c0.193,0.689,0.22,1.405,0.138,2.121
		c-0.22,0.193-0.578,0.193-0.826,0"/>
	<path class="path" fill="none" stroke="#000" stroke-width="1" d="M285.113,28.395c0.22,0.248,0.441,0.496,0.661,0.744c-0.716,0.413-1.735-0.028-1.956-0.799
		c0.441-0.22,0.937-0.193,1.377,0"/>
	<path class="path" fill="none" stroke="#000" stroke-width="1" d="M251.425,178.931c0.413,0.11,0.716,0.634,0.578,1.047c-0.551,0-1.102,0-1.68,0
		c-0.386-0.578,0.496-1.432,1.074-1.019"/>
	<path class="path" fill="none" stroke="#000" stroke-width="1" d="M65.521,66.49c-0.22-0.22-0.468-0.468-0.689-0.689c0.138-0.22,0.275-0.468,0.413-0.689
		c0.523-0.055,1.074,0.11,1.515,0.441c-0.138,0.303-0.275,0.634-0.413,0.937C66.072,66.49,65.796,66.49,65.521,66.49"/>
	<path class="path" fill="none" stroke="#000" stroke-width="1" d="M46.377,121.168c0.248,0.275,0.523,0.551,0.799,0.826c-0.083,0.413-0.523,0.744-0.964,0.689
		c0.083-0.248-0.083-0.523-0.248-0.771c-0.138-0.22-0.303-0.523-0.193-0.771c0.11-0.275,0.606-0.248,0.578,0.028"/>
	<path class="path" fill="none" stroke="#000" stroke-width="1" d="M78.605,205.126c0.634-0.055,1.24-0.275,1.763-0.661c0.138,0.331,0.303,0.661,0.441,0.992
		c-0.716,0.275-1.57,0.165-2.204-0.303"/>
	<path class="path" fill="none" stroke="#000" stroke-width="1" d="M113.174,213.252c-0.578,0-1.129-0.22-1.57-0.578c0.799-0.386,1.818-0.303,2.562,0.165
		c-0.331,0.138-0.689,0.275-1.019,0.413"/>
	<path class="path" fill="none" stroke="#000" stroke-width="1" d="M351.194,210.002c0.083-0.275,0.551-0.358,0.716-0.11c-0.275,0.606-0.551,1.184-0.826,1.763
		c-0.193-0.413-0.386-0.826-0.578-1.24c0.22-0.138,0.441-0.275,0.661-0.413"/>
	<path class="path" fill="none" stroke="#000" stroke-width="1" d="M81.194,82.907c0.083-0.551,0.606-0.992,1.157-0.964c0,0.716-0.331,1.432-0.826,1.928
		c-0.138-0.358-0.275-0.689-0.386-1.019"/>
	<path class="path" fill="none" stroke="#000" stroke-width="1" d="M259.55,166.893c0.083,0.248,0.028,0.523-0.11,0.716c-0.523-0.055-1.019-0.083-1.543-0.138
		c0-0.523,0.826-0.909,0.992-0.441c0.083-0.248,0.193-0.523,0.468-0.578C259.606,166.398,259.826,166.838,259.55,166.893"/>
	<path class="path" fill="none" stroke="#000" stroke-width="1" d="M53.952,150.228c0.275,0.799,0.165,1.708-0.275,2.452c-0.496-0.744-0.358-1.818,0.303-2.424"/>
	<path class="path" fill="none" stroke="#000" stroke-width="1" d="M98.107,80.979c-0.248-0.413-0.331-0.937-0.22-1.405c0.165-0.138,0.441-0.193,0.634-0.083
		c0.716,0.661,0.634,1.956-0.165,2.534c-0.22-0.303-0.275-0.716-0.193-1.074"/>
	<path class="path" fill="none" stroke="#000" stroke-width="1" d="M85.656,183.421c-0.275,0.275-0.578,0.578-0.964,0.634c-0.413,0.083-0.881-0.22-0.799-0.634
		c0.11-0.689,1.322-0.413,1.735-0.964c0.138,0.275,0.193,0.634,0.11,0.964"/>
	<path class="path" fill="none" stroke="#000" stroke-width="1" d="M250.626,211.737c0.744,0.11,1.405,0.551,1.79,1.184c-0.661,0.716-2.121-0.083-1.901-1.019"/>
	<path class="path" fill="none" stroke="#000" stroke-width="1" d="M125.707,211.792c-0.441,0.193-0.964,0.193-1.377,0c0.275-0.22,0.496-0.523,0.634-0.854
		c0.634,0.083,1.267,0.193,1.901,0.303c-0.193,0.386-0.716,0.578-1.102,0.413"/>
	<path class="path" fill="none" stroke="#000" stroke-width="1" d="M137.084,163.726c0.193,0,0.248,0.275,0.083,0.386c-0.138,0.11-0.331,0.083-0.496,0.055
		c-0.634-0.11-1.267-0.22-1.901-0.331c0.744-0.358,1.598-0.441,2.396-0.248"/>
	<path class="path" fill="none" stroke="#000" stroke-width="1" d="M86.318,131.084c0,0.468,0,0.909,0,1.377c-0.248,0.138-0.523,0.193-0.771,0.138
		c0-0.606,0.028-1.184,0.028-1.79c0.193-0.22,0.413-0.468,0.606-0.689c0.138,0.275,0.193,0.634,0.11,0.964"/>
	<path class="path" fill="none" stroke="#000" stroke-width="1" d="M190.274,166.122c0.771-0.275,1.625-0.303,2.424-0.055c-0.496,0.854-1.901,1.047-2.589,0.303"/>
	<path class="path" fill="none" stroke="#000" stroke-width="1" d="M95.49,202.592c0.386,0.331,0.523,0.881,0.358,1.35c-0.826-0.386-1.79-1.295-1.212-2.011
		c0.22,0.303,0.523,0.551,0.881,0.689"/>
	<path class="path" fill="none" stroke="#000" stroke-width="1" d="M61.83,69.107c-0.634,0.661-1.956,0.358-2.204-0.523c0.193-0.496,0.771-0.826,1.322-0.689
		c0.523,0.11,0.909,0.661,0.854,1.212"/>
	<path class="path" fill="none" stroke="#000" stroke-width="1" d="M79.982,59.935c0.689-0.028,1.377-0.055,2.066-0.083c0.11,0.193,0.165,0.441,0.11,0.689
		c-0.854,0.386-1.873,0.386-2.727,0.028c0.165-0.193,0.358-0.358,0.551-0.551"/>
	<path class="path" fill="none" stroke="#000" stroke-width="1" d="M211.263,234.517c-0.11,0.523-0.881,0.661-1.322,0.358c-0.468-0.303-0.661-0.881-0.826-1.405
		c0.826,0.055,1.598,0.386,2.204,0.937"/>
	<path class="path" fill="none" stroke="#000" stroke-width="1" d="M79.266,64.039c-0.303-0.138-0.634-0.303-0.964-0.441c0.275-0.083,0.523-0.275,0.661-0.523
		c0.634-0.055,1.267-0.11,1.873-0.165c0.193,0.689-0.826,1.019-1.515,0.992"/>
	<path class="path" fill="none" stroke="#000" stroke-width="1" d="M43.237,134.225c0.331,0.606-0.523,1.432-1.102,1.074c-0.165-0.193-0.248-0.413-0.248-0.661
		c-0.028,0.386-0.634,0.028-0.744-0.331c0.689-0.028,1.377-0.055,2.066-0.083"/>
	<path class="path" fill="none" stroke="#000" stroke-width="1" d="M221.703,71.697c0.248,0.028,0.496,0.055,0.744,0.11c0.22,0.496-0.606,0.826-1.102,0.634
		c-0.523-0.165-1.129-0.468-1.57-0.138c-0.193-0.193-0.22-0.551-0.055-0.799C220.353,71.752,221.042,71.807,221.703,71.697"/>
	<path class="path" fill="none" stroke="#000" stroke-width="1" d="M50.343,134.555c0.661,0.22,1.157,0.909,1.184,1.598c-0.937-0.028-1.79-0.826-1.873-1.763
		c0.165-0.22,0.578-0.138,0.689,0.138"/>
	<path class="path" fill="none" stroke="#000" stroke-width="1" d="M240.296,192.428c-0.551,0.055-1.019-0.661-0.744-1.129c0.523,0.193,1.047,0.386,1.57,0.578
		c0.138,0.028,0.303,0.11,0.386,0.22c0.248,0.275,0,0.744-0.331,0.826c-0.358,0.11-0.716-0.083-0.964-0.358"/>
	<path class="path" fill="none" stroke="#000" stroke-width="1" d="M235.751,180.776c0.413,0.964,0.578,2.038,0.523,3.085
		C235.696,182.952,235.503,181.823,235.751,180.776"/>
	<path class="path" fill="none" stroke="#000" stroke-width="1" d="M178.87,54.123c0.578,0.028,1.129,0.028,1.708,0.028c-0.578,0.881-1.928,1.157-2.782,0.523
		c0.331-0.165,0.689-0.331,1.019-0.523"/>
	<path class="path" fill="none" stroke="#000" stroke-width="1" d="M136.533,129.735c-0.22-0.992,0.138-2.093,0.909-2.755c0.083,0.964-0.165,1.928-0.689,2.755"/>
	<path class="path" fill="none" stroke="#000" stroke-width="1" d="M329.488,210.938c0.055-0.303,0.11-0.634,0.165-0.964c0.138,0.992,0.248,2.011,0.358,3.002
		c-0.413,0.193-0.881-0.248-0.909-0.689c-0.028-0.468,0.248-0.881,0.496-1.24"/>
	<path class="path" fill="none" stroke="#000" stroke-width="1" d="M52.877,138.329c-0.661-0.441-1.129-1.157-1.24-1.928c0.799,0.523,1.432,1.267,1.818,2.149
		c-0.193,0.138-0.523,0.055-0.606-0.193"/>
	<path class="path" fill="none" stroke="#000" stroke-width="1" d="M2.139,234.159c-0.578-0.083-1.102-0.578-1.212-1.184c0.523,0.083,1.047-0.275,1.57-0.358
		c0.551-0.055,1.212,0.523,0.826,0.937c-0.386,0.11-0.799,0.193-1.184,0.303"/>
	<path class="path" fill="none" stroke="#000" stroke-width="1" d="M84.417,207.137c0.716-0.413,1.708-0.275,2.314,0.303c-0.909,0.193-1.846,0.413-2.755,0.634
		c-0.138-0.331-0.275-0.661-0.413-0.964c0.275,0.028,0.523,0.055,0.799,0.083"/>
	<path class="path" fill="none" stroke="#000" stroke-width="1" d="M129.702,210.525c0.661,0.413,1.543,0.386,2.204,0c0.083,0.523-0.138,1.074-0.551,1.405
		c-0.606-0.413-1.322-0.634-2.066-0.606C129.426,211.049,129.564,210.801,129.702,210.525"/>
	<path class="path" fill="none" stroke="#000" stroke-width="1" d="M56.624,236.748c-1.102,0.083-2.231,0.165-3.333,0.248
		C54.034,236.032,55.577,236.142,56.624,236.748"/>
	<path class="path" fill="none" stroke="#000" stroke-width="1" d="M336.071,217.494c-0.468-0.441,0.083-1.24,0.689-1.405c0.606-0.165,1.295-0.028,1.873-0.248
		c-0.413,0.496-1.184,0.689-1.79,0.441C336.677,216.75,336.43,217.164,336.071,217.494"/>
	<path class="path" fill="none" stroke="#000" stroke-width="1" d="M78.963,163.423c0.358-0.578,1.212-0.799,1.818-0.468c0.441,0.275,0.716,0.771,0.881,1.267
		C80.698,164.194,79.762,163.918,78.963,163.423"/>
	<path class="path" fill="none" stroke="#000" stroke-width="1" d="M83.122,231.735c-0.551,0.165-1.295-0.193-1.24-0.771c0.771-0.193,1.57-0.303,2.369-0.275
		c0.193,0.358,0.22,0.854,0,1.24c-0.358-0.028-0.744-0.055-1.129-0.083"/>
	<path class="path" fill="none" stroke="#000" stroke-width="1" d="M152.757,204.355c1.129-0.771,2.644-0.937,3.911-0.441
		C155.512,204.603,154.052,204.768,152.757,204.355"/>
	<path class="path" fill="none" stroke="#000" stroke-width="1" d="M69.845,74.754c0.716,0.358,1.432,0.716,2.149,1.074c-0.606,0.055-1.212,0.11-1.846,0.193
		c-0.083-0.248-0.165-0.496-0.248-0.716c-0.083,0.248-0.496,0.331-0.661,0.138c0.165-0.193,0.358-0.358,0.551-0.551"/>
	<path class="path" fill="none" stroke="#000" stroke-width="1" d="M265.5,186.891c-0.578,0.496-1.35,0.716-2.093,0.606c0.303-0.468,0.606-0.937,0.909-1.405
		c0.275-0.441,0.661-0.937,1.184-0.881c0.22,0.468,0.138,1.074-0.22,1.46"/>
	<path class="path" fill="none" stroke="#000" stroke-width="1" d="M260.404,169.372c-0.22-0.248-0.413-0.468-0.606-0.716c0.634-0.22,1.405,0.055,1.79,0.606
		c0.386,0.551,0.358,1.35-0.055,1.873c-0.386-0.578-0.771-1.157-1.157-1.763"/>
	<path class="path" fill="none" stroke="#000" stroke-width="1" d="M89.21,193.612c-0.11-0.248-0.193-0.523-0.11-0.771c0.055-0.193,0.193-0.358,0.386-0.441
		c0.551,0.992,0.854,2.121,0.909,3.25C89.898,195.045,89.485,194.356,89.21,193.612"/>
	<path class="path" fill="none" stroke="#000" stroke-width="1" d="M81.91,187.552c-0.331,0.358-0.854,0.523-1.295,0.413c-0.248-0.661,0.22-1.377,0.854-1.68
		c0.606-0.303,1.322-0.275,2.011-0.248c0.22,0.826-0.744,1.653-1.515,1.35"/>
	<path class="path" fill="none" stroke="#000" stroke-width="1" d="M320.095,193.97c-0.854-0.193-1.68-0.551-2.424-0.992c-0.248-0.165-0.358-0.496-0.248-0.744
		c0.551-0.468,1.377-0.523,1.983-0.138C320.013,192.483,320.288,193.282,320.095,193.97"/>
	<path class="path" fill="none" stroke="#000" stroke-width="1" d="M98.245,74.368c-0.468,0.248-1.102,0.11-1.432-0.303c-0.303-0.413-0.248-1.074,0.11-1.46
		c0.771,0.248,1.57,0.386,2.369,0.523c0.11,0.578-0.496,1.019-1.019,1.267"/>
	<path class="path" fill="none" stroke="#000" stroke-width="1" d="M102.294,213.417c-0.11-0.744,1.212-0.937,1.68-0.331c0.523,0.716,0.303,1.735,0.028,2.617
		C103.974,214.685,103.258,213.748,102.294,213.417"/>
	<path class="path" fill="none" stroke="#000" stroke-width="1" d="M138.654,210.057c0.689,0.083,1.377,0.138,2.066,0.22c0.193,0.22,0.193,0.606,0,0.826
		c-1.074,0.055-2.149-0.11-3.168-0.441C137.442,210.167,138.158,210.002,138.654,210.057"/>
	<path class="path" fill="none" stroke="#000" stroke-width="1" d="M59.736,125.63c0.331,0.634,0.358,1.405,0.055,2.038c-0.799-0.881-1.295-2.038-1.35-3.223
		c0.661-0.193,1.432,0.441,1.35,1.129"/>
	<path class="path" fill="none" stroke="#000" stroke-width="1" d="M69.405,106.376c-0.083,1.212-0.523,2.396-1.295,3.361
		C67.945,108.497,68.441,107.175,69.405,106.376"/>
	<path class="path" fill="none" stroke="#000" stroke-width="1" d="M64.447,194.576c0.386,0.496-0.413,1.047-1.019,1.047c-0.606,0-1.405,0.028-1.543,0.606
		c0.028-0.441-0.248-0.881-0.661-1.019C62.326,195.1,63.4,194.879,64.447,194.576"/>
	<path class="path" fill="none" stroke="#000" stroke-width="1" d="M354.279,212.343c-0.468,0.028-0.578-0.661-0.496-1.102c0.937-0.468,2.093-0.468,3.03,0.028
		c-0.413,0.771-1.57,0.413-2.314-0.055C354.417,211.599,354.334,211.958,354.279,212.343"/>
	<path class="path" fill="none" stroke="#000" stroke-width="1" d="M128.765,228.375c0.523-1.184,1.515-2.176,2.699-2.699
		C131.657,227.163,130.225,228.733,128.765,228.375"/>
	<path class="path" fill="none" stroke="#000" stroke-width="1" d="M311.914,207.771c1.212-0.661,2.617-0.937,3.994-0.799c0.11,0.193,0.165,0.441,0.138,0.689
		C314.779,208.322,313.209,208.377,311.914,207.771"/>
	<path class="path" fill="none" stroke="#000" stroke-width="1" d="M101.33,57.648c1.184-0.055,2.396,0.22,3.443,0.799c-1.184,0.634-2.699,0.634-3.884,0
		C101.054,58.172,101.192,57.924,101.33,57.648"/>
	<path class="path" fill="none" stroke="#000" stroke-width="1" d="M310.124,202.179c-0.358-0.468,0.331-1.047,0.881-1.157c1.129-0.275,2.341-0.165,3.388,0.303
		C312.988,201.628,311.556,201.904,310.124,202.179"/>
	<path class="path" fill="none" stroke="#000" stroke-width="1" d="M118.022,212.288c0.468-0.661,1.432-0.716,2.259-0.689c0.826,0.028,1.653,0.083,2.479,0.165
		C121.493,212.894,119.482,213.114,118.022,212.288"/>
	<path class="path" fill="none" stroke="#000" stroke-width="1" d="M179.256,211.324c0.11-1.102-0.303-2.259-1.074-3.058c-0.22-0.22-0.22-0.661,0.028-0.854
		c0.826,0.138,1.57,0.799,1.79,1.625C180.192,209.837,179.917,210.773,179.256,211.324"/>
	<path class="path" fill="none" stroke="#000" stroke-width="1" d="M136.753,210.498c-0.909,0.689-2.176,0.854-3.223,0.468c-0.468-0.165-0.909-0.441-1.212-0.826
		C133.585,209.093,135.679,209.258,136.753,210.498"/>
	<path class="path" fill="none" stroke="#000" stroke-width="1" d="M130.693,184.936c0,1.295-0.138,2.562-0.441,3.829c-0.248-0.138-0.468-0.275-0.689-0.386
		c-0.055-1.543,0.083-3.058,0.386-4.545C130.445,183.724,130.693,184.412,130.693,184.936"/>
	<path class="path" fill="none" stroke="#000" stroke-width="1" d="M72.435,63.791c1.487,0.11,2.947,0.193,4.407,0.275C75.795,65.444,73.316,65.278,72.435,63.791"/>
	<path class="path" fill="none" stroke="#000" stroke-width="1" d="M43.209,165.489c-1.322,0.248-2.699,0.138-3.967-0.303c-0.386-0.138-0.771-0.303-1.157-0.468
		C39.793,164.249,41.722,164.524,43.209,165.489"/>
	<path class="path" fill="none" stroke="#000" stroke-width="1" d="M226.468,91.254c1.184-0.331,2.479-0.386,3.691-0.165c0.578,0.441,0.441,1.46-0.165,1.873
		c-0.606,0.413-1.46,0.275-2.066-0.11C227.322,92.466,226.882,91.86,226.468,91.254"/>
	<path class="path" fill="none" stroke="#000" stroke-width="1" d="M75.382,79.409c-0.331,0.661-1.322,0.386-1.956,0c-0.716-0.413-1.46-0.826-2.176-1.267
		C72.738,77.894,74.308,78.39,75.382,79.409"/>
	<path class="path" fill="none" stroke="#000" stroke-width="1" d="M128.324,211.655c0.441,0.386,0.689,0.964,0.716,1.57c-1.24,0.606-2.644,0.881-3.994,0.771
		c0.248-0.413,0.854-0.606,1.295-0.386C126.837,212.839,127.525,212.15,128.324,211.655"/>
	<path class="path" fill="none" stroke="#000" stroke-width="1" d="M166.337,92.383c-0.661,0-1.295,0-1.928,0c-0.165-0.248-0.331-0.523-0.468-0.771
		c0.964-1.102,2.617-1.543,4.022-1.074c0.11,0.193,0.248,0.386,0.386,0.578c-0.331,0.799-1.157,1.35-2.011,1.295"/>
	<path class="path" fill="none" stroke="#000" stroke-width="1" d="M135.045,94.091c-0.606,0.441-1.184,0.854-1.763,1.295c-0.165,0.11-0.331,0.22-0.523,0.22
		c-0.358-0.028-0.523-0.441-0.523-0.799c-0.028-1.405,1.625-2.562,2.92-2.066c0.165,0.055,0.331,0.165,0.413,0.303
		C135.789,93.43,135.403,93.843,135.045,94.091"/>
	<path class="path" fill="none" stroke="#000" stroke-width="1" d="M233.437,87.122c-1.157-0.11-2.286-0.193-3.443-0.303c1.405-0.413,2.892-0.578,4.38-0.441
		C234.732,86.736,233.961,87.149,233.437,87.122"/>
	<path class="path" fill="none" stroke="#000" stroke-width="1" d="M143.502,170.887c0.303,0.138,0.22,0.606-0.055,0.799c-0.248,0.193-0.606,0.165-0.937,0.138
		c-1.074-0.11-2.176-0.22-3.25-0.331C140.362,170.447,142.152,170.171,143.502,170.887"/>
	<path class="path" fill="none" stroke="#000" stroke-width="1" d="M379.951,315.225c0.386-1.515,0.909-3.03,1.598-4.435c0.028,1.487,0.028,2.947,0.055,4.435
		C381.053,315.225,380.502,315.225,379.951,315.225"/>
	<path class="path" fill="none" stroke="#000" stroke-width="1" d="M364.801,202.041c-1.184,1.212-3.195,0.496-4.71-0.248
		C361.579,200.995,363.644,200.802,364.801,202.041"/>
	<path class="path" fill="none" stroke="#000" stroke-width="1" d="M160.222,74.727c1.019,1.212,1.818,2.644,2.259,4.187C161.048,78.059,160.139,76.379,160.222,74.727
		"/>
	<path class="path" fill="none" stroke="#000" stroke-width="1" d="M85.326,196.422c0.055,0.275,0.138,0.551,0.028,0.826c-0.055,0.138-0.165,0.275-0.275,0.358
		c-0.606-1.57-0.799-3.305-0.606-4.986C84.747,193.888,85.05,195.155,85.326,196.422"/>
	<path class="path" fill="none" stroke="#000" stroke-width="1" d="M123.283,220.331c-0.303,1.653-1.625,3.113-3.25,3.526c-0.523-0.744,0.11-1.763,0.909-2.204
		C121.713,221.185,122.65,220.992,123.283,220.331"/>
	<path class="path" fill="none" stroke="#000" stroke-width="1" d="M298.472,153.672c-0.275-0.799-0.165-1.708,0.248-2.452c0.468-0.826,1.295-1.377,1.873-2.121
		C300.428,150.807,299.656,152.432,298.472,153.672"/>
	<path class="path" fill="none" stroke="#000" stroke-width="1" d="M145.705,206.228c1.212-0.248,2.396-0.496,3.608-0.771c0.551-0.11,1.102-0.22,1.625-0.468
		c0.248,0.413-0.275,0.826-0.744,0.964C148.763,206.393,147.193,206.476,145.705,206.228"/>
	<path class="path" fill="none" stroke="#000" stroke-width="1" d="M86.373,120.92c0.028,1.515-0.909,2.892-1.79,4.132c0.661-1.57,0.992-3.278,0.937-4.986
		C85.904,119.763,86.373,120.397,86.373,120.92"/>
	<path class="path" fill="none" stroke="#000" stroke-width="1" d="M274.315,159.594c0.551,0,1.102,0,1.653,0c0.138,0.303,0.193,0.661,0.138,1.019
		c-0.716,0.22-1.432,0.441-2.149,0.661c0.055,0.386-0.606,0.138-0.689-0.248c-0.386,0.468-1.295,0.11-1.267-0.468
		c0.303-0.331,0.606-0.634,0.909-0.964c0.331,0.358,1.019,0.331,1.295-0.083"/>
	<path class="path" fill="none" stroke="#000" stroke-width="1" d="M117.829,216.007c-0.248-0.028-0.523-0.083-0.716-0.248c-0.138-0.11-0.248-0.275-0.275-0.441
		c1.928-0.689,4.159-0.468,5.922,0.606C121.245,216.585,119.482,216.31,117.829,216.007"/>
	<path class="path" fill="none" stroke="#000" stroke-width="1" d="M274.232,214.547c1.377-0.22,2.755-0.468,4.159-0.689c0.22-0.028,0.468-0.083,0.689,0
		c0.303,0.083,0.551,0.386,0.551,0.716C278.171,215.869,275.692,215.869,274.232,214.547"/>
	<path class="path" fill="none" stroke="#000" stroke-width="1" d="M70.451,150.256c0.496,0.496,0.992,0.992,1.515,1.487c-0.028,0.551-0.909,0.248-1.267-0.165
		c-0.523-0.634-1.047-1.267-1.57-1.928c-0.193-0.22-0.386-0.496-0.386-0.799c-0.028-0.303,0.303-0.606,0.578-0.496
		c0.22,0.11,0.193,0.496-0.055,0.551c0.441,0.413,0.854,0.826,1.295,1.24"/>
	<path class="path" fill="none" stroke="#000" stroke-width="1" d="M304.863,196.835c0.606,0.303,0.551,1.267,0.028,1.735c-0.523,0.441-1.267,0.468-1.928,0.413
		c-0.661-0.055-1.295-0.165-1.928-0.358c-0.496-0.771-0.606-1.79-0.275-2.644C302.218,195.816,303.733,197.744,304.863,196.835"/>
	<path class="path" fill="none" stroke="#000" stroke-width="1" d="M168.375,52.387c-1.983,0-3.967,0.165-5.922,0.496c-0.248-0.11-0.413-0.386-0.413-0.634
		c1.708-0.551,3.471-0.826,5.234-0.799C167.879,51.451,168.706,51.891,168.375,52.387"/>
	<path class="path" fill="none" stroke="#000" stroke-width="1" d="M252.141,75.112c-1.79-0.468-3.361-1.625-4.325-3.195c-0.11-0.193-0.11-0.523,0.11-0.496
		c0.606,0.909,1.515,1.625,2.534,2.011C251.287,73.762,252.444,74.286,252.141,75.112"/>
	<path class="path" fill="none" stroke="#000" stroke-width="1" d="M259.413,70.292c-1.487-0.468-2.947-1.129-4.297-1.956c-0.22-0.11-0.303-0.413-0.22-0.634
		c1.901,0.441,3.746,1.047,5.537,1.846C260.101,69.796,259.771,70.044,259.413,70.292"/>
	<path class="path" fill="none" stroke="#000" stroke-width="1" d="M54.558,98.911c0.413-1.79,1.102-3.498,2.038-5.041c-0.248,2.066-0.881,4.104-1.818,5.977
		C54.695,99.517,54.613,99.214,54.558,98.911"/>
	<path class="path" fill="none" stroke="#000" stroke-width="1" d="M203,92.328c-1.46,0.028-3.002,0.083-4.325-0.551c-0.634-0.275-1.24-0.881-1.074-1.515
		c0.661,0,1.35-0.11,1.983-0.303C201.099,89.518,202.89,90.73,203,92.328"/>
	<path class="path" fill="none" stroke="#000" stroke-width="1" d="M68.275,64.011c-0.11-0.689-0.634-1.267-1.295-1.487c0.413-0.771,1.598-0.275,2.231,0.358
		c0.606,0.634,1.57,1.377,2.231,0.799c0.551,0.165,0.303,1.047-0.22,1.295c-0.523,0.22-1.184,0.193-1.598,0.578
		c-0.634-0.11-0.716-1.184-0.11-1.405C69.129,63.984,68.688,63.929,68.275,64.011"/>
	<path class="path" fill="none" stroke="#000" stroke-width="1" d="M47.534,165.819c1.047,0.386,2.204,0.551,3.333,0.413c0.441-0.055,0.909-0.138,1.322,0
		c0.413,0.165,0.744,0.716,0.468,1.074c-2.369,0.028-4.765-0.331-7.052-0.992C46.129,165.902,46.845,165.709,47.534,165.819"/>
	<path class="path" fill="none" stroke="#000" stroke-width="1" d="M77.723,162.183c0.386-1.515-0.413-3.25-1.818-3.967c-0.358-0.165-0.799-0.496-0.606-0.826
		c0.165-0.248,0.551-0.138,0.826,0c1.735,0.937,3.278,3.03,2.369,4.793C78.329,162.403,77.916,162.431,77.723,162.183"/>
	<path class="path" fill="none" stroke="#000" stroke-width="1" d="M231.261,163.009c-2.204,0.937-4.683,1.24-7.024,0.881c-0.193-0.028-0.248-0.275-0.11-0.386
		C226.468,163.065,228.865,162.899,231.261,163.009"/>
	<path class="path" fill="none" stroke="#000" stroke-width="1" d="M327.229,209.616c0.468,0.826,0.22,1.928-0.413,2.617c-0.661,0.689-1.653,0.964-2.589,0.881
		c-0.468-0.028-0.936-0.138-1.295-0.413c-0.909-0.661-0.937-2.176-0.11-2.947c0.826-0.771,2.341-0.634,3.03,0.275
		C326.045,209.506,326.789,209.286,327.229,209.616"/>
	<path class="path" fill="none" stroke="#000" stroke-width="1" d="M52.877,113.676c0.165,2.617-0.578,5.261-2.038,7.437C51.197,118.579,51.886,116.072,52.877,113.676
		"/>
	<path class="path" fill="none" stroke="#000" stroke-width="1" d="M331.774,211.902c-0.055-0.165-0.083-0.358-0.055-0.523c0.11-0.358,0.523-0.496,0.881-0.551
		c1.377-0.193,2.81-0.028,4.104,0.496c0.992,0.386,2.011,1.46,1.46,2.369c-1.267-0.881-2.892,0.937-4.407,0.661
		C332.656,214.161,332.077,212.949,331.774,211.902"/>
	<path class="path" fill="none" stroke="#000" stroke-width="1" d="M109.621,219.918c0.165,0.909-0.413,1.846-1.184,2.369c-0.744,0.551-1.708,0.771-2.617,0.964
		c-0.744,0.165-1.515,0.303-2.286,0.248c-0.468-0.689,0.165-1.625,0.964-1.901c0.771-0.275,1.625-0.11,2.452-0.22
		c0.799-0.11,1.708-0.634,1.708-1.46C108.987,219.918,109.29,219.918,109.621,219.918"/>
	<path class="path" fill="none" stroke="#000" stroke-width="1" d="M47.093,146.207c-1.35,0.661-2.865,0.854-4.325,0.606c0.248-0.358,0.496-0.744,0.716-1.102
		c-0.165,0.193,0.248,0.386,0.523,0.331c1.901-0.441,3.829-0.881,5.729-1.295c0.22,0.331,0.275,0.771,0.138,1.157
		C49.241,146.73,47.892,146.868,47.093,146.207"/>
	<path class="path" fill="none" stroke="#000" stroke-width="1" d="M171.818,213.528c0.413,0.689,0.11,1.625-0.468,2.176c-0.606,0.551-1.405,0.799-2.204,0.937
		c-0.937,0.193-1.901,0.303-2.865,0.303c-0.744-0.909-0.744-2.341-0.028-3.278c0.716-0.937,2.093-1.295,3.195-0.826
		C170.221,213.17,171.047,213.913,171.818,213.528"/>
	<path class="path" fill="none" stroke="#000" stroke-width="1" d="M57.588,116.017c0.055,2.286-0.055,4.6-0.358,6.859c-0.083,0.799-0.303,1.708-1.019,2.038
		C55.935,121.912,56.431,118.827,57.588,116.017"/>
	<path class="path" fill="none" stroke="#000" stroke-width="1" d="M63.317,140.725c1.24,0.826,2.314,1.873,3.168,3.085c0.523,0.744,1.019,1.46,1.543,2.204
		c-0.083,0.331-0.496,0.413-0.799,0.303c-0.303-0.138-0.496-0.413-0.661-0.689C65.466,144.003,64.391,142.378,63.317,140.725"/>
	<path class="path" fill="none" stroke="#000" stroke-width="1" d="M197.766,63.047c1.295-2.452,1.928-5.234,1.873-7.988C201.512,57.566,200.548,61.642,197.766,63.047
		"/>
	<path class="path" fill="none" stroke="#000" stroke-width="1" d="M90.56,70.292c0.248,0.11,0.496,0.22,0.744,0.358c0.358,0.165,0.799,0.634,0.468,0.909
		c-2.617-0.606-5.123-1.735-7.355-3.25C86.593,68.391,88.604,69.355,90.56,70.292"/>
	<path class="path" fill="none" stroke="#000" stroke-width="1" d="M267.373,179.234c-0.028,0.606-0.138,1.377-0.716,1.543c-0.331-3.113-0.193-6.28,0.358-9.365
		c0.303-0.248,0.606,0.358,0.606,0.771C267.539,174.523,267.456,176.892,267.373,179.234"/>
	<path class="path" fill="none" stroke="#000" stroke-width="1" d="M38.278,176.865c0.578-0.193,1.019,0.689,0.744,1.212c-0.303,0.551-0.964,0.744-1.543,0.909
		c-2.149,0.578-4.325,1.019-6.528,1.322c0.358-1.184,1.708-1.708,2.92-2.093C35.331,177.774,36.791,177.305,38.278,176.865"/>
	<path class="path" fill="none" stroke="#000" stroke-width="1" d="M63.427,140.918c-1.46-1.57-2.92-3.14-4.38-4.683c-0.413-0.413-0.799-0.826-1.184-1.24
		C60.37,136.153,62.408,138.329,63.427,140.918"/>
	<path class="path" fill="none" stroke="#000" stroke-width="1" d="M212.227,66.215c-0.193-1.405-0.358-2.81-0.523-4.242c-0.055-0.413,0.028-1.019,0.468-1.047
		c1.405,3.002,1.901,6.418,1.322,9.696C212.613,69.355,212.42,67.758,212.227,66.215"/>
	<path class="path" fill="none" stroke="#000" stroke-width="1" d="M156.338,213.39c1.405,0.11,3.058,0.11,3.884-1.047c0.523-0.716,1.598-0.661,2.479-0.523
		c0.551,0.083,1.102,0.165,1.653,0.248c0.193-0.165,0.386,0.248,0.303,0.496c-0.551,1.68-2.149,2.947-3.911,3.14
		C159.01,215.869,157.192,214.932,156.338,213.39"/>
	<path class="path" fill="none" stroke="#000" stroke-width="1" d="M97.005,60.403c0.028,0.275-0.331,0.413-0.606,0.441c-2.865,0.358-5.757,0.716-8.649,1.074
		c-0.165-0.468,0.386-0.826,0.826-0.992C91.276,60.017,94.223,59.824,97.005,60.403"/>
	<path class="path" fill="none" stroke="#000" stroke-width="1" d="M135.706,171.135c-1.956-0.22-3.939-0.468-5.895-0.689c-0.386-0.055-0.909-0.248-0.854-0.634
		c3.14-0.055,6.308,0.22,9.393,0.854c0.248-0.331,0.909-0.165,0.937,0.248C138.185,171.411,136.918,171.273,135.706,171.135"/>
	<path class="path" fill="none" stroke="#000" stroke-width="1" d="M65.356,154.443c-2.176-1.818-4.104-3.939-5.647-6.308c-0.165-0.248-0.11-0.606,0.083-0.799
		c1.57,0.992,2.727,2.534,3.746,4.104C64.171,152.404,64.805,153.424,65.356,154.443"/>
	<path class="path" fill="none" stroke="#000" stroke-width="1" d="M112.816,173.174c0.716,0.468,1.625,0.441,2.452,0.523c2.011,0.22,3.939,1.129,5.344,2.562
		c0.303,0.303,0.578,0.799,0.275,1.074c-2.589-1.515-5.371-2.699-8.264-3.443C112.431,173.67,112.541,173.284,112.816,173.174"/>
	<path class="path" fill="none" stroke="#000" stroke-width="1" d="M273.213,179.95c0.496,2.699-0.055,5.592-1.46,7.961c-0.413,0.661-0.881,1.295-1.487,1.763
		C271.257,186.423,272.221,183.173,273.213,179.95"/>
	<path class="path" fill="none" stroke="#000" stroke-width="1" d="M136.175,244.131c1.322-0.193,2.672-0.413,3.994-0.606c0.496-0.083,0.964-0.138,1.46-0.083
		c1.047,0.11,2.093,0.799,3.058,0.386c-0.083,1.019-1.377,1.377-2.396,1.46c-2.644,0.193-5.289,0.413-7.933,0.634
		c-0.248-0.441,0-1.019,0.386-1.322C135.156,244.296,135.679,244.213,136.175,244.131"/>
	<path class="path" fill="none" stroke="#000" stroke-width="1" d="M234.815,87.012c0.303-0.468,1.102-0.909,1.24-0.358c0.055,0.165,0.386,0.165,0.441,0
		c2.782,0.083,5.564,0.386,8.291,0.937c0.083,0.386-0.358,0.716-0.771,0.689c-0.386,0-0.744-0.22-1.102-0.413
		C240.434,86.709,237.321,88.114,234.815,87.012"/>
	<path class="path" fill="none" stroke="#000" stroke-width="1" d="M51.39,127.448c0.165-0.248,0.303-0.496,0.468-0.744c1.956,2.452,3.884,4.958,5.757,7.52
		c-0.992-0.165-1.708-1.019-2.314-1.79C54.007,130.754,52.685,129.101,51.39,127.448"/>
	<path class="path" fill="none" stroke="#000" stroke-width="1" d="M176.115,183.145c-0.799-0.11-1.377,0.689-1.653,1.432c-0.331,0.799-0.551,1.625-0.661,2.479
		c-0.11,0.992-0.11,1.983-0.386,2.947c-0.248,0.937-0.881,1.873-1.846,2.149c0.193-2.92,0.716-5.812,1.515-8.622
		c0.138-0.441,0.275-0.881,0.386-1.322C174.297,182.649,175.206,182.952,176.115,183.145"/>
	<path class="path" fill="none" stroke="#000" stroke-width="1" d="M87.419,92.906c0.193-0.854,0.881-1.983,1.68-1.598c-0.055,2.975-0.881,5.867-1.708,8.732
		c-0.303,1.047-0.634,2.176-1.487,2.892c-0.606-0.661-0.441-1.708-0.22-2.589C86.262,97.865,86.841,95.386,87.419,92.906"/>
	<path class="path" fill="none" stroke="#000" stroke-width="1" d="M60.302,103.721c0.256-1.136,0.553-2.258,0.839-3.377c0.661-2.837,1.047-5.729,1.129-8.649
		c-1.499,3.788-2.21,7.901-2.104,11.982C60.212,103.692,60.257,103.706,60.302,103.721z"/>
	<path class="path" fill="none" stroke="#000" stroke-width="1" d="M68.275,130.671c2.479,1.35,4.407,3.553,5.757,6.032c0.248,0.496,0.881,0.578,1.405,0.716
		s1.102,0.606,0.909,1.129c-0.881,0.386-1.79-0.441-2.424-1.157C72.049,135.161,70.148,132.902,68.275,130.671"/>
	<path class="path" fill="none" stroke="#000" stroke-width="1" d="M313.539,197.111c-0.358-0.028-0.634,0.303-0.882,0.551c-1.405,1.543-4.159,1.543-5.564-0.028
		c-0.771-1.074,0.11-2.672,1.35-3.113c1.24-0.468,2.589-0.138,3.884,0.193c0.634,0.165,1.267,0.331,1.901,0.496
		C314.999,195.706,314.476,197.193,313.539,197.111 M308.802,196.56c0.826,0.331,1.763,0.331,2.589,0.055
		c-0.496-0.854-1.68-1.267-2.617-0.881c-0.22,0.165-0.138,0.551,0.11,0.606"/>
	<path class="path" fill="none" stroke="#000" stroke-width="1" d="M101.054,246.665c-1.818-0.386-3.636,0.496-5.399,1.074c-1.818,0.578-3.719,0.881-5.647,0.826
		c-0.165-0.744-0.992-1.267-1.735-1.129c4.325-1.102,8.759-1.735,13.194-1.928C101.33,245.893,101.192,246.279,101.054,246.665"/>
	<path class="path" fill="none" stroke="#000" stroke-width="1" d="M117.499,56.464c0.22,0.358,0.138,0.909-0.22,1.157c-1.901,0.303-3.829,0.606-5.729,0.771
		c-2.038,0.193-4.104,0.22-6.143,0.138c-0.22-0.193,0.11-0.496,0.413-0.551c1.983-0.551,4.077-0.799,6.17-0.716
		C113.257,55.803,116.011,57.703,117.499,56.464"/>
	<path class="path" fill="none" stroke="#000" stroke-width="1" d="M69.239,93.072c-0.138-0.826-0.248-1.818,0.331-2.424c0.937-1.019,0.964-2.534,1.129-3.911
		c0.138-1.377,0.606-2.947,1.901-3.443c0.22,4.517-0.744,9.09-2.837,13.084C69.597,95.275,69.405,94.174,69.239,93.072"/>
	<path class="path" fill="none" stroke="#000" stroke-width="1" d="M331.995,205.154c2.121,0,4.242-0.248,6.28-0.771c0.523-0.138,0.854-0.744,0.689-1.267
		c0.551,0.248,0.578,1.047,0.468,1.653c-0.248,1.598-0.826,3.416-2.341,3.939c-1.047,0.386-2.286-0.055-3.14-0.799
		S332.546,206.146,331.995,205.154 M337.228,206.834c0.083-0.22,0.028-0.496-0.11-0.689c-0.716-0.138-1.515,0.275-1.79,0.964
		c0.193,0.303,0.606,0.468,0.964,0.413c0.083-0.413,0.523-0.689,0.937-0.578"/>
	<path class="path" fill="none" stroke="#000" stroke-width="1" d="M257.402,89.381c-1.735-0.248-3.471-0.496-5.206-0.744c-0.496-0.055-0.992-0.138-1.487-0.055
		c-1.735,0.303-3.526,0.11-5.179-0.496c0.028-0.165,0.22-0.193,0.386-0.22c4.297-0.386,8.649,0.055,12.946,0.496
		c0.358,0.193,0.083,0.771-0.303,0.881C258.201,89.353,257.76,89.243,257.402,89.381"/>
	<path class="path" fill="none" stroke="#000" stroke-width="1" d="M63.703,221.984c0.055-1.763,1.928-3.195,3.636-2.81c1.157,1.432,0.716,3.774-0.744,4.876
		c-1.46,1.102-3.691,0.937-5.096-0.22c-0.386-0.331-0.744-0.744-0.716-1.212c0-0.496,0.551-0.964,0.964-0.716
		c0.441,0.248,0.881,0.496,1.322,0.744c0.496,0.275,1.047,0.578,1.625,0.606c1.295,0.083,2.424-1.432,1.956-2.644
		C65.741,221.213,64.75,221.681,63.703,221.984"/>
	<path class="path" fill="none" stroke="#000" stroke-width="1" d="M267.428,218.376c-0.578,0-1.184,0-1.653-0.331c-0.468-0.331-0.661-1.102-0.248-1.46
		c1.102,0.248,2.314,0.083,3.278-0.468c0.386-0.22,0.826-0.22,1.24-0.22c1.79,0,3.581,0.331,5.261,0.937
		c1.074,0.386,2.259,0.881,3.278,0.358c0.331-0.165,0.634-0.468,1.019-0.496c0.386-0.055,0.854,0.358,0.634,0.661
		c-0.083,0.11-0.22,0.165-0.331,0.22c-1.901,0.771-4.022,0.799-6.088,0.799c-0.606,0-1.212,0-1.818,0
		C270.458,218.376,268.943,218.376,267.428,218.376"/>
	<path class="path" fill="none" stroke="#000" stroke-width="1" d="M241.866,169.675c0.551,0.303,1.24,0.028,1.79-0.248c1.515-0.744,3.002-1.46,4.545-2.176
		c0.441-0.193,0.964-0.386,1.377-0.138c0.413,0.248,0.275,1.102-0.193,0.992c-2.562-0.606-4.517,3.03-7.134,2.782
		c-1.928-0.165-3.113,2.231-5.013,2.672C238.148,171.686,239.883,170.226,241.866,169.675"/>
	<path class="path" fill="none" stroke="#000" stroke-width="1" d="M185.481,50.073c-0.881,0.744-2.038,1.157-3.223,1.157c0-0.468-0.716-0.468-1.157-0.275
		c-1.818,0.689-3.691,1.405-5.316,2.534c-1.212,0.826-2.259,1.901-3.113,3.113c-0.441-0.854,0.165-1.873,0.799-2.562
		c1.956-2.176,4.683-3.664,7.575-4.159c0.661-0.11,1.625,0.083,1.57,0.771C183.387,50.018,184.517,49.798,185.481,50.073"/>
	<path class="path" fill="none" stroke="#000" stroke-width="1" d="M227.928,72.936c0.634-0.441,1.625-0.193,1.983,0.496c0-0.578,0.771-0.744,1.35-0.716
		c2.452,0.083,4.876,0.193,7.327,0.303c1.377,0.055,2.865,0.138,3.884,1.074c0.11,0.386-0.441,0.551-0.854,0.551
		c-4.049-0.138-8.098-0.303-12.148-0.441c-0.413,0.11-0.606-0.496-0.606-0.937c0.083,0.331-0.331,0.661-0.634,0.523
		C227.901,73.68,227.763,73.239,227.928,72.936"/>
	<path class="path" fill="none" stroke="#000" stroke-width="1" d="M51.528,221.24c0.909-0.248,2.011-0.441,2.755,0.165s0.716,1.846,0.138,2.644
		c-0.551,0.771-1.515,1.184-2.452,1.432c-0.992,0.248-2.038,0.358-3.085,0.303c-0.661-0.055-1.322-0.165-1.873-0.523
		c-0.551-0.386-0.937-1.047-0.799-1.68c0.22-0.937,1.295-1.322,2.204-1.543C49.462,221.764,50.481,221.488,51.528,221.24
		 M47.506,223.609c1.267,0.799,2.865,1.019,4.297,0.606c0.551-0.165,1.074-0.413,1.432-0.826c-0.138-0.22-0.275-0.441-0.413-0.661
		C51.032,222.452,49.131,222.755,47.506,223.609"/>
	<path class="path" fill="none" stroke="#000" stroke-width="1" d="M128.958,55.858c2.176-0.551,4.462-0.689,6.694-0.386c-0.138,0.441-0.716,0.578-1.212,0.661
		c-5.261,0.661-10.605,0.992-15.921,1.019c-0.165-0.468,0.468-0.799,0.937-0.909c2.589-0.496,5.234-0.551,7.823-0.165
		C127.856,56.161,128.407,55.996,128.958,55.858"/>
	<path class="path" fill="none" stroke="#000" stroke-width="1" d="M278.033,150.807c-0.248-0.854-0.496-1.708-0.771-2.562c-0.303-1.019-0.578-2.121-0.193-3.085
		c-0.854-0.937-1.102-2.259-1.322-3.498c-0.331-1.928-0.661-3.856-0.992-5.785c1.019,1.846,1.68,3.884,1.901,5.977
		c0.11,1.157,0.138,2.424,0.909,3.278c0.523,2.369,1.074,4.738,1.598,7.107C278.529,152.157,278.226,151.44,278.033,150.807"/>
	<path class="path" fill="none" stroke="#000" stroke-width="1" d="M264.04,210.387c-2.562,0-5.123,0.028-7.713,0.028c-1.35,0.028-2.837,0-3.939-0.826
		c0-0.386,0-0.771,0-1.157c1.405-0.413,2.892-0.138,4.352-0.165c2.093-0.028,4.159-0.606,6.225-0.551
		c1.818,0.028,3.553,0.551,5.289,1.074c0.523,0.165,1.074,0.331,1.46,0.689c0.413,0.386,0.606,1.019,0.331,1.487
		c-0.441,0.303-1.019,0.083-1.487-0.11c-1.102-0.441-2.259-0.716-3.443-0.854C264.894,210.332,264.454,210.387,264.04,210.387"/>
	<path class="path" fill="none" stroke="#000" stroke-width="1" d="M86.07,135.932c-0.689,3.002-1.405,6.005-2.093,9.007c-0.468,2.038-0.964,4.077-1.653,6.032
		c-0.303,0.881-0.661,1.763-1.074,2.617c-0.248-0.523-0.11-1.157,0.028-1.708c1.267-5.289,2.617-10.577,3.994-15.839
		C85.491,135.877,85.822,135.822,86.07,135.932"/>
	<path class="path" fill="none" stroke="#000" stroke-width="1" d="M67.339,74.286c-0.055,3.03-0.992,5.95-1.901,8.842c-0.881,2.81-1.763,5.619-2.672,8.429
		c-0.496,0.165-0.716-0.661-0.634-1.184c0.964-5.812,3.526-11.294,4.159-17.133c0.193-0.248,0.634-0.165,0.826,0.083
		C67.311,73.597,67.339,73.955,67.339,74.286"/>
	<path class="path" fill="none" stroke="#000" stroke-width="1" d="M292.908,178.187c2.424-0.275,4.848-0.358,7.3-0.248c0.358,0.193,0.716,0.358,1.074,0.551
		c-0.22,0.799-1.184,1.074-1.983,1.24c-0.523,0.083-1.047,0.193-1.598,0.303c-1.708,0.331-3.443,0.661-5.179,0.661
		c-1.68,0-3.388,0-5.068,0c-0.248-0.854,0.689-1.598,1.543-1.818c0.881-0.193,1.846-0.138,2.562-0.634
		c-0.468-0.634-1.212-1.047-1.956-1.129c0-0.303,0-0.578,0-0.854c1.68-0.496,3.581-0.275,5.096,0.578
		c-0.303,0.578-1.047,0.854-1.653,0.606C292.908,177.664,292.853,177.939,292.908,178.187"/>
	<path class="path" fill="none" stroke="#000" stroke-width="1" d="M30.841,175.35c4.407,0.083,8.815-0.661,12.919-2.231c0.193,0.275,0.523,0.496,0.854,0.578
		c-0.881,1.074-1.983,2.259-3.388,2.231c-1.598-0.028-3.223,0.22-4.82,0.441c-2.121,0.331-4.242,0.634-6.363,0.937
		c-1.129,0.165-2.259,0.358-3.388,0.523c-0.523-0.055-0.854-0.771-0.523-1.184C27.123,175.267,29.133,175.295,30.841,175.35"/>
	<path class="path" fill="none" stroke="#000" stroke-width="1" d="M107.803,218.844c-0.331,0.193-0.716,0.441-1.102,0.468c-1.212,0.055-2.121-1.68-3.278-1.295
		c-0.055-0.578,0.193-1.184,0.634-1.57c0.799,1.019,2.369,1.377,3.553,0.799c0.523,0.083,0.468-0.854-0.028-1.074
		c-0.468-0.193-1.047-0.055-1.515-0.331c-0.661-0.413-0.578-1.377-0.413-2.149c1.763-0.331,3.03,2.369,4.793,2.066
		c1.708-0.275,3.388-0.578,5.096-0.854c-0.083-0.468-0.165-0.964,0.055-1.377c0.193-0.413,0.799-0.634,1.129-0.331
		c-0.028,1.598-0.964,3.416-2.562,3.581C111.935,216.998,109.759,217.715,107.803,218.844"/>
	<path class="path" fill="none" stroke="#000" stroke-width="1" d="M152.564,186.34c-0.496,0.138-1.019,0.331-1.377,0.689c-2.093,2.286-5.95,1.708-8.567,3.361
		c-0.193-0.193-0.386-0.413-0.578-0.606c0.551-2.038,2.92-3.03,5.013-2.92c0.578,0.028,1.157,0.11,1.708-0.055
		c0.523-0.193,1.019-0.744,0.881-1.295c-0.386-0.083-0.771-0.22-1.047-0.496c-0.248-0.303-0.303-0.826,0.028-1.047
		c0.165-0.083,0.331-0.11,0.523-0.11c3.526-0.22,7.052-0.441,10.577-0.661c0.193,0.248,0.468,0.441,0.771,0.523
		c-0.248,0.634-0.606,1.212-1.074,1.708C157.109,185.404,154.795,185.707,152.564,186.34"/>
	<path class="path" fill="none" stroke="#000" stroke-width="1" d="M51.721,182.236c0.468,0.551,0.578,1.377,0.303,2.038c-1.818-0.386-3.691-0.441-5.537-0.22
		c-0.937,0.138-1.928,0.358-2.644,0.992c-2.231,2.038-5.785,1.846-8.264,3.608c-0.551,0.386-1.405-0.303-1.295-0.992
		c0.083-0.689,0.771-1.157,1.432-1.322c0.689-0.165,1.377-0.11,2.066-0.248c0.992-0.193,1.901-0.744,2.507-1.57
		c-0.551-0.386-1.322-0.331-1.983-0.165c-0.689,0.138-1.377,0.358-2.038,0.165c-0.661-0.193-1.157-0.992-0.771-1.57
		c1.735-0.028,3.498-0.083,5.234-0.138c1.322-0.028,2.617-0.055,3.911-0.22C47.01,182.291,49.434,181.547,51.721,182.236"/>
	<path class="path" fill="none" stroke="#000" stroke-width="1" d="M56.018,169.978c-2.782,0.165-5.564,0.11-8.346-0.138c-1.735-0.165-3.471-0.413-5.179-0.744
		c-2.534-0.496-5.068-1.212-7.492-2.149c-1.212-0.468-2.562-1.212-2.672-2.507c3.608,2.231,7.933,2.92,12.148,3.581
		c1.432,0.22,2.865,0.441,4.297,0.661c1.157,0.193,2.369,0.358,3.471,0c1.322-0.441,2.837-0.275,4.049,0.441
		C56.018,169.29,55.907,169.675,56.018,169.978"/>
	<path class="path" fill="none" stroke="#000" stroke-width="1" d="M125.79,131.442c-1.708-1.24-2.369-3.664-1.68-5.647c0.689-2.011,2.562-3.471,4.6-3.911
		c2.066-0.441,4.27,0.11,6.032,1.24c0.937,0.606,1.846,1.79,1.267,2.755c-0.744,1.24-1.157,2.699-1.129,4.132
		c0,0.386,0.028,0.799-0.083,1.157c-0.055,0.303-0.193,0.551-0.386,0.799c-0.689,0.854-1.846,1.24-2.947,1.24
		s-2.204-0.331-3.25-0.689C127.36,132.241,126.506,131.938,125.79,131.442 M128.462,130.258c0.358-0.11,0.744-0.193,1.102-0.275
		c-0.578-0.964-1.901-1.405-2.92-0.937c-0.275,0.358,0.028,0.909,0.441,1.074c0.413,0.165,0.881,0.055,1.295-0.028 M130.225,127.338
		c0.331-0.165,0.496-0.578,0.413-0.937c-0.441-0.358-1.295-0.055-1.35,0.551c0.193,0.303,0.578,0.468,0.964,0.413"/>
	<path class="path" fill="none" stroke="#000" stroke-width="1" d="M318.718,183.944c-0.11-0.303-0.248-0.634-0.358-0.937c-0.551,0.11-1.157,0.028-1.653-0.248
		c-0.165,0.165-0.358,0.358-0.523,0.523c-0.11-0.331-0.386-0.606-0.689-0.689c0.964-1.377,2.975-1.46,4.628-1.212
		c1.184,0.165,2.644,0.331,3.361-0.634c0.22-0.275,0.331-0.634,0.496-0.937c0.937-1.763,3.388-1.901,5.399-1.846
		c3.361,0.055,6.721-0.083,10.054-0.386c0.138,0.523,0.248,1.019,0.386,1.515c-1.735,0.771-3.719,0.744-5.619,0.716
		c-1.598-0.028-3.223-0.055-4.848-0.083c-0.937,0-1.901-0.028-2.81,0.275c-0.881,0.331-1.708,1.019-1.873,1.956
		c-0.22,1.102-1.625,1.46-2.727,1.405C320.811,183.31,319.517,183.145,318.718,183.944"/>
	<path class="path" fill="none" stroke="#000" stroke-width="1" d="M226.964,206.256c-2.699-0.496-5.482-0.551-8.181-0.193c-1.405,0.22-2.81-0.413-4.104-1.047
		c-0.193-0.083-0.441-0.22-0.441-0.468c0-0.138,0.11-0.275,0.22-0.413c0.441-0.468,0.909-0.937,1.515-1.129
		c0.634-0.22,1.405,0,1.653,0.578c1.102,0.303,2.286,0.275,3.388-0.055c-0.083-0.358,0.055-0.716,0.331-0.937
		c-0.937-0.606-2.148-0.826-3.223-0.523c-0.248-0.606-0.193-1.35,0.193-1.901c-0.238-0.062-0.475-0.074-0.71-0.063
		c-0.023,0.056-0.038,0.114-0.062,0.17c-0.025,0.059-0.111,0.008-0.086-0.05c0.016-0.038,0.026-0.077,0.042-0.115
		c-0.975,0.085-1.905,0.712-2.682,1.381c-0.799,0.689-1.598,1.487-1.846,2.534c-0.248,1.019,0.275,2.314,1.322,2.534
		c2.038,0.413,3.223,3.14,5.289,2.975c1.019-0.083,1.79-0.826,2.672-1.322c0.854-0.523,2.176-0.634,2.699,0.22
		c0.358,0.606,1.35,0.441,1.763-0.138C227.102,207.716,227.047,206.944,226.964,206.256z"/>
	<path class="path" fill="none" stroke="#000" stroke-width="1" d="M106.205,242.863c-1.184,0.468-2.507,0.496-3.801,0.551c-3.168,0.11-6.363,0.523-9.476,1.212
		c-1.46,0.303-2.975,0.689-4.38,0.248c0.138-0.275,0.275-0.578,0.386-0.881c2.176-0.854,4.517-1.184,6.831-1.515
		c2.534-0.358,5.068-0.716,7.492-1.57c0.275,0.441,0.937,0.331,1.46,0.22c1.405-0.358,2.892-0.468,4.325-0.331
		c0.881,0.083,1.763,0.248,2.644,0.11c0.854-0.138,1.735-0.661,1.983-1.515c0.992,0.413,1.983,0.826,2.975,1.24
		c-0.248,0.303-0.523,0.606-0.771,0.909C112.761,242.561,109.483,243.029,106.205,242.863"/>
	<path class="path" fill="none" stroke="#000" stroke-width="1" d="M262.333,232.369c0.496,0.634-0.496,1.487-1.295,1.322c-0.799-0.165-1.377-0.826-2.093-1.184
		c-1.322-0.661-2.92-0.275-4.352,0.11c-1.901,0.523-3.856,0.992-5.84,1.074c-1.35,0.083-2.699-0.028-4.077-0.11
		c-3.14-0.248-6.28-0.468-9.421-0.716c-1.102-0.083-2.452-0.331-2.837-1.377c1.212-0.606,2.644-0.606,3.994-0.606
		c4.022,0.028,8.016,0.028,12.037,0.028c2.865,0.028,5.785,0.028,8.512-0.881c0.413-0.138,0.909,0.055,1.322,0.248
		c1.157,0.578,2.341,1.129,3.498,1.68C262.002,232.066,262.222,232.176,262.333,232.369"/>
	<path class="path" fill="none" stroke="#000" stroke-width="1" d="M203.826,184.247c-1.846-0.661-3.884,0.468-5.867,0.496c-3.223,0-6.473,0-9.696,0.028
		c-0.578,0-1.35-0.303-1.157-0.826c1.432-0.744,3.085-0.909,4.71-1.074c3.388-0.358,6.804-0.716,10.192-1.074
		c0.964-0.083,1.956-0.193,2.92-0.055c0.441,0.055,0.937,0.165,1.35-0.028c2.672-1.074,6.06,0.468,8.456-1.102
		c0.771-0.496,1.956-0.11,2.204,0.744c0.275,0.854-0.634,1.846-1.487,1.625c-0.248-0.083-0.496-0.22-0.744-0.22
		c-3.278,0.275-6.556,0.854-9.724,1.735C204.597,184.605,204.212,184.385,203.826,184.247"/>
	<path class="path" fill="none" stroke="#000" stroke-width="1" d="M236.357,118.992c1.763,1.24,3.002,3.25,3.002,5.399c0,2.121-1.432,4.27-3.526,4.765
		c-1.35,0.331-2.755-0.028-4.049-0.468c-0.992-0.331-1.983-0.744-2.81-1.405c-1.543-1.295-2.231-3.526-1.653-5.454
		c0.578-1.928,2.396-3.443,4.407-3.636c0.413-0.055,0.937-0.083,1.102-0.496c0.165,0.661,0.937,0.909,1.598,0.937
		C235.09,118.661,235.834,118.606,236.357,118.992 M232.887,121.554c-0.854-0.138-1.708-0.275-2.534-0.413
		c1.157,0.386,2.121,1.267,2.644,2.369c0.358-0.028,0.716-0.055,1.074-0.083c0.496-0.138,0.551-0.909,0.22-1.295
		C233.933,121.746,233.382,121.636,232.887,121.554 M231.482,123.923c-0.275,0.22-0.744,0.165-0.964-0.138
		c-0.303,0.248-0.138,0.799,0.193,0.992c0.358,0.193,0.771,0.138,1.157,0.083c0.331-0.303,0.055-0.992-0.386-0.964 M237.266,123.647
		c-0.22-0.22-0.441-0.413-0.661-0.634c-0.441,0.275-0.854,0.551-1.295,0.826c0.634,0.386,1.79,0.523,1.873-0.22"/>
	<path class="path" fill="none" stroke="#000" stroke-width="1" d="M168.651,194.687c-0.937-0.193-1.928-0.028-2.865-0.193c-0.964-0.165-1.956-0.826-2.011-1.79
		c2.865-0.028,5.729,0.22,8.539,0.771c3.691-5.041,7.134-10.219,10.357-15.563c0.744,0.744,0.303,1.983-0.193,2.92
		c-1.846,3.498-3.967,6.859-6.335,10.054c-0.881,1.157-1.79,2.341-2.121,3.746c-0.413,0.881-1.598,1.129-2.562,0.937
		C170.496,195.375,169.615,194.852,168.651,194.687"/>
	<path class="path" fill="none" stroke="#000" stroke-width="1" d="M172.121,162.403c-4.38,0.523-8.815,0.909-13.222,1.157c-4.132,0.22-8.236,0.331-12.368,0.413
		c-2.176,0.055-4.352,0.11-6.528,0.138c0.303-0.716,1.267-0.854,2.066-0.881c4.82-0.22,9.641-0.441,14.461-0.661
		C161.709,162.348,166.943,162.1,172.121,162.403"/>
	<path class="path" fill="none" stroke="#000" stroke-width="1" d="M58.91,234.187c2.231-0.413,4.435-0.826,6.666-1.24c1.129-0.193,2.259-0.413,3.388-0.578
		c1.928-0.303,3.856-0.523,5.785-0.771c1.956-0.22,3.939-0.441,5.922-0.689c0.165,0.303,0.193,0.634,0.11,0.964
		c-0.937,0.606-1.735,1.377-2.369,2.314c-4.187,1.047-8.401,2.121-12.616,3.168c-0.826,0.22-1.708,0.413-2.507,0.138
		c-0.22-0.523,0.496-0.937,1.047-1.047c2.562-0.551,5.096-1.102,7.658-1.653c1.047-0.248,2.176-0.496,3.002-1.212
		c-2.947-0.331-6.005,0.055-8.787,1.102c-0.744,0.275-1.515,0.386-2.286,0.496c-1.818,0.248-3.636,0.496-5.454,0.771
		c-0.275,0.028-0.578,0.055-0.826-0.083c-0.358-0.248-0.303-0.881,0.028-1.184C58.001,234.352,58.469,234.269,58.91,234.187"/>
	<path class="path" fill="none" stroke="#000" stroke-width="1" d="M266.272,106.624c1.24,6.143,2.479,12.313,3.719,18.455c0.303,1.487,0.606,2.975,0.909,4.435
		c0.854,4.352,1.735,8.732,1.928,13.167c-1.102-4.435-2.176-8.87-3.278-13.304c-0.413-1.68-0.826-3.388-1.184-5.096
		C267.153,118.469,266.712,112.546,266.272,106.624"/>
	<path class="path" fill="none" stroke="#000" stroke-width="1" d="M92.928,110.205c-0.358,2.589-0.689,5.371-2.424,7.3c0.606-3.388,1.24-6.804,1.873-10.219
		c0.138-0.744,0.275-1.487,0.413-2.259c0.551-2.975,1.102-5.977,1.653-8.952c-0.11-0.303-0.496-0.496-0.799-0.386
		c0.193-2.507,0.386-5.013,0.578-7.547c0.028-0.386,0.083-0.826,0.386-1.074c0.331-0.248,0.937-0.028,0.854,0.358
		c-0.413,1.928-0.689,3.911-0.799,5.895c-0.028,0.523,0.413,1.322,0.799,0.937c0.468-1.928,0.937-3.856,1.432-5.785
		c0.11-0.496,0.716-1.074,0.964-0.634c-0.606,2.534-1.24,5.068-1.846,7.603C94.829,100.316,93.617,105.219,92.928,110.205"/>
	<path class="path" fill="none" stroke="#000" stroke-width="1" d="M153.804,211.847c-0.551-0.275-0.716-1.019-0.523-1.598c0.193-0.578,0.661-1.019,1.102-1.46
		c1.102-1.074,2.204-2.149,3.305-3.223c0.331-0.331,0.661-0.661,1.074-0.881c0.826-0.496,1.846-0.496,2.81-0.496
		c2.947,0.028,5.867,0.028,8.815,0.055c1.708,0,3.305,1.24,3.746,2.892c-0.744,0.165-1.35-0.496-1.873-1.047
		c-0.496-0.578-1.322-1.102-1.928-0.661c0.523,0.634-0.248,1.763-1.019,1.515c-0.661-0.22-1.102,0.854-0.634,1.322
		c0.496,0.496,1.35,0.331,1.846-0.11c0.551-0.441,1.322,0,1.956,0.303c0.634,0.275,1.708,0,1.487-0.661
		c0.303,0.606,1.102,0.661,1.735,0.881s1.129,1.157,0.523,1.46c-0.138,0.055-0.275,0.083-0.441,0.083
		c-1.57,0.028-3.14,0.055-4.71,0.083c-0.909,0.028-1.901,0.028-2.644-0.523c-1.074-0.771-1.212-2.286-1.24-3.636
		c-2.038-0.055-4.077-0.028-6.088,0.083c-1.873,0.083-4.132,0.578-4.628,2.369c-0.138,0.496-0.578,0.909-1.074,1.019
		c0.413,0.441,1.157,0.386,1.763,0.193c0.578-0.193,1.157-0.496,1.79-0.496c0.634,0.028,1.295,0.578,1.157,1.184
		c-1.68,0.578-3.388,1.047-5.096,1.377C154.603,211.958,154.162,212.04,153.804,211.847"/>
	<path class="path" fill="none" stroke="#000" stroke-width="1" d="M161.847,234.848c1.212,1.019,2.92,1.46,4.462,1.157c1.212-0.248,2.286-0.909,3.498-1.102
		c1.212-0.165,2.699,0.386,2.92,1.598c-1.956-0.193-3.967,0.11-5.757,0.881c-1.873,0.799-4.022-0.634-6.032-0.303
		c-0.799,0.138-1.543,0.578-2.341,0.606c-1.708,0.083-3.664-1.46-4.931-0.303c-1.79-1.405-4.407,1.074-6.611,0.441
		c-0.303-0.11-0.606-0.248-0.909-0.193c-0.303,0.083-0.523,0.468-0.303,0.689c-0.634-1.24-2.892-0.964-3.195,0.413
		c0.551,0.11,1.129,0.248,1.68,0.386c-1.735-0.165-3.471-0.303-5.206-0.468c-1.047-0.083-2.259-0.275-2.727-1.212
		c2.149-0.275,4.297-0.578,6.446-0.854c0.468-0.083,0.937-0.138,1.405-0.193c4.187-0.578,8.374-1.157,12.506-2.011
		C158.486,234.021,160.497,233.691,161.847,234.848 M158.459,236.032c0.303,0.358,0.799,0.523,1.267,0.413
		c0.138-0.331,0.275-0.661,0.413-0.992c-0.937-0.468-2.066-0.578-3.085-0.22c0.303,0.468,0.854,0.771,1.432,0.744"/>
	<path class="path" fill="none" stroke="#000" stroke-width="1" d="M297.673,182.952c1.432,2.149,2.341,4.655,2.589,7.217c0.799-1.57,2.121-2.81,3.25-4.187
		c1.102-1.377,2.038-3.085,1.79-4.848c-0.083-0.578,0.909-0.771,1.267-0.303c0.358,0.468,0.248,1.129,0.11,1.708
		c-0.331,1.377-0.634,2.755-0.964,4.132c-0.331,1.46-1.074,3.25-2.562,3.278c-0.331,0.303-0.138,0.909,0.275,1.129
		c0.386,0.22,0.854,0.165,1.295,0.11c1.928-0.275,3.856-0.523,5.785-0.771c1.653-0.22,3.361-0.468,4.848-1.184
		c0.634-0.303,1.295-0.716,1.983-0.578c0.689,0.138,1.074,1.24,0.441,1.515c-5.096,2.231-10.77,3.085-16.307,2.479
		c-0.413-0.028-0.826,0.138-1.212,0.275c-2.369,0.716-4.82-0.634-6.914-1.928c-1.57-0.964-3.333-2.314-3.14-4.132
		c2.259,0.578,4.517,1.24,6.749,1.956c0.055,1.24,1.598,2.093,2.699,1.515c-0.22-0.386-0.661-0.634-1.102-0.578
		c0.413-1.129-0.331-2.341-0.881-3.416C297.095,185.239,296.737,183.724,297.673,182.952"/>
	<path class="path" fill="none" stroke="#000" stroke-width="1" d="M206.829,232.589c-0.634,0-1.295,0-1.928,0c-0.413-0.716,0.275-1.735,1.074-1.625
		c0.578,0.055,0.744-0.909,0.275-1.24c-0.468-0.358-1.102-0.193-1.653,0.028c-0.523,0.22-1.074,0.523-1.625,0.413
		c-0.523-0.11-0.937-0.496-1.432-0.523c-0.275-0.028-0.523,0.028-0.771,0.11c-0.964,0.275-1.956,0.551-2.92,0.826
		c0,0.606,0.606,1.074,1.212,1.184c0.606,0.138,1.212,0,1.818,0c1.35-0.028,2.699,0.551,3.608,1.543
		c1.212,1.295,3.058,1.983,4.82,1.735c0.331,0.413,0.358,1.047,0.055,1.487c-0.303,0.441-0.909,0.606-1.405,0.413
		c-0.496,0.964-1.019,1.928-1.515,2.865c0.138-1.487,0.22-3.223-0.881-4.27c0.358,1.184,0.083,2.589-0.854,3.416
		c-0.909,0.826-2.452,0.964-3.416,0.193c-1.57-1.267-3.664-1.901-5.702-1.68c-0.193,0.578,0.386,1.129,0.964,1.35
		c0.551,0.193,1.212,0.22,1.68,0.634c0.055,0.028,0.083,0.083,0.138,0.138c0.165,0.331-0.303,0.634-0.661,0.689
		c-1.102,0.165-2.259-0.331-2.92-1.24s-0.771-2.149-0.303-3.168c1.46-0.165,2.92-0.138,4.38,0.083
		c-0.055-0.496-0.083-0.964-0.11-1.46c0.358,0.275,0.578,0.689,0.606,1.129c1.129,0,2.231,0,3.361,0
		c-0.028,0.689-0.413,1.35-0.992,1.708c0.386,0.496,1.074,0.771,1.708,0.716c0.826-0.578,1.24-1.653,1.019-2.644
		c-0.193-0.964-1.047-1.79-2.011-1.956c-1.102-0.22-2.231,0.303-3.305,0.138c-1.35-0.22-2.396-1.598-2.259-2.947
		c0.138-1.35,1.432-2.479,2.81-2.396c0.523,0,1.322-0.028,1.267-0.551c0.799,0.606,1.983,0.634,2.81,0.083
		c0.358-0.275,0.854-0.11,1.24,0.055c0.716,0.303,1.432,0.578,2.149,0.881c0.606,0.248,1.267,0.551,1.68,1.102
		c0.386,0.551,0.358,1.432-0.22,1.763c-0.331,0.193-0.744,0.165-1.102,0.248C207.132,231.9,206.746,232.203,206.829,232.589"/>
	<path class="path" fill="none" stroke="#000" stroke-width="1" d="M253.435,67.234c-0.578,0.661-0.771,1.653-0.468,2.479c-0.744-0.826-1.873-1.295-2.975-1.212
		c-0.11,0.358-0.22,0.744-0.303,1.102c4.738,2.782,9.09,6.253,12.781,10.33c1.46,1.57,2.892,3.443,2.81,5.592
		c-0.331-0.055-0.661-0.083-0.992-0.138c0.055-0.606,0.11-1.184,0.165-1.79c-3.002-3.581-6.611-6.583-10.219-9.531
		c-1.102-0.909-2.176-1.818-3.278-2.727c-1.129-0.937-2.314-1.901-3.719-2.314c-0.606-0.193-1.57,0.193-1.24,0.716
		c-0.386-0.358-0.799-0.689-1.295-0.909c1.24-0.193,2.369-0.799,3.25-1.68c-0.854-0.413-1.79-0.744-2.727-0.661
		s-1.901,0.689-2.093,1.625c-2.617-2.149-5.234-4.297-7.85-6.446c1.901,0.22,3.829,0.441,5.729,0.689
		c0.083,0.578,0.138,1.157,0.193,1.735C245.392,63.185,249.193,66.738,253.435,67.234"/>
	<path class="path" fill="none" stroke="#000" stroke-width="1" d="M129.839,117.477c0.716,0.028,1.405,0.165,2.093,0.303c2.975,0.634,6.198,1.598,7.823,4.159
		c1.102,1.735,1.267,3.939,1.129,6.005c-0.193,2.865-1.019,5.95-3.278,7.74c-1.956,1.57-4.6,1.873-7.079,1.928
		c-2.892,0.083-6.143-0.275-7.906-2.562c-0.468-0.661-0.799-1.405-1.074-2.149c-1.267-3.746-1.074-7.961,0.606-11.542
		c0.22-0.496,0.468-0.964,0.799-1.377c1.019-1.212,2.672-1.68,4.214-2.066C128.049,117.697,128.93,117.477,129.839,117.477
		 M122.457,130.616c0.11,0.744,0.303,1.487,0.634,2.149c0.689,1.35,2.038,2.259,3.471,2.699c1.432,0.441,2.975,0.468,4.49,0.331
		c2.617-0.193,5.509-0.992,6.831-3.25c0.606-1.019,0.799-2.204,0.964-3.361c0.22-1.487,0.386-3.002,0.083-4.49
		c-0.275-1.46-1.047-2.92-2.369-3.664c-0.523-0.303-1.129-0.496-1.735-0.661c-1.735-0.523-3.471-1.047-5.261-0.909
		c-1.295,0.083-2.534,0.523-3.746,0.937c-0.468,0.165-0.937,0.331-1.35,0.606c-0.909,0.606-1.35,1.708-1.625,2.782
		C122.237,125.988,122.099,128.357,122.457,130.616"/>
	<path class="path" fill="none" stroke="#000" stroke-width="1" d="M112.486,229.339c1.598-3.746,3.664-7.244,6.143-10.467c0.083,1.57,0.165,3.14,0.248,4.71
		c0.055,0.716,0.083,1.405-0.028,2.121c-0.165,1.157-0.771,2.176-1.35,3.195c-1.047,1.846-2.093,3.664-3.14,5.509
		c0.937,0.799,2.369,0.138,3.443-0.468c4.049-2.286,8.622-3.636,13.249-3.911c0.386,0.523,0.055,1.35-0.496,1.735
		c-0.551,0.358-1.24,0.441-1.901,0.551c-4.297,0.799-8.016,3.774-12.368,4.27c-1.212,0.138-2.534,0.11-3.388,0.964
		c-1.019,1.019-2.755,0.689-4.022,0.055c-2.452-1.24-4.407-3.388-5.371-5.95c2.424,1.129,4.931,2.038,7.52,2.672
		c0.165-1.735-0.055-3.498-0.606-5.123C111.053,228.87,111.88,228.926,112.486,229.339 M113.037,231.129
		c-0.441,1.019-0.799,2.396,0.055,3.113c1.019-1.928,2.011-3.856,3.03-5.812c0.826-1.598,1.68-3.278,1.68-5.096
		c-0.303-0.248-0.744,0.138-0.964,0.496C115.405,226.171,114.138,228.595,113.037,231.129"/>
	<path class="path" fill="none" stroke="#000" stroke-width="1" d="M187.326,63.819c-1.901-0.413-3.939-0.881-5.179-2.369c-1.24-1.515-1.35-3.746-0.551-5.509
		c0.799-1.79,2.369-3.14,4.104-4.022c2.286-1.157,5.013-1.625,7.492-0.909c2.452,0.744,4.573,2.81,5.013,5.344
		c0.578,3.361-2.259,6.886-5.674,7.052c-0.854,0.055-1.79-0.083-2.562,0.331C189.172,64.177,188.208,64.011,187.326,63.819
		 M192.037,61.725c0.138,0.22,0.303,0.441,0.441,0.661c2.121-1.157,4.352-2.947,4.297-5.344c-0.028-1.35-0.799-2.617-1.901-3.416
		c-1.074-0.799-2.424-1.129-3.774-1.212c-1.708-0.083-3.416,0.275-4.931,1.019c-2.149,1.047-3.994,3.333-3.361,5.619
		c0.606,2.286,3.25,3.278,5.564,3.774c0.11,0.028,0.248,0.028,0.358,0c0.248-0.083,0.275-0.496,0.11-0.716
		c-0.165-0.22-0.468-0.303-0.716-0.386c-1.295-0.386-2.699-1.047-3.085-2.341c-0.413-1.35,0.496-2.755,1.543-3.691
		c1.983-1.708,5.179-2.479,7.134-0.771c0.551,0.496,0.992,1.184,1.047,1.928c0.083,0.661-0.138,1.322-0.413,1.928
		C193.827,59.935,193.028,60.954,192.037,61.725 M187.023,57.759c-0.551,0.248-0.661,1.074-0.331,1.598
		c0.358,0.523,0.964,0.771,1.543,0.964c0.744,0.22,1.543,0.386,2.314,0.248c1.901-0.331,3.14-2.755,2.259-4.517
		c-0.937-0.11-1.901-0.22-2.837-0.028c-0.909,0.193-1.818,0.771-2.149,1.653C187.547,57.703,187.271,57.731,187.023,57.759"/>
	<path class="path" fill="none" stroke="#000" stroke-width="1" d="M225.504,116.816c1.35-1.708,3.443-2.617,5.564-2.975c3.746-0.606,7.713,0.468,10.633,2.865
		c0.496-0.964,1.983-0.689,2.92-0.138c0.937,0.578,2.038,1.322,3.03,0.826c0.744-0.413,1.377,1.019,0.744,1.625
		c-0.634,0.578-1.653,0.413-2.452,0.11c-1.405-0.496-2.699-1.212-3.829-2.093c2.644,3.443,2.782,8.594,0.303,12.175
		c-0.744,1.074-1.68,1.983-2.699,2.782c-1.074,0.799-2.259,1.487-3.526,1.873c-3.608,1.102-7.768-0.358-10.164-3.278
		c-2.396-2.92-3.058-7.079-2.011-10.715C224.32,118.772,224.788,117.697,225.504,116.816 M227.074,117.918
		c-0.606,0.716-0.992,1.57-1.295,2.479c-0.771,2.369-0.744,5.068,0.331,7.327c1.074,2.286,3.223,4.077,5.702,4.517
		c3.994,0.689,7.906-2.176,9.751-5.757c0.578-1.157,1.019-2.424,1.019-3.719c0-2.121-1.24-4.104-2.947-5.344
		c-1.708-1.24-3.856-1.79-5.95-1.873C231.261,115.466,228.617,116.072,227.074,117.918"/>
	<path class="path" fill="none" stroke="#000" stroke-width="1" d="M77.09,187.635c-4.159,0.826-8.291,1.653-12.423,2.507c1.763,0.937,3.884,1.24,5.84,0.771
		c-0.716,1.708-3.168,1.267-5.013,1.322c-1.983,0.083-3.801,1.102-5.564,1.983c-11.046,5.564-23.661,6.941-35.974,8.209
		c-3.002,0.331-6.308,0.578-8.787-1.157c1.129-0.551,2.452-0.551,3.691-0.578c5.84-0.083,11.679-0.661,17.436-1.68
		c6.776-1.212,13.442-3.002,19.915-5.344c0.716-0.275,1.598-0.771,1.487-1.543c-0.138-0.771,0.744-1.24,1.487-1.487
		c7.189-2.369,14.489-4.435,21.843-6.198C81.222,186.285,78.908,187.249,77.09,187.635"/>
	<path class="path" fill="none" stroke="#000" stroke-width="1" d="M205.644,129.018c1.35,0.744,1.735,2.644,1.019,3.994c-0.716,1.35-2.286,2.093-3.801,2.093
		c-12.478-0.028-24.929,0.22-37.379,0.799c-1.377,0.055-2.81,0.11-4.132-0.303c-1.35-0.413-2.589-1.405-2.865-2.782
		c-0.303-1.35,0.661-2.975,2.066-3.002c14.158-0.413,28.317-0.799,42.503-1.184C203.936,128.605,204.873,128.605,205.644,129.018
		 M162.866,133.839c13.442-0.248,26.912-0.523,40.382-0.799c0.441-0.028,0.937-0.028,1.322-0.303
		c0.634-0.496,0.578-1.487,0.413-2.286c-13.057,0.358-26.113,0.716-39.197,1.074c-1.79,0.028-3.664,0.11-5.289,0.909
		C160.36,133.481,161.819,133.866,162.866,133.839"/>
	<path class="path" fill="none" stroke="#000" stroke-width="1" d="M205.369,137.723c0.441-0.028,0.909-0.028,1.295,0.138c1.074,0.468,1.295,1.873,1.157,3.002
		c-0.138,1.157-0.468,2.341,0,3.416c-15.48,0.551-30.961,1.129-46.441,1.708c-1.074,0.028-1.983-0.826-2.341-1.818
		c-0.386-0.992-0.303-2.093-0.248-3.14c0.055-0.689,0.11-1.46,0.634-1.928c0.496-0.441,1.184-0.468,1.818-0.496
		C175.95,138.301,190.659,138.026,205.369,137.723 M205.589,139.073c-14.324,1.295-28.73,1.708-43.109,1.24
		c-0.634-0.028-1.405,0.028-1.735,0.578c-0.138,0.275-0.165,0.578-0.138,0.909c0,1.047,0.11,2.121,0.303,3.14
		c1.047-0.661,2.396-0.771,3.636-0.826c13.525-0.799,27.022-1.24,40.547-1.322c0.771,0,1.322-0.854,1.295-1.598
		C206.388,140.422,205.975,139.734,205.589,139.073"/>
	<path class="path" fill="none" stroke="#000" stroke-width="1" d="M81.717,132.682c0.551,1.129,0.854,2.507,0.303,3.636c-0.578,1.129-2.314,1.653-3.14,0.716
		c-5.013-5.537-10.936-10.302-17.436-13.993c-0.496-2.507,0.165-5.206,1.735-7.189c-0.937-0.826-2.589-0.661-3.305,0.358
		c-0.744-0.496,0.193-1.543,0.964-1.983c2.892-1.598,4.931-4.683,5.261-7.961c0.138-1.432,0-2.92,0.523-4.242
		c0.551-1.35,2.149-2.424,3.416-1.763c0.441,0.248,0.771,0.661,1.102,1.074c2.176,2.507,5.151,4.187,8.043,5.812
		c2.644,1.487,5.261,2.947,7.878,4.435c-0.606,0.468-1.212,0.937-1.846,1.405c-1.212,5.922-2.424,11.872-3.636,17.794
		c-0.138,0.634,0.496,1.625,0.826,1.074C82.186,132.131,81.965,132.407,81.717,132.682 M65.08,114.722
		c-0.441,0.937-0.937,1.901-1.047,2.947c-0.138,1.019,0.193,2.204,1.074,2.782c-0.992-0.275-2.121,0.248-2.562,1.184
		c4.022,1.735,7.41,4.573,10.743,7.382c1.102,0.909,2.204,1.846,3.223,2.837c1.57,1.487,2.975,3.113,4.214,4.876
		c1.157-1.735-1.708-3.856-1.24-5.895c1.212-5.537,2.424-11.046,3.664-16.555c0.22-1.074,0.303-2.452-0.661-2.947
		c-5.041-2.507-9.751-5.619-14.048-9.255C68.083,106.459,66.926,110.756,65.08,114.722"/>
	<path class="path" fill="none" stroke="#000" stroke-width="1" d="M240.93,188.489c-1.873-2.452-3.416-5.426-3.03-8.484c0.275-2.341,1.68-4.407,3.498-5.895
		c1.818-1.487,4.022-2.396,6.28-3.058c3.058-0.881,6.335-1.295,9.421-0.523c3.085,0.799,5.95,2.947,6.941,5.977
		c0.799,2.396,0.386,5.096-0.744,7.355c-1.129,2.259-2.92,4.104-4.848,5.729c-1.735,1.46-3.636,2.727-5.812,3.333
		c-3.361,0.964-7.189,0.055-9.779-2.286C242.142,190.004,241.508,189.26,240.93,188.489 M262.663,177.278
		c-0.771-1.873-2.314-3.416-4.159-4.242c-1.102-0.496-2.286-0.744-3.471-0.964c-0.716-0.138-1.46-0.275-2.204-0.275
		c-1.019,0-2.038,0.303-3.03,0.578c-0.634,0.716-0.165,1.928,0.606,2.507c0.771,0.551,1.763,0.744,2.617,1.212
		c1.295,0.689,2.341,2.038,3.801,2.121c1.047,0.055,1.983-0.523,2.92-0.937C260.68,176.865,261.864,176.617,262.663,177.278
		 M249.524,176.204c-1.129-0.138-1.047-1.928-1.956-2.589c-0.799-0.578-1.873-0.028-2.672,0.496
		c-2.011,1.322-4.104,2.755-5.151,4.931c-0.193,0.441-0.358,0.937-0.248,1.405c0.138,0.468,0.661,0.881,1.102,0.716
		c2.093-0.744,4.352-0.992,6.528-0.661C246.824,178.738,247.871,176.865,249.524,176.204 M257.843,179.785
		c-1.184,0.441-1.846,1.735-1.873,3.002c-0.028,1.24,0.468,2.424,1.019,3.553c0.165,0.358,0.386,0.744,0.799,0.826
		c0.413,0.11,0.826-0.22,1.129-0.551c2.093-2.176,3.526-4.986,4.077-7.988C261.231,178.765,259.495,179.151,257.843,179.785
		 M247.458,188.599c-0.303,0.771-0.634,1.543-0.937,2.314c2.617,0.744,5.537,0.413,7.961-0.854c0.331-0.193,0.661-0.386,0.909-0.689
		c0.826-1.074,0-2.617-0.799-3.691c-0.771,0.661-1.818,0.992-2.837,0.881c-0.854-0.083-1.708-0.441-2.507-0.193
		C248.312,186.671,247.844,187.69,247.458,188.599 M248.808,181.713c0.055,0.634,0.193,1.267,0.523,1.818
		c0.744,1.157,2.424,1.515,3.636,0.854c1.212-0.634,1.873-2.121,1.68-3.471c-0.165-1.35-1.074-2.562-2.286-3.25
		c-0.881-0.744-2.369-0.303-3.03,0.661C248.698,179.289,248.67,180.556,248.808,181.713 M244.951,188.847
		c2.231-1.625,3.002-4.986,1.708-7.41c-0.055,0.22-0.11,0.468-0.165,0.716c-2.341,0.028-4.683,0.468-6.859,1.322
		C241.398,185.266,243.188,187.057,244.951,188.847"/>
	<path class="path" fill="none" stroke="#000" stroke-width="1" d="M210.85,55.39c-0.964,3.498-0.937,7.244,0.11,10.715c0.22,0.716,0.468,1.405,0.331,2.121
		c-0.331,1.956-2.892,2.424-4.876,2.396c-11.128-0.11-22.284-0.496-33.385-1.157c-0.634-0.055-1.267-0.11-1.79-0.441
		c-0.744-0.523-0.964-1.515-1.129-2.424c-0.523-2.865-1.047-5.785-0.854-8.677c0.193-2.92,1.157-5.895,3.25-7.933
		c3.581-3.553,9.283-3.471,14.324-3.168c3.085,0.193,6.143,0.358,9.2,0.551c5.206,0.331,11.018,0.937,14.351,4.958
		c0.331,0.386,0.634,0.826,0.716,1.322C211.208,54.233,211.015,54.811,210.85,55.39 M170.992,64.204
		c0.303,0.523,0.992,0.578,1.57,0.578c2.231,0.055,4.462,0.083,6.694,0.138c9.503,0.138,19.034,0.303,28.509-0.413
		c0.331-0.028,0.661-0.055,0.909-0.275c0.303-0.303,0.303-0.771,0.303-1.184c-0.138-2.837-0.275-5.674-0.386-8.512
		c-0.028-0.716-0.083-1.46-0.441-2.066c-0.578-0.964-1.79-1.322-2.865-1.57c-6.776-1.598-13.718-2.424-20.687-2.479
		c-3.25,0-6.638,0.193-9.476,1.79c-2.837,1.598-4.903,5.013-3.939,8.126c0.413,1.405,0.413,2.947-0.055,4.352
		C170.964,63.185,170.744,63.763,170.992,64.204 M172.369,66.298c-0.523,0.11-0.881,0.744-0.689,1.24
		c12.285,0.937,24.57,1.322,36.883,1.184c0.303,0,0.606,0,0.854-0.165c0.578-0.358,0.413-1.35-0.165-1.735
		c-0.551-0.413-1.295-0.413-1.983-0.413C195.645,66.711,183.993,66.656,172.369,66.298"/>
	<path class="path" fill="none" stroke="#000" stroke-width="1" d="M46.294,218.734c-1.57,1.24-3.168,2.479-5.068,3.058c-1.901,0.578-4.187,0.358-5.564-1.047
		c-1.157-1.184-3.03-1.57-4.573-0.937c2.038-1.377,5.013-1.212,6.831,0.441c1.901,1.68,4.573-2.589,6.914-1.625
		c-0.083-0.661-0.165-1.35-0.275-2.011c1.653,0.193,3.113,1.267,4.765,1.405s3.581-1.57,2.672-2.947
		c-0.634-0.964-2.011-0.881-3.14-0.689c-4.104,0.689-8.209,1.377-12.313,2.066c-3.636,0.606-7.3,1.24-10.66,2.699
		c-2.589,1.157-5.785,2.699-7.906,0.854c2.755-1.102,5.564-2.121,8.401-3.002c1.928-0.634,3.884-1.184,5.84-1.708
		c6.198-1.653,12.478-2.892,18.841-3.746c10.688-1.432,21.485-1.708,32.283-1.983c6.143-0.138,12.313-0.303,18.483-0.468
		c7.327-0.193,14.682-0.358,22.009-0.551c2.204,0.11,4.38,0.22,6.583,0.358c-9.035,0.992-18.07,1.818-27.105,2.424
		c-6.721,0.496-13.497,0.854-20.191,0.248c-0.634-0.055-1.24-0.11-1.873-0.028c-4.517,0.716-9.118,1.019-13.69,0.909
		c-0.055-0.275-0.11-0.578-0.165-0.881c-3.443,0.496-6.886,0.992-10.33,1.46c-0.964,0.138-1.928,0.303-2.699,0.854
		c-0.771,0.578-1.212,1.708-0.716,2.534c3.553,0,7.134-0.716,10.412-2.066c-0.138,0.909-0.275,1.818-0.413,2.755
		c-4.628,0.303-9.421,0.661-13.525,2.782C48.801,220.552,47.01,220.028,46.294,218.734"/>
	<path class="path" fill="none" stroke="#000" stroke-width="1" d="M115.708,177.003c0.937,0.661,1.735,1.487,2.424,2.396c2.644,3.416,3.526,8.098,2.369,12.23
		c-1.157,4.159-4.352,7.685-8.374,9.255c-1.653,0.661-3.443,0.964-5.234,1.24c-3.278,0.468-6.804,0.661-9.779-0.854
		c-2.865-1.46-4.82-4.407-5.537-7.575c-0.716-3.14-0.275-6.473,0.716-9.531c0.578-1.79,1.377-3.553,2.699-4.903
		c1.763-1.763,4.27-2.589,6.721-3.223C106.371,174.854,111.742,174.22,115.708,177.003 M103.285,184.77
		c0.771-0.386,0.937-1.487,0.606-2.286c-0.331-0.799-1.019-1.377-1.68-1.928c-0.303-0.275-0.661-0.551-1.074-0.578
		c-0.826-0.055-1.598,0.881-2.341,0.523c-0.055-0.22-0.083-0.468-0.11-0.716c1.487-0.413,2.92-1.047,4.214-1.901
		c-1.267-0.441-2.699-0.248-3.911,0.358c-3.278,1.598-4.6,5.454-5.592,8.952c-0.468,1.57-0.909,3.14-1.377,4.71
		c2.589-0.744,5.179-1.515,7.768-2.259c0.496,0.358,0.413,1.129,0,1.57c-0.386,0.441-0.992,0.606-1.57,0.744
		c-1.708,0.468-3.443,0.909-5.151,1.377c1.019,2.452,2.231,5.123,4.628,6.253c1.763,0.826,3.829,0.689,5.674,1.322
		c0.799-1.598,1.102-3.443,0.881-5.206c-1.157,0.165-2.314-0.551-2.92-1.57c-0.634-0.992-0.799-2.204-0.799-3.361
		C100.503,188.461,101.247,185.872,103.285,184.77 M111.356,188.544c0,1.322,0.028,2.644,0.028,3.967
		c1.543,0.578,3.113,1.184,4.655,1.79c0.386,0.138,0.799,0.275,1.212,0.22c0.771-0.165,1.157-1.047,1.377-1.818
		c0.413-1.487,0.744-3.03,0.716-4.6c0-1.708-0.468-3.416-0.909-5.068c-0.992-3.608-4.903-5.785-8.622-5.95
		c-0.331,0.386,0.248,0.854,0.716,1.047c1.68,0.661,3.278,1.625,4.628,2.837c-0.193,0.386-0.716,0.496-1.129,0.358
		c-0.441-0.11-0.771-0.413-1.102-0.689c-1.102-0.854-2.424-1.405-3.691-1.928c-1.983-0.799-4.077-1.625-6.198-1.46
		c0.799,1.487,1.57,2.975,2.369,4.462c1.019,1.928,2.81,3.443,4.903,4.132c1.267-0.909,2.507-1.846,3.774-2.755
		c0.606-0.441,1.267-0.881,2.011-0.909c0.744-0.055,1.57,0.551,1.46,1.295c-2.259,0.744-4.325,2.093-5.922,3.884
		C111.356,187.663,111.356,188.131,111.356,188.544 M105.957,185.624c-0.634,0-1.267,0.248-1.818,0.578
		c-1.432,0.964-2.341,2.755-2.121,4.462c0.193,1.735,1.515,3.278,3.223,3.691c1.873,0.468,3.939-0.937,4.462-2.81
		s-0.358-3.967-1.901-5.151C107.252,185.982,106.646,185.652,105.957,185.624 M108.051,195.871
		c-1.818,0.744-2.865,2.975-2.259,4.848c1.46-0.303,2.92-0.634,4.38-0.937c1.79-0.193,2.837-2.259,4.6-2.617
		c0.551-0.11,1.35-0.275,1.267-0.826c-0.055-0.331-0.441-0.468-0.771-0.578c-1.047-0.303-2.093-0.606-3.113-0.909
		c-0.799-0.22-1.79-0.413-2.341,0.193C109.345,195.513,108.657,195.623,108.051,195.871"/>
	<path class="path" fill="none" stroke="#000" stroke-width="1" d="M287.399,160.172c-2.479-0.248-5.013-0.303-7.492-0.165c0.937-2.369,4.27-2.396,6.776-1.928
		c2.507,0.496,5.729,0.799,7.052-1.405c1.047-1.735,0.138-3.994-0.937-5.702c-1.074-1.708-2.396-3.553-2.121-5.564
		c1.57,1.212,2.755,2.947,3.333,4.848c2.396-6.831,4.242-13.855,5.482-20.99c1.68,2.947,0.716,6.638-0.303,9.861
		c-1.377,4.462-2.755,8.897-4.132,13.36c2.727-5.234,6.115-10.109,10.082-14.489c0.606,3.333-2.259,6.143-4.545,8.649
		c-2.286,2.479-4.214,6.473-1.956,9.007c0.854,0.11,1.708,0.331,2.507,0.634c0.22-2.947,0.799-5.895,1.735-8.704
		c0.303,1.928,0.606,3.829,0.909,5.757c0.551-1.708,2.672-2.699,4.325-2.066c-1.102,1.377-2.727,2.314-4.462,2.644
		c0.303,0.799,0.606,1.598,0.909,2.396c5.178-2.341,10.082-5.261,14.599-8.649c0.413,2.396-1.983,4.27-4.077,5.537
		c2.424,0.358,4.903,0.248,7.272-0.303c3.305-0.744,7.024-2.286,9.806-0.386c-5.729,1.846-11.459,3.691-17.188,5.537
		c0.854,0.909,2.286,0.771,3.498,0.578c11.238-1.818,22.339-4.352,33.247-7.575c0.771,0.826-0.578,1.956-1.68,2.286
		c-6.308,1.956-12.643,3.911-19.144,5.206c-6.28,1.295-12.698,1.956-19.117,2.231c-0.661,0.028-0.799,0.964-0.937,1.625
		c-0.358,1.68-2.176,2.892-3.829,2.589c-1.68-0.275-2.975-2.038-2.727-3.719c1.184,1.377,3.361,1.79,4.958,0.964
		c-3.002-2.314-7.107-2.507-10.88-2.204c-3.333,0.275-6.666,0.881-9.889,1.79c-0.799,0.248-1.735,1.102-1.129,1.653
		c0.165,0.138,0.413,0.193,0.634,0.193c2.149,0.248,4.325-0.028,6.363-0.744c2.837-0.248,5.674-0.551,8.484-0.937
		c0.661,1.35,1.295,2.975,0.496,4.214c-1.212,1.846-4.049,0.881-5.95-0.22c-1.928-1.129-4.848-1.928-5.922,0
		c0.606,0.138,0.964,0.881,0.716,1.432c-2.093-1.129-4.352,1.267-6.694,1.763c-2.038,0.441-4.077-0.661-5.867-1.708
		c-0.523-0.303-1.074-0.661-1.267-1.212c-0.193-0.551,0.22-1.322,0.799-1.24c2.452,2.424,6.611,2.865,9.531,1.047
		c-0.826-2.369-5.674,0.992-6.666-1.295c1.405-0.331,2.892-0.358,4.297-0.11C285.911,163.009,285.829,160.778,287.399,160.172
		 M318.828,155.737c-0.138-0.275-0.303-0.551-0.441-0.826c-1.157,0.028-2.314,0-3.471-0.083c-0.22,0-0.413,0.11-0.606,0.22
		c-1.377,0.799-2.727,1.598-4.104,2.424c-0.496,0.275-1.074,0.964-0.634,1.35c0.193,0.165,0.468,0.165,0.716,0.138
		c1.46-0.138,2.92-0.275,4.38-0.386c-0.358-0.358-0.744-0.689-1.102-1.047c0.303-0.248,0.551-0.606,0.689-1.019
		C315.798,156.784,317.451,156.509,318.828,155.737 M303.045,157.941c1.102,0.551,2.314,0.937,3.553,1.102
		c0.386,0.055,0.799,0.083,1.157-0.11c0.468-0.248,0.634-0.826,0.799-1.322c-1.322-0.028-2.617-0.083-3.939-0.11
		C304.064,157.473,303.403,157.5,303.045,157.941 M294.423,158.712c1.295-0.578,2.176-2.011,2.093-3.443
		c0-0.386-0.083-0.771-0.22-1.157c-0.468,0.744-0.937,1.487-1.405,2.231C294.45,157.06,293.982,157.996,294.423,158.712
		 M299.464,164.277c0.138,1.129,1.625,1.818,2.589,1.24c0.606-0.386,0.937-1.184,0.716-1.873
		C301.695,164.029,300.593,164.249,299.464,164.277 M297.315,158.079c0.358,0.578,1.129,0.854,1.79,0.661
		c0.22-0.303,0.22-0.744,0-1.074c-0.909,0-1.79-0.303-2.479-0.854c-0.193,0.496,0.138,1.129,0.689,1.24"/>
	<path class="path" fill="none" stroke="#000" stroke-width="1" d="M196.104,154.752c-13.192,0.479-26.392,0.884-39.601,1.206c-2.755,0.083-5.537,0.138-8.291,0.22
		c-4.462,0.083-8.897,0.193-13.332,0.303c-0.937,0.028-1.983,0.028-2.699-0.578c-1.267-1.019-0.771-3.195,0.523-4.159
		c1.295-0.992,3.03-1.074,4.628-1.129c13.084-0.457,26.178-0.749,39.257-1.228c-0.158-0.689-0.377-1.358-0.719-1.971
		c-15.956,0.747-31.912,1.5-47.876,2.236c-1.57,0.083-3.636,0.661-3.608,2.231c2.038-0.386,4.077-0.551,6.143-0.496
		c-0.606,1.405-2.617,1.212-4.132,0.964c-1.515-0.248-3.691,0.22-3.581,1.763c0.138,2.314,0.413,4.6,0.854,6.886
		c1.928-2.204,5.785-2.231,7.768-0.083c-0.441-1.57,1.818-2.369,3.443-2.424c20.334-0.568,40.691-1.076,61.05-1.709
		C195.976,156.106,196.046,155.429,196.104,154.752z M127.333,158.079l-0.138-0.193c-0.909,0.22-1.901,0.083-2.727-0.358
		c0.634-0.331,1.212-0.826,1.928-0.854C127.112,156.674,127.828,157.528,127.333,158.079z M130.445,155.269
		c-0.413,0.22-0.881,0.22-1.322,0.193c-1.019,0-2.066,0-3.085-0.028c-0.386,0-0.771,0-1.074-0.22
		c-0.303-0.22-0.441-0.716-0.165-0.964c0.165-0.138,0.386-0.165,0.606-0.165c1.846-0.028,3.664-0.028,5.482,0.055
		C131.106,154.553,130.831,155.049,130.445,155.269z"/>
	<path class="path" fill="none" stroke="#000" stroke-width="1" d="M257.099,143.397c-0.744-0.523-1.846-1.074-1.708-1.983c0.275-1.625-1.956-2.424-3.581-2.341
		c-5.757,0.275-11.018,3.416-16.748,3.967c-4.738,0.468-9.889-0.799-14.076,1.487c-1.543,0.826-3.361,0.937-5.096,1.019
		c-13.308,0.625-26.609,1.241-39.911,1.864c0.336,0.615,0.554,1.284,0.71,1.973c16.074-0.59,32.124-1.465,48.098-3.285
		c-1.212,2.727,0.275,6.28,3.03,7.355c-10.532,0.489-21.07,0.915-31.613,1.297c-0.058,0.677-0.129,1.354-0.175,2.031
		c2.332-0.073,4.665-0.14,6.997-0.216c16.748-0.551,33.495-1.212,50.243-1.983c1.405-0.055,2.865-0.138,4.159-0.716
		c1.267-0.606,2.341-1.873,2.286-3.278C259.606,147.942,259.303,144.885,257.099,143.397z M235.228,153.148
		c-1.24,0.22-2.507,0.441-3.746,0.661c0.275-2.204,0.578-4.407,0.881-6.611c-0.606-0.083-1.212,0.331-1.487,0.881
		c-0.303,0.551-0.358,1.184-0.386,1.79c-0.083,1.322-0.165,2.644-0.248,3.966c-0.881,0.055-1.35-0.964-1.598-1.818
		c-0.358-1.322-0.744-2.644-1.102-3.966c-0.771,0.248-0.716,1.322-0.496,2.093c0.22,0.771,0.331,1.846-0.413,2.148
		c-0.523-2.286-0.606-4.655-0.248-6.941c2.837-0.358,5.702-0.468,8.539-0.303c-0.083,2.259-0.165,4.545-0.275,6.804
		C235.118,152.074,235.366,152.652,235.228,153.148z M236.798,149.154c-0.441-1.212-0.551-2.534-0.275-3.801
		C237.624,146.234,237.762,148.107,236.798,149.154z M258.146,150.917c-0.303,0.854-1.35,1.129-2.231,1.267
		c-5.564,0.826-11.183,1.184-16.775,1.019c-0.275,0-0.551-0.028-0.799-0.165c-0.22-0.138-0.386-0.386-0.468-0.661
		c-0.661-1.763,0.826-3.801,0.193-5.592c-0.165-0.496-0.496-0.992-0.441-1.487c2.727-1.653,5.729-2.81,8.842-3.471
		c1.846-0.358,3.691-0.578,5.564-0.744c0.661-0.055,1.377-0.083,1.873,0.331c0.523,0.386,0.523,1.405-0.11,1.542
		c-3.526,0.909-7.052,1.79-10.577,2.699c-0.165,0.028-0.331,0.083-0.441,0.193c-0.303,0.275-0.138,0.854,0.22,1.047
		c0.386,0.22,0.826,0.165,1.24,0.11c3.829-0.468,7.603-1.184,11.321-2.121c1.047-0.275,1.708,1.047,1.956,2.093
		c0.193,0.854,0.386,1.68,0.578,2.534C258.201,149.98,258.311,150.476,258.146,150.917z"/>
</g>
</svg>
