<?xml version="1.0" encoding="iso-8859-1"?>
<!-- Generator: Adobe Illustrator 21.1.0, SVG Export Plug-In . SVG Version: 6.00 Build 0)  -->
<svg version="1.1" id="Layer_1" xmlns="http://www.w3.org/2000/svg" xmlns:xlink="http://www.w3.org/1999/xlink" x="0px" y="0px"
	 viewBox="0 0 370 300" style="enable-background:new 0 0 370 300;" xml:space="preserve">
	 <style>
    /* <![CDATA[ */
    .path {
  stroke-dasharray: 2000;
  stroke-dashoffset: 2000;
  animation: dash 20s linear;
  animation-fill-mode: forwards;
 
}

@keyframes dash {
  from {
    stroke-dashoffset: 2000;
  }
  to {
    stroke-dashoffset: 0;
  }
}
    /* ]]> */
  </style>
<g id="Vorm_18">
	<desc  xmlns:shape="http://adobe.com/products/shape"></desc>
	<path class="path" fill="none" stroke="#000" stroke-width="1" d="M253.775,235.575c1.944,0.047,3.864,0.094,5.808,0.141c-1.733-4.871-1.054-10.538,1.78-14.847
		c0.937-1.428,2.131-3.279,1.101-4.684c7.541-13.77,15.081-27.54,22.599-41.31c0.843-1.522,1.733-3.115,3.208-4.051
		c1.429-0.913,3.208-1.077,4.894-1.194c8.079-0.539,16.229-0.585,24.331-0.141c3.021,0.164,6.182,0.445,8.735,2.061
		c2.108,1.358,3.583,3.513,5.011,5.574c2.974,4.403,5.972,8.805,8.946,13.208c-0.843,0.726-2.178,0.773-3.068,0.141
		c0.164-3.747-2.67-7.4-6.323-8.15c5.386,9.976,10.796,19.952,16.182,29.928c1.124,2.061,3.677,4.403,5.339,2.787
		c-2.74-2.693-4.613-6.229-5.293-9.976c-3.747-4.028-6.698-8.782-8.594-13.934c4.824,4.52,8.384,10.374,10.187,16.744
		c7.4,9.039,12.271,20.14,13.91,31.708c-12.318-20.842-24.636-41.661-36.954-62.48c-1.382-2.342-2.904-4.801-5.386-5.901
		c-1.756-0.773-3.747-0.749-5.667-0.703c-6.299,0.141-12.599,0.281-18.898,0.398c-2.436,0.07-4.965,0.141-7.072,1.382
		c-2.084,1.241-3.466,4.028-2.295,6.159c-1.85,1.92-3.7,3.841-5.55,5.761c0.96,0.585,1.92,1.171,2.904,1.78
		c2.201-4.965,5.363-9.508,9.227-13.325c-10.749,17.376-20.397,35.408-28.898,53.979c-1.124,0.258-2.225,0.492-3.325,0.749
		c0.07,3.513,0.117,7.002,0.187,10.515c-3.185,0.094-6.393,0.164-9.578,0.234c0.937-1.897,0.164-4.473-1.663-5.55
		c0.187,0.913,1.827,0.164,1.546-0.726s-1.428-1.124-2.342-0.984c-0.937,0.141-1.85,0.492-2.763,0.258
		c-1.194-0.304-1.85-1.546-2.365-2.646c-8.15-17.517-15.596-35.338-22.271-53.464c-2.927-8.009-12.857-10.421-21.311-11.686
		c-3.396-0.492-6.979-0.984-10.163,0.258c-3.208,1.265-5.714,4.941-4.473,8.126c2.623-2.412,5.082-5.058,7.283-7.868
		c-11.756,19.929-23.535,39.881-35.291,59.81c-1.897,3.208-3.817,7.143-2.108,10.421c-5.527,0.866-11.288,0.328-16.557-1.546
		c0.187-3.934,0.749-7.868,1.71-11.686c-1.218,0.234-2.436,0.468-3.63,0.679c-6.627-13.184-13.255-26.369-19.882-39.553
		c-1.663-3.325-3.63-6.932-7.143-8.15c-4.684-1.663-8.524-5.527-10.187-10.21c-6.557-0.141-13.114-0.281-19.671-0.422
		c-8.805,12.88-17.61,25.76-26.416,38.64c-5.48,8.009-11.147,16.603-11.451,26.322c0.492-4.192-0.468-8.548-2.646-12.154
		c7.541-12.06,15.105-24.121,22.645-36.158c4.145-6.627,8.618-13.536,15.55-17.119c9.344-4.801,21.99-1.663,27.985,6.955
		c1.686,2.435,5.316,2.037,8.15,2.81c4.66,1.265,7.424,5.901,9.719,10.117c4.215,7.751,8.431,15.503,12.622,23.231
		c4.145,7.587,8.29,16.908,4.051,24.425c2.646,1.405,5.48,2.857,8.454,2.599c2.974-0.281,5.901-3.068,5.152-5.948
		c-0.843-3.208,0.843-6.487,2.482-9.367c10.819-19.133,21.802-38.195,32.926-57.164c6.908,1.265,13.817,2.506,20.725,3.77
		c6.862,1.241,14.777,3.325,17.4,9.789c5.433,13.372,10.866,26.767,16.299,40.162c-0.562,0.866-0.094,1.991,0.375,2.904
		C247.241,223.21,250.519,229.393,253.775,235.575 M227.851,179.301c-0.585-1.054-2.951,0-3.138-1.218
		c0.609-0.492,1.335-0.843,2.084-1.03c-1.124-1.991-2.225-3.981-3.349-5.948c-0.82-1.452-2.108-3.138-3.723-2.787
		c4.965,12.084,9.929,24.168,14.894,36.251c0.141,0.375,0.328,0.749,0.632,0.984c1.03,0.679,2.295-0.82,3.513-0.632
		c-1.944-1.756-3.255-4.215-3.653-6.815c-0.094-0.749-1.077-0.89-1.803-0.96c-0.749-0.07-1.686-0.609-1.405-1.288
		c1.077-0.047,2.154-0.234,3.161-0.562c-1.592-1.007-2.061-3.068-2.81-4.801c-0.726-1.733-2.412-3.513-4.215-2.951
		c0.328-1.101,1.827-1.639,2.787-1.007c0.492,0.328,0.679-0.679,0.398-1.194C230.099,183.329,228.975,181.315,227.851,179.301
		 M137.433,212.297c-0.515-0.351-1.218-0.117-1.827-0.07c-0.632,0.023-1.428-0.398-1.241-0.984c0.82-0.515,1.756-0.843,2.74-0.96
		c-1.546-1.803-2.904-3.77-4.051-5.831c-0.773,0.539-1.827,0.703-2.74,0.445c0.117-0.89,1.054-1.592,1.944-1.452
		c0.445,0.07,0.445-0.609,0.258-1.007c-0.913-1.92-1.803-3.864-2.717-5.784c-0.258-0.539-0.609-1.147-1.194-1.288
		c-0.96-0.211-2.037,1.03-2.857,0.468c0.047,0.351,0.187,0.703,0.351,1.03c1.382,3.208,2.951,6.346,4.52,9.461
		c1.85,3.7,3.723,7.377,5.62,11.03c0.328,0.632,0.656,1.265,1.194,1.733c0.515,0.445,1.311,0.703,1.944,0.398
		c0.703-0.328,1.007-1.194,0.913-1.944c-0.07-0.773-0.468-1.452-0.866-2.108c-0.492-0.82-0.96-1.639-1.452-2.459
		C137.831,212.719,137.667,212.461,137.433,212.297 M272.392,203.164c-2.365,1.546-3.817,4.356-3.724,7.166
		c-1.663,1.663-3.208,3.419-4.637,5.269c0.539,0.937,2.014,0.866,2.834,0.141c0.82-0.703,1.147-1.78,1.522-2.81
		c1.147-3.091,2.904-5.925,4.59-8.758c3.489-5.808,6.862-11.709,10.14-17.634c-0.656-0.749-1.827,0-2.459,0.726
		c-1.639,1.803-3.279,3.63-4.918,5.433c0.773,0.398,1.452,0.96,1.967,1.663c-2.997,0.866-3.513,5.527-6.487,6.44
		c0.492,0.234,1.007,0.468,1.311,0.913C272.86,202.157,272.86,202.883,272.392,203.164 M243.213,222.719
		c0.351-0.445,1.03-0.258,1.592-0.281c0.539-0.023,1.124-0.773,0.632-1.03c-2.646-1.358-2.834-5.925-5.761-6.557
		c0.117-0.984,1.522-1.077,2.482-0.866c0.187-0.398-0.047-0.843-0.281-1.218c-1.03-1.663-2.084-3.349-3.115-5.035
		c-0.234-0.375-0.492-0.749-0.89-0.937c-0.749-0.375-1.592,0.164-2.272,0.656c1.288,2.787,2.576,5.574,3.864,8.36
		c1.733,3.77,3.466,7.564,5.199,11.334c0.468,1.03,1.007,2.108,1.991,2.67c0.984,0.562,2.529,0.234,2.787-0.866
		c-0.96-0.726-1.803-1.616-2.459-2.623c-0.468-0.679-0.843-1.429-1.452-1.991c-0.585-0.585-1.429-0.984-2.225-0.726
		C243.283,223.304,243.26,223,243.213,222.719 M67.741,172.978c0.585,0.89,1.733,1.335,2.763,1.101
		c2.459-3.349,4.918-6.674,7.377-10.023c0.141-0.187,0.258-0.468,0.07-0.585c-0.047-0.023-0.094-0.047-0.164-0.047
		c-1.007-0.117-1.991,0.398-2.693,1.124c-0.703,0.726-1.194,1.639-1.71,2.506C71.909,169.372,69.989,171.409,67.741,172.978
		 M120.361,184.687c0.726,0.328,1.592,0.304,2.272-0.094c-1.241-2.131-2.482-4.239-3.747-6.346c-0.398-0.703-0.82-1.405-1.358-1.991
		c-0.984-1.054-2.365-1.686-3.794-1.756c0.258,0.913,1.054,1.546,1.71,2.248c0.82,0.866,1.475,1.873,1.944,2.998
		C118.137,181.573,118.535,183.915,120.361,184.687 M127.317,192.884c-1.03-2.131-2.154-4.168-3.396-6.182
		c-0.141-0.187-0.281-0.398-0.492-0.492c-0.258-0.117-0.562-0.047-0.82,0.047c-0.703,0.234-1.382,0.445-2.061,0.656
		c1.686,2.342,3.138,4.871,4.309,7.494c0.609,0.094,1.218,0.164,1.78-0.094C127.176,194.078,127.598,193.422,127.317,192.884
		 M328.783,179.887c0.234,0.445,0.468,0.937,0.937,1.124c0.866,0.375,1.71-0.468,2.248-1.218c-1.71-1.147-2.576-3.161-3.723-4.848
		c-1.171-1.71-3.068-3.302-5.082-2.857C325.434,174.36,327.331,177.006,328.783,179.887 M69.216,175.835
		c-0.422-0.422-1.124-0.375-1.616-0.07c-0.492,0.304-0.843,0.796-1.171,1.288c-1.405,1.967-3.161,3.677-5.175,5.058
		c0.585,1.03,1.71,1.733,2.88,1.85C65.82,181.245,67.507,178.528,69.216,175.835 M185.675,173.892
		c-0.375-0.539-0.984-0.984-1.639-1.077c-0.656-0.07-1.405,0.258-1.663,0.89c-0.937,2.131-1.991,4.215-3.161,6.229
		c0.328,0.585,1.194,0.679,1.803,0.351c0.585-0.304,1.007-0.89,1.382-1.452C183.473,177.194,184.574,175.554,185.675,173.892
		 M171.249,193.586c-0.749,1.288-1.639,2.67-3.068,3.138c0.375,0.796,1.265,1.194,2.061,1.546c0.281,0.117,0.679,0.187,0.796-0.094
		c1.218-2.717,2.717-5.339,4.426-7.751c-0.539-0.422-1.241-0.656-1.944-0.656C172.771,191.034,172.022,192.298,171.249,193.586
		 M62.893,185.015c-0.328-0.328-0.89-0.328-1.288-0.141c-0.422,0.211-0.726,0.585-1.03,0.937c-1.499,1.827-2.998,3.653-4.52,5.48
		c-0.047,0.07-0.117,0.164-0.117,0.258c0.023,0.117,0.117,0.187,0.211,0.258c0.515,0.398,1.171,0.796,1.78,0.585
		c0.422-0.141,0.703-0.515,0.96-0.89c1.171-1.71,2.318-3.396,3.489-5.105C62.659,185.999,62.963,185.53,62.893,185.015
		 M55.751,193.165c-1.499,2.553-3.442,4.848-5.691,6.791c0.468,0.585,1.124,1.007,1.827,1.218c0.141,0.047,0.304,0.094,0.445,0.047
		c0.141-0.07,0.258-0.211,0.351-0.351c1.522-2.342,3.068-4.66,4.613-7.002C56.711,193.867,56.125,193.61,55.751,193.165
		 M170.265,199.558c-0.679-0.187-1.382-0.234-2.061-0.141c-1.218,2.763-2.74,5.41-4.52,7.845c0.07,0.468,0.703,0.679,1.147,0.468
		c0.445-0.187,0.726-0.609,0.984-1.007C167.291,204.335,168.767,201.947,170.265,199.558 M177.572,183.212
		c-0.632,1.03-1.288,2.037-1.92,3.068c-0.351,0.562-0.913,1.03-1.546,1.241c-0.117,0.913,1.171,1.405,1.944,0.984
		c0.796-0.422,1.194-1.311,1.592-2.108c0.749-1.569,1.71-2.998,2.834-4.309c-0.328-0.515-1.124-0.562-1.686-0.258
		C178.251,182.135,177.9,182.673,177.572,183.212 M361.966,231.383c-1.007-0.304-1.686-1.218-2.295-2.061
		c-1.077-1.499-2.154-2.998-3.232-4.496c-0.281-0.398-0.749-0.843-1.147-0.585c-0.117,0.234-0.211,0.492-0.304,0.749
		c1.171,1.756,2.342,3.489,3.536,5.222c0.375,0.585,0.796,1.171,1.358,1.592c0.562,0.398,1.335,0.609,1.967,0.328
		C361.896,231.875,361.92,231.641,361.966,231.383 M158.392,217.005c-1.124,1.663-2.248,3.349-3.349,5.035
		c-0.351,0.515-0.703,1.101-0.515,1.686c0.141,0.515,0.726,0.843,1.241,0.726c1.382-2.459,2.763-4.918,4.145-7.353
		C159.423,216.934,158.884,216.887,158.392,217.005 M45.517,207.707c0.562,0.328,1.218,0.656,1.85,0.468
		c0.632-0.211,0.984-0.866,1.335-1.452c0.749-1.311,1.71-2.482,2.834-3.489c0.117-0.632-0.703-1.077-1.288-0.89
		c-0.609,0.211-0.984,0.773-1.358,1.265c-1.054,1.428-2.318,2.67-3.77,3.677C45.236,207.426,45.376,207.567,45.517,207.707
		 M350.211,217.496c1.827,1.077,2.318,3.442,3.513,5.175c0.351,0.492,0.984,0.726,1.546,0.585c0.585-0.164,1.007-0.703,1.054-1.288
		c-1.007-0.094-1.71-1.007-2.295-1.85c-0.843-1.194-1.663-2.389-2.506-3.606c-0.375-0.07-0.796-0.164-1.147,0.023
		C350.023,216.723,349.883,217.309,350.211,217.496 M260.285,224.569c0.398,0.211,0.796,0.445,1.171,0.656
		c1.71-2.178,3.115-4.613,4.098-7.189c-0.468-0.351-1.171-0.117-1.569,0.328s-0.562,1.03-0.773,1.592
		c-0.492,1.241-1.265,2.412-2.225,3.349C260.636,223.655,260.215,224.077,260.285,224.569 M159.306,215.084
		c0.211,0.492,0.913,0.585,1.358,0.328c0.445-0.281,0.726-0.749,0.96-1.218c0.866-1.616,1.71-3.232,2.576-4.824
		c-0.585-0.492-1.405,0.117-1.873,0.726C161.156,211.642,160.125,213.328,159.306,215.084 M46.969,210.213
		c-0.117-0.258-0.234-0.515-0.328-0.773c-1.054-0.211-1.827,0.937-2.365,1.873c-0.89,1.522-2.014,2.927-3.325,4.122
		c0.187,0.562,0.96,0.726,1.499,0.468s0.89-0.773,1.194-1.288c0.515-0.796,1.007-1.592,1.499-2.412
		C45.634,211.431,46.149,210.635,46.969,210.213"/>
	<path class="path" fill="none" stroke="#000" stroke-width="1" d="M37.344,225.599c0.164,0.445,0.328,0.89,0.515,1.358c-0.328,0.164-0.773,0-0.913-0.304
		c-0.164-0.328,0.023-0.773,0.351-0.89"/>
	<path class="path" fill="none" stroke="#000" stroke-width="1" d="M222.441,223.351c-0.164-0.117-0.351-0.258-0.515-0.375c0.117-0.211,0.211-0.422,0.328-0.632
		c0.562-0.047,1.124,0.328,1.288,0.866c-0.351,0.023-0.703,0.07-1.054,0.094"/>
	<path class="path" fill="none" stroke="#000" stroke-width="1" d="M122.282,216.044c0.585-0.141,1.241-0.07,1.78,0.211c-0.609,0.422-1.499,0.375-2.037-0.141"/>
	<path class="path" fill="none" stroke="#000" stroke-width="1" d="M74.977,211.08c0.468,0.094,0.89,0.445,1.03,0.913c-0.468,0.187-1.007,0.164-1.452-0.117
		c0.094-0.258,0.211-0.539,0.304-0.82"/>
	<path class="path" fill="none" stroke="#000" stroke-width="1" d="M64.415,209.792c-0.164-0.094-0.351-0.164-0.515-0.258c0.375-0.187,0.773-0.398,1.147-0.258
		c0.398,0.141,0.492,0.82,0.094,0.913c-0.304,0.047-0.515-0.234-0.679-0.492"/>
	<path class="path" fill="none" stroke="#000" stroke-width="1" d="M68.935,185.437c-0.164,0.492-0.703,0.82-1.218,0.749c0.398-0.515,0.773-1.03,1.171-1.546
		c0.234,0.187,0.281,0.585,0.07,0.796"/>
	<path class="path" fill="none" stroke="#000" stroke-width="1" d="M167.034,158.951c0.141-0.187,0.258-0.351,0.398-0.539c0.187,0.117,0.398,0.234,0.609,0.351
		c-0.422,0.445-0.843,0.89-1.265,1.335c-0.258-0.351-0.07-0.937,0.351-1.054"/>
	<path class="path" fill="none" stroke="#000" stroke-width="1" d="M137.269,160.941c0.398,0.141,0.609,0.656,0.445,1.03c-0.515-0.234-1.054-0.468-1.569-0.703
		c0.141-0.187,0.281-0.375,0.422-0.562c0.047,0.304,0.445,0.492,0.726,0.351"/>
	<path class="path" fill="none" stroke="#000" stroke-width="1" d="M48.913,218.503c-0.632-0.234-1.288-0.445-1.944-0.679c0.609-0.351,1.311-0.492,1.991-0.398
		c0.187,0.281,0.187,0.656,0,0.937"/>
	<path class="path" fill="none" stroke="#000" stroke-width="1" d="M127.34,223.491c-0.023,0.117-0.211,0.047-0.211-0.07c0.023-0.117,0.141-0.187,0.234-0.234
		c0.726-0.304,1.616-0.211,2.272,0.234c-0.726,0.094-1.475,0.164-2.201,0.258"/>
	<path class="path" fill="none" stroke="#000" stroke-width="1" d="M133.616,129.022c0.234-0.351,0.773-0.468,1.147-0.234c-0.117,0.749-0.726,1.405-1.452,1.569
		c-0.328-0.422-0.187-1.124,0.281-1.382"/>
	<path class="path" fill="none" stroke="#000" stroke-width="1" d="M78.841,215.904c-0.07-0.211-0.023-0.445,0.094-0.609c0.82,0.422,1.007,1.663,0.375,2.318
		c0.141-0.609-0.07-1.265-0.515-1.686"/>
	<path class="path" fill="none" stroke="#000" stroke-width="1" d="M296.723,202.766c-0.328-0.89-0.117-1.967,0.515-2.67
		C297.403,201.01,297.215,201.97,296.723,202.766"/>
	<path class="path" fill="none" stroke="#000" stroke-width="1" d="M297.028,192.017c-0.094,0.585-0.211,1.171-0.304,1.78c-0.187-1.03-0.187-2.061,0-3.068
		c0.141,0.422,0.281,0.843,0.422,1.265"/>
	<path class="path" fill="none" stroke="#000" stroke-width="1" d="M177.291,86.963c-0.304-0.984-0.398-2.037-0.281-3.068
		C177.666,84.762,177.783,86.003,177.291,86.963"/>
	<path class="path" fill="none" stroke="#000" stroke-width="1" d="M49.451,76.8c-0.539-0.422-1.077-0.843-1.616-1.265c0.937,0,1.873,0.492,2.389,1.288
		C50.154,77.128,49.685,76.987,49.451,76.8"/>
	<path class="path" fill="none" stroke="#000" stroke-width="1" d="M105.538,168.061c0.89,0.422,1.663,1.147,2.108,2.037
		C106.545,170.121,105.561,169.138,105.538,168.061"/>
	<path class="path" fill="none" stroke="#000" stroke-width="1" d="M202.887,160.918c0.703-0.211,1.522,0.023,2.037,0.562c-1.054-0.141-2.108-0.258-3.161-0.398
		c0.164-0.351,0.679-0.492,1.007-0.258"/>
	<path class="path" fill="none" stroke="#000" stroke-width="1" d="M134.295,143.612c-0.07-0.82,0.304-1.686,0.96-2.201c0.187-0.141,0.492-0.234,0.656-0.07
		C135.724,142.301,135.115,143.144,134.295,143.612"/>
	<path class="path" fill="none" stroke="#000" stroke-width="1" d="M140.759,135.954c0.679,0,1.335,0.304,1.78,0.82c-1.03,0.023-2.061-0.258-2.927-0.82
		c0.281-0.328,0.843-0.351,1.147-0.047"/>
	<path class="path" fill="none" stroke="#000" stroke-width="1" d="M29.78,119.468c-0.632-0.141-1.241-0.422-1.78-0.82c0.515-0.304,1.288-0.094,1.592,0.422
		c0.211-0.023,0.375-0.234,0.375-0.445c0.211,0.117,0.398,0.211,0.609,0.328c-0.211,0.281-0.492,0.492-0.82,0.585"/>
	<path class="path" fill="none" stroke="#000" stroke-width="1" d="M212.863,169.442c0.351,0.375,0.726,0.773,1.077,1.147c-1.054-0.234-2.061-0.515-3.068-0.89
		c0.539-0.515,1.382-0.656,2.061-0.351"/>
	<path class="path" fill="none" stroke="#000" stroke-width="1" d="M221.575,199.909c0.726,0.937,0.96,2.225,0.632,3.372
		C221.692,202.251,221.458,201.057,221.575,199.909"/>
	<path class="path" fill="none" stroke="#000" stroke-width="1" d="M79.567,87.291c-0.468-0.515-0.281-1.475,0.375-1.78c0.468,1.054,0.445,2.342-0.07,3.372
		c-0.351-0.445-0.492-1.007-0.422-1.569"/>
	<path class="path" fill="none" stroke="#000" stroke-width="1" d="M134.763,112.677c-0.047-0.82-0.047-1.78,0.609-2.295c0.679,0.89,0.796,2.154,0.304,3.161
		c-0.164,0.234-0.539,0.164-0.726-0.07C134.787,113.262,134.763,112.958,134.763,112.677"/>
	<path class="path" fill="none" stroke="#000" stroke-width="1" d="M189.679,241.664c0.773,0.211,1.546,0.398,2.295,0.585c-1.101,0.117-2.178,0.234-3.279,0.351
		c-0.094-0.515,0.468-1.03,0.96-0.89"/>
	<path class="path" fill="none" stroke="#000" stroke-width="1" d="M117.926,188.13c0.89,0.82,1.546,1.897,1.827,3.068C118.863,190.401,118.207,189.301,117.926,188.13
		"/>
	<path class="path" fill="none" stroke="#000" stroke-width="1" d="M80.176,165.883c-0.375,0-0.492-0.609-0.211-0.89c0.258-0.258,0.679-0.281,1.077-0.281
		c1.007-0.023,2.295,0.187,2.506,1.171C82.424,165.883,81.3,165.883,80.176,165.883"/>
	<path class="path" fill="none" stroke="#000" stroke-width="1" d="M181.53,214.827c-0.422-1.452-0.328-3.044,0.304-4.426
		C181.951,211.876,181.834,213.375,181.53,214.827"/>
	<path class="path" fill="none" stroke="#000" stroke-width="1" d="M304.873,244.17c0.304-0.843,1.546-0.656,2.365-0.304c0.515,0.187,1.03,0.398,1.522,0.609
		c-0.398,0.609-1.241,0.796-1.944,0.656C306.091,244.989,305.482,244.568,304.873,244.17"/>
	<path class="path" fill="none" stroke="#000" stroke-width="1" d="M89.965,238.713c1.358-0.492,2.927-0.445,4.262,0.141c-0.094,0.164-0.211,0.351-0.304,0.515
		C92.611,239.158,91.276,238.947,89.965,238.713"/>
	<path class="path" fill="none" stroke="#000" stroke-width="1" d="M132.89,137.664c-0.937,0.726-2.037,1.265-3.185,1.546c0.234-0.585,0.445-1.171,0.679-1.78
		c0.492-0.117,0.96-0.258,1.429-0.398c0.281-0.07,0.562-0.141,0.82-0.023C132.89,137.102,133.077,137.453,132.89,137.664"/>
	<path class="path" fill="none" stroke="#000" stroke-width="1" d="M179.024,114.316c-0.445-1.358-0.492-2.81-0.141-4.192c0.515,1.452,0.703,3.044,0.539,4.59
		C179.281,114.573,179.164,114.456,179.024,114.316"/>
	<path class="path" fill="none" stroke="#000" stroke-width="1" d="M87.482,169.091c-1.054,0.445-2.318,0-3.161-0.773c-0.328-0.304-0.632-0.632-0.866-1.03
		C84.953,167.452,86.382,168.107,87.482,169.091"/>
	<path class="path" fill="none" stroke="#000" stroke-width="1" d="M26.478,120.709c0.117,0.211,0.094,0.492,0,0.703c0.773-0.351,1.733-0.304,2.459,0.117
		c-0.187,0.094-0.351,0.164-0.539,0.234c-1.007-0.281-2.084-0.351-3.115-0.187c-0.304-0.211-0.422-0.632-0.304-0.984
		C25.471,120.709,25.986,120.756,26.478,120.709"/>
	<path class="path" fill="none" stroke="#000" stroke-width="1" d="M136.59,214.007c-0.094-0.258-0.187-0.515-0.117-0.773c0.023-0.187,0.117-0.351,0.258-0.468
		c1.147,1.311,1.92,2.904,2.248,4.613C137.902,216.489,137.058,215.295,136.59,214.007"/>
	<path class="path" fill="none" stroke="#000" stroke-width="1" d="M203.191,173.517c-1.382,0.515-2.974,0.492-4.356-0.047c-0.117-0.187-0.375-0.258-0.585-0.164
		c-0.07-0.328,0.304-0.609,0.632-0.609c0.328,0,0.656,0.164,0.984,0.234c0.585,0.117,1.194-0.094,1.827-0.164
		C202.301,172.721,203.027,172.932,203.191,173.517"/>
	<path class="path" fill="none" stroke="#000" stroke-width="1" d="M73.923,160.754c-0.843,1.265-1.686,2.506-2.506,3.77c-0.164,0.234-0.562,0.304-0.796,0.141
		C71.113,162.979,72.331,161.527,73.923,160.754"/>
	<path class="path" fill="none" stroke="#000" stroke-width="1" d="M53.596,128.788c-0.984-1.405-1.522-3.115-1.522-4.848c-0.023-0.234-0.023-0.492-0.023-0.749
		C53.011,124.901,53.549,126.845,53.596,128.788"/>
	<path class="path" fill="none" stroke="#000" stroke-width="1" d="M194.058,95.113c-0.187,0.726-0.398,1.452-0.585,2.178c-0.211,0.726-0.562,1.616-1.311,1.733
		c-0.023-1.991,0.445-4.004,1.311-5.808C194.222,93.31,194.246,94.387,194.058,95.113"/>
	<path class="path" fill="none" stroke="#000" stroke-width="1" d="M56.078,121.248c-0.375-1.311-0.258-2.763,0.304-4.005c0.234-0.515,0.726-1.054,1.265-0.89
		c-0.422,1.78-0.726,3.606-0.913,5.433C56.43,121.927,56.172,121.576,56.078,121.248"/>
	<path class="path" fill="none" stroke="#000" stroke-width="1" d="M118.137,222.601c-1.756-0.258-3.489-0.609-5.199-1.077c-0.375-0.094-0.796-0.258-0.866-0.632
		c2.014,0.141,4.028,0.515,5.948,1.101C118.207,222.133,118.254,222.414,118.137,222.601"/>
	<path class="path" fill="none" stroke="#000" stroke-width="1" d="M94.273,237.917c0.211-0.117,0.422-0.234,0.609-0.328c0.117,0.211,0.023,0.515-0.187,0.632
		c0.679,0.398,1.522,0.492,2.272,0.258c0.445-0.141,0.89-0.398,1.358-0.398c0.468,0,1.007,0.422,0.866,0.866
		c-1.288,0.187-2.576,0.398-3.864,0.585c0-0.492-0.562-0.913-1.054-0.796C94.273,238.456,94.273,238.198,94.273,237.917"/>
	<path class="path" fill="none" stroke="#000" stroke-width="1" d="M163.568,159.794c0.445-0.562,0.913-1.147,1.358-1.733c0.351-0.445,0.89-0.937,1.382-0.679
		c-0.679,2.061-2.037,3.864-3.794,5.152C162.28,161.55,162.936,160.59,163.568,159.794"/>
	<path class="path" fill="none" stroke="#000" stroke-width="1" d="M185.394,219.885c-1.147-0.234-2.342-0.164-3.513-0.07c-0.679,0.047-1.311-0.281-1.85-0.656
		c-0.211-0.328,0-0.773,0.351-0.96c0.328-0.164,0.726-0.141,1.101-0.117c1.967,0.117,3.911,0.258,5.878,0.375
		c0.656,0.047,0.609,1.194,0.023,1.499C186.775,220.26,186.049,220.025,185.394,219.885"/>
	<path class="path" fill="none" stroke="#000" stroke-width="1" d="M196.915,95.16c0.375-1.194,0.82-2.342,1.358-3.466c0.187-0.398,0.585-0.89,1.007-0.703
		c-0.609,2.576-1.218,5.175-1.827,7.751C196.353,98.04,196.517,96.401,196.915,95.16"/>
	<path class="path" fill="none" stroke="#000" stroke-width="1" d="M168.954,162.019c-0.656,1.311-1.499,2.506-2.482,3.606c-0.187,0.187-0.375,0.398-0.632,0.468
		c-0.258,0.047-0.585-0.117-0.609-0.375c0-0.141,0.07-0.281,0.164-0.398c1.265-1.967,2.553-3.934,3.817-5.901
		C169.727,160.169,169.376,161.199,168.954,162.019"/>
	<path class="path" fill="none" stroke="#000" stroke-width="1" d="M158.884,167.803c1.569,0.492,3.115,0.96,4.684,1.429c1.007,0.304,2.061,0.632,2.857,1.335
		c0.281,0.234,0.094,0.726-0.258,0.866c-0.328,0.141-0.703,0.047-1.054-0.07c-1.78-0.515-3.56-1.03-5.339-1.546
		C159.212,169.302,158.884,168.576,158.884,167.803"/>
	<path class="path" fill="none" stroke="#000" stroke-width="1" d="M178.86,141.692c-0.937,1.663-2.037,3.232-3.279,4.684c-0.562,0.632-1.428,1.311-2.201,0.937
		c1.499-2.154,3.115-4.262,4.824-6.253C178.415,141.27,178.626,141.481,178.86,141.692"/>
	<path class="path" fill="none" stroke="#000" stroke-width="1" d="M129.611,139.607c-1.077,2.342-1.71,4.871-1.873,7.424c-0.047,0.632-0.796,0.913-1.405,1.03
		c0.211-1.733,0.422-3.442,0.656-5.175c0.094-0.796,0.187-1.616,0.609-2.295C128.019,139.912,128.839,139.42,129.611,139.607"/>
	<path class="path" fill="none" stroke="#000" stroke-width="1" d="M178.79,147.335c0.796-1.124,1.733-2.178,2.74-3.091c0.351-0.328,0.749-0.656,1.241-0.703
		c0.468-0.023,1.007,0.351,0.937,0.82c-2.295,1.311-4.145,3.349-5.269,5.714C177.712,149.373,178.204,148.155,178.79,147.335"/>
	<path class="path" fill="none" stroke="#000" stroke-width="1" d="M194.363,126.142c-0.164-1.756,0.023-3.536,0.585-5.199c0.492-1.499,1.288-2.927,1.288-4.496
		c1.077,0.492,0.913,2.061,0.562,3.185c-0.539,1.803-1.077,3.606-1.639,5.386C195.018,125.486,194.831,126.025,194.363,126.142"/>
	<path class="path" fill="none" stroke="#000" stroke-width="1" d="M132.913,121.599c0.047,2.857-0.82,5.737-2.435,8.103c-0.375,0.515-0.96,1.077-1.522,0.843
		c-0.047-1.405,1.147-2.459,1.756-3.723C131.532,125.088,131.368,122.746,132.913,121.599"/>
	<path class="path" fill="none" stroke="#000" stroke-width="1" d="M164.434,77.432c-0.141-0.258-0.281-0.492-0.445-0.749c2.412-1.873,4.988-3.513,7.705-4.894
		c-0.094,1.452-1.475,2.459-2.717,3.255c-0.773,0.492-1.522,0.984-2.295,1.475C165.98,76.964,165.254,77.409,164.434,77.432"/>
	<path class="path" fill="none" stroke="#000" stroke-width="1" d="M173.755,77.362c0.211,0.375,0.398,0.726,0.609,1.077c-2.272,0.609-4.403,1.639-6.276,3.044
		c-1.265,0.96-2.576,2.154-4.145,2.061c-0.211-0.234-0.023-0.562,0.164-0.796C166.542,79.868,170.031,77.924,173.755,77.362"/>
	<path class="path" fill="none" stroke="#000" stroke-width="1" d="M297.004,204.921c0.773,4.239,0.773,8.594,0.773,12.903c0,0.89,0,1.803,0,2.717
		c-0.468-0.117-0.585-0.703-0.609-1.194C296.981,214.546,296.934,209.745,297.004,204.921"/>
	<path class="path" fill="none" stroke="#000" stroke-width="1" d="M51.887,120.967c-0.211-0.117-0.422-0.234-0.632-0.351c0.351-1.803-0.796-3.513-1.686-5.152
		c-1.171-2.154-1.967-4.496-2.342-6.932c0.796,0.351,1.241,1.218,1.592,2.014c0.656,1.522,1.311,3.021,1.991,4.543
		c0.422,0.937,0.82,1.873,1.03,2.88C52.051,118.953,52.074,119.983,51.887,120.967"/>
	<path class="path" fill="none" stroke="#000" stroke-width="1" d="M37.133,121.388c0.984-0.023,1.967-0.047,2.951-0.07c-0.141,0.187-0.117,0.468,0.023,0.679
		c2.108-0.632,4.567,0.094,5.995,1.78c-2.084-0.234-4.145-0.468-6.229-0.679c-0.82-0.094-1.663-0.187-2.482-0.304
		c-1.101-0.141-2.178-0.304-3.255-0.492c-0.703-0.141-0.749-1.592-1.429-1.382c0-0.351,0.234-0.703,0.562-0.866
		c0.515,0.304,1.03,0.679,1.475,1.101c0.281-0.07,0.515-0.234,0.656-0.468C35.634,121.318,36.454,121.388,37.133,121.388"/>
	<path class="path" fill="none" stroke="#000" stroke-width="1" d="M185.651,187.544c0.094,0.187,0.187,0.351,0.281,0.539c-1.194,7.189-2.365,14.379-3.56,21.568
		c-0.047,0.351-0.281,0.843-0.632,0.726c0.796-8.032,2.084-16.018,3.864-23.91C185.932,186.725,185.932,187.263,185.651,187.544"/>
	<path class="path" fill="none" stroke="#000" stroke-width="1" d="M90.292,197.122c-1.756,0.492-3.677,0.234-5.246-0.656c0.211-3.372,0.445-6.744,0.164-10.117
		c-0.07-0.866-0.141-1.85,0.422-2.506c0.539-0.609,1.452-0.749,2.225-0.585c0.796,0.141,1.522,0.539,2.295,0.773
		c0.375,0.187,0.422,0.703,0.445,1.101c0.023,1.71,0.07,3.419,0.117,5.129C90.761,192.556,90.808,194.898,90.292,197.122
		 M88.77,195.647c0.585-0.632,0.609-1.569,0.609-2.435c0-1.873-0.023-3.723-0.023-5.597c0-0.937-0.047-1.967-0.703-2.599
		c-0.656-0.656-2.108-0.375-2.108,0.562c0.094,3.349,0.164,6.721,0.234,10.07C87.435,195.647,88.115,195.647,88.77,195.647"/>
	<path class="path" fill="none" stroke="#000" stroke-width="1" d="M95.96,183.961c0.656,0,1.335,0.023,1.85,0.422c0.656,0.468,0.796,1.358,0.89,2.154
		c0.304,3.044,0.164,6.112-0.422,9.11c-0.07,0.398-0.164,0.796-0.351,1.147c-0.468,0.82-1.452,1.241-2.389,1.265
		c-0.937,0.047-1.85-0.258-2.763-0.539c-0.258-0.094-0.539-0.187-0.703-0.398c-0.187-0.234-0.211-0.539-0.211-0.82
		c-0.234-4.145,0-8.313,0.679-12.412C93.688,183.915,94.836,183.938,95.96,183.961 M97.107,185.858
		c-0.281-0.258-0.703-0.281-1.101-0.281c-0.492-0.023-1.007-0.023-1.522-0.023c-0.398-0.023-0.866,0-1.124,0.328
		c-0.164,0.211-0.187,0.515-0.187,0.773c-0.117,2.81-0.211,5.62-0.328,8.407c0,0.328,0,0.656,0.187,0.913
		c0.258,0.351,0.749,0.375,1.171,0.375c0.492,0.023,0.984,0.023,1.475,0.023c0.422,0,0.89,0,1.147-0.328
		c0.141-0.187,0.187-0.445,0.211-0.679c0.375-2.834,0.773-5.714,0.422-8.548C97.435,186.467,97.365,186.116,97.107,185.858"/>
	<path class="path" fill="none" stroke="#000" stroke-width="1" d="M306.629,190.917c1.03-0.07,2.037-0.141,3.068-0.234c0.984-0.07,1.991-0.141,2.951,0.141
		c0.539,2.998,0.585,6.089,0.164,9.11c-2.248,0.913-4.894-1.241-7.096-0.281c-0.445,0.187-0.984-0.047-1.288-0.422
		c-0.328-0.375-0.445-0.866-0.539-1.335c-0.398-2.108-0.281-4.309,0.281-6.393C304.896,191.057,305.786,190.987,306.629,190.917
		 M312.086,193.469c-0.023-0.562-0.094-1.171-0.539-1.475c-0.703-0.515-1.71,0.187-2.529-0.117
		c-0.375,2.108-0.328,4.309,0.117,6.393c0.984,0.398,2.318,0.656,2.88-0.234c0.234-0.375,0.234-0.866,0.211-1.311
		C312.179,195.647,312.133,194.546,312.086,193.469 M307.074,195.975c-0.047-0.726-0.07-1.452-0.094-2.178
		c-0.023-0.258-0.047-0.539-0.164-0.749c-0.351-0.679-1.452-0.539-1.92,0.047c-0.468,0.585-0.515,1.405-0.515,2.178
		c-0.023,0.679-0.023,1.405,0.304,2.014c0.328,0.585,1.124,0.984,1.733,0.656C307.051,197.591,307.098,196.701,307.074,195.975"/>
	<path class="path" fill="none" stroke="#000" stroke-width="1" d="M208.086,184.008c0.351,0.07,0.726,0.211,0.937,0.515c0.187,0.281,0.187,0.632,0.187,0.984
		c-0.07,5.082-0.211,10.187-0.445,15.292c-0.023,0.258-0.047,0.562-0.234,0.749c-0.187,0.164-0.445,0.164-0.703,0.164
		c-1.522,0.047-3.044,0.094-4.59,0.117c-0.96,0.023-1.288-1.288-1.265-2.248c0.047-5.035,0.328-10.07,0.843-15.081
		C204.432,183.751,206.329,183.563,208.086,184.008 M203.73,200.471c0.726,0.164,1.452,0.328,2.178,0.187
		c0.726-0.141,1.405-0.679,1.475-1.405c0.398-4.262,0.585-8.524,0.562-12.81c0-0.187-0.023-0.398-0.094-0.585
		c-0.211-0.468-0.82-0.562-1.335-0.609c-0.539-0.047-1.101-0.07-1.616,0.094c-0.515,0.187-0.984,0.632-1.007,1.171
		c-0.164,3.536-0.328,7.096-0.492,10.632C203.355,198.27,203.308,199.417,203.73,200.471"/>
	<path class="path" fill="none" stroke="#000" stroke-width="1" d="M194.41,201.736c-0.866,0-2.014-0.304-1.967-1.147c0.141-5.035,0.562-10.046,1.288-15.011
		c0.047-0.351,0.094-0.726,0.351-0.984c0.211-0.234,0.562-0.328,0.866-0.375c1.592-0.351,3.255-0.422,4.894-0.234
		c-0.117,5.129-0.258,10.281-0.375,15.433c-0.023,1.007-0.375,2.365-1.382,2.365C196.868,201.759,195.627,201.759,194.41,201.736
		 M195.323,185.882c-0.164,0.211-0.211,0.468-0.234,0.726c-0.679,4.239-1.335,8.501-1.428,12.786c0,0.632,0.585,1.147,1.194,1.265
		c0.609,0.141,1.241,0,1.85-0.141c0.422-0.117,0.843-0.234,1.101-0.562c0.234-0.281,0.258-0.679,0.281-1.054
		c0.187-4.52,0.258-9.063,0.234-13.583c-0.632,0.047-1.265,0.094-1.873,0.164C196.049,185.507,195.58,185.577,195.323,185.882"/>
	<path class="path" fill="none" stroke="#000" stroke-width="1" d="M299.885,222.601c-0.773-0.82-0.82-2.061-0.82-3.185c-0.047-13.184,0.047-26.369,0.234-39.553
		c0.023-0.89,0.773-2.154,1.405-1.522c-0.281,15.245-0.492,30.49-0.585,45.736c-1.147,0.96-3.208,0.281-3.536-1.171
		C297.66,223.234,298.878,223.117,299.885,222.601"/>
	<path class="path" fill="none" stroke="#000" stroke-width="1" d="M88.864,112.864c0.023-1.358-1.733-1.827-3.044-2.225c-2.599-0.796-4.66-2.88-5.972-5.269
		c-1.335-2.389-2.014-5.058-2.693-7.705c-0.141-0.609-0.304-1.265-0.141-1.873c0.187-0.609,0.796-1.124,1.405-0.96
		c-0.328-1.147-0.047-2.482,0.703-3.419c0.937,0.609,0.141,1.991-0.304,3.021c-0.609,1.499-0.187,3.185,0.258,4.73
		c0.656,2.318,1.335,4.684,2.81,6.557c1.311,1.663,3.161,2.787,4.965,3.887c10.562,6.37,21.428,12.248,32.528,17.634
		c-0.445,0.82-1.663,0.562-2.529,0.187c-8.313-3.747-16.369-8.009-24.144-12.786c-1.616-0.984-3.653-0.796-5.55-0.843
		c-8.337-0.234-15.526-5.62-22.083-10.772c-0.211-0.141-0.422-0.328-0.468-0.585c-0.094-0.468,0.422-0.843,0.866-0.796
		c0.468,0.047,0.843,0.375,1.194,0.656C73.01,107.712,80.574,112.115,88.864,112.864"/>
	<path class="path" fill="none" stroke="#000" stroke-width="1" d="M181.834,190.144c-0.468,0.773-0.96,1.616-1.007,2.529c-0.375,8.103-1.194,16.205-2.435,24.214
		c-0.187,1.077-0.492,2.342-1.499,2.763c-0.515,0.234-1.124,0.164-1.71,0.094c-2.623-0.328-5.222-0.656-7.845-0.984
		c-1.967-0.258-2.974,2.225-3.325,4.168c-0.141,0.679,0,1.686,0.703,1.663c7.002-0.234,14.051,0.117,21.006,1.007
		c0.89,0.094,2.061,0.866,1.499,1.546c-7.728-0.796-15.479-1.124-23.231-0.984c0.094,2.623-0.234,5.269-0.96,7.798
		c-1.382-5.808-0.539-12.131,2.318-17.4c8.243-15.198,16.931-30.139,26.088-44.799c0.656-1.054,1.358-2.131,2.435-2.717
		c1.452-0.796,3.232-0.515,4.848-0.211c4.66,0.89,9.32,1.78,13.957,2.646c1.382,0.258,3.068,0.913,3.068,2.295
		c0,1.85,0.796,3.606,1.569,5.269c7.541,16.416,15.105,32.832,22.645,49.248c1.475,3.185,1.592,6.932,0.328,10.187
		c-1.054-1.218-0.585-3.068-0.375-4.66c0.234-1.592-0.304-3.723-1.92-3.841c-7.4-0.539-14.824-1.077-22.247-1.616
		c-1.522-0.117-3.536-0.703-3.489-2.225c8.594,1.311,17.283,2.014,25.994,2.061c0.023-1.569-1.147-2.974-2.576-3.653
		c-1.405-0.703-3.021-0.82-4.59-0.937c-1.944-0.141-3.887-0.281-5.831-0.422c-2.084-0.164-2.599-2.951-2.506-5.011
		c0.234-6.651,0.468-13.302,0.726-19.952c0.047-1.171-0.445-2.318-0.913-3.419c-2.88-6.768-5.784-13.559-8.665-20.327
		c-0.211-0.492-0.445-0.984-0.843-1.311c-0.422-0.328-0.96-0.422-1.499-0.515c-4.66-0.773-9.297-1.569-13.957-2.342
		c-0.96-0.164-1.991-0.328-2.88,0.094c-0.749,0.351-1.288,1.054-1.756,1.733c-2.037,2.834-4.122,5.855-4.473,9.297
		c-1.241,12.084-2.834,24.097-4.777,36.087c-0.445,0.539-1.054-0.515-0.96-1.218c1.569-11.779,3.115-23.559,4.66-35.338
		C185.557,184.008,183.707,187.076,181.834,190.144 M225.813,221.571c3.138,0.351,6.253,0.703,9.367,1.054
		c-1.569-3.911-3.138-7.845-4.684-11.756c-0.492-1.218-0.984-2.412-1.639-3.536c-1.686-2.74-2.974-5.691-3.887-8.782
		c-0.492,1.405-0.515,2.904-0.539,4.379c-0.07,5.48-0.164,10.96-0.234,16.44c0,0.703,0.047,1.522,0.609,1.92
		C225.087,221.477,225.462,221.524,225.813,221.571 M166.776,217.286c2.857,0.281,5.737,0.539,8.618,0.82
		c0.562,0.047,1.335-0.047,1.405-0.609c0.937-7.587,1.873-15.198,2.81-22.786c0.047-0.304,0-0.726-0.328-0.773
		c-3.63,7.025-7.4,13.981-11.334,20.842c-0.422,0.703-0.843,1.452-1.546,1.873C166.519,216.864,166.636,217.075,166.776,217.286"/>
	<path class="path" fill="none" stroke="#000" stroke-width="1" d="M203.777,242.507c0.562-0.351,1.311-0.351,1.897-0.023c0.023-0.515,0.047-1.054,0.07-1.569
		c-1.101,0.398-2.295-0.047-3.442-0.141c-1.147-0.094-2.623,0.515-2.599,1.663c-1.475,0.445-3.091,0.351-4.496-0.281
		c1.101-0.047,2.201-0.094,3.302-0.141c0.375,0,0.82-0.094,0.937-0.445c0.117-0.468-0.492-0.749-0.96-0.843
		c-0.539-0.094-1.077-0.211-1.616-0.328c-0.726-0.141-1.522-0.258-2.131,0.164c-0.585,0.445-0.492,1.639,0.234,1.663
		c-0.445,0.258-0.89,0.492-1.358,0.726c-0.047-1.85-2.178-3.325-3.934-2.74c-1.007,0.328-1.522-1.171-1.499-2.225
		c0.539-18.29,1.358-36.579,2.459-54.822c0.07-0.96,0.211-2.061,0.984-2.599c0.539-0.351,1.218-0.351,1.85-0.351
		c5.011,0.07,10,0.141,15.011,0.211c1.569,0,3.653,0.515,3.7,2.084c0.258,12.014-0.164,24.05-1.265,36.017
		c-0.094,0.82,0.656,1.522,1.452,1.71c0.796,0.187,1.616-0.023,2.412-0.211c0.328-0.094,0.656-0.164,0.866-0.422
		c0.234-0.281,0.258-0.679,0.281-1.054c0.281-11.264,0.585-22.528,0.866-33.769c1.311,3.677,1.218,7.681,1.124,11.592
		c-0.211,8.594-0.422,17.189-0.656,25.783c-2.014-0.749-4.286-0.913-6.393-0.422c0.023,6.182,0.07,12.341,0.094,18.5
		c0,0.539,0,1.124-0.258,1.592c-0.515,0.937-1.733,1.147-2.787,1.265C206.493,243.233,204.924,243.35,203.777,242.507
		 M192.489,181.877c-0.679,1.241-0.749,2.74-0.796,4.168c-0.187,4.988-0.351,9.953-0.539,14.941
		c-0.023,0.679,0.117,1.546,0.773,1.639c6.018,0.89,12.154,1.007,18.219,0.375c0.609-6.838,0.749-13.723,0.375-20.585
		C204.55,181.807,198.508,181.643,192.489,181.877 M190.265,217.59c-0.211,0.211-0.234,0.539-0.234,0.82
		c0.023,2.482,0.047,4.965,0.047,7.447c2.716,0.445,5.55-0.398,8.173,0.304c1.827,0.492,3.747,0.609,5.597,0.328
		c0.304-0.82-0.703-1.546-1.569-1.71c-1.428-0.258-2.904,0-4.356-0.07c-2.459-0.117-4.894-1.218-7.283-0.679
		c-0.047-0.422-0.094-0.82-0.117-1.241c1.873-0.562,3.958-0.492,5.784,0.211c1.991,0.749,4.262-0.141,6.346,0.328
		c1.967,0.422,3.981,0.632,5.995,0.609c0.89,0,1.077-1.218,1.007-2.084c-4.66,0.211-9.367-0.117-13.957-0.937
		c-0.585-0.117-1.265-0.211-1.78,0.094c-1.124-0.187-2.272-0.375-3.419-0.585c0.047-0.445,0.07-0.866,0.117-1.311
		c2.084,0.351,4.192,0.539,6.299,0.539c0.585,0.023,1.382-0.304,1.194-0.843c0.258,0.304,0.492,0.585,0.749,0.89
		c1.288,0.422,2.646,0.632,4.028,0.656c0.585,0,1.218-0.023,1.686-0.375c0.492-0.328,0.773-1.054,0.422-1.522
		c-0.562-0.023-1.124-0.047-1.686-0.07c-4.028-0.141-8.079-0.281-12.084-0.937C190.897,217.403,190.499,217.356,190.265,217.59
		 M201.177,213.656c-0.281-0.187-0.632-0.211-0.96-0.234c-1.569-0.094-3.161-0.211-4.73-0.328c0.164,1.03,0.304,2.061,0.468,3.068
		c1.756,0.515,3.583,0.562,5.41,0.585c2.74,0.07,5.48,0.117,8.243,0.187c0.141-0.585,0.281-1.194,0.164-1.78
		c-0.094-0.585-0.515-1.171-1.124-1.265c-1.335-0.187-2.67-0.375-4.005-0.562c-0.632-0.094-1.241,0.375-1.475,0.984
		c-0.211,0.585-0.141,1.265,0.07,1.873c-0.539,0.023-1.077,0.047-1.616,0.07C201.88,215.342,202.02,214.124,201.177,213.656
		 M196.26,208.668c-0.445-0.281-0.96-0.726-1.452-0.515c-1.171,0.515-2.529,0.539-3.723,0.07c-0.515,1.522-0.703,3.138-0.585,4.73
		c0.023,0.422,0.07,0.82-0.023,1.218c-0.094,0.281-0.258,0.539-0.258,0.82c-0.047,0.866,1.077,1.241,1.92,1.124
		c0.866-0.094,1.827-0.375,2.482,0.164c0-0.492-0.023-0.96-0.047-1.452c0-0.445-0.023-0.937-0.304-1.288
		c-0.445-0.562-1.265-0.585-1.967-0.773c-0.679-0.187-1.358-1.007-0.89-1.546c2.201,0.515,4.473,0.703,6.721,0.585
		c0.679-0.89,0.843-2.131,0.398-3.138C197.899,209.183,196.939,209.113,196.26,208.668 M207.734,211.876
		c0.187,0.796,1.452,0.843,1.967,0.211c0.539-0.609,0.562-1.522,0.539-2.342c-0.023-1.475-0.047-2.951-0.07-4.426
		c-0.023-0.749-1.101-0.89-1.85-0.773c-1.03,0.164-2.061,0.351-3.091,0.515c-0.89,0.632-0.398,2.178,0.562,2.646
		c0.984,0.468,2.131,0.234,3.185-0.023c0.726-0.164,1.101,1.054,0.539,1.546c-0.585,0.468-1.452,0.258-2.061-0.164
		C207.547,210.002,207.641,210.939,207.734,211.876 M201.763,212.087c1.007-0.258,2.084,0.117,3.138,0
		c1.03-0.094,2.131-1.218,1.569-2.108c-0.211-0.328-0.585-0.492-0.96-0.632c-1.663-0.632-3.489-0.82-5.246-0.539
		c-0.164,0.703-0.328,1.452-0.117,2.154C200.334,211.665,201.06,212.251,201.763,212.087 M190.967,205.085
		c-0.023,0.609,0.023,1.194,0.141,1.78c1.592,0.117,3.185,0.07,4.754-0.164c0.187-0.023,0.398-0.047,0.585,0.023
		c0.609-0.585,0.234-1.71-0.492-2.154c-0.726-0.422-1.616-0.398-2.459-0.351c-0.562,0.047-1.124,0.07-1.663,0.117
		c-0.258,0.023-0.562,0.047-0.726,0.258C191.014,204.733,190.99,204.921,190.967,205.085 M195.417,232.25
		c1.85,0.632,3.817,0.866,5.761,0.679c0.703-0.07,1.569-0.375,1.546-1.077c-0.047-0.82-1.218-0.937-2.037-0.843
		c-1.382,0.141-2.81,0.023-4.168-0.304C195.885,230.938,195.44,231.571,195.417,232.25 M200.475,229.627
		c1.686-0.141,3.372-0.07,5.035,0.187c0.585-0.304,1.194-0.632,1.78-0.96c0,0.656,0.585,1.265,1.241,1.288
		c0.656,0,1.265-0.585,1.265-1.241c-2.272-0.492-4.59-0.726-6.908-0.656c-0.515,0-1.147-0.07-1.288-0.539
		c-0.304,0.281-0.703,0.468-1.124,0.515C200.287,228.667,200.311,229.182,200.475,229.627 M203.215,204.991
		c-1.428-0.023-2.857-0.047-4.262-0.047c-0.422-0.023-0.749,0.398-0.796,0.796c-0.07,0.398,0.07,0.82,0.211,1.194
		c0.281,0.585,1.101,0.539,1.71,0.375c0.609-0.187,1.358-0.375,1.827,0.07c0.445,0.422,1.265,0.023,1.475-0.562
		C203.589,206.232,203.402,205.576,203.215,204.991 M197.196,235.973c0.398,0.023,0.866,0.023,1.147-0.281
		c0.375-0.375,0.164-1.054-0.281-1.382c-0.445-0.304-1.007-0.328-1.546-0.351c-1.311-0.07-2.646-0.117-3.958-0.164
		c-0.187,0.351-0.351,0.726-0.328,1.124c0.023,0.398,0.304,0.82,0.703,0.843C194.363,235.833,195.791,235.903,197.196,235.973
		 M199.327,227.917c-2.084-0.468-4.215-0.585-6.346-0.375c-0.234,0.585-0.141,1.288,0.234,1.803
		c1.358,0.023,2.693,0.047,4.051,0.094c0.515,0,1.054,0,1.522-0.234C199.234,228.971,199.562,228.386,199.327,227.917
		 M202.02,239.158c0-0.515-0.023-1.007-0.023-1.499c-1.944-0.398-3.981-0.422-5.925-0.07c-0.422,0.304-0.281,1.007,0.117,1.335
		c0.398,0.328,0.937,0.375,1.452,0.398C199.093,239.416,200.592,239.533,202.02,239.158 M209.959,239.439
		c-0.117-0.492-0.234-0.96-0.351-1.452c-2.014-0.164-4.028-0.351-6.042-0.515c-0.562,0.211-0.515,1.101-0.07,1.499
		c0.468,0.375,1.124,0.398,1.71,0.422C206.798,239.392,208.367,239.416,209.959,239.439 M206.165,231.219
		c-0.632-0.094-1.358-0.187-1.897,0.164s-0.609,1.358,0,1.569c1.569,0.492,3.208,0.703,4.848,0.609
		c0.445-0.375,0.304-1.147-0.117-1.546c-0.445-0.375-1.054-0.492-1.616-0.585C206.985,231.36,206.564,231.29,206.165,231.219
		 M194.62,239.205c0.328-0.492,0.445-1.124,0.328-1.71c-1.71-0.445-3.489-0.679-5.246-0.679c-0.141,0.515-0.164,1.054-0.117,1.569
		C191.178,239.041,192.911,239.322,194.62,239.205 M205.533,234.779c-1.265-0.187-2.529-0.375-3.794-0.562
		c-0.258-0.047-0.515-0.094-0.749-0.023c-0.422,0.117-0.82,0.492-1.194,0.304c-0.328,0.281-0.234,0.82,0.07,1.101
		c0.304,0.281,0.726,0.351,1.124,0.445c1.475,0.258,3.091,0.515,4.449-0.141C205.463,235.528,205.51,235.154,205.533,234.779
		 M191.553,232.32c1.054,0.211,2.365,0.141,2.88-0.796c0.164-0.304,0.187-0.726-0.047-0.984c-1.546-0.094-3.115-0.187-4.66-0.304
		c-0.258,0.492-0.047,1.101,0.351,1.475C190.475,232.062,191.037,232.226,191.553,232.32 M208.414,227.355
		c0.258,0.023,0.515,0.023,0.749-0.07c0.632-0.304,0.492-1.358-0.094-1.733s-1.358-0.281-2.037-0.164
		c-0.703,0.117-1.452,0.258-2.084-0.047c-0.328,0.445-0.07,1.147,0.422,1.475c0.468,0.328,1.054,0.375,1.639,0.422
		C207.477,227.285,207.945,227.308,208.414,227.355 M209.702,219.674c0.375-0.492-0.328-1.077-0.913-1.218
		c-0.726-0.164-1.475-0.187-2.225-0.07c-0.187,0.585-0.187,1.218,0,1.803C207.641,220.447,208.788,220.26,209.702,219.674
		 M207.032,234.99c-0.211,0.164-0.351,0.398-0.351,0.656c0,0.281,0.187,0.539,0.375,0.749c0.562-0.258,1.171,0.07,1.78,0.094
		c0.585,0.023,1.288-0.679,0.843-1.077C208.859,234.919,207.781,234.404,207.032,234.99 M209.093,240.938
		c-0.703-0.328-1.546-0.281-2.225,0.094c0.141,0.304,0.281,0.609,0.422,0.89c0.539,0.141,1.077,0.281,1.592,0.141
		c0.515-0.117,1.007-0.609,0.937-1.124c-0.234-0.047-0.445-0.094-0.656-0.117 M190.92,227.215c-0.328-0.351-0.632-0.703-0.96-1.054
		c-0.164,0.632-0.328,1.335-0.094,1.944c0.211,0.632,1.007,1.077,1.569,0.749c-0.047-0.585-0.187-1.171-0.468-1.71 M189.773,233.421
		c-0.609,0.679,0.164,2.014,1.077,1.803c0.539-0.749-0.211-2.014-1.148-1.92"/>
	<path class="path" fill="none" stroke="#000" stroke-width="1" d="M311.196,237.472c-0.422,0.749,0.656,1.78,1.382,1.311c0.281,0.913,0.562,1.873,0.258,2.787
		c-0.304,0.89-1.452,1.546-2.225,1.007c0.258,0.843,0.515,1.686,0.773,2.553c0.82-0.398,1.873-0.234,2.576,0.375
		c-0.234,0.913-1.546,1.171-2.389,0.703c-0.843-0.468-1.335-1.358-1.873-2.154c-0.562-0.773-1.335-1.546-2.295-1.546
		c-2.061,0.023-4.122,0.023-6.182,0.047c0.632,1.147,2.037,1.803,3.302,1.569c-1.616,1.218-4.122,1.077-5.597-0.328
		c0.562-0.094,1.054-0.468,1.311-0.96c-0.187-3.817-0.164-7.634,0.117-11.451c-10.562,0.398-21.123,0.82-31.685,1.241
		c0.632,2.154,0.515,4.52-0.304,6.627c-2.318-4.73-2.084-10.632,0.609-15.128c9.203-15.386,17.938-31.052,26.205-46.953
		c0.234-0.468,0.492-0.984,0.96-1.241c0.398-0.211,0.89-0.234,1.358-0.234c6.37-0.047,12.739-0.094,19.109-0.141
		c1.358,0,2.81,0.023,3.864,0.843c0.632,0.492,1.03,1.171,1.405,1.85c9.063,16.205,14.941,34.495,27.329,48.312
		c2.951,3.302,1.358,8.594,2.927,12.739c-0.843,0.703-1.803-0.82-1.897-1.944c-0.234-2.834-0.468-5.667-0.703-8.524
		c-0.937,0.96-2.412,1.101-3.77,1.171c-10.187,0.492-20.374,1.007-30.584,1.522c-0.141,4.122,0.047,8.267,0.562,12.341
		c-1.007,0.094-1.405-1.265-1.452-2.272c-0.117-2.412-0.234-4.801-0.351-7.213c-3.442,0.703-7.025,0.749-10.468,0.117
		c-0.422,1.405,1.639,2.131,3.115,2.108c2.318-0.023,4.613-0.047,6.908-0.047C313.14,237.402,312.039,237.847,311.196,237.472
		 M293.632,219.791c-0.07,1.499-0.187,3.091-1.077,4.286c0.234,0.726,0.328,1.499,0.258,2.272c-0.398-0.328-0.679-0.796-0.726-1.311
		c-6.463,0.351-12.927,0.726-19.414,1.101c-1.171,0.047-2.412,0.141-3.396,0.796c-0.96,0.656-1.546,2.084-0.866,3.044
		c0.632,0.913,1.92,0.96,3.021,0.937c9.719-0.304,19.437-0.632,29.132-0.937c1.124-13.864,1.546-27.797,1.335-41.708
		c-0.023-0.82,1.101-1.077,1.944-1.054c1.663,0.047,3.325,0.094,4.988,0.141c1.311,0.023,2.693,0.07,3.911,0.609
		c1.218,0.539,2.248,1.663,2.248,2.998c0.047,10.093,0.094,20.163,0.117,30.256c0,0.609,0.585,1.475,0.984,1.007
		c0.328-10.14,0.679-20.304,1.007-30.444c0.141-4.262,0.281-8.571-0.539-12.739c-0.094-0.492-0.211-1.03-0.585-1.358
		c-0.445-0.445-1.124-0.468-1.756-0.492c-4.684-0.117-9.367-0.211-14.074-0.328c-1.92-0.047-4.52,0.492-4.613,2.412
		C294.897,192.79,294.265,206.302,293.632,219.791 M270.636,224.498c7.26,0.211,14.543-0.234,21.732-1.311
		c0.258-13.723,0.89-27.446,1.897-41.146c-5.644,11.241-11.92,22.154-18.219,33.066C274.242,218.222,272.439,221.36,270.636,224.498
		 M315.083,229.931c11.17-0.234,22.318-0.773,33.441-1.616c-1.475-2.81-3.747-6.065-6.885-5.667
		c-6.37,0.82-12.786,1.077-19.203,0.749c-0.492-11.498-0.422-22.997,0.234-34.495c0.141-2.576,0.304-5.222-0.609-7.658
		c-0.913-2.412-3.232-4.496-5.808-4.262c1.452,1.335,1.78,3.466,1.92,5.433c0.913,11.451-0.749,22.95-0.796,34.448
		c-0.023,2.061,0.117,4.332,1.569,5.784c-0.679,0.82-2.061,0.422-2.951,0.984C314.1,224.803,316.301,228.058,315.083,229.931
		 M323.701,184.524c-0.094,11.967-0.187,23.933-0.304,35.9c0,0.492,0.023,1.03,0.375,1.358c0.328,0.281,0.773,0.304,1.171,0.304
		c6.323,0.07,12.646-0.117,18.945-0.585c-6.042-7.4-10.21-16.088-14.332-24.706C327.612,192.696,325.668,188.598,323.701,184.524
		 M313.866,191.385c0-0.539-0.023-1.124-0.328-1.569c-0.562-0.843-1.803-0.82-2.834-0.749c-2.716,0.187-5.456,0.047-8.126-0.422
		c0.281,1.007,0.281,2.061,0.281,3.091c0.023,3.021,0.023,6.042,0.047,9.086c3.115,0.539,6.299,0.749,9.484,0.632
		c0.515-0.023,1.265,0.328,0.96,0.749c-0.094,0.164-0.328,0.187-0.515,0.211c-1.405,0.117-2.834,0.07-4.239-0.141
		c-0.492-0.094-1.03-0.187-1.522-0.047c-0.492,0.117-0.96,0.562-0.913,1.077c1.803,0.164,3.606,0.234,5.433,0.234
		c0.539,0,1.124-0.023,1.592-0.351c0.749-0.515,0.82-1.592,0.796-2.506C313.959,197.567,313.912,194.476,313.866,191.385
		 M312.109,233.702c0.539,0.023,1.171-0.023,1.522-0.445c0.211-0.281,0.258-0.656,0.304-1.007c0.234-2.717,0.304-5.433,0.234-8.173
		c-0.937-0.398-2.061,0.89-1.522,1.756c0.328,0.562,1.147,1.077,0.796,1.639c-0.89,0-1.78-0.187-2.576-0.539
		c-0.328,0.445-0.304,1.077,0.023,1.522c0.328,0.422,0.937,0.609,1.452,0.422c0.749-0.258,1.499,0.866,0.96,1.452
		c-1.71-0.679-3.677-0.773-5.41-0.141c-0.351,0.117-0.726,0-1.077-0.117c-0.398-0.117-0.773-0.258-1.171-0.375
		c-0.375-0.141-0.796-0.258-1.194-0.141c-0.375,0.094-0.703,0.562-0.492,0.913c0.094,0.187,0.281,0.281,0.468,0.375
		c0.726,0.375,1.592,0.749,2.389,0.468c0.281-0.094,0.539-0.281,0.843-0.234c1.897,0.375,3.864,0.539,5.808,0.492
		c0.07,0.281,0.023,0.585-0.117,0.843c-3.887,0.234-7.822,0.023-11.686-0.632c-0.117,0.328-0.234,0.656-0.351,0.984
		c0.398,0.726,1.405,0.82,2.248,0.843C306.419,233.631,309.252,233.678,312.109,233.702 M307.355,224.592
		c-0.211,0.094-0.445-0.047-0.656-0.141c-1.147-0.539-2.482-0.164-3.7,0.211c-0.234,0.094-0.515,0.187-0.656,0.398
		c-0.094,0.164-0.117,0.351-0.117,0.562c-0.094,1.686-0.187,3.372-0.281,5.058c0.468,0.047,0.937,0.094,1.405,0.141
		c0.187-0.984-0.515-1.897-1.171-2.646c1.546,0.211,3.091,0.422,4.637,0.632c0.96,0.141,2.037,0.258,2.88-0.234
		c0.258-0.749-0.796-1.218-1.592-1.288c-1.358-0.164-2.74-0.281-4.145-0.375c-0.304-0.023-0.632-0.047-0.843-0.258
		c-0.234-0.211-0.258-0.656,0.023-0.773c1.499,0.281,3.068,0.07,4.426-0.585c0.07,0.187,0.117,0.375,0.164,0.562
		c1.194,0.187,2.365,0.445,3.536,0.796c0.117-0.773,0.141-1.546,0.094-2.318C310.048,224.03,308.62,224.124,307.355,224.592
		 M313.561,218.948c0.585,0.398,0.281,1.382-0.351,1.686c-0.632,0.281-1.358,0.141-2.061,0.047
		c-0.679-0.117-1.452-0.117-1.944,0.375c0.468-0.094,0.468,0.656,0.585,1.124c0.211,0.749,1.218,0.913,2.014,0.913
		c0.492,0,1.03,0,1.475-0.234c1.007-0.539,1.054-1.967,0.984-3.115c-0.047-0.679-0.211-1.499-0.866-1.733
		c-0.164-0.047-0.351-0.047-0.515-0.047c-3.044-0.07-6.112-0.141-9.157-0.211c-0.398,0-0.82,0-1.147,0.187
		c-0.328,0.211-0.539,0.679-0.304,1.007C305.974,219.815,309.861,219.815,313.561,218.948 M309.627,215.131
		c-0.211,0-0.422,0-0.609,0c-2.154,0-4.286-0.023-6.44-0.023c-0.258,0.328-0.398,0.773-0.351,1.194
		c3.161,0.375,6.346,0.539,9.531,0.468c0.703-0.023,1.428-0.07,2.014-0.445c0.585-0.398,0.913-1.241,0.492-1.803
		c-0.07,0.211-0.141,0.422-0.211,0.632C312.578,215.131,311.102,215.131,309.627,215.131 M311.922,204.944
		c-1.054,0.656-2.599-0.913-3.583-0.141c-0.258,0.187-0.585,0.117-0.89,0.023c-1.194-0.328-2.459-0.445-3.7-0.328
		c-0.375,0.047-0.796,0.141-0.96,0.468c-0.258,0.539,0.375,1.077,0.96,1.241c2.318,0.679,5.035-0.609,7.143,0.609
		c0.796-0.492,1.827-0.562,2.67-0.187c0.375-0.422,0.328-1.124-0.07-1.522C313.093,204.71,312.414,204.64,311.922,204.944
		 M312.624,212.789c0.117-0.164-0.094-0.422-0.304-0.422c-0.211-0.023-0.398,0.117-0.585,0.187c-1.499,0.679-3.419-1.03-4.777-0.094
		c-0.515,0.351-1.218,0.211-1.803-0.023s-1.171-0.539-1.803-0.445c-0.609,0.07-1.194,0.796-0.866,1.311
		c0.656,0.632,1.663,0.656,2.553,0.656c3.021,0,6.018-0.023,9.016-0.023c0.211-0.492,0.187-1.101-0.187-1.452
		C313.467,212.134,312.695,212.274,312.624,212.789 M311.243,239.744c-3.513-0.023-7.025-0.047-10.538-0.094
		c-0.304,0.422-0.07,1.03,0.351,1.311c0.422,0.281,0.96,0.328,1.475,0.351c1.522,0.047,3.044,0.117,4.543-0.164
		c0.328-0.047,0.656-0.141,0.984-0.07c0.468,0.094,0.96,0.187,1.429,0.258c0.632,0.117,1.335,0.234,1.85-0.117
		C311.852,240.844,311.852,239.837,311.243,239.744 M302.812,208.363c0.141,0.515,0.82,0.632,1.335,0.515
		c0.515-0.141,1.03-0.398,1.546-0.281c2.787,0.656,5.737,0.726,8.571,0.234c-0.07-0.679-0.82-1.077-1.499-1.077
		c-0.679-0.023-1.335,0.211-2.014,0.234c-1.639,0.023-3.419-1.265-4.777-0.328c-0.375,0.281-0.913,0.164-1.335-0.023
		c-0.445-0.187-0.89-0.398-1.358-0.304C302.836,207.426,302.484,208.035,302.812,208.363 M302.672,210.611
		c3.302,0.796,6.768,0.773,10.163,0.726c0.445,0,0.89,0,1.335,0c0.117-0.398-0.164-0.796-0.515-0.984
		c-0.351-0.211-0.773-0.234-1.171-0.234c-3.232-0.117-6.487-0.187-9.719-0.141C302.742,210.19,302.695,210.401,302.672,210.611
		 M305.857,223c0.984,0.351,2.178,0.047,2.88-0.726c0.164-0.492-0.164-1.054-0.632-1.288c-0.468-0.258-1.007-0.281-1.522-0.304
		c-1.335-0.047-2.67-0.117-4.004-0.164c-0.258,0.913-0.187,1.92,0.211,2.787c0.585,0,1.147-0.375,1.382-0.913
		c0.141-0.304,0.164-0.679,0.375-0.984c0.187-0.281,0.656-0.445,0.866-0.164C305.388,221.852,305.552,222.461,305.857,223
		 M303.562,238.76c0.281,0,0.585-0.047,0.82-0.187c0.258-0.164,0.445-0.445,0.468-0.749c-1.241-0.726-2.974-0.585-4.051,0.375
		C301.665,238.596,302.601,238.807,303.562,238.76 M308.222,238.69c0.585,0.211,1.311,0,1.71-0.492
		c-0.796-0.539-1.78-0.82-2.74-0.726c-0.187,0-0.375,0.047-0.492,0.164c-0.328,0.258-0.141,0.82,0.234,1.007
		c0.375,0.187,0.82,0.117,1.241,0.047 M303.046,236.137c-0.187-0.913-0.679-1.756-1.382-2.389c-0.679,0.866-0.468,2.272,0.445,2.857
		C302.414,236.465,302.742,236.301,303.046,236.137 M304.686,202.485c-0.445-0.094-0.913-0.164-1.311,0.023
		c-0.422,0.187-0.656,0.749-0.375,1.077c0.375-0.023,0.726-0.07,1.101-0.117c0.281-0.023,0.609-0.07,0.796-0.281
		c0.187-0.211,0.094-0.656-0.187-0.679"/>
	<path class="path" fill="none" stroke="#000" stroke-width="1" d="M79.871,221.22c-9.063-0.023-18.102-0.703-27.025-2.061c-1.639-0.258-2.506,1.944-2.201,3.56
		c0.281,1.616,1.147,3.255,0.609,4.801c-0.398-0.89-1.147-1.616-2.037-1.991c0.094-2.248,0.211-4.52,0.304-6.768
		c0.047-1.194,0.094-2.412,0.515-3.536c0.351-1.03,0.984-1.92,1.592-2.81c9.367-13.372,18.735-26.72,28.102-40.092
		c0.679-0.96,1.639-2.061,2.81-1.85c6.393,1.218,12.927,1.71,19.437,1.452c2.037-0.094,3.583,1.756,4.754,3.466
		c9.133,13.348,16.135,28.055,23.09,42.691c0.726,1.475,1.429,2.998,1.78,4.613c0.351,1.639,0.304,3.349,0.258,5.035
		c-0.07,2.389-0.141,4.777-0.187,7.189c-1.101-2.389-1.569-5.035-1.358-7.634c0.164-2.295,0.703-5.035-1.054-6.51
		c-0.843-0.726-2.014-0.913-3.115-1.054c-5.339-0.749-10.702-1.499-16.041-2.248c0.211-10.772,0.281-21.521,0.211-32.294
		c1.077,0.234,1.311,1.663,1.311,2.763c0.023,9.25,0.047,18.477,0.07,27.727c0,0.258,0.328,0.375,0.585,0.398
		c5.316,0.82,10.632,1.639,15.948,2.459c-6.299-14.472-13.676-28.453-22.06-41.825c0.632,12.248,0.632,24.519,0,36.79
		c-0.047,1.077-1.03,1.92-2.084,2.178c-1.03,0.258-2.131,0.07-3.208-0.117c-0.023,1.522-0.07,3.044-0.094,4.567
		c0,0.351,0,0.773,0.234,1.03c0.234,0.234,0.562,0.304,0.89,0.351c8.712,1.475,17.517,2.435,26.369,2.904
		c0.749,0.047,1.756,0.398,1.592,1.124c-0.117,0.609-0.937,0.703-1.546,0.656c-8.829-0.656-17.634-1.663-26.392-2.998
		c-1.077-0.164-1.288,1.499-1.101,2.576c0.726,3.958,0.304,8.126-1.218,11.873c0-2.248,0-4.496,0-6.744
		c0-1.405-0.539-3.302-1.92-3.138c-0.304,0.375-0.585,0.726-0.866,1.077c0.796,0.468,1.616,0.913,2.435,1.358
		c-5.831,0.094-11.662-0.141-17.447-0.703c0.234,0.89,1.382,1.124,2.318,1.194c4.965,0.351,9.953,0.726,14.917,1.077
		c-0.445,0.984-1.803,1.054-2.88,0.96c-4.239-0.375-8.477-0.749-12.716-1.124c-0.796-0.07-1.967,0.422-1.569,1.101
		c5.761,0.328,11.475,0.866,17.189,1.592c-0.164,1.194-1.944,1.03-3.091,0.585c-1.124-0.468-2.974-0.398-2.927,0.82
		c1.686,0.281,3.396,0.351,5.082,0.211c0.234,0.398,0.211,0.913-0.047,1.288c-1.639-0.117-3.302-0.258-4.941-0.398
		c-0.796-0.07-1.592-0.117-2.365,0.07c-1.03,0.281-1.873,1.03-2.81,1.499c-0.96,0.468-2.248,0.632-2.998-0.117
		c1.241-0.023,2.482-0.234,3.653-0.632c-0.96-1.335-3.138-1.569-4.332-0.445c-0.656,0.585-1.686,1.452-2.131,0.703
		c0.515-0.141,0.89-0.632,0.89-1.171c-0.585-0.258-1.194-0.539-1.78-0.82c-0.211,0.445-0.445,0.866-0.656,1.288
		c0.539,0.07,1.007,0.445,1.241,0.937c-0.749,0.164-1.522,0.351-2.272,0.515c0.866-4.965,1.382-9.976,1.569-14.988
		C81.183,222.601,80.878,221.22,79.871,221.22 M96.217,205.928c-0.375,0-0.796,0.023-1.124,0.211s-0.562,0.632-0.398,0.96
		c0.187,0.375,0.679,0.422,1.101,0.445c1.171,0.023,2.342,0.047,3.513,0.07c0.445-1.241,0.632-2.553,0.609-3.864
		c-5.597-0.094-11.217-0.094-16.814,0.023c-0.258,0.304-0.094,0.796,0.234,1.007c0.328,0.211,0.749,0.211,1.124,0.211
		c3.325-0.047,6.651-0.117,9.976-0.187c1.71-0.047,3.442-0.07,5.152,0.187c0.023,0.304,0.07,0.585,0.094,0.89
		C98.536,205.904,97.388,205.904,96.217,205.928 M98.372,214.147c-0.843,0.094-1.71,0.187-2.553,0.281
		c-0.141,0.328-0.258,0.679-0.375,1.007c1.101,0.281,2.248,0.328,3.349,0.117c0.468,0.141,0.492,0.866,0.117,1.218
		c-0.375,0.328-0.913,0.328-1.405,0.304c-1.522-0.094-3.208-0.468-4.473,0.375c0.258,0.258,0.492,0.515,0.726,0.749
		c1.101,0.539,2.365,0.726,3.56,0.539c0.468-0.07,0.937-0.187,1.382-0.047c0.445,0.164,0.773,0.726,0.492,1.101
		c-1.054-0.023-2.084,0.258-2.998,0.796c0.632,0.398,1.288,0.773,1.92,1.171c0.094,0.703-0.141,1.452-0.609,1.991
		c-0.703-1.592-2.951-2.248-4.379-1.288c-0.539,0.375-1.241-0.07-1.85-0.304c-1.288-0.515-2.717-0.07-4.098-0.141
		c-1.803-0.117-3.653-1.147-5.316-0.445c0.187,0.304,0.281,0.703,0.211,1.054c3.513,0.703,7.119,0.866,10.679,0.515
		c-0.141,0.468,0.585,0.679,1.077,0.656c1.147-0.094,2.295-0.07,3.419,0.023c0.89,0.07,1.967,0.375,2.131,1.241
		c0.047-3.981,0.094-7.962,0.141-11.943c0-0.234,0-0.492-0.117-0.703c-0.141-0.258-0.445-0.398-0.726-0.492
		c-1.475-0.515-3.091-0.562-4.59-0.141c-0.304,0.094-0.656,0.211-0.96,0.117c-1.452-0.422-2.951-0.445-4.449-0.468
		c-0.234-0.023-0.492-0.023-0.726-0.023c-1.429-0.023-2.834-0.047-4.239-0.07c-0.726-0.023-1.311,0.632-1.452,1.335
		c-0.164,0.703,0.023,1.405,0.187,2.108c1.358-0.141,2.67,0.351,4.005,0.609c1.335,0.258,2.857,0.234,3.841-0.703
		c1.218,0.913,2.857,1.218,4.332,0.796c0.187-0.398-0.07-0.89-0.445-1.124c-0.375-0.211-0.82-0.234-1.265-0.258
		c-3.325-0.187-6.674-0.351-10-0.539c-0.047-0.258-0.094-0.539-0.141-0.796c1.71-0.187,3.396-0.375,5.105-0.562
		c0.281-0.023,0.585-0.047,0.82,0.117c0.843,0.539,1.944,0.422,2.951,0.375c2.225-0.117,4.449,0.258,6.651,0.656
		c0.304,0.047,0.703,0.234,0.609,0.515C98.84,214.077,98.582,214.147,98.372,214.147 M105.14,177.475
		c-0.023-1.147-0.164-2.482-1.101-3.161c-0.562-0.398-1.311-0.468-2.014-0.492c-6.276-0.398-12.576-0.796-18.852-1.171
		c-0.304-0.023-0.656-0.023-0.866,0.187c-0.211,0.187-0.234,0.492-0.258,0.773c-0.703,12.388-1.429,24.753-2.154,37.141
		c-0.023,0.562,0.07,1.311,0.609,1.429c0.679,0.164,1.03-0.796,1.077-1.499c0.445-9.32,0.913-18.617,1.358-27.938
		c0.07-1.452,2.061-1.803,3.513-1.733c4.988,0.304,9.953,0.585,14.917,0.866c-0.023,10.468-0.234,20.959-0.585,31.427
		c1.194,0.679,2.693,0.796,3.981,0.304C105.35,201.572,105.467,189.512,105.14,177.475 M81.276,172.768
		c-3.232,3.115-5.199,7.494-5.41,11.967c-0.375,8.571-1.124,17.142-2.201,25.643c-0.141,1.03-0.351,2.154-1.194,2.74
		c-0.562,0.398-1.288,0.445-1.991,0.468c-3.349,0.094-6.721-0.094-10.046-0.562c-2.014-0.258-4.075-0.632-6.018-0.07
		c-1.92,0.585-3.653,2.435-3.302,4.426c11.288,1.452,22.645,2.365,34.027,2.763c-1.054-0.984-2.529-1.452-3.958-1.265
		c0.094-2.014,0.164-4.028,0.234-6.042c-0.96,0.866-2.482,1.03-3.63,0.422C80.269,199.933,78.724,186.093,81.276,172.768
		 M71.675,211.618c0.304-0.211,0.398-0.632,0.445-1.007c1.358-9.227,2.201-18.5,2.553-27.821c-0.468,0.141-0.773,0.539-1.054,0.937
		c-6.557,8.875-12.88,17.938-18.945,27.165c5.386,0.82,10.843,1.124,16.276,0.89C71.207,211.782,71.464,211.759,71.675,211.618
		 M83.478,199.324c5.058,0.656,10.163,0.89,15.245,0.749c0.351-0.023,0.726-0.047,0.937-0.304c0.164-0.234,0.164-0.539,0.164-0.82
		c-0.164-4.754,0-9.508,0.515-14.238c0.117-1.03-1.241-1.522-2.272-1.616c-4.075-0.445-8.173-0.632-12.295-0.539
		c-0.398,0-0.866,0.023-1.194,0.281c-0.422,0.351-0.492,0.984-0.515,1.522C83.876,189.348,83.665,194.336,83.478,199.324
		 M99.87,202.087c-0.117-0.187-0.211-0.375-0.328-0.562c-3.419,0-6.838,0.023-10.257,0.023c-0.398,0.023-0.82,0-1.194-0.164
		c-1.077-0.468-2.318-0.422-3.489-0.375c-0.773,0.023-1.827,0.422-1.592,1.147c1.382,0.632,2.998,0.749,4.449,0.375
		c2.248-0.585,4.801,0.866,6.862-0.187c0.234-0.141,0.539-0.047,0.796,0.023c1.429,0.398,2.951,0.468,4.426,0.258
		C99.636,202.438,99.753,202.274,99.87,202.087 M96.381,209.37c-1.007-0.726-2.389-0.866-3.513-0.375
		c-1.78,0.773-3.887-0.773-5.761-0.234c-0.796,0.234-1.686,0.82-2.365,0.304c-0.632-0.468-1.663-0.304-2.108,0.351
		c-0.117,0.609,0.679,0.984,1.265,0.913c0.609-0.094,1.194-0.422,1.78-0.328c3.536,0.609,7.143,0.703,10.702,0.328
		C96.381,210.002,96.381,209.675,96.381,209.37 M83.126,206.583c0,0.422-0.211,0.843-0.539,1.124
		c3.817-0.023,7.634-0.094,11.475-0.234c-0.82-1.499-2.974-2.108-4.449-1.265c-1.054,0.609-2.342-0.047-3.536-0.234
		C85.07,205.811,83.993,206.045,83.126,206.583 M99.566,228.105c0.117-0.562,0.234-1.147,0.117-1.686
		c-0.141-0.562-0.585-1.077-1.147-1.077c-0.351,0-0.773,0.141-0.984-0.141c-0.351-0.468-1.124-0.375-1.686-0.164
		c-0.562,0.211-1.194,0.515-1.756,0.304c-1.241-0.515-2.576-0.726-3.911-0.656c-0.585,0.023-1.358,0.515-1.007,0.984
		c0.117,0.164,0.351,0.211,0.539,0.258c3.091,0.609,6.229,0.89,9.367,0.843C99.027,227.262,99.215,227.753,99.566,228.105
		 M95.538,227.777c-0.796-0.07-1.592-0.164-2.389-0.234c-2.014-0.211-4.005-0.422-5.995-0.539c-0.375-0.047-0.82-0.023-1.03,0.258
		c-0.258,0.328-0.07,0.843,0.281,1.054c0.328,0.234,0.749,0.258,1.171,0.281c2.295,0.141,4.59,0.258,6.908,0.398
		c0.398,0.023,0.843,0.023,1.171-0.234C95.96,228.503,95.936,227.871,95.538,227.777 M90.901,218.761
		c0.351-0.375,0.89-0.515,1.382-0.375c0.141-0.351,0.187-0.749,0.141-1.124c-1.452-0.375-2.974-0.445-4.449-0.211
		c-1.78,0.281-3.747-1.358-5.293-0.445c-0.07,0.047-0.117,0.094-0.164,0.141c-0.281,0.328,0.094,0.82,0.515,0.89
		c0.398,0.094,0.843-0.023,1.241,0.094c0.539,0.164,1.101,0.726,1.569,0.422c0.609-0.422,1.405-0.258,2.108-0.094
		C88.934,218.292,89.918,218.527,90.901,218.761 M86.335,224.217c-1.007,0-2.014,0-3.021,0c-0.258,0-0.539,0-0.749,0.141
		c-0.258,0.187-0.351,0.562-0.187,0.843c2.014,0.468,4.098,0.703,6.159,0.679c0.258-0.492-0.07-1.124-0.562-1.382
		C87.482,224.217,86.897,224.217,86.335,224.217 M92.119,235.154c-0.679-0.492-1.429-0.89-2.248-1.03
		c-1.101-0.187-2.295,0.141-3.161,0.866c0.422,0.632,1.288,0.703,2.037,0.703C89.894,235.716,91.112,235.716,92.119,235.154
		 M90.761,220.868c1.311,0.351,2.717,0.422,4.051,0.234c0.281-0.047,0.585-0.094,0.773-0.304c0.141-0.187,0.187-0.468,0.07-0.703
		c-1.546-0.445-3.208-0.492-4.777-0.07C90.737,220.283,90.714,220.587,90.761,220.868 M81.768,234.123
		c-0.164,0.304-0.211,0.679-0.141,1.03c1.101,0,2.201,0,3.279,0.023c0.164,0,0.351,0,0.492-0.117
		c0.234-0.164,0.234-0.539,0.023-0.773c-0.187-0.234-0.492-0.328-0.773-0.375C83.688,233.702,82.682,233.795,81.768,234.123
		 M85.328,220.072c0.773,0.468,1.639,0.984,2.529,0.82c0.562-0.094,1.054-0.445,1.311-0.937c-0.632-0.328-1.288-0.656-2.014-0.726
		C86.452,219.159,85.656,219.44,85.328,220.072 M85.07,228.198c0.023-0.375,0.07-0.726,0.094-1.101
		c-0.96-0.211-1.92-0.422-2.904-0.632c-0.585,0.468-0.117,1.475,0.585,1.733S84.321,228.245,85.07,228.198 M98.137,210.635
		c0.304,0,0.632,0,0.937,0c0.328-0.539,0.445-1.171,0.351-1.78c-0.89-0.281-1.92,0.492-1.897,1.429
		c0.211,0.094,0.422,0.211,0.632,0.304"/>
	<path class="path" fill="none" stroke="#000" stroke-width="1" d="M171.881,177.92c2.248-5.175,4.473-11.194,1.944-16.205c-1.101-2.225-3.021-3.911-4.871-5.527
		c-3.56-3.138-7.119-6.253-10.679-9.367c-6.604-5.761-13.606-11.732-22.2-13.465c-4.824-0.96-10.234-0.351-13.934,2.904
		c-3.7,3.255-4.824,9.531-1.499,13.161c1.382,1.546,3.349,2.435,5.246,3.302c9.719,4.403,19.437,8.805,29.179,13.208
		c-5.433-0.796-10.491-3.091-15.479-5.363c-4.637-2.108-9.297-4.215-13.934-6.323c-4.051-1.827-8.665-4.496-8.922-8.922
		c-0.281-5.129,5.737-9.32,4.684-14.332c-1.522-7.494,8.384-14.098,6.182-21.404c-2.482,0-4.941-0.89-6.862-2.459
		c4.894,1.639,10.702,0.187,14.238-3.583c-11.077-3.021-21.451-8.571-30.139-16.065c3.302-0.304,6.018,2.318,8.571,4.449
		c5.386,4.543,11.967,7.658,18.898,8.946c0.398-4.168,0.328-9.344-3.372-11.381c-3.653-1.991-6.768-4.941-8.969-8.477
		c4.239,3.185,8.477,6.346,12.739,9.531c-0.866-2.553,1.85-4.965,4.473-5.644c2.599-0.703,5.527-0.632,7.681-2.272
		c-7.822-1.077-14.027-9.039-13.161-16.908c0.585,5.948,4.403,11.451,9.765,14.074c3.349,1.663,8.079,3.677,7.166,7.306
		c-0.843-0.96-1.686-1.897-2.553-2.857c-2.67,0.703-5.339,1.382-8.009,2.084c-0.047,2.67-0.094,5.339-0.141,8.009
		c-1.124-2.389-1.78-4.988-1.92-7.634c-2.178,4.426-2.693,9.648-1.405,14.426c0.094-0.585,0.211-1.194,0.304-1.78
		c0.023,1.686,0.422,3.372,1.147,4.918c5.972-0.703,12.06-0.328,17.891,1.101c0.187-3.677-1.171-7.26-2.365-10.749
		c-1.194-3.489-2.225-7.236-1.429-10.843c0.82-3.606,4.122-6.908,7.775-6.44c-2.81,2.037-5.831,4.356-6.604,7.751
		c-0.539,2.365,0.117,4.801,0.773,7.143c1.592,5.667,3.185,11.334,4.777,17.002c1.475,5.222,3.044,10.608,6.604,14.707
		c4.473,5.152,11.92,7.47,18.524,5.784c2.88-0.749,5.948-2.787,5.901-5.761c-0.023-1.077-0.468-2.108-0.913-3.091
		c-1.967-4.426-3.934-8.852-5.901-13.278c-3.021,0.726-6.159,1.522-8.477,3.583c-2.318,2.061-3.442,5.855-1.569,8.337
		c2.154,2.904,3.653,6.276,4.309,9.836c-2.225-3.185-4.145-6.58-5.667-10.163c-0.866-1.991-1.616-4.286-0.773-6.299
		c1.92-4.543,10.304-4.332,10.772-9.227c0.726-8.009,0.234-16.112-1.452-23.957c-0.398-1.897-0.89-3.817-1.827-5.527
		c-2.459-4.379-7.494-6.51-12.154-8.36c-14.191-5.597-28.383-11.194-42.574-16.814c-2.834-1.101-5.737-2.248-8.782-2.412
		c-4.356-0.258-8.571,1.475-12.646,3.068c-10.702,4.168-21.755,7.517-33.02,9.976c-4.637,1.007-9.461,1.873-14.098,0.866
		c-11.498-2.459-22.997-4.918-34.472-7.353c-1.124-0.258-2.553-1.03-2.131-2.084c11.358,2.248,22.739,4.496,34.097,6.768
		c15.643,3.091,31.333-3.583,46.321-9.086c5.316-1.967,10.843-3.794,16.51-3.442c4.52,0.281,8.829,1.944,13.044,3.606
		c12.95,5.082,25.877,10.14,38.804,15.222c6.299,2.459,13.676,6.44,13.676,13.184c0,3.63,4.332,5.691,7.962,5.737
		c3.653,0.047,7.424-0.984,10.843,0.304c3.864,1.499,6.136,5.737,6.51,9.882c0.351,4.145-0.843,8.243-2.014,12.248
		c0.234-3.372,0.468-6.721,0.726-10.07c0.187-2.763,0.304-5.808-1.405-7.986c-2.014-2.553-5.667-2.88-8.899-3.021
		c-4.168-0.164-8.313-0.351-12.458-0.515c1.077,4.449,1.147,9.18,0.141,13.653c-0.703,3.208,2.014,6.323,5.105,7.47
		c3.091,1.147,6.487,0.913,9.789,1.218c3.279,0.304,6.815,1.358,8.594,4.122c1.452,2.272,1.382,5.199,1.148,7.892
		c-0.422,5.175-1.405,10.655-4.965,14.449c-3.56,3.77-10.468,4.73-13.7,0.679c4.871,2.459,11.451,0.796,14.543-3.7
		c2.74-3.958,2.717-9.157,2.576-13.957c-0.047-2.131-0.258-4.543-1.967-5.808c-0.82-0.609-1.85-0.82-2.857-1.03
		c-5.737-1.171-11.475-2.342-17.212-3.513c2.037,4.262,4.075,8.524,6.112,12.786c1.265,2.646,2.553,5.667,1.475,8.384
		c-1.616,4.122-7.143,4.637-11.569,4.473c4.145,2.225,8.313,4.449,12.458,6.674c1.265,0.679,2.646,1.475,3.161,2.834
		c0.562,1.429-0.023,3.044-0.609,4.473c-1.616,4.005-3.302,8.103-6.229,11.288c-2.927,3.185-7.424,5.293-11.615,4.215
		c2.787,2.67,2.108,7.189,1.194,10.913c-0.82,3.208-1.733,6.534-4.028,8.922c-2.272,2.389-6.346,3.396-8.899,1.288
		c-7.845-6.44-18.735-7.189-28.851-7.845c-10.117-0.679-21.1-1.92-28.383-8.969c-13.91-13.395-37.914-14.051-48.71-30.069
		c-0.89-1.335-2.412-2.061-3.887-2.693c-10.515-4.52-21.919-6.955-33.371-7.119c-1.429-0.023-3.325-0.422-3.396-1.85
		c13.629-0.328,27.329,2.646,39.577,8.641c-1.944-5.058-2.623-10.632-1.944-16.018c0.82,7.025,1.756,14.402,5.925,20.116
		c2.108,2.88,4.941,5.175,7.962,7.072c10.257,6.557,22.786,8.993,32.762,15.995c3.958,2.763,7.447,6.229,11.662,8.594
		c11.545,6.487,25.994,3.7,38.898,6.768c-2.787-2.529-6.276-4.262-9.953-4.918c3.7-1.92,7.775,1.452,11.007,4.098
		c3.981,3.255,8.641,5.714,13.606,7.166c1.429,0.422,3.068,0.726,4.309-0.094C170.991,179.91,171.46,178.88,171.881,177.92
		 M191.763,144.244c0.937-1.218,0.562-3.091-0.468-4.286c-1.007-1.171-2.482-1.827-3.911-2.435
		c-8.196-3.536-16.393-7.072-24.589-10.585c-4.356-1.873-8.969-3.021-13.583-4.145c-6.042-1.475-12.084-2.974-18.149-4.449
		c-0.726-0.187-1.522-0.351-2.225-0.117c-0.539,0.164-0.984,0.539-1.382,0.937c-3.513,3.466-5.339,8.548-4.894,13.442
		c3.115-0.281,6.229-0.468,9.344-0.562c4.028-0.117,8.22-0.023,11.85,1.733c1.944,0.937,3.653,2.318,5.316,3.677
		c8.267,6.768,16.557,13.512,24.121,21.053c0.562,0.562,1.475,0.562,2.272,0.515c2.412-0.117,4.918-0.258,7.072-1.405
		C187.384,155.04,188.414,148.6,191.763,144.244 M154.247,106.916c-0.375-0.234-0.796-0.304-1.241-0.351
		c-1.358-0.187-2.74-0.351-4.122-0.468c-2.529-0.234-5.058-0.281-7.611-0.351c-2.951-0.047-6.065-0.094-8.641,1.358
		c-3.091,1.71-4.848,5.503-4.168,8.969c0.094,0.375,0.304,0.843,0.703,0.843c2.904-0.117,5.784,0.632,8.618,1.358
		c4.028,1.03,8.079,2.084,12.131,3.138c4.192,1.077,8.407,2.154,12.458,3.7c-2.459-2.623-4.215-5.925-5.035-9.438
		c-0.304-1.358-0.539-2.857-1.546-3.817C154.482,110.639,155.723,107.923,154.247,106.916 M157.69,63.709
		c0.234,0.07,0.492,0.141,0.726,0.094c0.258-0.07,0.468-0.304,0.515-0.539c-1.03-0.82-2.389-1.194-3.677-1.054
		C155.933,62.866,156.777,63.381,157.69,63.709 M133.429,95.3c-0.047-0.281-0.094-0.562-0.117-0.843
		c-0.585,0.843-0.562,2.061,0.023,2.904c0.281-0.632,0.258-1.382-0.047-2.014"/>
</g>
</svg>
